<svg xmlns="http://www.w3.org/2000/svg" viewBox="0 0 893.41 550.45"><defs><style>.cls-1,.cls-16{fill:#d62d2e;}.cls-2{fill:#263238;}.cls-3{fill:#e0e0e0;}.cls-4{fill:#fafafa;}.cls-5{fill:#f5f5f5;}.cls-6{fill:#ebebeb;}.cls-7{fill:#c78976;}.cls-8{fill:#b66955;}.cls-9{fill:#455a64;}.cls-10{opacity:0.3;}.cls-11{fill:#e8505b;}.cls-12,.cls-14{opacity:0.5;}.cls-13,.cls-14{fill:#fff;}.cls-15{fill:none;stroke:#d62d2e;stroke-miterlimit:10;}.cls-16{font-size:13.53px;font-family:Montserrat-Regular, Montserrat;}.cls-17{letter-spacing:-0.01em;}.cls-18{fill:#ae7461;}.cls-19{fill:#6f4439;}.cls-20{opacity:0.6;}</style></defs><g id="Background_Complete" data-name="Background Complete"><path class="cls-1" d="M288.57,80.42l-5.15,1.84-2.2-6.73c-4.07-12.41-17-19.05-28.9-14.81s-18.22,17.8-14.15,30.21l2.2,6.73-5.17,1.85a8.22,8.22,0,0,0-4.82,10.28l14.34,43.79a7.72,7.72,0,0,0,9.85,5.11L308,139.59a8.26,8.26,0,0,0,4.86-10.37L298.48,85.43A7.71,7.71,0,0,0,288.57,80.42Zm-40.68,7a13.21,13.21,0,0,1,7.76-16.56A12.37,12.37,0,0,1,271.48,79l2.21,6.73L250.1,94.18Zm30,38.85,3.66,11.19a.89.89,0,0,1-.57,1.12l-5.12,1.83a.83.83,0,0,1-1.05-.54l-3.66-11.19a10,10,0,0,1-9-7,10.51,10.51,0,0,1,6.19-13.18A9.85,9.85,0,0,1,280.93,115,10.68,10.68,0,0,1,277.9,126.3Z" transform="translate(-13.9 -28.31)"/><path class="cls-2" d="M283.2,82.14c0,.13-9.55,3.73-21.44,8s-21.57,7.68-21.62,7.54,9.55-3.73,21.44-8S283.15,82,283.2,82.14Z" transform="translate(-13.9 -28.31)"/><path class="cls-2" d="M294.53,84a1,1,0,0,1,.11.26c.08.21.18.46.3.79.25.73.61,1.74,1.06,3,.92,2.67,2.23,6.48,3.84,11.18s3.51,10.35,5.63,16.6c1,3.13,2.18,6.38,3.28,9.82a14.59,14.59,0,0,1,.75,5.49,6.94,6.94,0,0,1-2.7,5,18,18,0,0,1-5.08,2.6l-5.15,1.85-9.75,3.49L270.31,150l-11.15,3.92-3,1-.79.26-.28.07a1,1,0,0,1,.26-.12l.78-.31,3-1.13,11.09-4.08,16.48-6,9.74-3.51,5.15-1.86a17.47,17.47,0,0,0,4.92-2.51,7,7,0,0,0,1.76-2.07,6.68,6.68,0,0,0,.75-2.57,14.15,14.15,0,0,0-.72-5.29c-1.08-3.41-2.22-6.69-3.25-9.82-2.07-6.26-3.94-11.89-5.52-16.64s-2.8-8.54-3.68-11.23c-.41-1.3-.74-2.32-1-3.06-.1-.33-.18-.59-.25-.8A1,1,0,0,1,294.53,84Z" transform="translate(-13.9 -28.31)"/><path class="cls-2" d="M266.38,70.19s-.54-.27-1.52-.66a13.19,13.19,0,0,0-4.36-.88,14.84,14.84,0,0,0-6.45,1.22A14.39,14.39,0,0,0,247.94,75a13.47,13.47,0,0,0-2.35,7.59,23.31,23.31,0,0,0,1,6.54c.53,1.83,1.07,3.28,1.42,4.28a12.24,12.24,0,0,1,.52,1.58,10,10,0,0,1-.71-1.5c-.41-1-1-2.42-1.58-4.25a22.74,22.74,0,0,1-1.15-6.65,13.89,13.89,0,0,1,2.4-7.89,14.61,14.61,0,0,1,6.35-5.25,14.79,14.79,0,0,1,6.65-1.15,12.56,12.56,0,0,1,4.43,1.06,9.35,9.35,0,0,1,1.09.59C266.27,70.09,266.39,70.17,266.38,70.19Z" transform="translate(-13.9 -28.31)"/><path class="cls-2" d="M266.83,109.32a2.87,2.87,0,0,1,.51-.25,10.22,10.22,0,0,1,1.54-.56,11.14,11.14,0,0,1,2.6-.43,9,9,0,0,1,3.51.52c2.55.9,4.91,3.51,6.06,7a10,10,0,0,1,.05,5.75,13,13,0,0,1-3.27,5.4l.06-.26c1.33,3.64,2.78,7.61,4.28,11.74l.09.25-.25.08-2.28.77-5,1.66-.25.09-.08-.25c-1.37-4.15-2.87-8.05-4-11.79l.22.17a10,10,0,0,1-5.35-2.12,12,12,0,0,1-3.36-4,9.14,9.14,0,0,1-1.06-4.5,10.69,10.69,0,0,1,.84-3.87,10.42,10.42,0,0,1,3.35-4.39,6.36,6.36,0,0,1,1.73-1,19.27,19.27,0,0,0-1.64,1.09,10.75,10.75,0,0,0-3.18,4.38,9.52,9.52,0,0,0,.31,8.08,11.84,11.84,0,0,0,3.27,3.84,9.59,9.59,0,0,0,5.11,2h.17l.05.16c1.1,3.71,2.61,7.6,4,11.77l-.32-.17,5-1.67,2.29-.76-.17.33c-1.49-4.13-2.93-8.1-4.25-11.75l-.05-.14.12-.12a12.74,12.74,0,0,0,3.16-5.17,9.67,9.67,0,0,0,0-5.49c-1.09-3.36-3.34-5.92-5.77-6.81a8.64,8.64,0,0,0-3.4-.57,10.9,10.9,0,0,0-2.56.35C267.55,109,266.85,109.36,266.83,109.32Z" transform="translate(-13.9 -28.31)"/><path class="cls-3" d="M39.73,443.54a33.63,33.63,0,0,0-14.49-5c-2.37-.25-5-.18-6.86,1.26a1.41,1.41,0,0,0-.71,1.25,1.61,1.61,0,0,0,.67.86c5.9,4.5,14.83,5.06,21.39,1.62" transform="translate(-13.9 -28.31)"/><path class="cls-3" d="M39.36,443.13A71.32,71.32,0,0,1,30,434.89,23.7,23.7,0,0,1,24.13,424a4.39,4.39,0,0,1,.46-3.63c7.47,5.83,13.33,13.37,14.77,22.73" transform="translate(-13.9 -28.31)"/><path class="cls-3" d="M39.66,443.48a33.83,33.83,0,0,1,.17-12.29A16.62,16.62,0,0,1,46.38,421c1.29,3,.73,6.49-.17,9.64a46.83,46.83,0,0,1-6.5,13.67" transform="translate(-13.9 -28.31)"/><path class="cls-3" d="M47,456.59c-4.44.54-8.31,2.88-11.62,5.88a22,22,0,0,0-6.65,11.42c4.35-.27,8.05-3.34,10.73-6.79s4.54-7.22,7.48-10.44" transform="translate(-13.9 -28.31)"/><path class="cls-3" d="M48.56,458.69a28.71,28.71,0,0,1,3.31-27.13c2.53,9,1.61,19.17-3.31,27.13" transform="translate(-13.9 -28.31)"/><path class="cls-3" d="M58.23,470.2a20.7,20.7,0,0,0-19.82,11.41c-.25.49-.47,1.11-.14,1.55a1.47,1.47,0,0,0,1.32.39c3.9-.25,7.37-2.6,10.22-5.28s5.35-5.77,8.51-8.08" transform="translate(-13.9 -28.31)"/><path class="cls-3" d="M57.92,469.57a36.93,36.93,0,0,1-.37-20.63c.73-2.65,2-5.45,4.41-6.69a.67.67,0,0,1,1.09.37,12.37,12.37,0,0,1,1,5.92,36.93,36.93,0,0,1-.93,6c-.77,3.66-1.18,7.6-3.19,10.76a22.25,22.25,0,0,0-1.27,2.36c-.38.8-.39,1.08-.74,1.72" transform="translate(-13.9 -28.31)"/><path class="cls-3" d="M83.51,473.38c-1.89-7.21.12-15.95,4.66-21.86.34-.44.78-.91,1.33-.85.83.07,1,1.19,1,2a39.36,39.36,0,0,1-7,20.68" transform="translate(-13.9 -28.31)"/><path class="cls-3" d="M85.82,475a31.82,31.82,0,0,0,26.1-5.31,21.12,21.12,0,0,0-14.13-1.73c-4.72,1.08-9,3.19-12,7" transform="translate(-13.9 -28.31)"/><path class="cls-3" d="M87.76,470.16c4.91-8,14.32-13.22,23.69-13.7-1.08,3.81-4.21,6.78-7.75,8.57s-7.48,2.57-11.37,3.32c-1.51.3-3.58.62-4.57,1.81" transform="translate(-13.9 -28.31)"/><path class="cls-3" d="M84,446.86A69.15,69.15,0,0,0,87,433c.36-4.73-.31-9.67-2.76-13.73-4.59,8.87-5,19.24-.41,28.07" transform="translate(-13.9 -28.31)"/><path class="cls-3" d="M99.43,439.06c5.36-9.74,16.3-17.53,27.36-18.62-4.27,10.63-15.91,18.85-27.36,18.62" transform="translate(-13.9 -28.31)"/><path class="cls-3" d="M96.06,441c8,1.22,14.8,6.32,22.27,9.42a10,10,0,0,0,5,1,3.94,3.94,0,0,0,2.47-7,10.71,10.71,0,0,0-3.66-2.22c-8.14-3.39-16.86-3.47-25.43-1.42" transform="translate(-13.9 -28.31)"/><path class="cls-3" d="M91.43,446.57c1.81.52,2.43,1.46,3.86,2.68a41.75,41.75,0,0,0,16.9,8.68c.64.16,1.49.22,1.81-.36s-.08-1.13-.44-1.58a23.23,23.23,0,0,0-10.2-6.92c-3.9-1.46-7.27-3.21-11.93-2.83" transform="translate(-13.9 -28.31)"/><path class="cls-3" d="M86.21,412.71a32,32,0,0,0,24.51,8.34,1.71,1.71,0,0,0,1.12-.4c.61-.67-.13-1.71-.84-2.27-7.21-5.62-15.94-7.95-24.79-5.67" transform="translate(-13.9 -28.31)"/><path class="cls-3" d="M92.4,410.45A34.13,34.13,0,0,1,123,405.4a24.24,24.24,0,0,1-14.57,6.4,46.26,46.26,0,0,1-16-1.35" transform="translate(-13.9 -28.31)"/><path class="cls-3" d="M89.94,394.88c-.71-7.19-.25-12.86-.75-20.09,0-.58-.16-1.27-.7-1.48-.75-.29-1.38.63-1.62,1.4a23,23,0,0,0,3.06,20" transform="translate(-13.9 -28.31)"/><path class="cls-3" d="M89.42,395.68a42.26,42.26,0,0,0,11.92-11.58c2.35-3.22,4.34-7.08,3.8-11a11.43,11.43,0,0,0-8.59,4.27,23.91,23.91,0,0,0-4.38,8.81c-1,3.17-1.63,6.42-2.75,9.53" transform="translate(-13.9 -28.31)"/><path class="cls-3" d="M101.13,392.43a96.06,96.06,0,0,0,29.32-17.29c-3.5-1.41-7.51-.57-11,.85A34.73,34.73,0,0,0,101,392.35" transform="translate(-13.9 -28.31)"/><path class="cls-3" d="M92.72,399.61c5.41.6,10.91,1,16.28.08s10.26-3,15.19-5.05a1.77,1.77,0,0,0,1-.78,1.21,1.21,0,0,0-.37-1.3,3.18,3.18,0,0,0-1.3-.61c-5.36-1.5-11.15-.8-16.42,1a76.4,76.4,0,0,0-14.42,6.68" transform="translate(-13.9 -28.31)"/><path class="cls-3" d="M61.81,413c-3.69-7.46-3.45-16.16-.26-23.84,2.24,3.42,2.52,7.78,2.11,11.85s-1.65,8.27-1.73,12.36" transform="translate(-13.9 -28.31)"/><path class="cls-3" d="M47.06,405.52A33.22,33.22,0,0,0,22.36,416a23,23,0,0,0,13.52-2.51,68,68,0,0,0,11.59-7.76" transform="translate(-13.9 -28.31)"/><path class="cls-3" d="M37.14,402.2c-4.51-.37-8.85-.92-13.19.4a15.84,15.84,0,0,0-10,8.53,23.94,23.94,0,0,0,12.37-2.34,71.37,71.37,0,0,0,10.87-6.59" transform="translate(-13.9 -28.31)"/><path class="cls-3" d="M51.83,402.35c-4.06-2.66-8.23-5.36-12.95-6.47s-10.2-.28-13.5,3.28c3.83,2.24,8.47,2.51,12.9,2.5s9.87-.05,14,1.43" transform="translate(-13.9 -28.31)"/><path class="cls-3" d="M51.85,402.57c-6.94-6.82-9.57-19.05-6.78-28.36a43.15,43.15,0,0,1,6.78,28.36" transform="translate(-13.9 -28.31)"/><path class="cls-3" d="M70.92,383.27c1.31-3,2.23-6.24,3.41-9.33a26.67,26.67,0,0,1,4.85-8.6,12.77,12.77,0,0,1,8.59-4.46,34.62,34.62,0,0,1-16.68,22.44" transform="translate(-13.9 -28.31)"/><path class="cls-3" d="M67.47,387.29c-2.16-3-4.66-7-7.6-9.25s-6.76-3.57-10.34-2.72a24.07,24.07,0,0,0,17.94,12" transform="translate(-13.9 -28.31)"/><path class="cls-3" d="M68.16,383.51a51.1,51.1,0,0,1-3.42-11.08,17.32,17.32,0,0,1,1.74-11.27c3.8,7.2,5,14.93,1.88,22.44" transform="translate(-13.9 -28.31)"/><path class="cls-3" d="M71,361.16c2.16-7.13,8.69-12.38,15.74-14.8a6,6,0,0,1,2.76-.41,2.4,2.4,0,0,1,2,1.7c.25,1.21-.75,2.3-1.69,3.11A53.57,53.57,0,0,1,71,361.16" transform="translate(-13.9 -28.31)"/><path class="cls-3" d="M71,355.33c.27-4.6.56-9.27,2-13.63s4.38-8.45,8.58-10.35c.71,4.64-1.34,9.27-3.81,13.26s-5.45,7.78-6.94,12.24" transform="translate(-13.9 -28.31)"/><path class="cls-3" d="M70.92,358.5c-1.78-5.2-2-11.81-5.08-16.34-2.17-3.17-5.66-5.32-7.53-8.68a13.19,13.19,0,0,0,.43,9.85,28.73,28.73,0,0,0,5.76,8.25c2.31,2.46,4.28,4.31,6.42,6.92" transform="translate(-13.9 -28.31)"/><path class="cls-3" d="M71,511.63c-.14,0-.26-34.69-.27-77.47s.1-77.48.23-77.48.26,34.69.27,77.48S71.1,511.63,71,511.63Z" transform="translate(-13.9 -28.31)"/><path class="cls-3" d="M101.27,407.72a6.31,6.31,0,0,1-1.3.49l-3.59,1.21c-3,1-7.18,2.53-11.7,4.38S76,417.27,73.6,419.35a8.08,8.08,0,0,0-2.23,2.94c-.34.82-.4,1.32-.45,1.31a1.3,1.3,0,0,1,0-.37,6,6,0,0,1,.25-1,7.9,7.9,0,0,1,2.18-3.14,19.37,19.37,0,0,1,4.8-3c1.93-.9,4.06-1.84,6.32-2.77,4.53-1.85,8.72-3.3,11.78-4.24,1.53-.48,2.78-.83,3.64-1.06A8,8,0,0,1,101.27,407.72Z" transform="translate(-13.9 -28.31)"/><path class="cls-3" d="M111.21,383.32a3.12,3.12,0,0,1-.37.39l-1.11,1-4.15,3.78L91.74,400.84c-5.4,4.81-10.06,9.4-13.29,12.86-1.62,1.72-2.9,3.15-3.77,4.15l-1,1.15a2.58,2.58,0,0,1-.38.38,2.43,2.43,0,0,1,.3-.44c.21-.28.51-.7.93-1.21.83-1,2.06-2.51,3.65-4.27a174.9,174.9,0,0,1,13.23-13c5.42-4.8,10.35-9.1,13.93-12.21l4.26-3.66,1.18-1C111.05,383.41,111.2,383.3,111.21,383.32Z" transform="translate(-13.9 -28.31)"/><path class="cls-3" d="M85.92,405.73c-.15-.07,1-2.67,2.11-6s1.66-6.08,1.81-6a20.41,20.41,0,0,1-1.34,6.21,40,40,0,0,1-1.68,4.17A6.51,6.51,0,0,1,85.92,405.73Z" transform="translate(-13.9 -28.31)"/><path class="cls-3" d="M71,426.72a6,6,0,0,1-.83-1L68,423c-1.79-2.32-4.27-5.51-7-9s-5.33-6.63-7.18-8.9c-.87-1.08-1.6-2-2.17-2.7a6.62,6.62,0,0,1-.76-1,5.78,5.78,0,0,1,.9.91c.56.6,1.35,1.49,2.31,2.59,1.91,2.21,4.51,5.32,7.29,8.82s5.21,6.73,6.93,9.1c.86,1.19,1.54,2.16,2,2.83A6,6,0,0,1,71,426.72Z" transform="translate(-13.9 -28.31)"/><path class="cls-3" d="M64.34,418.19A12.2,12.2,0,0,1,61.56,413a14.66,14.66,0,0,1-.63-5.26l.22,0c-.1.4-.17.61-.21.61s0-.23,0-.65l.22,0a23.68,23.68,0,0,0,.89,5.12A40.4,40.4,0,0,0,64.34,418.19Z" transform="translate(-13.9 -28.31)"/><path class="cls-3" d="M55.76,407.4a8.72,8.72,0,0,0-1.94-1.13,12.79,12.79,0,0,0-5.4-.43,33.39,33.39,0,0,0-5.44.88,15.93,15.93,0,0,1-2.23.53,7.77,7.77,0,0,1,2.14-.88,24.79,24.79,0,0,1,5.49-1,11.76,11.76,0,0,1,5.57.6A3.36,3.36,0,0,1,55.76,407.4Z" transform="translate(-13.9 -28.31)"/><path class="cls-3" d="M53.73,404.78c0,.08-1.13-.45-3-1.08a30.05,30.05,0,0,0-15-1.15c-1.92.35-3.08.71-3.11.62a2.88,2.88,0,0,1,.79-.33,17.71,17.71,0,0,1,2.25-.64,26.64,26.64,0,0,1,15.2,1.16,17.84,17.84,0,0,1,2.13,1A3.13,3.13,0,0,1,53.73,404.78Z" transform="translate(-13.9 -28.31)"/><path class="cls-3" d="M70.92,393.72a64.45,64.45,0,0,1-2.17-7.55,60.51,60.51,0,0,1-1.68-7.67,64.45,64.45,0,0,1,2.17,7.55A60.51,60.51,0,0,1,70.92,393.72Z" transform="translate(-13.9 -28.31)"/><path class="cls-3" d="M71.06,393.72a35.73,35.73,0,0,0-2.41-4.52,19.9,19.9,0,0,0-3.54-3.66,3.4,3.4,0,0,1,1.37.71,11,11,0,0,1,2.58,2.66A10,10,0,0,1,71.06,393.72Z" transform="translate(-13.9 -28.31)"/><path class="cls-3" d="M71,493.14c-.06,0-.16-.83-.55-2.3a32.44,32.44,0,0,0-2.32-6c-2.39-4.9-6.75-11.11-12.3-17.33-2.74-3.14-5.41-6.1-7.67-8.93a63.62,63.62,0,0,1-5.48-7.91,37.53,37.53,0,0,1-2.77-5.87c-.26-.73-.44-1.29-.55-1.68a3.19,3.19,0,0,1-.14-.6s.3.79.87,2.21a43,43,0,0,0,2.89,5.76,66.55,66.55,0,0,0,5.54,7.8c2.27,2.81,4.94,5.75,7.69,8.89,5.56,6.24,9.91,12.53,12.24,17.5a29.67,29.67,0,0,1,2.19,6.12,17.4,17.4,0,0,1,.31,1.74A2.55,2.55,0,0,1,71,493.14Z" transform="translate(-13.9 -28.31)"/><path class="cls-3" d="M98.35,462.2a12.78,12.78,0,0,1-1.43.81,30.39,30.39,0,0,0-3.73,2.46,42.79,42.79,0,0,0-4.89,4.46c-1.71,1.81-3.48,3.92-5.29,6.17-3.61,4.53-7,8.54-9,11.74-1,1.58-1.77,2.92-2.26,3.86a12.9,12.9,0,0,1-.79,1.44s0-.14.13-.41.25-.64.48-1.12a36.1,36.1,0,0,1,2.14-4c2-3.28,5.31-7.34,8.91-11.86,1.81-2.26,3.6-4.37,5.35-6.18a40.14,40.14,0,0,1,5-4.43,26.38,26.38,0,0,1,3.85-2.35c.47-.23.86-.38,1.12-.49A1.5,1.5,0,0,1,98.35,462.2Z" transform="translate(-13.9 -28.31)"/><path class="cls-3" d="M98.89,472.24a22.38,22.38,0,0,1-3,.44,39.2,39.2,0,0,0-7.19,1.42,21.51,21.51,0,0,0-6.45,3.38c-1.48,1.15-2.18,2.1-2.25,2s.12-.28.45-.7A11.41,11.41,0,0,1,82,477.2a19.65,19.65,0,0,1,6.51-3.58,32.58,32.58,0,0,1,7.32-1.29A16,16,0,0,1,98.89,472.24Z" transform="translate(-13.9 -28.31)"/><path class="cls-3" d="M80.84,478.42c-.15-.09,1.21-2.18,2.27-5s1.23-5.32,1.41-5.29a4.73,4.73,0,0,1,0,1.63,17.94,17.94,0,0,1-.88,3.83,18.77,18.77,0,0,1-1.76,3.52A5.19,5.19,0,0,1,80.84,478.42Z" transform="translate(-13.9 -28.31)"/><path class="cls-3" d="M107.22,435.25a1.79,1.79,0,0,1-.48.26l-1.43.65c-.62.27-1.38.61-2.24,1.06s-1.85.9-2.89,1.52l-1.66.94c-.57.33-1.14.72-1.75,1.1-1.22.74-2.44,1.65-3.74,2.59A64.23,64.23,0,0,0,78.59,458.3c-.88,1.34-1.75,2.59-2.45,3.84-.36.61-.73,1.19-1,1.78s-.6,1.15-.89,1.69c-.59,1.06-1,2.07-1.42,2.95s-.73,1.63-1,2.27l-.6,1.44a2.31,2.31,0,0,1-.24.5,1.74,1.74,0,0,1,.15-.53c.13-.39.3-.88.51-1.48s.51-1.43.9-2.32.79-1.91,1.37-3c.27-.55.56-1.12.86-1.72s.67-1.18,1-1.8c.69-1.27,1.55-2.54,2.43-3.89a67,67,0,0,1,6.63-8.14A68.54,68.54,0,0,1,92.75,443c1.32-.92,2.56-1.83,3.8-2.56.61-.37,1.19-.76,1.77-1.08l1.69-.92c1-.61,2.07-1.05,2.94-1.47s1.65-.74,2.29-1l1.46-.56A2.73,2.73,0,0,1,107.22,435.25Z" transform="translate(-13.9 -28.31)"/><path class="cls-3" d="M85.54,449.78a3.54,3.54,0,0,1,1.2-1.78,7.53,7.53,0,0,1,4.8-1.84,13.12,13.12,0,0,1,5,1,6.83,6.83,0,0,1,1.91.93,12.14,12.14,0,0,1-2-.6,15.65,15.65,0,0,0-4.93-.82A7.82,7.82,0,0,0,87,448.27,13.78,13.78,0,0,0,85.54,449.78Z" transform="translate(-13.9 -28.31)"/><path class="cls-3" d="M82.3,453.12a17.52,17.52,0,0,0,1.37-4.43,18,18,0,0,0-.31-4.64,2.86,2.86,0,0,1,.56,1.3,8.87,8.87,0,0,1,.24,3.39,9,9,0,0,1-1,3.25C82.73,452.76,82.35,453.16,82.3,453.12Z" transform="translate(-13.9 -28.31)"/><path class="cls-3" d="M47,498.11c.75,13.26,4.74,26.74,10.89,40.37H84.61c5.86-13.49,9.58-27,10.24-40.37Z" transform="translate(-13.9 -28.31)"/><path class="cls-4" d="M90.52,519.56c0,.14-8.8.26-19.65.26s-19.65-.12-19.65-.26,8.79-.25,19.65-.25S90.52,519.43,90.52,519.56Z" transform="translate(-13.9 -28.31)"/><path class="cls-4" d="M89.92,524.37c0,.14-8.25.25-18.42.25s-18.42-.11-18.42-.25,8.24-.25,18.42-.25S89.92,524.23,89.92,524.37Z" transform="translate(-13.9 -28.31)"/><path class="cls-4" d="M58.32,506.82a75.89,75.89,0,0,1,0,12.31,75.89,75.89,0,0,1,0-12.31Z" transform="translate(-13.9 -28.31)"/><path class="cls-4" d="M72.63,506.82a78.16,78.16,0,0,1,0,12.74,81.28,81.28,0,0,1,0-12.74Z" transform="translate(-13.9 -28.31)"/><path class="cls-4" d="M86.07,506.71a81.38,81.38,0,0,1,0,13,84.62,84.62,0,0,1,0-13Z" transform="translate(-13.9 -28.31)"/><path class="cls-4" d="M94,506.82c0,.14-10.32.25-23,.25s-23-.11-23-.25,10.31-.25,23-.25S94,506.68,94,506.82Z" transform="translate(-13.9 -28.31)"/><circle class="cls-3" cx="762.45" cy="480.27" r="72.58" transform="translate(-130.19 651.49) rotate(-45)"/><path class="cls-3" d="M828.62,460.35,821,449.8a15.06,15.06,0,1,0-18-24.11l-8-10.27a28.06,28.06,0,1,1,33.6,44.93Z" transform="translate(-13.9 -28.31)"/><rect class="cls-5" x="521.77" y="165.61" width="31.95" height="68.39"/><rect class="cls-5" x="555.04" y="238.79" width="39.26" height="66.08"/><polygon class="cls-5" points="599.08 164.43 636.37 164.43 636.37 103.76 637.69 103.76 637.69 164.43 672.2 164.43 672.2 102.41 599.08 102.41 599.08 164.43"/><rect class="cls-5" x="521.77" y="238.79" width="31.95" height="66.08"/><rect class="cls-5" x="637.69" y="238.79" width="34.5" height="66.08"/><rect class="cls-5" x="555.04" y="165.61" width="39.26" height="68.39"/><rect class="cls-5" x="637.69" y="165.61" width="34.5" height="68.39"/><rect class="cls-5" x="521.77" y="306.05" width="31.95" height="59.55"/><polygon class="cls-5" points="553.72 164.43 553.72 103.76 555.04 103.76 555.04 164.43 594.31 164.43 594.31 102.41 521.77 102.41 521.77 164.43 553.72 164.43"/><rect class="cls-5" x="555.04" y="306.05" width="39.26" height="59.55"/><rect class="cls-5" x="637.69" y="306.05" width="34.5" height="59.55"/><rect class="cls-5" x="599.08" y="165.61" width="37.28" height="68.39"/><rect class="cls-5" x="599.08" y="306.05" width="37.28" height="59.55"/><rect class="cls-5" x="599.08" y="238.79" width="37.28" height="66.08"/><rect class="cls-5" x="366.05" y="165.61" width="31.95" height="68.39"/><rect class="cls-5" x="399.33" y="238.79" width="39.26" height="66.08"/><polygon class="cls-5" points="443.37 164.43 480.65 164.43 480.65 103.76 481.98 103.76 481.98 164.43 516.48 164.43 516.48 102.41 443.37 102.41 443.37 164.43"/><rect class="cls-5" x="366.05" y="238.79" width="31.95" height="66.08"/><rect class="cls-5" x="481.97" y="238.79" width="34.5" height="66.08"/><rect class="cls-5" x="399.33" y="165.61" width="39.26" height="68.39"/><rect class="cls-5" x="481.97" y="165.61" width="34.5" height="68.39"/><rect class="cls-5" x="366.05" y="306.05" width="31.95" height="59.55"/><polygon class="cls-5" points="398 164.43 398 103.76 399.33 103.76 399.33 164.43 438.59 164.43 438.59 102.41 366.05 102.41 366.05 164.43 398 164.43"/><rect class="cls-5" x="399.33" y="306.05" width="39.26" height="59.55"/><rect class="cls-5" x="481.97" y="306.05" width="34.5" height="59.55"/><rect class="cls-5" x="443.37" y="165.61" width="37.28" height="68.39"/><rect class="cls-5" x="443.37" y="306.05" width="37.28" height="59.55"/><rect class="cls-5" x="443.37" y="238.79" width="37.28" height="66.08"/><rect class="cls-6" x="560.2" y="398.39" width="48.65" height="12.87"/><rect class="cls-6" x="776.35" y="230.08" width="48.65" height="12.87"/><path class="cls-3" d="M602.19,453.13a1.17,1.17,0,0,1,0-.23l0-.67c0-.6,0-1.45,0-2.53,0-2.22,0-5.41-.09-9.44l.16.15-48.65.1c.11-.11-.25.24.24-.25h0v12.85l-.25-.24,34.67.11,10.24.07,2.77,0h.72l.26,0H602l-.69,0-2.72,0-10.18.07-34.84.11h-.24V440.28h0c.5-.5.14-.14.26-.25l48.65.1h.15v.15c0,4.06-.07,7.29-.09,9.53,0,1.07,0,1.9,0,2.5,0,.26,0,.47,0,.63A1.48,1.48,0,0,1,602.19,453.13Z" transform="translate(-13.9 -28.31)"/><rect class="cls-6" x="156.68" y="319.69" width="48.65" height="12.87"/><path class="cls-3" d="M198.66,374.43a2.07,2.07,0,0,1,0-.23l0-.66c0-.61,0-1.45,0-2.53,0-2.23,0-5.42-.09-9.45l.15.15-48.65.1.25-.25h0v6.52c0,2.15,0,4.26,0,6.33l-.24-.24,34.67.11,10.24.07,2.76,0,.73,0h.25s-.07,0-.22,0h-.7l-2.71,0-10.18.07-34.84.11h-.24v-.25q0-3.1,0-6.33v-6.52h0l.25-.25,48.65.1h.16v.15c0,4.07-.06,7.29-.08,9.54,0,1.06,0,1.9,0,2.49,0,.26,0,.47,0,.64S198.67,374.44,198.66,374.43Z" transform="translate(-13.9 -28.31)"/><path class="cls-3" d="M789,359.73a1,1,0,0,1,0-.23c0-.17,0-.39,0-.66,0-.61,0-1.45,0-2.53,0-2.23,0-5.42-.08-9.45l.15.15-48.65.1c.11-.11-.25.25.24-.25h0v12.86l-.24-.24,34.67.11,10.23.07,2.77,0,.72,0H789l-.23,0h-.69l-2.72,0-10.17.07-34.84.11h-.25V346.87h0l.25-.25,48.65.1h.15v.15c0,4.07-.07,7.29-.08,9.54,0,1.06,0,1.9,0,2.49l0,.64A1.23,1.23,0,0,1,789,359.73Z" transform="translate(-13.9 -28.31)"/><path class="cls-3" d="M795.59,346.86s0-.09,0-.24,0-.41,0-.68c0-.64,0-1.5,0-2.59,0-2.25,0-5.44-.09-9.36l.17.18-29.23.07.25-.25h0v6.62c0,2.15,0,4.24,0,6.24l-.24-.23,20.91.11,6.09.06,1.65,0,.58,0a3.28,3.28,0,0,1-.53,0l-1.59,0-6,.07-21.07.11h-.23v-.24c0-2,0-4.09,0-6.24V334h0l.25-.25,29.23.07h.18V334c0,4-.07,7.19-.09,9.47,0,1.07,0,1.92,0,2.54A4.88,4.88,0,0,1,795.59,346.86Z" transform="translate(-13.9 -28.31)"/><path class="cls-3" d="M747.3,165.3a1.35,1.35,0,0,1,0-.24c0-.17,0-.39,0-.66,0-.6,0-1.45,0-2.53,0-2.22-.05-5.42-.08-9.44l.15.15-48.65.09.24-.24h0V165.3l-.24-.24,34.67.11,10.23.06,2.77,0H747l.26,0h-.23l-.69,0-2.72,0-10.17.07-34.84.11h-.25V152.45h0l.25-.25,48.65.1h.15v.15c0,4.06-.07,7.29-.08,9.53,0,1.07,0,1.9,0,2.5l0,.63A1.66,1.66,0,0,1,747.3,165.3Z" transform="translate(-13.9 -28.31)"/><path class="cls-3" d="M753.89,152.43s0-.09,0-.25,0-.41,0-.68c0-.63,0-1.49-.05-2.58,0-2.26,0-5.44-.09-9.36l.17.17-29.23.07c-.22.23.3-.3.25-.24h0v6.61c0,2.15,0,4.24,0,6.24l-.24-.24,20.91.11,6.09.07,1.65,0,.58,0a3.28,3.28,0,0,1-.53,0l-1.59,0-6,.06-21.07.11h-.23v-.23c0-2,0-4.09,0-6.24v-6.61h0l.25-.25,29.23.07h.18v.18c0,4-.07,7.18-.09,9.47,0,1.07,0,1.91-.05,2.54A5,5,0,0,1,753.89,152.43Z" transform="translate(-13.9 -28.31)"/><path class="cls-3" d="M272.3,188.38a1,1,0,0,1,0-.23v-.66c0-.61,0-1.45,0-2.53,0-2.23-.05-5.42-.08-9.45l.15.15-48.65.1c.11-.11-.25.25.24-.25h0v12.85l-.24-.24,34.67.11,10.23.07,2.77,0,.72,0h.26l-.23,0h-.69l-2.72,0-10.17.06-34.84.11h-.25v-13.1h0l.25-.25,48.65.1h.15v.15c0,4.07-.06,7.29-.08,9.54,0,1.06,0,1.9,0,2.49l0,.64A1.23,1.23,0,0,1,272.3,188.38Z" transform="translate(-13.9 -28.31)"/><path class="cls-3" d="M278.9,175.51a.68.68,0,0,1,0-.24c0-.19,0-.41,0-.69,0-.63,0-1.49-.05-2.58,0-2.25-.05-5.44-.09-9.36l.17.18-29.23.07.25-.25h0v6.61c0,2.15,0,4.24,0,6.24l-.24-.23,20.91.11,6.1.06,1.64,0,.59,0a3.68,3.68,0,0,1-.54,0l-1.59,0-6,.07-21.07.11h-.23v-.24c0-2,0-4.09,0-6.24v-6.61h0l.25-.25,29.23.07h.19v.18c0,4-.07,7.19-.09,9.47,0,1.07,0,1.92-.05,2.54S278.91,175.52,278.9,175.51Z" transform="translate(-13.9 -28.31)"/><path class="cls-2" d="M259.13,427.87l85.22-2.11a9.46,9.46,0,0,1,4,.75c3.18,1.35,8.89,4.82,12.81,13.15,5.69,12.08,32.18,63,32.18,63l-26.8,13.73-32.86-61-101.27-8.6,1.17-8.09Z" transform="translate(-13.9 -28.31)"/><path class="cls-6" d="M358.63,505.65l14,24,.93,6.06a6.8,6.8,0,0,0,7.74,5.68l42.5-6.52a3.32,3.32,0,0,0,2.62-4.55,2.9,2.9,0,0,0-2-1.64c-3.56-.91-31-11-31-11l-11.44-22.9Z" transform="translate(-13.9 -28.31)"/><path class="cls-2" d="M384.49,540.58c-.09,0-.31-.83-.95-2.08a12.34,12.34,0,0,0-8.27-6.49c-1.36-.32-2.25-.34-2.25-.43a5.44,5.44,0,0,1,2.33,0,11.36,11.36,0,0,1,8.55,6.72A5.21,5.21,0,0,1,384.49,540.58Z" transform="translate(-13.9 -28.31)"/><path class="cls-2" d="M413.13,536.46a3.58,3.58,0,0,1-.68-1.59,7.32,7.32,0,0,1,.21-4.17,10.12,10.12,0,0,1,2.21-3.54c.74-.77,1.27-1.15,1.32-1.1s-.38.55-1,1.36a12.63,12.63,0,0,0-2,3.46,8.24,8.24,0,0,0-.35,3.91A9.78,9.78,0,0,1,413.13,536.46Z" transform="translate(-13.9 -28.31)"/><path class="cls-3" d="M356.47,509.2,361,516a2.42,2.42,0,0,0,3.14.8L389,503.65a2.43,2.43,0,0,0,1.12-3l-2.95-7.33a2.41,2.41,0,0,0-3.35-1.24l-26.47,13.67A2.42,2.42,0,0,0,356.47,509.2Z" transform="translate(-13.9 -28.31)"/><path class="cls-2" d="M390,503.2a26.41,26.41,0,0,1-3.59,2.48c-2.27,1.44-5.47,3.36-9.11,5.29s-7,3.47-9.53,4.5c-1.24.51-2.26.9-3,1.15a4.53,4.53,0,0,1-1.14.32,36.13,36.13,0,0,1,3.93-1.9c2.44-1.13,5.78-2.74,9.4-4.66s6.85-3.77,9.18-5.1A31.25,31.25,0,0,1,390,503.2Z" transform="translate(-13.9 -28.31)"/><path class="cls-2" d="M367.13,514.57c-.07.15-2.59-1.59-4.08-4.92s-1.2-6.36-1.05-6.31.18,2.88,1.65,6S367.27,514.42,367.13,514.57Z" transform="translate(-13.9 -28.31)"/><path class="cls-2" d="M376.39,510.57c-.14.09-1.74-2.19-3.38-5.2a25.23,25.23,0,0,1-2.55-5.66c.16-.07,1.44,2.38,3.08,5.37A45.21,45.21,0,0,1,376.39,510.57Z" transform="translate(-13.9 -28.31)"/><path class="cls-2" d="M386.32,504.64c-.2.06-.67-2.93-2.9-5.74s-5-4-4.89-4.18a3.92,3.92,0,0,1,1.83.69,12.18,12.18,0,0,1,5.72,7.29A4.35,4.35,0,0,1,386.32,504.64Z" transform="translate(-13.9 -28.31)"/><path class="cls-2" d="M173.6,335.44A88.94,88.94,0,0,1,169.76,321a31.17,31.17,0,0,1,1-14.81c.25-.71,2.38-5.51,3.11-5.44.53.05-.77,4.51-.5,5,2.59,4.44,3.34,9.8,3,15a69.32,69.32,0,0,1-2.75,14.77" transform="translate(-13.9 -28.31)"/><path class="cls-7" d="M187.22,377.1A14.06,14.06,0,0,1,173.48,363l-.58-46.66c-.55-12.53,6.09-23.29,18.28-23.51l1.13.05a22.1,22.1,0,0,1,20.88,21.52c.42,10.86.74,22.87.44,28.67-.63,12-12.4,13.39-12.4,13.39s0,2.79,0,6.32a14.05,14.05,0,0,1-14,14.29Z" transform="translate(-13.9 -28.31)"/><path class="cls-8" d="M201.23,356.49a27.71,27.71,0,0,1-15-5.27s3.29,9.19,15,8.6Z" transform="translate(-13.9 -28.31)"/><path class="cls-2" d="M208.88,325.12a1.69,1.69,0,0,1-1.68,1.66,1.62,1.62,0,0,1-1.66-1.62,1.7,1.7,0,0,1,1.68-1.67A1.62,1.62,0,0,1,208.88,325.12Z" transform="translate(-13.9 -28.31)"/><path class="cls-2" d="M210.49,319.63c-.21.22-1.44-.8-3.24-.87s-3.15.8-3.33.56.13-.5.73-.9a4.45,4.45,0,0,1,2.68-.73,4.32,4.32,0,0,1,2.56,1C210.43,319.12,210.6,319.54,210.49,319.63Z" transform="translate(-13.9 -28.31)"/><path class="cls-2" d="M192.57,325.12a1.69,1.69,0,0,1-1.68,1.66,1.61,1.61,0,0,1-1.65-1.62,1.69,1.69,0,0,1,1.67-1.67A1.62,1.62,0,0,1,192.57,325.12Z" transform="translate(-13.9 -28.31)"/><path class="cls-2" d="M192.87,319.31c-.22.22-1.45-.8-3.24-.87s-3.15.8-3.34.56.13-.5.73-.9a4.45,4.45,0,0,1,2.68-.73,4.38,4.38,0,0,1,2.57,1C192.8,318.8,193,319.22,192.87,319.31Z" transform="translate(-13.9 -28.31)"/><path class="cls-2" d="M198.74,333.78a12.15,12.15,0,0,1,2.94-.41c.46,0,.9-.11,1-.43a2.49,2.49,0,0,0-.25-1.41c-.39-1.16-.79-2.37-1.21-3.65-1.68-5.19-2.88-9.46-2.67-9.53s1.73,4.09,3.41,9.29c.4,1.28.78,2.5,1.15,3.67a2.76,2.76,0,0,1,.16,1.86,1.13,1.13,0,0,1-.78.66,2.78,2.78,0,0,1-.78.07A10.82,10.82,0,0,1,198.74,333.78Z" transform="translate(-13.9 -28.31)"/><path class="cls-2" d="M193.68,313.56c-.26.46-2-.11-4.11-.25s-3.9.13-4.09-.37c-.09-.23.29-.64,1.05-1a6.6,6.6,0,0,1,3.18-.51,6.74,6.74,0,0,1,3.07,1C193.48,312.88,193.8,313.34,193.68,313.56Z" transform="translate(-13.9 -28.31)"/><path class="cls-2" d="M210.79,314.2c-.38.41-1.83-.06-3.59-.13s-3.26.19-3.59-.26c-.15-.21.1-.63.76-1a5.55,5.55,0,0,1,2.94-.61,5.48,5.48,0,0,1,2.85.93C210.77,313.56,211,314,210.79,314.2Z" transform="translate(-13.9 -28.31)"/><path class="cls-7" d="M173.49,325.32c-.19-.1-7.93-2.79-8,5.44s8,6.61,8,6.38S173.49,325.32,173.49,325.32Z" transform="translate(-13.9 -28.31)"/><path class="cls-8" d="M171.06,334s-.14.09-.38.2a1.31,1.31,0,0,1-1,0c-.84-.32-1.54-1.71-1.57-3.19a5,5,0,0,1,.41-2,1.64,1.64,0,0,1,1.06-1.09.7.7,0,0,1,.82.4c.11.23,0,.39.1.41s.17-.14.11-.48a1,1,0,0,0-.31-.52,1,1,0,0,0-.77-.22,2,2,0,0,0-1.47,1.27,4.92,4.92,0,0,0-.5,2.29c0,1.66.84,3.22,2,3.57a1.41,1.41,0,0,0,1.27-.21C171,334.19,171.09,334,171.06,334Z" transform="translate(-13.9 -28.31)"/><path class="cls-2" d="M208,300.79c1.3-.73-2.59-5.05-5.77-6.54-4.81-2.25-12.15-3.63-16.59-2.34-5.34,1.55-9.78,4.28-12.46,9.28a33,33,0,0,0-3.54,16.53,10,10,0,0,0,1.12,5c1.12,1.82,3.26,3,3.17,5.48a3.45,3.45,0,0,0,.83,2.51c1.46,1.6,3.25.1,4.08-1.41,1.76-3.22,1.95-7.07,2.11-10.77a24.68,24.68,0,0,0-.5-7.82c-.39-1.38-1-2.67-1.34-4.06a5.1,5.1,0,0,1,.57-4.11,5.52,5.52,0,0,1,.65-.68,8.18,8.18,0,0,1,8.28-1.62c4.51,1.65,12.21,4.1,14.22,2.53,2.89-2.26,3.58-3.74,3.58-3.74Z" transform="translate(-13.9 -28.31)"/><path class="cls-2" d="M199.05,339.16c0,.13-.32.44-1.06.6a4.29,4.29,0,0,1-2.9-.45,4.45,4.45,0,0,1-2-2.18c-.27-.71-.23-1.18-.1-1.21.28-.1.87,1.55,2.56,2.47S199,338.89,199.05,339.16Z" transform="translate(-13.9 -28.31)"/><path class="cls-9" d="M206.43,447.22l-37.63-8.28L144.64,379s-32.32,7.17-37.65,25.22c-4.61,15.62-14.14,84.61,7.51,127.15a32.7,32.7,0,0,0,29.18,17.73H308.33a40.83,40.83,0,0,0,40.58-36.28,179.34,179.34,0,0,0,1.44-21.39l-26.43-20.29Z" transform="translate(-13.9 -28.31)"/><path class="cls-5" d="M182.78,367.35c0,1.09,8.55,4.62,12.42,3.07,5.89-2.35,5.84-6.24,5.84-6.24l2.59,2.72,32.77,49.93,24.36,16.08-39,12.35-40.87-47Z" transform="translate(-13.9 -28.31)"/><path class="cls-1" d="M172.45,350.59l-.86,1.61-3.89,7.26-16.19,10.32,33.28,39.56L200,445.26l36.41,11.39S219.08,430,213.69,416.4s-5.93-13-10.84-23A226.07,226.07,0,0,1,194,371.8Z" transform="translate(-13.9 -28.31)"/><path class="cls-1" d="M250.44,421.85l13.19,11.06-30.58-12.63-19.17-26.84s-6.83-15.15-9.18-20.58c-2.47-5.7-3.76-8.94-3.76-8.94l.13-4.16,9,8.38,8.08,2.41,13.48,21.32Z" transform="translate(-13.9 -28.31)"/><path class="cls-7" d="M254.42,372.21l.56-8.61-.19-11-1.42-9.19s-.43-.92-1.6-.28-.36,5.66-.36,5.66l.05,3.75s-.78,2.87-1,2.62-.75-5.34-.75-5.34L248,338.87a1.45,1.45,0,0,0-1.81-.81c-.75.21-1.27,1.27-1.23,2.88s.64,4.36.68,5.28.46,6.22.46,6.22l-3.24-12.28s-.54-4-2.21-3.47-.67,3.38-.64,4.61,2.13,9.59,1.85,11.89-.61,1.13-.61,1.13l-1.47-6.87c-.64-3-1.72-4.8-3-5.07s.2,6.75.2,6.75l1.86,9.8-.65,3.08-2.07-2.86s.06-3.65-2.16-5.26-2.88.09-2.88.09l3.75,14.27c.93,2.35,7.68,6.28,7.68,6.28l.56,14.29s14.15.18,14.5-.25S254.42,372.21,254.42,372.21Z" transform="translate(-13.9 -28.31)"/><path class="cls-8" d="M249.53,366.94a15.52,15.52,0,0,1-1.88-1.69,7.9,7.9,0,0,0-5.21-2.38,4.29,4.29,0,0,0-2.65.86l-.25.2-.2-.28c-.88-1.26-1.84-2.36-2.41-3.15s-.88-1.32-.81-1.35a7.73,7.73,0,0,1,1.1,1.12,39.75,39.75,0,0,1,2.64,3.08l-.45-.08a4.67,4.67,0,0,1,3-1,6.45,6.45,0,0,1,3.35.94,10.35,10.35,0,0,1,2.19,1.75A7.51,7.51,0,0,1,249.53,366.94Z" transform="translate(-13.9 -28.31)"/><path class="cls-1" d="M216.49,370.06s11.33,1.37,17.26,14.25c2.63,5.72,8.79,13.89,8.79,13.89l-.95-15.62h16.73s2.6,30.87,1.92,32.76-9.36,11-9.36,11l-18.94-13.42Z" transform="translate(-13.9 -28.31)"/><path class="cls-2" d="M270.73,383.38,252.34,414l19.25-.57,17-28.39a1.64,1.64,0,0,0-1.41-2.48h-15A1.63,1.63,0,0,0,270.73,383.38Z" transform="translate(-13.9 -28.31)"/><path class="cls-7" d="M200,418l46-5.48L253.76,399l6.06-3.33a3,3,0,0,1,3.24.21l.57.41,6-.58,4.65,2.71v2.71l-4.9-.9-4.74,1.54s3.06.33,3.45,2.65-1.17,2.37-1.17,2.37.78,4,1,4.6a9.22,9.22,0,0,1-.58,6.64c-1.55,2.65-17,6.71-17,6.71L200,445.26Z" transform="translate(-13.9 -28.31)"/><path class="cls-1" d="M152.5,369c-.95.63-14.25,9.81-12.35,24.37s30.71,47.49,36.73,48.13l23.11,3.8V418l-11.08-.63-14.56-28.5Z" transform="translate(-13.9 -28.31)"/><g class="cls-10"><path d="M307.08,468.07a132.59,132.59,0,0,0,43.36,36.6V485.15L319.29,463Z" transform="translate(-13.9 -28.31)"/></g><path class="cls-2" d="M230.21,440.13s90.18-9,94.56-8.68c8.09.67,23.94,14.84,50.41,32.61a247.52,247.52,0,0,1,37,30.5l-8.45,19.31s-62.21-22.34-69.79-29-22.77-16.35-22.77-16.35l-32.66.63-25.85,2.28a38,38,0,0,1-33.52-14.76l-10-13.11Z" transform="translate(-13.9 -28.31)"/><path class="cls-2" d="M200,416.71a4.25,4.25,0,0,1-.83.08l-2.33.09-8.28.18h-.12l-.07-.09-5.85-7.87c-3.49-4.72-6.63-9-8.87-12.13L171,393.26a10.54,10.54,0,0,1-.91-1.4,10,10,0,0,1,1.08,1.28l2.77,3.61c2.33,3.07,5.51,7.32,9,12l5.8,7.9-.18-.09h8.28l2.33,0A3,3,0,0,1,200,416.71Z" transform="translate(-13.9 -28.31)"/><path class="cls-2" d="M194.37,375.41a4.83,4.83,0,0,1-.45-.83l-1.15-2.38.25,0a31.55,31.55,0,0,0-2.23,3.84,33.71,33.71,0,0,1-2.9,5.11l-.18.25-.2-.24c-1.5-1.85-3.21-3.82-5-5.82-4-4.39-7.89-8.18-10.64-11l-3.25-3.31a12,12,0,0,1-1.14-1.26,9.28,9.28,0,0,1,1.28,1.12l3.36,3.18c2.82,2.72,6.72,6.47,10.77,10.87,1.85,2,3.56,4,5,5.87h-.39a35.82,35.82,0,0,0,2.93-5,27.05,27.05,0,0,1,2.36-3.83l.15-.2.1.23,1,2.44A5.36,5.36,0,0,1,194.37,375.41Z" transform="translate(-13.9 -28.31)"/><path class="cls-2" d="M210.14,368.44a4.8,4.8,0,0,1,.69,1.37,36.65,36.65,0,0,1,1.21,3.83l.32,1.13-.72-.93a30.69,30.69,0,0,0-3.4-3.58c-1.07-1-2.12-1.89-3.07-2.72l.39-.15a40.72,40.72,0,0,0-.14,4.57,5,5,0,0,1-.23,1.78c-.06,0,0-.66-.07-1.78a31.15,31.15,0,0,1,0-4.64l0-.44.35.29c1,.81,2,1.71,3.12,2.71a27.73,27.73,0,0,1,3.41,3.69l-.41.19c-.4-1.6-.72-2.94-1-3.86A8.83,8.83,0,0,1,210.14,368.44Z" transform="translate(-13.9 -28.31)"/><path class="cls-9" d="M297.56,468.56c-1.93-9.17-5.89-18.57-13.71-23.73-5.94-3.93-13.29-4.9-20.35-5.76L115.73,420.9c-1.32,23.28,8.64,52.27,18.81,73.26,1.58,3.25,3.41,6.59,6.43,8.58,3.68,2.43,8.4,2.4,12.81,2.29,49.71-1.26,99.44-3.38,148.86-8.82C299.86,487.25,299.5,477.74,297.56,468.56Z" transform="translate(-13.9 -28.31)"/><path class="cls-9" d="M311.19,468.55l.42.28,1.24.83,4.76,3.29c4.13,2.9,10.21,7.06,17.65,12.6.46.34.91.74,1.41,1l1.52.94c1.09.53,2.18,1.12,3.34,1.65l3.55,1.63,3.73,1.62c5.09,2.16,10.6,4.43,16.48,6.77,11.76,4.7,24.95,9.81,39.19,15.19l-.31.14c2.48-6.2,5.11-12.73,7.8-19.43l0,.28c-3.4-3.41-7-7.05-10.7-10.73h0c-2.51-2.14-5.2-4.42-8-6.67A561.78,561.78,0,0,0,342,440.91h0v0a50.35,50.35,0,0,0-7.79-5.38,38.65,38.65,0,0,0-8.32-3.55c-.71-.19-1.43-.35-2.14-.52l-2.14-.32-2.13-.11H309.05l-27.7-.05-18-.07-4.76,0-1.22,0-.42,0a3.33,3.33,0,0,1,.42,0l1.22,0,4.76,0,18-.06,27.7-.06h10.36l2.17.11,2.19.32c.71.17,1.44.32,2.17.51a39.39,39.39,0,0,1,8.43,3.58,50.7,50.7,0,0,1,7.87,5.43l0,0a553.21,553.21,0,0,1,51.49,37.07c2.76,2.25,5.46,4.53,8,6.67h0L412.39,495l.12.12-.07.15c-2.69,6.7-5.32,13.23-7.81,19.42l-.09.23-.23-.09c-14.24-5.4-27.43-10.53-39.18-15.26-5.87-2.36-11.38-4.64-16.46-6.83l-3.73-1.63-3.56-1.64c-1.15-.54-2.25-1.13-3.34-1.68l-1.56-1c-.51-.31-.94-.71-1.41-1.05-7.4-5.57-13.45-9.78-17.56-12.72l-4.71-3.35-1.21-.87Z" transform="translate(-13.9 -28.31)"/><path class="cls-2" d="M170.08,427.58a13.15,13.15,0,0,1-1.74-.11l-4.72-.51c-4-.46-9.48-1.14-15.54-2s-11.54-1.67-15.49-2.37c-2-.35-3.58-.64-4.67-.88a10,10,0,0,1-1.7-.42,12.9,12.9,0,0,1,1.73.22l4.69.72c4,.6,9.45,1.38,15.51,2.21l15.52,2.13,4.7.68A9.45,9.45,0,0,1,170.08,427.58Z" transform="translate(-13.9 -28.31)"/><path class="cls-2" d="M243.6,412.84a9.49,9.49,0,0,1-1.09-1l-2.85-2.89c-1.19-1.25-2.62-2.65-4.17-4.39-.71-.91-1.34-1.91-2.08-2.88a19.07,19.07,0,0,1-1.93-3.36c-1.1-2.39-1.93-4.75-2.69-6.89s-1.4-4.08-2-5.67-1.15-2.87-1.58-3.73-.7-1.31-.67-1.33.1.09.25.3a9.84,9.84,0,0,1,.59.94,31.43,31.43,0,0,1,1.75,3.68c.66,1.59,1.36,3.51,2.13,5.65s1.61,4.47,2.7,6.83a19.49,19.49,0,0,0,1.87,3.27c.74,1,1.37,2,2.05,2.9,1.45,1.66,2.91,3.16,4,4.42l2.73,3A7.14,7.14,0,0,1,243.6,412.84Z" transform="translate(-13.9 -28.31)"/><path class="cls-2" d="M247.29,408a94.09,94.09,0,0,1-5.9-12.73,46.07,46.07,0,0,1,3.18,6.25A48.2,48.2,0,0,1,247.29,408Z" transform="translate(-13.9 -28.31)"/><path class="cls-2" d="M170.84,549.11a2.44,2.44,0,0,1-.15-.28l-.4-.86c-.36-.79-.86-1.89-1.51-3.3-.32-.73-.68-1.52-1.07-2.4s-.74-1.86-1.15-2.9c-.8-2.09-1.8-4.44-2.65-7.14L162.5,528c-.48-1.47-.87-3-1.34-4.61-1-3.18-1.73-6.64-2.58-10.28a168.66,168.66,0,0,1-3.34-48.28c.34-3.71.61-7.25,1.14-10.53.24-1.64.41-3.23.69-4.75s.56-3,.82-4.35c.46-2.78,1.13-5.25,1.63-7.43.27-1.09.5-2.11.74-3s.52-1.76.74-2.52l1-3.48.28-.9a1.2,1.2,0,0,1,.11-.3,1.31,1.31,0,0,1-.06.32l-.23.91c-.23.84-.54,2-.94,3.51l-.7,2.53c-.23.92-.44,1.94-.69,3-.48,2.19-1.12,4.66-1.56,7.44-.25,1.38-.51,2.84-.78,4.35s-.43,3.1-.67,4.74c-.5,3.27-.75,6.8-1.08,10.51a172.14,172.14,0,0,0,3.33,48.14c.84,3.63,1.58,7.09,2.53,10.26.45,1.59.83,3.14,1.31,4.61s.93,2.86,1.37,4.2c.82,2.69,1.8,5,2.57,7.14.4,1,.75,2,1.11,2.92s.72,1.68,1,2.41c.6,1.42,1.08,2.54,1.41,3.34l.36.87A1,1,0,0,1,170.84,549.11Z" transform="translate(-13.9 -28.31)"/><path class="cls-2" d="M169.28,502.17a31.8,31.8,0,0,1-5.81,0,32.23,32.23,0,0,1-5.8-.53,33,33,0,0,1,5.82,0A33.16,33.16,0,0,1,169.28,502.17Z" transform="translate(-13.9 -28.31)"/><path class="cls-2" d="M167.93,508.92a18.34,18.34,0,0,1-6-1.56,18.55,18.55,0,0,1-5.38-3c.09-.13,2.44,1.29,5.57,2.55S168,508.76,167.93,508.92Z" transform="translate(-13.9 -28.31)"/><path class="cls-2" d="M155,462.54a10.1,10.1,0,0,1-7.84.75c0-.15,1.79.12,3.95-.1S154.94,462.39,155,462.54Z" transform="translate(-13.9 -28.31)"/><path class="cls-2" d="M157.94,460.31a6.53,6.53,0,0,1-4.24-.54,6.43,6.43,0,0,1-3.33-2.67,22,22,0,0,0,3.54,2.19A22.3,22.3,0,0,0,157.94,460.31Z" transform="translate(-13.9 -28.31)"/><path class="cls-6" d="M384.59,506.75l25,12,4.16,4.5a6.79,6.79,0,0,0,9.6.37l31.56-29.2a3.32,3.32,0,0,0-.37-5.23,2.89,2.89,0,0,0-2.6-.23c-3.45,1.24-31.81,8.25-31.81,8.25l-22.3-12.57Z" transform="translate(-13.9 -28.31)"/><path class="cls-2" d="M425.58,521.22c-.06.07-.72-.52-1.95-1.19a12.32,12.32,0,0,0-10.49-.75c-1.31.5-2.05,1-2.1.9a5.26,5.26,0,0,1,1.95-1.27,11.38,11.38,0,0,1,10.85.78A5.16,5.16,0,0,1,425.58,521.22Z" transform="translate(-13.9 -28.31)"/><path class="cls-2" d="M447,501.77a3.72,3.72,0,0,1-1.45-.94,7.41,7.41,0,0,1-2.16-3.57,10.19,10.19,0,0,1-.15-4.17,4.38,4.38,0,0,1,.47-1.65,6.46,6.46,0,0,1-.07,1.69,12.45,12.45,0,0,0,.29,4,8.21,8.21,0,0,0,1.9,3.44C446.53,501.3,447.06,501.69,447,501.77Z" transform="translate(-13.9 -28.31)"/><path class="cls-3" d="M384.79,510.91,392.3,514a2.41,2.41,0,0,0,3.05-1.09l13.31-24.82a2.43,2.43,0,0,0-.78-3.15l-6.54-4.42a2.42,2.42,0,0,0-3.48.85l-14.27,26.15A2.42,2.42,0,0,0,384.79,510.91Z" transform="translate(-13.9 -28.31)"/><path class="cls-2" d="M409.22,487.15a25.6,25.6,0,0,1-1.59,4.07c-1.07,2.47-2.65,5.85-4.58,9.48s-3.88,6.82-5.38,9.07c-.75,1.12-1.37,2-1.82,2.62a4.56,4.56,0,0,1-.76.9,35,35,0,0,1,2.18-3.77c1.39-2.31,3.26-5.51,5.19-9.13s3.56-6.95,4.75-9.37A31.85,31.85,0,0,1,409.22,487.15Z" transform="translate(-13.9 -28.31)"/><path class="cls-2" d="M396.63,509.38c0,.17-3,.13-6.14-1.79S385.94,503,386.1,503s1.76,2.29,4.74,4.08S396.67,509.18,396.63,509.38Z" transform="translate(-13.9 -28.31)"/><path class="cls-2" d="M402.06,500.89a25,25,0,0,1-5.71-2.42c-3-1.57-5.36-3.12-5.27-3.26s2.52,1.16,5.55,2.72S402.13,500.73,402.06,500.89Z" transform="translate(-13.9 -28.31)"/><path class="cls-2" d="M407,490.41c-.13.16-2.19-2.06-5.61-3.13s-6.38-.52-6.39-.73a4,4,0,0,1,1.9-.45,12.41,12.41,0,0,1,4.69.55,12.19,12.19,0,0,1,4.13,2.29C406.61,489.74,407,490.36,407,490.41Z" transform="translate(-13.9 -28.31)"/><rect class="cls-3" x="100.85" y="221.33" width="2.91" height="27.16"/><rect class="cls-3" x="196.61" y="221.33" width="2.91" height="27.16"/><rect class="cls-6" x="90.12" y="210.41" width="121.79" height="10.92"/><rect class="cls-5" x="171.05" y="128.65" width="16.79" height="81.75"/><path class="cls-3" d="M197,219.11a3.33,3.33,0,1,1-3.32-3.48A3.4,3.4,0,0,1,197,219.11Z" transform="translate(-13.9 -28.31)"/><rect class="cls-3" x="177.07" y="150.31" width="5.14" height="33.41"/><rect class="cls-6" x="153.99" y="128.65" width="16.79" height="81.75"/><path class="cls-4" d="M180,219.11a3.33,3.33,0,1,1-3.32-3.48A3.4,3.4,0,0,1,180,219.11Z" transform="translate(-13.9 -28.31)"/><rect class="cls-4" x="160.02" y="150.31" width="5.14" height="33.41"/><rect class="cls-3" x="137.75" y="128.65" width="16.79" height="81.75"/><path class="cls-4" d="M163.71,219.11a3.33,3.33,0,1,1-3.32-3.48A3.4,3.4,0,0,1,163.71,219.11Z" transform="translate(-13.9 -28.31)"/><rect class="cls-4" x="143.77" y="150.31" width="5.14" height="33.41"/><polygon class="cls-3" points="116.99 209.16 137.16 137.24 130.21 134.05 109.52 206.55 116.99 209.16"/><path class="cls-2" d="M873.9,535a1.69,1.69,0,0,1,.14-.33l.45-1a23.92,23.92,0,0,0,1.31-3.82,33.78,33.78,0,0,0-.11-14.78A79.48,79.48,0,0,0,873,505.2c-1.16-3.52-2.51-7.26-3.61-11.3a43.54,43.54,0,0,1-1.78-13c.17-4.6,1.53-9.19,3-13.75s3-9.05,3.5-13.54a20.56,20.56,0,0,0-2.48-12.51c-2-3.65-4.47-6.77-6.34-10a34.85,34.85,0,0,1-3.8-9.62,35.86,35.86,0,0,1-.25-14.89,28.13,28.13,0,0,1,1.56-5.27,2.22,2.22,0,0,1-.09.35l-.32,1a38.11,38.11,0,0,0-1,3.94,36.34,36.34,0,0,0,.38,14.79,35.15,35.15,0,0,0,3.82,9.49c1.86,3.19,4.37,6.3,6.39,10a21.14,21.14,0,0,1,2.56,12.76c-.47,4.58-2,9.08-3.51,13.65s-2.85,9.1-3,13.62a43.55,43.55,0,0,0,1.74,12.86c1.09,4,2.42,7.76,3.56,11.29a77.44,77.44,0,0,1,2.7,10A33.38,33.38,0,0,1,876,530a21.76,21.76,0,0,1-1.41,3.82l-.49.94A1.34,1.34,0,0,1,873.9,535Z" transform="translate(-13.9 -28.31)"/><path class="cls-11" d="M867.8,434.3s-3.79-12.11,3-19.2a.42.42,0,0,1,.72.21C871.89,417.31,872.34,423.4,867.8,434.3Z" transform="translate(-13.9 -28.31)"/><path class="cls-2" d="M870.07,419.13a12,12,0,0,1-.26,2.24c-.25,1.54-.54,3.34-.86,5.34s-.61,3.8-.85,5.34a12.28,12.28,0,0,1-.4,2.21,9.09,9.09,0,0,1,.07-2.25c.12-1.38.37-3.29.71-5.38s.7-4,1-5.32A9.91,9.91,0,0,1,870.07,419.13Z" transform="translate(-13.9 -28.31)"/><path class="cls-1" d="M872.25,462.86s2.31-12.48,11.63-15.57a.42.42,0,0,1,.54.52C883.81,449.75,881.36,455.35,872.25,462.86Z" transform="translate(-13.9 -28.31)"/><path class="cls-2" d="M881.34,450.52a11.05,11.05,0,0,1-1.27,1.85l-3.26,4.32L873.56,461a13.27,13.27,0,0,1-1.38,1.77,8.78,8.78,0,0,1,1.11-2c.76-1.16,1.86-2.73,3.14-4.42s2.48-3.18,3.38-4.24A9.25,9.25,0,0,1,881.34,450.52Z" transform="translate(-13.9 -28.31)"/><path class="cls-11" d="M869.73,494.15s-1.41-12.61,6.61-18.27a.42.42,0,0,1,.67.34C877,478.25,876.26,484.32,869.73,494.15Z" transform="translate(-13.9 -28.31)"/><path class="cls-2" d="M874.85,479.7a11.3,11.3,0,0,1-.68,2.14l-1.87,5.08c-.69,1.9-1.31,3.62-1.85,5.08a13.13,13.13,0,0,1-.81,2.1,9.4,9.4,0,0,1,.49-2.2c.39-1.33,1-3.16,1.73-5.14s1.45-3.77,2-5A10.09,10.09,0,0,1,874.85,479.7Z" transform="translate(-13.9 -28.31)"/><path class="cls-11" d="M876.75,525.63s-1-12.65,7.26-18a.42.42,0,0,1,.66.36C884.57,510,883.63,516,876.75,525.63Z" transform="translate(-13.9 -28.31)"/><path class="cls-2" d="M882.38,511.37a11.39,11.39,0,0,1-.75,2.12c-.59,1.44-1.28,3.14-2,5s-1.45,3.56-2,5a11.92,11.92,0,0,1-.89,2.06,9.23,9.23,0,0,1,.57-2.18c.44-1.32,1.11-3.12,1.91-5.07s1.59-3.71,2.18-5A10.36,10.36,0,0,1,882.38,511.37Z" transform="translate(-13.9 -28.31)"/><path class="cls-11" d="M862.35,423.66s-11.24-5.87-11.46-15.69a.41.41,0,0,1,.65-.36C853.22,408.76,857.85,412.74,862.35,423.66Z" transform="translate(-13.9 -28.31)"/><path class="cls-2" d="M853.22,411.34a11,11,0,0,1,1.4,1.76c.92,1.26,2,2.75,3.17,4.38l3.19,4.38a12.83,12.83,0,0,1,1.28,1.84,9.27,9.27,0,0,1-1.55-1.64c-.89-1.06-2.06-2.58-3.3-4.3s-2.31-3.3-3.06-4.47A10.68,10.68,0,0,1,853.22,411.34Z" transform="translate(-13.9 -28.31)"/><path class="cls-11" d="M874.43,449.66s-11.58-5.17-12.4-15a.42.42,0,0,1,.64-.4C864.4,435.35,869.27,439,874.43,449.66Z" transform="translate(-13.9 -28.31)"/><path class="cls-2" d="M864.57,437.92a11.31,11.31,0,0,1,1.5,1.67l3.43,4.19L873,448a13.56,13.56,0,0,1,1.39,1.76,8.72,8.72,0,0,1-1.65-1.54c-1-1-2.21-2.45-3.55-4.09s-2.51-3.16-3.33-4.28A10.17,10.17,0,0,1,864.57,437.92Z" transform="translate(-13.9 -28.31)"/><path class="cls-11" d="M867.77,478.67s-8-9.88-4.23-19a.43.43,0,0,1,.75-.07C865.36,461.36,868,466.87,867.77,478.67Z" transform="translate(-13.9 -28.31)"/><path class="cls-2" d="M864.33,463.73a10.33,10.33,0,0,1,.58,2.17l1.15,5.29c.44,2,.83,3.76,1.17,5.28a12.25,12.25,0,0,1,.43,2.2,9,9,0,0,1-.76-2.12c-.39-1.33-.86-3.19-1.3-5.26s-.8-4-1-5.32A10.51,10.51,0,0,1,864.33,463.73Z" transform="translate(-13.9 -28.31)"/><path class="cls-11" d="M875.64,512.81s-11.49-5.37-12.14-15.17a.42.42,0,0,1,.64-.39C865.86,498.33,870.66,502.1,875.64,512.81Z" transform="translate(-13.9 -28.31)"/><path class="cls-2" d="M866,500.9a12.16,12.16,0,0,1,1.48,1.7c1,1.22,2.1,2.66,3.36,4.24l3.37,4.23a11.58,11.58,0,0,1,1.36,1.79,9.5,9.5,0,0,1-1.62-1.57c-.93-1-2.17-2.49-3.49-4.16s-2.45-3.19-3.25-4.33A10.2,10.2,0,0,1,866,500.9Z" transform="translate(-13.9 -28.31)"/><path class="cls-2" d="M898.54,462.93a1.16,1.16,0,0,1,0,.28c0,.22,0,.48,0,.81,0,.76-.08,1.79-.13,3.07l-.61,11h0v0c-.82,4.59-3.16,9.67-6.3,14.62-2.3,3.63-4.72,6.94-6.8,10a70.13,70.13,0,0,0-5.1,8.43,36.8,36.8,0,0,0-2.39,6.19c-.2.75-.35,1.35-.44,1.75a4.22,4.22,0,0,1-.16.61,3,3,0,0,1,.07-.63c.06-.41.18-1,.36-1.78a32.4,32.4,0,0,1,2.26-6.29,67.47,67.47,0,0,1,5-8.52c2.07-3.1,4.47-6.42,6.76-10,3.12-4.91,5.45-9.92,6.3-14.44v0c.31-4.5.58-8.27.77-11,.1-1.28.19-2.31.25-3.07l.08-.81A.84.84,0,0,1,898.54,462.93Z" transform="translate(-13.9 -28.31)"/><path class="cls-11" d="M891.69,491.78s4.87-11.72-1.25-19.39a.42.42,0,0,0-.74.14C889.16,474.49,888.16,480.51,891.69,491.78Z" transform="translate(-13.9 -28.31)"/><path class="cls-2" d="M890.81,476.47a10.76,10.76,0,0,1,.38,2.22c.18,1.38.37,3.28.52,5.4s.22,4,.22,5.41a9.56,9.56,0,0,1-.13,2.25,11.7,11.7,0,0,1-.2-2.24c-.11-1.55-.23-3.37-.36-5.39s-.27-3.84-.38-5.4A10.34,10.34,0,0,1,890.81,476.47Z" transform="translate(-13.9 -28.31)"/><g class="cls-10"><path d="M891.69,491.78s4.87-11.72-1.25-19.39a.42.42,0,0,0-.74.14C889.16,474.49,888.16,480.51,891.69,491.78Z" transform="translate(-13.9 -28.31)"/></g><path class="cls-11" d="M876.62,520s3.9-12.08-2.83-19.23a.42.42,0,0,0-.72.2C872.69,503,872.18,509.07,876.62,520Z" transform="translate(-13.9 -28.31)"/><path class="cls-2" d="M874.49,504.83a10,10,0,0,1,.57,2.18c.28,1.36.63,3.24,1,5.33s.55,4,.66,5.39a9.61,9.61,0,0,1,.05,2.25,11.89,11.89,0,0,1-.38-2.22c-.23-1.54-.5-3.35-.8-5.34s-.58-3.81-.81-5.35A11.78,11.78,0,0,1,874.49,504.83Z" transform="translate(-13.9 -28.31)"/><g class="cls-10"><path d="M876.62,520s3.9-12.08-2.83-19.23a.42.42,0,0,0-.72.2C872.69,503,872.18,509.07,876.62,520Z" transform="translate(-13.9 -28.31)"/></g><path class="cls-11" d="M897.89,477.46s10.4-7.27,9.35-17a.42.42,0,0,0-.7-.27C905,461.51,901,466.06,897.89,477.46Z" transform="translate(-13.9 -28.31)"/><g class="cls-10"><path d="M897.89,477.46s10.4-7.27,9.35-17a.42.42,0,0,0-.7-.27C905,461.51,901,466.06,897.89,477.46Z" transform="translate(-13.9 -28.31)"/></g><path class="cls-2" d="M905.36,464.07a10,10,0,0,1-.87,2.08c-.59,1.25-1.45,3-2.46,4.83s-2,3.52-2.71,4.69a8.56,8.56,0,0,1-1.33,1.82,13.84,13.84,0,0,1,1-2c.74-1.37,1.62-3,2.59-4.75s1.83-3.39,2.58-4.76A10.41,10.41,0,0,1,905.36,464.07Z" transform="translate(-13.9 -28.31)"/><path class="cls-11" d="M880.81,508.05s12.53-2,15.89-11.18a.42.42,0,0,0-.5-.56C894.24,496.87,888.58,499.16,880.81,508.05Z" transform="translate(-13.9 -28.31)"/><g class="cls-10"><path d="M880.81,508.05s12.53-2,15.89-11.18a.42.42,0,0,0-.5-.56C894.24,496.87,888.58,499.16,880.81,508.05Z" transform="translate(-13.9 -28.31)"/></g><path class="cls-2" d="M893.41,499.31a10.65,10.65,0,0,1-1.69,1.49c-1.09.86-2.61,2-4.34,3.25s-3.32,2.29-4.5,3a9.35,9.35,0,0,1-2,1.06,11.74,11.74,0,0,1,1.8-1.34l4.42-3.12,4.41-3.13A10.86,10.86,0,0,1,893.41,499.31Z" transform="translate(-13.9 -28.31)"/><polygon class="cls-9" points="854.95 502.8 851.29 527.41 874.08 527.41 871.12 502.8 854.95 502.8"/><path class="cls-2" d="M885.94,538.74a176.07,176.07,0,0,1-18.38,0,183.72,183.72,0,0,1,18.38,0Z" transform="translate(-13.9 -28.31)"/><path class="cls-2" d="M886.39,540.7c0,.13-4.25.24-9.49.24s-9.49-.11-9.49-.24,4.25-.23,9.49-.23S886.39,540.57,886.39,540.7Z" transform="translate(-13.9 -28.31)"/><path class="cls-1" d="M802.37,272.19l-26.89,61.59A11.63,11.63,0,0,0,787.31,350c18.68-1.89,46.68-4.78,66.08-6.78a12.36,12.36,0,0,0,8.51-19.84l-41.21-53.45A10.72,10.72,0,0,0,802.37,272.19Z" transform="translate(-13.9 -28.31)"/><g class="cls-12"><path class="cls-13" d="M803.76,276.33s0-.22.22-.61c.09-.19.19-.44.34-.71l.6-.93c.25-.33.58-.67.91-1.06a10.74,10.74,0,0,1,1.32-1.07,9.42,9.42,0,0,1,3.92-1.59,10.17,10.17,0,0,1,5.29.51,10.3,10.3,0,0,1,2.65,1.56l.62.53c.19.19.37.4.56.61.39.41.71.84,1.06,1.28l9.29,11.86c6.85,8.82,15,19.31,24.08,31l3.43,4.43a11.77,11.77,0,0,1,2.31,5.59,11.87,11.87,0,0,1-10.63,13.42l-6.14.63L831,343l-24.74,2.52-11.77,1.19-2.87.29-1.42.14-1.52.05a10.9,10.9,0,0,1-5.65-1.78,11.27,11.27,0,0,1-5.1-9.75,12.59,12.59,0,0,1,.13-1.39c.1-.45.18-.9.3-1.35l.47-1.28c.16-.41.34-.79.51-1.18l2-4.58c2.66-6,5.13-11.59,7.39-16.7,4.53-10.2,8.23-18.45,10.81-24.13l3-6.53a13.39,13.39,0,0,1,1.15-2.23,15.51,15.51,0,0,1-.86,2.36c-.64,1.53-1.56,3.77-2.74,6.64-2.42,5.76-5.95,14.07-10.36,24.33l-7.21,16.78c-.66,1.5-1.32,3-2,4.59-.16.39-.35.79-.5,1.17l-.4,1.14c-.1.39-.17.79-.25,1.19a11.82,11.82,0,0,0-.11,1.21,9.88,9.88,0,0,0,4.51,8.5,9.44,9.44,0,0,0,4.92,1.52l1.32-.05,1.43-.14,2.86-.3L806.14,344l24.74-2.56,12.55-1.28,6.14-.63A10.38,10.38,0,0,0,856.88,323l-3.4-4.45c-9-11.72-17-22.28-23.82-31.16l-9.11-12c-.33-.44-.66-.89-1-1.26-.17-.19-.33-.39-.5-.57l-.56-.49a9.19,9.19,0,0,0-2.41-1.5,9.56,9.56,0,0,0-4.92-.6,9.2,9.2,0,0,0-3.75,1.37,12.39,12.39,0,0,0-1.31,1c-.34.36-.68.67-.93,1l-.65.85c-.17.26-.29.49-.4.67A2.08,2.08,0,0,1,803.76,276.33Z" transform="translate(-13.9 -28.31)"/></g><path class="cls-14" d="M808.06,290.4l4,24.55a4,4,0,0,0,4.13,3.38h0a4,4,0,0,0,3.87-4l.28-25.1a3.17,3.17,0,0,0-3.51-3.18l-6,.68A3.17,3.17,0,0,0,808.06,290.4Z" transform="translate(-13.9 -28.31)"/><path class="cls-14" d="M823.62,330.62a6.06,6.06,0,1,1-4.57-7.24A6.06,6.06,0,0,1,823.62,330.62Z" transform="translate(-13.9 -28.31)"/><path class="cls-14" d="M776.82,265.11l-2.33-.73a1.28,1.28,0,0,0-1.62.89L770.33,275a1.63,1.63,0,0,0,1,1.93h0a1.62,1.62,0,0,0,2.08-.84" transform="translate(-13.9 -28.31)"/><path class="cls-14" d="M772,282.66a2.45,2.45,0,1,1-.5-3.42A2.44,2.44,0,0,1,772,282.66Z" transform="translate(-13.9 -28.31)"/><path class="cls-11" d="M850.6,263.3,846.06,284a3.66,3.66,0,0,0,4.65,4.29c5.67-1.73,14.15-4.34,20-6.15a3.9,3.9,0,0,0,1.42-6.66l-16-14A3.38,3.38,0,0,0,850.6,263.3Z" transform="translate(-13.9 -28.31)"/><g class="cls-12"><path class="cls-13" d="M851.28,264.49s-.07-.3.13-.81a3.08,3.08,0,0,1,1.7-1.68,3.45,3.45,0,0,1,1.79-.22,3.79,3.79,0,0,1,1.9,1l3.66,3,9.42,8,1.34,1.16a4.23,4.23,0,0,1,1.21,1.8,4.3,4.3,0,0,1-.85,4.23,4.35,4.35,0,0,1-1.94,1.24l-1.86.58L864,284l-7.5,2.29-3.57,1.07-.87.26-.43.13-.54.12a3.93,3.93,0,0,1-2.12-.24,4,4,0,0,1-2.46-3.08,4.71,4.71,0,0,1,0-1l.08-.48.09-.4.36-1.54c.47-2,.92-3.89,1.32-5.6.83-3.43,1.52-6.19,2-8.1a12.52,12.52,0,0,1,.95-2.92,11.14,11.14,0,0,1-.35,3.05c-.33,1.95-.86,4.75-1.55,8.2l-1.14,5.65c-.1.51-.21,1-.32,1.55l-.08.38,0,.33a2.76,2.76,0,0,0,0,.64,2.64,2.64,0,0,0,1.63,2,2.59,2.59,0,0,0,1.35.13l.35-.09.43-.13.86-.27,3.56-1.12,7.49-2.31,3.81-1.17,1.86-.57a2.7,2.7,0,0,0,1.26-.78,2.79,2.79,0,0,0,.58-2.73,2.76,2.76,0,0,0-.77-1.18l-1.32-1.17-9.2-8.27-3.5-3.21a2.77,2.77,0,0,0-2.91-.83,3,3,0,0,0-1.63,1.25C851.43,264.24,851.35,264.51,851.28,264.49Z" transform="translate(-13.9 -28.31)"/></g><path class="cls-14" d="M853.48,268.58l2.75,7.35a1.26,1.26,0,0,0,1.48.79h0a1.28,1.28,0,0,0,1-1.47l-1.46-7.78a1,1,0,0,0-1.28-.77l-1.82.58A1,1,0,0,0,853.48,268.58Z" transform="translate(-13.9 -28.31)"/><path class="cls-14" d="M860.76,280.07a1.91,1.91,0,1,1-1.86-2A1.9,1.9,0,0,1,860.76,280.07Z" transform="translate(-13.9 -28.31)"/><path class="cls-2" d="M765.64,355a4,4,0,0,1-.7-.65,7.43,7.43,0,0,1-.74-.84,12.86,12.86,0,0,1-.91-1.18,22.2,22.2,0,0,1-1.92-3.37,24.59,24.59,0,0,1-1.49-4.51,25.39,25.39,0,0,1-.5-4.73,22.25,22.25,0,0,1,.36-3.86c.09-.55.23-1,.34-1.45a7.72,7.72,0,0,1,.33-1.07c.21-.58.34-.9.38-.88s-.36,1.31-.68,3.46a23.63,23.63,0,0,0-.25,3.8,26.1,26.1,0,0,0,.53,4.62,26.67,26.67,0,0,0,1.42,4.42,23.42,23.42,0,0,0,1.79,3.36C764.78,353.93,765.72,354.91,765.64,355Z" transform="translate(-13.9 -28.31)"/><path class="cls-2" d="M774.35,356.24a4.07,4.07,0,0,1-.85-.54,10.58,10.58,0,0,1-.94-.74,15.25,15.25,0,0,1-1.15-1.07,20.94,20.94,0,0,1-2.6-3.18,22.43,22.43,0,0,1-3.5-9.37,21.69,21.69,0,0,1-.13-4.1,15.22,15.22,0,0,1,.18-1.57,8.49,8.49,0,0,1,.22-1.17,3.41,3.41,0,0,1,.29-1c.1,0-.25,1.42-.32,3.72a22.59,22.59,0,0,0,.24,4,23.46,23.46,0,0,0,3.43,9.18,22.59,22.59,0,0,0,2.45,3.19C773.24,355.32,774.42,356.16,774.35,356.24Z" transform="translate(-13.9 -28.31)"/><path class="cls-2" d="M867.36,345.59c-.08,0,.69-1.44,1.58-3.84a33.09,33.09,0,0,0,1.25-4.31,37.58,37.58,0,0,0,.72-5.43,37.12,37.12,0,0,0-.2-5.48,33.56,33.56,0,0,0-.83-4.41c-.65-2.47-1.29-3.94-1.2-4a4.71,4.71,0,0,1,.51,1,21.08,21.08,0,0,1,1,2.87,29.44,29.44,0,0,1,1,4.45,34.22,34.22,0,0,1,.24,5.56,33.36,33.36,0,0,1-.78,5.52,28.9,28.9,0,0,1-1.37,4.33,23.25,23.25,0,0,1-1.31,2.76A4.46,4.46,0,0,1,867.36,345.59Z" transform="translate(-13.9 -28.31)"/><path class="cls-2" d="M875.39,343.53c-.08,0,.54-1.18,1.21-3.15a24.87,24.87,0,0,0,.9-3.52,25.52,25.52,0,0,0,.37-4.43,27.26,27.26,0,0,0-.43-4.42,23.86,23.86,0,0,0-1-3.51c-.69-1.95-1.33-3.08-1.25-3.13a3,3,0,0,1,.51.76,15.73,15.73,0,0,1,1.09,2.24,22.77,22.77,0,0,1,1.08,3.54,26,26,0,0,1,.49,4.52A24.43,24.43,0,0,1,878,337a20.41,20.41,0,0,1-1,3.56,16.21,16.21,0,0,1-1.05,2.26A2.88,2.88,0,0,1,875.39,343.53Z" transform="translate(-13.9 -28.31)"/><path class="cls-2" d="M446.37,386.71l-121.6-.56a26.49,26.49,0,0,1-26.37-26.6l1.29-304.86A26.5,26.5,0,0,1,326.3,28.31l121.6.57a26.48,26.48,0,0,1,26.37,26.6L473,360.33A26.49,26.49,0,0,1,446.37,386.71Z" transform="translate(-13.9 -28.31)"/><path class="cls-4" d="M447.73,38.79l-23.58-.1a5.85,5.85,0,0,0-5.75,6l0,4.28a5.86,5.86,0,0,1-5.75,6l-45.95-.21a5.87,5.87,0,0,1-5.7-6l0-4.28a5.86,5.86,0,0,0-5.7-6l-8.3,0-20.63-.1a18.57,18.57,0,0,0-18.64,18.48l-1.25,297.56a18.55,18.55,0,0,0,18.46,18.63l121.36.56A18.54,18.54,0,0,0,464.93,355l1.26-297.57A18.55,18.55,0,0,0,447.73,38.79Z" transform="translate(-13.9 -28.31)"/><rect class="cls-6" x="297.92" y="69.98" width="149.02" height="206.65" rx="5.78"/><path class="cls-1" d="M370.9,145l-30.31,69.43a13.1,13.1,0,0,0,13.33,18.28c21.06-2.14,52.61-5.39,74.48-7.65a13.93,13.93,0,0,0,9.6-22.36l-46.45-60.25A12.09,12.09,0,0,0,370.9,145Z" transform="translate(-13.9 -28.31)"/><g class="cls-12"><path class="cls-13" d="M372.46,149.68a2.29,2.29,0,0,1,.25-.68c.1-.21.21-.49.38-.8l.68-1c.28-.38.65-.76,1-1.2a12.64,12.64,0,0,1,1.48-1.21A10.75,10.75,0,0,1,380.7,143a10.88,10.88,0,0,1,8.95,2.34l.7.59c.22.22.42.46.63.69.44.46.8.95,1.19,1.44l10.47,13.37,27.14,34.89c1.28,1.65,2.57,3.31,3.87,5a13.18,13.18,0,0,1,2.61,6.3,13.36,13.36,0,0,1-12,15.12l-6.92.72-14.15,1.46-27.88,2.84-13.27,1.34-3.23.33-1.6.16-1.71,0a12.41,12.41,0,0,1-6.38-2,12.73,12.73,0,0,1-5.75-11c.05-.52.05-1,.15-1.56s.21-1,.34-1.52l.52-1.45c.19-.46.39-.88.58-1.32l2.28-5.17,8.33-18.82c5.11-11.5,9.27-20.79,12.18-27.2,1.47-3.18,2.61-5.66,3.4-7.36a17,17,0,0,1,1.29-2.52,16.23,16.23,0,0,1-1,2.66c-.71,1.74-1.75,4.26-3.09,7.5-2.72,6.49-6.71,15.86-11.67,27.42-2.48,5.78-5.21,12.11-8.13,18.91-.74,1.7-1.48,3.42-2.24,5.18-.18.43-.39.88-.56,1.32l-.45,1.28c-.11.44-.19.89-.29,1.33a12.45,12.45,0,0,0-.12,1.37,11.12,11.12,0,0,0,5.09,9.58,10.64,10.64,0,0,0,5.54,1.72l1.49-.06,1.6-.16,3.23-.34L375.15,226,403,223.12l14.15-1.44,6.92-.71a11.67,11.67,0,0,0,10.5-13.17,11.63,11.63,0,0,0-2.27-5.52l-3.83-5-26.84-35.12c-3.8-5-7.24-9.55-10.27-13.53-.38-.5-.74-1-1.13-1.42-.19-.22-.37-.44-.56-.65l-.63-.55a10.59,10.59,0,0,0-2.72-1.69,10.81,10.81,0,0,0-5.54-.67,10.47,10.47,0,0,0-4.24,1.54,13.06,13.06,0,0,0-1.47,1.09c-.38.41-.76.75-1.05,1.11l-.73,1c-.19.29-.32.55-.45.75C372.63,149.49,372.49,149.7,372.46,149.68Z" transform="translate(-13.9 -28.31)"/></g><path class="cls-14" d="M377.32,165.55l4.52,27.67a4.54,4.54,0,0,0,4.66,3.8h0a4.53,4.53,0,0,0,4.36-4.48l.32-28.29a3.57,3.57,0,0,0-4-3.58l-6.78.77A3.56,3.56,0,0,0,377.32,165.55Z" transform="translate(-13.9 -28.31)"/><path class="cls-14" d="M394.85,210.88a6.83,6.83,0,1,1-5.16-8.16A6.82,6.82,0,0,1,394.85,210.88Z" transform="translate(-13.9 -28.31)"/><path class="cls-11" d="M338.65,128.59l-22.57,20.65a5.3,5.3,0,0,0,1.92,8.93l28.73,9.39a5.62,5.62,0,0,0,7.21-6.67L346.69,131A4.89,4.89,0,0,0,338.65,128.59Z" transform="translate(-13.9 -28.31)"/><g class="cls-12"><path class="cls-13" d="M338.46,130.57s.19-.38.85-.81a4.39,4.39,0,0,1,3.35-.51,4.79,4.79,0,0,1,2.23,1.21,5.31,5.31,0,0,1,1.4,2.66c.52,2,1.1,4.18,1.75,6.63,1.26,4.94,2.75,10.8,4.4,17.3.2.82.41,1.65.61,2.48a5.91,5.91,0,0,1-.06,3,6,6,0,0,1-4.36,4.12,6.07,6.07,0,0,1-3.19-.16l-2.67-.86-5.46-1.78-10.75-3.54-5.11-1.69-1.24-.42-.62-.2-.7-.29a5.39,5.39,0,0,1-2.21-2,5.57,5.57,0,0,1,.42-6.62l.47-.48.44-.4,1.69-1.52,6.21-5.53c3.8-3.37,6.9-6.07,9.07-7.91a21.47,21.47,0,0,1,3.48-2.73,21.33,21.33,0,0,1-3,3.23c-2,2-5,4.84-8.69,8.33-1.86,1.74-3.89,3.64-6.06,5.69L319,149.37l-.41.39-.34.37a4.5,4.5,0,0,0-.53.83,4.05,4.05,0,0,0,.3,3.91,3.78,3.78,0,0,0,1.57,1.36l.5.2.62.2,1.25.4,5.12,1.65,10.76,3.5,5.45,1.79,2.67.88a4.4,4.4,0,0,0,2.27.13,4.29,4.29,0,0,0,3.12-2.92,4.13,4.13,0,0,0,.07-2.15c-.19-.84-.39-1.66-.58-2.48-1.51-6.53-2.88-12.42-4-17.38l-1.49-6.7a4.58,4.58,0,0,0-1-2.31,4.11,4.11,0,0,0-1.81-1.13,4.21,4.21,0,0,0-3,.17C338.82,130.37,338.52,130.64,338.46,130.57Z" transform="translate(-13.9 -28.31)"/></g><path class="cls-14" d="M337.65,137.22l-2.87,10.95a1.84,1.84,0,0,0,1.1,2.17h0a1.83,1.83,0,0,0,2.34-.94L343,139a1.44,1.44,0,0,0-.88-2l-2.62-.83A1.45,1.45,0,0,0,337.65,137.22Z" transform="translate(-13.9 -28.31)"/><path class="cls-14" d="M336.69,156.82a2.76,2.76,0,1,1-.57-3.86A2.76,2.76,0,0,1,336.69,156.82Z" transform="translate(-13.9 -28.31)"/><path class="cls-11" d="M425.26,135l-5.12,23.34a4.13,4.13,0,0,0,5.25,4.83L448,156.24a4.39,4.39,0,0,0,1.6-7.5L431.49,133A3.81,3.81,0,0,0,425.26,135Z" transform="translate(-13.9 -28.31)"/><g class="cls-12"><path class="cls-13" d="M426,136.35s-.08-.34.14-.92a3.49,3.49,0,0,1,1.92-1.89,3.83,3.83,0,0,1,2-.25,4.27,4.27,0,0,1,2.15,1.08l4.12,3.42c3,2.59,6.63,5.65,10.62,9l1.51,1.3a4.74,4.74,0,0,1,1.36,2,4.81,4.81,0,0,1-3.15,6.17l-2.09.65-4.29,1.32-8.46,2.58-4,1.21-1,.3-.49.14-.6.14a4.51,4.51,0,0,1-2.39-.27,4.57,4.57,0,0,1-2.77-3.48,5.27,5.27,0,0,1,0-1.12l.09-.54.1-.45.4-1.73,1.5-6.32c.93-3.86,1.71-7,2.29-9.12a13,13,0,0,1,1.07-3.29,13.12,13.12,0,0,1-.4,3.44c-.38,2.19-1,5.34-1.74,9.24-.4,1.95-.83,4.08-1.29,6.36l-.36,1.74-.09.44,0,.36a4.41,4.41,0,0,0,0,.73,3,3,0,0,0,1.85,2.23,2.8,2.8,0,0,0,1.52.15l.39-.1.48-.15,1-.31,4-1.25,8.44-2.61,4.29-1.32,2.1-.64a3.11,3.11,0,0,0,1.2-5.29l-1.48-1.32-10.37-9.32-3.95-3.62a3.11,3.11,0,0,0-3.28-.93,3.32,3.32,0,0,0-1.83,1.41C426.19,136.06,426.11,136.37,426,136.35Z" transform="translate(-13.9 -28.31)"/></g><path class="cls-14" d="M428.51,141l3.09,8.28a1.43,1.43,0,0,0,1.68.89h0a1.43,1.43,0,0,0,1.07-1.65l-1.64-8.78a1.12,1.12,0,0,0-1.44-.86l-2,.65A1.12,1.12,0,0,0,428.51,141Z" transform="translate(-13.9 -28.31)"/><path class="cls-14" d="M436.71,153.91a2.16,2.16,0,1,1-2.1-2.21A2.15,2.15,0,0,1,436.71,153.91Z" transform="translate(-13.9 -28.31)"/><path class="cls-2" d="M329.5,238.34a4.36,4.36,0,0,1-.79-.73,9.64,9.64,0,0,1-.84-1,15.48,15.48,0,0,1-1-1.34,24,24,0,0,1-2.16-3.79,26.89,26.89,0,0,1-1.68-5.09,27.75,27.75,0,0,1-.57-5.33,24.56,24.56,0,0,1,.41-4.35,15.86,15.86,0,0,1,.38-1.63,9.41,9.41,0,0,1,.37-1.21,3.59,3.59,0,0,1,.43-1c.1,0-.41,1.48-.77,3.9a27.09,27.09,0,0,0-.28,4.28,26.84,26.84,0,0,0,2.2,10.2,27.63,27.63,0,0,0,2,3.78C328.52,237.15,329.59,238.26,329.5,238.34Z" transform="translate(-13.9 -28.31)"/><path class="cls-2" d="M339.32,239.76a4.54,4.54,0,0,1-1-.62,9.35,9.35,0,0,1-1.05-.82,15.33,15.33,0,0,1-1.3-1.21,22.9,22.9,0,0,1-2.93-3.59,27.4,27.4,0,0,1-2.57-5.05,26.55,26.55,0,0,1-1.37-5.51,23.2,23.2,0,0,1-.15-4.62,16.13,16.13,0,0,1,.2-1.77,8.28,8.28,0,0,1,.25-1.31,4.84,4.84,0,0,1,.32-1.1c.12,0-.27,1.61-.35,4.2a25.67,25.67,0,0,0,.26,4.53,28.78,28.78,0,0,0,1.39,5.37,28.09,28.09,0,0,0,2.48,5,25.54,25.54,0,0,0,2.77,3.59C338.06,238.73,339.39,239.66,339.32,239.76Z" transform="translate(-13.9 -28.31)"/><path class="cls-2" d="M444.15,227.75c-.1-.05.78-1.62,1.78-4.33a38.16,38.16,0,0,0,1.41-4.85,37,37,0,0,0,.59-12.3,38.51,38.51,0,0,0-.94-5c-.73-2.79-1.46-4.44-1.35-4.48a5.92,5.92,0,0,1,.57,1.13,24.3,24.3,0,0,1,1.18,3.24,32.89,32.89,0,0,1,1.07,5,34.54,34.54,0,0,1-.6,12.49,31.35,31.35,0,0,1-1.55,4.88,24.22,24.22,0,0,1-1.48,3.12A4.79,4.79,0,0,1,444.15,227.75Z" transform="translate(-13.9 -28.31)"/><path class="cls-2" d="M453.2,225.43c-.09-.05.61-1.33,1.36-3.55a26.45,26.45,0,0,0,1-4,30.86,30.86,0,0,0,.42-5,30.45,30.45,0,0,0-.49-5,28.75,28.75,0,0,0-1.08-4c-.78-2.2-1.5-3.47-1.41-3.53s.24.29.58.86a17.87,17.87,0,0,1,1.22,2.53,23.77,23.77,0,0,1,1.22,4,28.34,28.34,0,0,1,.55,5.09,27.68,27.68,0,0,1-.48,5.09,24.09,24.09,0,0,1-1.16,4,17.8,17.8,0,0,1-1.18,2.55C453.44,225.15,453.24,225.45,453.2,225.43Z" transform="translate(-13.9 -28.31)"/><rect class="cls-15" x="311.54" y="228.5" width="126.72" height="32.83" rx="4.22"/><text class="cls-16" transform="translate(352.84 248.89)">ALE<tspan class="cls-17" x="26.71" y="0">R</tspan><tspan x="36.36" y="0">T</tspan></text><rect class="cls-3" x="297.92" y="61.1" width="149.02" height="20.47"/><circle class="cls-5" cx="307.11" cy="71.52" r="2.81"/><circle class="cls-5" cx="318.61" cy="71.52" r="2.81"/><path class="cls-5" d="M346.82,99.84A2.81,2.81,0,1,1,344,97,2.8,2.8,0,0,1,346.82,99.84Z" transform="translate(-13.9 -28.31)"/><path class="cls-2" d="M616.05,369.92l-15.68-3.86.11,0A26,26,0,0,1,587,370.1a28.31,28.31,0,0,1-8.39-1.22,26.3,26.3,0,0,1-18.06-21.81,26,26,0,0,1,6.74-20.93,26.65,26.65,0,0,1,4.54-4c.84-.52,1.68-1.07,2.55-1.53l1.34-.64.66-.32.69-.25a26.56,26.56,0,0,1,11.28-1.72,26.09,26.09,0,0,1,23,17.57,26.79,26.79,0,0,1,1.45,8.47A26,26,0,0,1,609,357.34v-.14l7,12.72-7.3-12.58,0-.07,0-.08a25.77,25.77,0,0,0,3.62-13.43,26.83,26.83,0,0,0-1.46-8.33,25.65,25.65,0,0,0-22.65-17.2,26,26,0,0,0-11,1.69l-.68.25-.65.31-1.3.63c-.86.45-1.68,1-2.51,1.5a27.28,27.28,0,0,0-4.45,3.88,25.74,25.74,0,0,0,3,37.69,25.4,25.4,0,0,0,8,4.29,27.78,27.78,0,0,0,8.25,1.24,25.73,25.73,0,0,0,13.38-3.92l.06,0,.06,0Z" transform="translate(-13.9 -28.31)"/><path class="cls-1" d="M584.38,332.25l.83,13.1a2.12,2.12,0,0,0,2,2h0a2.14,2.14,0,0,0,2.24-1.89l1.45-13.17a1.67,1.67,0,0,0-1.68-1.85l-3.19.05A1.66,1.66,0,0,0,584.38,332.25Z" transform="translate(-13.9 -28.31)"/><path class="cls-1" d="M590.67,354.7a3.2,3.2,0,1,1-2-4A3.19,3.19,0,0,1,590.67,354.7Z" transform="translate(-13.9 -28.31)"/></g><g id="Floor"><path class="cls-2" d="M835.32,551.89c0,.14-152.67.26-341,.26s-341-.12-341-.26,152.64-.26,341-.26S835.32,551.74,835.32,551.89Z" transform="translate(-13.9 -28.31)"/></g><g id="Speaker"><rect class="cls-2" x="678.51" y="122.05" width="8.08" height="15.18" transform="translate(1351.19 230.97) rotate(180)"/><rect class="cls-9" x="652.73" y="133.19" width="66.76" height="115.83" transform="translate(1358.31 353.89) rotate(180)"/><rect class="cls-2" x="719.49" y="133.19" width="20.52" height="115.83" transform="translate(1445.59 353.89) rotate(180)"/><circle class="cls-2" cx="683.36" cy="167.56" r="19.07" transform="translate(393.97 786.67) rotate(-80.73)"/><path class="cls-9" d="M678.61,167.56a4.75,4.75,0,1,0,4.74-4.74A4.75,4.75,0,0,0,678.61,167.56Z" transform="translate(-13.9 -28.31)"/><circle class="cls-2" cx="683.36" cy="219.68" r="19.07" transform="translate(-32.28 40.35) rotate(-5.68)"/><path class="cls-9" d="M678.61,219.68a4.75,4.75,0,1,0,4.74-4.74A4.75,4.75,0,0,0,678.61,219.68Z" transform="translate(-13.9 -28.31)"/><path class="cls-2" d="M664.44,186.2s-.12-.09-.31-.29-.47-.51-.79-.93a24,24,0,0,1-2.43-3.76,25.92,25.92,0,0,1,2.38-28,23.26,23.26,0,0,1,3-3.3c.38-.36.72-.6.93-.78a1.55,1.55,0,0,1,.35-.24,12.24,12.24,0,0,1-1.14,1.17,27.6,27.6,0,0,0-2.88,3.37,27,27,0,0,0-.08,31.41A13,13,0,0,1,664.44,186.2Z" transform="translate(-13.9 -28.31)"/><path class="cls-2" d="M656.17,174.41s-.18-.24-.4-.71a12.42,12.42,0,0,1-.78-2.06,19.13,19.13,0,0,1,1.34-14.18,13,13,0,0,1,1.15-1.87c.31-.42.5-.64.53-.62s-.58,1-1.35,2.65a21.07,21.07,0,0,0-1.32,13.93C655.79,173.32,656.25,174.37,656.17,174.41Z" transform="translate(-13.9 -28.31)"/><path class="cls-2" d="M703.43,181.13c-.09,0,.65-1.58,1.38-4.22a30.66,30.66,0,0,0,.91-4.7,33.86,33.86,0,0,0,.15-5.85,35.79,35.79,0,0,0-.94-5.78,32.5,32.5,0,0,0-1.55-4.53c-1.08-2.51-2-3.93-1.94-4a5.28,5.28,0,0,1,.7,1,12.34,12.34,0,0,1,.73,1.21,18.06,18.06,0,0,1,.85,1.66,28.37,28.37,0,0,1,1.67,4.56,31.66,31.66,0,0,1,1,5.86,32,32,0,0,1-.18,6,27.66,27.66,0,0,1-1,4.74c-.18.67-.42,1.25-.61,1.76a11.57,11.57,0,0,1-.55,1.3A5.19,5.19,0,0,1,703.43,181.13Z" transform="translate(-13.9 -28.31)"/><path class="cls-2" d="M711.31,175.85c-.09,0,.31-1.39.64-3.65a31.52,31.52,0,0,0-2.47-17.38c-.94-2.07-1.7-3.27-1.62-3.32a3.56,3.56,0,0,1,.6.8,19.35,19.35,0,0,1,1.35,2.37,28.41,28.41,0,0,1,2.5,17.59,21.64,21.64,0,0,1-.64,2.65A3.64,3.64,0,0,1,711.31,175.85Z" transform="translate(-13.9 -28.31)"/><path class="cls-2" d="M660.66,228.73s-.22-.24-.53-.73a8,8,0,0,1-.51-.92,11.34,11.34,0,0,1-.56-1.28,16.62,16.62,0,0,1-1-3.52,19.79,19.79,0,0,1-.15-4.47,19.51,19.51,0,0,1,.92-4.37,17.12,17.12,0,0,1,1.55-3.31,12.25,12.25,0,0,1,.78-1.16,6.32,6.32,0,0,1,.66-.82c.39-.43.62-.66.64-.63s-.78,1-1.76,2.8a18.5,18.5,0,0,0-1.41,3.27,19.09,19.09,0,0,0-.75,8.62,19.18,19.18,0,0,0,.82,3.46C660.07,227.6,660.75,228.68,660.66,228.73Z" transform="translate(-13.9 -28.31)"/><path class="cls-2" d="M706.41,226.25c-.09-.05.45-1.11,1-2.93a21.36,21.36,0,0,0,.66-3.27,22.6,22.6,0,0,0,.07-4.06,22.07,22.07,0,0,0-.74-4,20.6,20.6,0,0,0-1.17-3.12c-.82-1.71-1.53-2.67-1.45-2.73s.22.21.55.63a13.4,13.4,0,0,1,1.23,1.94,18.62,18.62,0,0,1,1.3,3.14,20.6,20.6,0,0,1,.79,4.09,20.35,20.35,0,0,1-.11,4.17,16.83,16.83,0,0,1-.78,3.31,12.44,12.44,0,0,1-.89,2.11A2.74,2.74,0,0,1,706.41,226.25Z" transform="translate(-13.9 -28.31)"/><rect class="cls-2" x="725.42" y="122.05" width="8.08" height="15.18" transform="translate(1445.01 230.97) rotate(180)"/></g><g id="Musical_notes" data-name="Musical notes"><path class="cls-2" d="M549.26,202.74a3.32,3.32,0,1,1-4.19-2.11A3.31,3.31,0,0,1,549.26,202.74Z" transform="translate(-13.9 -28.31)"/><path class="cls-2" d="M548.46,201.84c-.11.17-3-1.77-6.11-4.74s-5.5-5.38-5.39-5.52,2.84,2,5.9,5S548.58,201.68,548.46,201.84Z" transform="translate(-13.9 -28.31)"/><path class="cls-2" d="M541.63,186.19c.19,0,.06,1.87-1.34,3.58s-3.18,2.26-3.22,2.07,1.41-1,2.65-2.52S541.42,186.14,541.63,186.19Z" transform="translate(-13.9 -28.31)"/><path class="cls-2" d="M544,188.71c.19,0,.14,1.85-1.34,3.42s-3.33,1.78-3.32,1.59,1.5-.67,2.78-2.08S543.77,188.67,544,188.71Z" transform="translate(-13.9 -28.31)"/><path class="cls-2" d="M616.16,279.33a3.32,3.32,0,1,1,1.92-4.29A3.32,3.32,0,0,1,616.16,279.33Z" transform="translate(-13.9 -28.31)"/><path class="cls-2" d="M617,278.48c-.17-.1,1.63-3.1,4.46-6.31s5.12-5.75,5.27-5.65-1.9,2.94-4.72,6.12S617.19,278.59,617,278.48Z" transform="translate(-13.9 -28.31)"/><path class="cls-2" d="M632.35,270.94c0,.19-1.87.15-3.65-1.17s-2.39-3.08-2.21-3.13,1,1.37,2.65,2.54S632.38,270.73,632.35,270.94Z" transform="translate(-13.9 -28.31)"/><path class="cls-2" d="M629.94,273.4c0,.2-1.84.23-3.49-1.18s-1.93-3.24-1.73-3.24.74,1.46,2.21,2.68S630,273.19,629.94,273.4Z" transform="translate(-13.9 -28.31)"/><path class="cls-2" d="M586.9,153a4.38,4.38,0,1,1,1.11-6.1A4.38,4.38,0,0,1,586.9,153Z" transform="translate(-13.9 -28.31)"/><path class="cls-2" d="M587.74,151.63c-.4-.13.85-4.6,3.47-9.62s4.84-8.92,5.2-8.77-1.25,4.49-3.85,9.45S588.14,151.77,587.74,151.63Z" transform="translate(-13.9 -28.31)"/><path class="cls-2" d="M607.54,142.05c0,.35-3.67.31-7.37-2.13a10.26,10.26,0,0,1-3.75-4.12c-.63-1.35-.47-2.32-.29-2.32s.46.76,1.22,1.79a13.88,13.88,0,0,0,3.66,3.39C604.32,140.86,607.64,141.58,607.54,142.05Z" transform="translate(-13.9 -28.31)"/><path class="cls-2" d="M598,161.79a4.38,4.38,0,1,1,1.11-6.1A4.38,4.38,0,0,1,598,161.79Z" transform="translate(-13.9 -28.31)"/><path class="cls-2" d="M598.87,160.44c-.41-.13.85-4.61,3.46-9.63s4.85-8.91,5.21-8.76-1.25,4.48-3.85,9.45S599.26,160.57,598.87,160.44Z" transform="translate(-13.9 -28.31)"/><path class="cls-2" d="M606.29,144.76c0,.4-3.47.58-7-1.57s-5-5.3-4.68-5.46,2.25,2.26,5.46,4.15S606.33,144.32,606.29,144.76Z" transform="translate(-13.9 -28.31)"/><path class="cls-2" d="M615.51,208.3a2.23,2.23,0,1,1,.73-3.07A2.23,2.23,0,0,1,615.51,208.3Z" transform="translate(-13.9 -28.31)"/><path class="cls-2" d="M616,207.63c-.2-.07.56-2.32,2-4.8s2.7-4.41,2.88-4.33-.75,2.25-2.21,4.71S616.17,207.71,616,207.63Z" transform="translate(-13.9 -28.31)"/><path class="cls-2" d="M626.31,203.28c0,.18-1.88.06-3.7-1.28a5.2,5.2,0,0,1-1.8-2.19c-.28-.71-.18-1.2-.09-1.19s.22.4.58.94a6.93,6.93,0,0,0,1.77,1.82C624.7,202.59,626.37,203,626.31,203.28Z" transform="translate(-13.9 -28.31)"/><path class="cls-2" d="M620.94,213.07a2.23,2.23,0,1,1,.73-3.07A2.23,2.23,0,0,1,620.94,213.07Z" transform="translate(-13.9 -28.31)"/><path class="cls-2" d="M621.41,212.41c-.21-.08.55-2.32,2-4.81s2.7-4.41,2.89-4.32-.76,2.25-2.21,4.71S621.6,212.49,621.41,212.41Z" transform="translate(-13.9 -28.31)"/><path class="cls-2" d="M625.6,204.63c0,.2-1.78.2-3.53-1s-2.43-2.83-2.24-2.9,1.08,1.21,2.67,2.26S625.63,204.4,625.6,204.63Z" transform="translate(-13.9 -28.31)"/><path class="cls-2" d="M549.24,280.35a2.23,2.23,0,1,1,.72-3.07A2.24,2.24,0,0,1,549.24,280.35Z" transform="translate(-13.9 -28.31)"/><path class="cls-2" d="M549.7,279.69c-.2-.08.55-2.32,2-4.81s2.7-4.41,2.88-4.32-.76,2.25-2.21,4.71S549.9,279.77,549.7,279.69Z" transform="translate(-13.9 -28.31)"/><path class="cls-2" d="M560,275.33c0,.18-1.88.06-3.7-1.27a5.3,5.3,0,0,1-1.8-2.2c-.28-.7-.18-1.19-.08-1.19s.21.4.57.94a7.1,7.1,0,0,0,1.77,1.82C558.42,274.64,560.09,275.1,560,275.33Z" transform="translate(-13.9 -28.31)"/><path class="cls-2" d="M554.67,285.13a2.23,2.23,0,1,1,.72-3.07A2.24,2.24,0,0,1,554.67,285.13Z" transform="translate(-13.9 -28.31)"/><path class="cls-2" d="M555.13,284.46c-.2-.07.55-2.32,2-4.81s2.7-4.4,2.88-4.32-.76,2.25-2.21,4.71S555.33,284.54,555.13,284.46Z" transform="translate(-13.9 -28.31)"/><path class="cls-2" d="M559.32,276.68c0,.2-1.78.2-3.53-1s-2.43-2.83-2.24-2.9,1.08,1.21,2.67,2.26S559.35,276.46,559.32,276.68Z" transform="translate(-13.9 -28.31)"/><path class="cls-2" d="M582.05,245.08a3.52,3.52,0,1,1-2.26-4.44A3.51,3.51,0,0,1,582.05,245.08Z" transform="translate(-13.9 -28.31)"/><path class="cls-2" d="M581.93,243.81c-.32.11-1.7-3.36-2.48-7.85s-1.26-8.07-1-8.15,1.39,3.48,2.15,7.93S582.25,243.7,581.93,243.81Z" transform="translate(-13.9 -28.31)"/><path class="cls-2" d="M589.91,228c.17.23-2.19,2-5.75,2.24a8.27,8.27,0,0,1-4.41-.81c-1.06-.55-1.44-1.25-1.32-1.34s.67.27,1.66.55a11.22,11.22,0,0,0,4,.38C587.27,228.82,589.75,227.66,589.91,228Z" transform="translate(-13.9 -28.31)"/><path class="cls-2" d="M593.47,245.28a3.53,3.53,0,1,1-2.27-4.44A3.53,3.53,0,0,1,593.47,245.28Z" transform="translate(-13.9 -28.31)"/><path class="cls-2" d="M593.35,244c-.32.11-1.71-3.37-2.49-7.85s-1.25-8.07-1-8.15,1.39,3.48,2.15,7.92S593.66,243.9,593.35,244Z" transform="translate(-13.9 -28.31)"/><path class="cls-2" d="M590.44,230.36c.21.23-1.93,2.06-5.26,2.41s-5.82-.92-5.66-1.2,2.54.35,5.52,0S590.25,230.05,590.44,230.36Z" transform="translate(-13.9 -28.31)"/></g><g id="Character_1" data-name="Character 1"><path class="cls-1" d="M717.92,569.42a34.51,34.51,0,0,1,2.56-7.22,16.44,16.44,0,0,0,1.56-6.74l.1-.64c.47-6.56,1.49-13.88,1.88-20.32l21.07.48c1.81,1.95,2.08,4.88,1.69,7.51s-1.35,5.14-1.67,7.77c-.47,3.86.45,7.76.08,11.63a18.51,18.51,0,0,1-6,11.8,20.09,20.09,0,0,1-12.3,5c-2.58.14-5.39-.3-7.2-2.14S717.48,571.94,717.92,569.42Z" transform="translate(-13.9 -28.31)"/><path class="cls-13" d="M722,556.26" transform="translate(-13.9 -28.31)"/><path class="cls-13" d="M722.14,554.81" transform="translate(-13.9 -28.31)"/><path class="cls-18" d="M714.87,484.11l33.37,5.57,7.58,13v3.18s0,5.82,0,9-11.74,21.85-11.74,21.85l-19,.79s-.67-3.43-4.54-8.81c-3-4.2-7.63-6.28-9.42-12.11a64.15,64.15,0,0,1-2.26-12.29Z" transform="translate(-13.9 -28.31)"/><path class="cls-19" d="M747.86,531.59a10.25,10.25,0,0,0,.77-1.47c.47-1,1.13-2.35,1.84-4.12a33.44,33.44,0,0,0,1.94-6.44,19.62,19.62,0,0,0-.16-8.23,14.44,14.44,0,0,0-4.19-7.07,21.65,21.65,0,0,0-5.57-3.77,31.39,31.39,0,0,0-4.21-1.68c-.5-.16-.9-.27-1.18-.34s-.41-.1-.42-.08a11.45,11.45,0,0,0,1.54.62,38.75,38.75,0,0,1,4.1,1.81,22.19,22.19,0,0,1,5.4,3.79,14.17,14.17,0,0,1,4,6.85,19.83,19.83,0,0,1,.19,8,36.61,36.61,0,0,1-1.8,6.38c-.67,1.78-1.28,3.2-1.68,4.18A9,9,0,0,0,747.86,531.59Z" transform="translate(-13.9 -28.31)"/><path class="cls-4" d="M746,533.7c-.06.09-2.46,4.23-4.22,7.25a10,10,0,0,1-6.28,4.73c-2.74.66-6.05.78-7.8-1.63l-.49-.68a15.48,15.48,0,0,1-2.33-4.84,27.79,27.79,0,0,0-1.5-4.38,5.65,5.65,0,0,1-.87-2.53c7.17,2.59,15.17,2.87,23.67,1.78" transform="translate(-13.9 -28.31)"/><path class="cls-3" d="M745.09,535H743s2.82,4.83,2.06,6.7a42.1,42.1,0,0,0-1.86,9.31c-.18,2.72.73,10.93-1.33,14.58s-5.22,8.76-10.84,10.12-9.91-.72-11-3.34,1.84-14.56,1.84-14.56l-1.38,4.41a34.51,34.51,0,0,0-2.56,7.22c-.44,2.52,0,5.36,1.77,7.18s4.62,2.28,7.2,2.14a20.09,20.09,0,0,0,12.3-5,18.51,18.51,0,0,0,6-11.8c.37-3.87-.55-7.77-.08-11.63.32-2.63,1.28-5.15,1.67-7.77s.12-5.56-1.69-7.51" transform="translate(-13.9 -28.31)"/><path class="cls-2" d="M728.19,550.69s.3.44,1,.87a7.19,7.19,0,0,0,3,1,7.08,7.08,0,0,0,3.16-.39c.77-.29,1.17-.6,1.14-.65a13.7,13.7,0,0,1-4.24.51A13.06,13.06,0,0,1,728.19,550.69Z" transform="translate(-13.9 -28.31)"/><path class="cls-2" d="M727.16,555s.29.43,1,.87a7.33,7.33,0,0,0,3,1,7.23,7.23,0,0,0,3.16-.39c.77-.29,1.17-.61,1.14-.66a9.77,9.77,0,0,1-8.3-.82Z" transform="translate(-13.9 -28.31)"/><path class="cls-2" d="M726.05,558.84s.26.46.92.94a7,7,0,0,0,2.94,1.21,7.17,7.17,0,0,0,3.18-.16c.79-.24,1.21-.52,1.18-.58a12.88,12.88,0,0,1-4.27.22A13,13,0,0,1,726.05,558.84Z" transform="translate(-13.9 -28.31)"/><path class="cls-2" d="M731.56,550.52a1.34,1.34,0,0,0,.05-.41,8.43,8.43,0,0,0-.07-1.2,9.43,9.43,0,0,0-1.64-4.09,8.21,8.21,0,0,0-2.22-2.17,1.48,1.48,0,0,0-.93-.21.88.88,0,0,0-.73.78,2.33,2.33,0,0,0,.17,1c.1.29.21.57.33.86a12.67,12.67,0,0,0,2.09,3.29,9,9,0,0,0,1.52,1.43,2.74,2.74,0,0,0,2.18.5,11.15,11.15,0,0,0,2-.79c.63-.29,1.24-.58,1.84-.88a22.44,22.44,0,0,0,3.32-2,3,3,0,0,0,.7-.68,1.3,1.3,0,0,0,.23-1,.93.93,0,0,0-.72-.77,1.86,1.86,0,0,0-.93.1,13.4,13.4,0,0,0-6.06,4.26c-.32.41-.54.75-.69,1s-.2.36-.18.37.35-.45,1-1.22a14.24,14.24,0,0,1,3.32-2.75,13.84,13.84,0,0,1,2.71-1.22c.49-.17,1-.14,1.07.33s-.28.88-.77,1.22a23.72,23.72,0,0,1-3.26,1.92c-.59.29-1.2.58-1.83.86a9.82,9.82,0,0,1-1.88.75,2.18,2.18,0,0,1-1.77-.42A8.18,8.18,0,0,1,729,548a12.24,12.24,0,0,1-2-3.15,4.11,4.11,0,0,1-.48-1.57c0-.46.55-.49,1-.24a8,8,0,0,1,2.12,2,9.67,9.67,0,0,1,1.73,3.9C731.52,550,731.51,550.52,731.56,550.52Z" transform="translate(-13.9 -28.31)"/><path class="cls-18" d="M651.79,450.26s-13.1-6-24.35-9c-6-1.6-11.51-2.33-14.17-.8C605.63,444.85,601,450,600,458s-1.46,92-1.46,92L618,553.3l7.64-35.49s5.18-10.72,5.69-21.36.43-12.34.43-12.34l17.92,12.34,6.7-28.49Z" transform="translate(-13.9 -28.31)"/><path class="cls-4" d="M618.52,552.19c.45-.65,4-19.73,4-19.73l-24.12-3.25-.69,21.89Z" transform="translate(-13.9 -28.31)"/><path class="cls-1" d="M595.35,547.65l-.05,1.61s-27.11,10.27-27.53,15.44l53.31,1.07-.37-18C612.71,551.31,604.41,551.56,595.35,547.65Z" transform="translate(-13.9 -28.31)"/><g class="cls-20"><path class="cls-13" d="M615.2,553.39a2.22,2.22,0,0,1,1.46,2.56,2.09,2.09,0,0,1-2.48,1.48,2.32,2.32,0,0,1-1.53-2.71,2.16,2.16,0,0,1,2.75-1.26" transform="translate(-13.9 -28.31)"/></g><path class="cls-2" d="M595.11,549.41c0,.26,1.31.41,2.57,1.29s1.92,2,2.17,1.9-.12-1.64-1.67-2.67S595.06,549.17,595.11,549.41Z" transform="translate(-13.9 -28.31)"/><path class="cls-2" d="M589.48,551.65c-.07.25,1,.72,1.91,1.86s1.09,2.32,1.35,2.32.46-1.5-.64-2.89S589.49,551.39,589.48,551.65Z" transform="translate(-13.9 -28.31)"/><path class="cls-2" d="M586.16,558.38c.24.06.63-1.25,0-2.71s-1.85-2.07-2-1.85.62,1,1.13,2.22S585.91,558.35,586.16,558.38Z" transform="translate(-13.9 -28.31)"/><path class="cls-3" d="M621.08,561.79a14,14,0,0,0,.2,2.54,3.89,3.89,0,0,1-1.22,3.51h0l-30.24-.66-22.38-.55s-.91-2.16,2-4.43Z" transform="translate(-13.9 -28.31)"/><path class="cls-2" d="M595,549s.13,0,.35-.16a5.39,5.39,0,0,0,.86-.67,6.2,6.2,0,0,0,1.77-3.59,5.82,5.82,0,0,0-.32-2.81,1.75,1.75,0,0,0-1.2-1.19,1.65,1.65,0,0,0-1.58.86,10.75,10.75,0,0,0-.67,7.28l.52-.07,0-.45a9.73,9.73,0,0,0-3.35-6.65,1.67,1.67,0,0,0-.92-.32,1.06,1.06,0,0,0-.89.46,1.85,1.85,0,0,0-.06,1.72,11.71,11.71,0,0,0,1.3,2.55,11.86,11.86,0,0,0,2.87,2.95,10.81,10.81,0,0,0,1,.59c.23.11.35.17.36.15s-.44-.31-1.19-.91a12.86,12.86,0,0,1-2.68-3,11.76,11.76,0,0,1-1.2-2.49,1.41,1.41,0,0,1,0-1.3c.24-.36.73-.31,1.15,0a9.3,9.3,0,0,1,3.1,6.28l0,.42.52-.07a10.53,10.53,0,0,1,.57-6.9,1.17,1.17,0,0,1,1.1-.65c.4.06.69.47.87.9a5.43,5.43,0,0,1,.35,2.6,6.28,6.28,0,0,1-1.54,3.49C595.44,548.7,595,549,595,549Z" transform="translate(-13.9 -28.31)"/><path class="cls-19" d="M622.3,461.89c-.07.06.89,1.24,2.24,3.29a45.23,45.23,0,0,1,6.9,17.68c.4,2.42.5,3.95.59,3.94a4.67,4.67,0,0,0,0-1.07,26.66,26.66,0,0,0-.24-2.92,39.71,39.71,0,0,0-7-17.84,27.42,27.42,0,0,0-1.8-2.31A4.34,4.34,0,0,0,622.3,461.89Z" transform="translate(-13.9 -28.31)"/><path class="cls-9" d="M643.76,501.78l28.09,4.65s29.49,10.13,38.51,7.3c0,0-5.34-27.11,15.83-24.57,27.3,3.26,29.63,23.66,29.63,23.66a31.19,31.19,0,0,0,6.1-16.37c.85-10.13-2-21.2-2-21.2L757.1,468,679.26,454.9l-38.59-12.11-13.23-1.54s13.74,19.57,15.29,29.87S643.76,501.78,643.76,501.78Z" transform="translate(-13.9 -28.31)"/><path class="cls-2" d="M703.88,482.43a6,6,0,0,0-.46,1.17A11.44,11.44,0,0,0,703,485c-.14.56-.34,1.19-.46,1.91a32,32,0,0,0-.61,5.06,33.32,33.32,0,0,0,1.84,12.3,33.77,33.77,0,0,0,2.07,4.66c.33.65.7,1.19,1,1.68a11.78,11.78,0,0,0,.83,1.23,5,5,0,0,0,.79,1c.08-.06-1-1.5-2.28-4.06a34.06,34.06,0,0,1-1.94-4.64,38.52,38.52,0,0,1-1.45-6,39.16,39.16,0,0,1-.37-6.15,35.85,35.85,0,0,1,.49-5C703.38,484.15,704,482.46,703.88,482.43Z" transform="translate(-13.9 -28.31)"/><path class="cls-2" d="M681.31,484.11a21.07,21.07,0,0,0,1.31,2.77c.84,1.69,2,4,3,6.7s2,5.12,2.54,6.92a21.33,21.33,0,0,0,1,2.89,14.8,14.8,0,0,0-.66-3,60.07,60.07,0,0,0-2.4-7A62.86,62.86,0,0,0,683,486.7,15.91,15.91,0,0,0,681.31,484.11Z" transform="translate(-13.9 -28.31)"/><path class="cls-2" d="M651.74,479.13a3.38,3.38,0,0,0,.2.91c.16.58.42,1.4.77,2.41a73.06,73.06,0,0,0,3.21,7.69,74.81,74.81,0,0,0,4.07,7.28c.58.89,1.06,1.61,1.42,2.09s.56.73.59.71a28.3,28.3,0,0,0-1.69-3c-1.07-1.83-2.49-4.4-3.91-7.31s-2.56-5.62-3.34-7.59A26.61,26.61,0,0,0,651.74,479.13Z" transform="translate(-13.9 -28.31)"/><path class="cls-1" d="M735.1,373.81s12.25,5.18,16.61,17.7,13.89,61,8.71,74.88-60.72,15.52-60.72,15.52l-11.43-1.09V463.67l9.26-1.36s5.44-2.73,6.26-2.73,29.13-9.8,29.13-9.8l-1.36-4.9s-7.89-11.71-8.17-17,1.71-27.63,1.71-27.63Z" transform="translate(-13.9 -28.31)"/><path class="cls-1" d="M671.19,364.09l63.91,9.72,1.65,73.79-22.89,17.7-49-6L650,403.82s-7.75-15-2.1-27.58c1.82-4.08,7.33-11.06,11.81-11.95A32.49,32.49,0,0,1,671.19,364.09Z" transform="translate(-13.9 -28.31)"/><path class="cls-1" d="M688.44,393.5c5.93-3.93,13-5.83,17.77-11.09s3.95-7.74,5.83-14l10.24,5c-1.27,10.35-6.43,16.27-15,22.25a23.2,23.2,0,0,1-9.7,4.21,13.3,13.3,0,0,1-10.11-2.32,2.54,2.54,0,0,1-.89-1C686.15,395.35,687.37,394.21,688.44,393.5Z" transform="translate(-13.9 -28.31)"/><path class="cls-2" d="M647.73,389.49a3.24,3.24,0,0,0,.07,1c.08.62.21,1.51.39,2.6.36,2.2.92,5.22,1.61,8.54s1.38,6.32,1.92,8.48c.28,1.07.51,1.94.68,2.54a3.17,3.17,0,0,0,.32.92,25.39,25.39,0,0,0-.63-3.55c-.48-2.31-1.1-5.25-1.77-8.5l-1.76-8.5A27.53,27.53,0,0,0,647.73,389.49Z" transform="translate(-13.9 -28.31)"/><path class="cls-2" d="M714.09,380.45a13.3,13.3,0,0,1,3.11-2.09,14,14,0,0,1,3.91-1.09,27.25,27.25,0,0,1,5-.14c1.79.09,3.5.23,5.06.26a23.88,23.88,0,0,0,4.17-.25,13.31,13.31,0,0,0,2.71-.73,3.36,3.36,0,0,0,.92-.47,20.81,20.81,0,0,1-7.78,1c-1.55,0-3.25-.21-5.06-.3a26.48,26.48,0,0,0-5.1.18,13.56,13.56,0,0,0-4,1.24,9.11,9.11,0,0,0-2.31,1.62C714.26,380.12,714.06,380.43,714.09,380.45Z" transform="translate(-13.9 -28.31)"/><path class="cls-2" d="M700.12,396.91a3.05,3.05,0,0,0,.83-.22,18,18,0,0,0,2.14-.91,25.71,25.71,0,0,0,11-10.46,18,18,0,0,0,1-2.09c.2-.51.3-.8.26-.82s-.58,1.07-1.6,2.72A29.55,29.55,0,0,1,709,391a29.91,29.91,0,0,1-6.1,4.45C701.22,396.38,700.09,396.83,700.12,396.91Z" transform="translate(-13.9 -28.31)"/><path class="cls-2" d="M675.67,373.46a2.59,2.59,0,0,0-.18.81,17.24,17.24,0,0,0-.2,2.26,26.11,26.11,0,0,0,3.76,14.35,19.05,19.05,0,0,0,1.28,1.87c.34.42.53.64.56.62s-.61-1-1.52-2.68a30.06,30.06,0,0,1-3.71-14.15C675.64,374.64,675.76,373.47,675.67,373.46Z" transform="translate(-13.9 -28.31)"/><path class="cls-2" d="M722.35,432.79a2,2,0,0,0-.07-.51c-.09-.39-.19-.87-.31-1.45a21.36,21.36,0,0,1-.46-2.29c-.14-.9-.35-1.91-.44-3.06-.07-.57-.13-1.17-.2-1.78s-.06-1.28-.1-1.95c-.1-1.34,0-2.78,0-4.29a57.89,57.89,0,0,1,1.25-9.75,58.77,58.77,0,0,1,3-9.36c.63-1.37,1.2-2.69,1.86-3.87.33-.59.61-1.18.93-1.71s.64-1,.93-1.54c.57-1,1.2-1.82,1.71-2.57s1-1.38,1.39-1.88l.9-1.18a2.41,2.41,0,0,0,.29-.43s-.14.11-.37.36l-1,1.12a18.78,18.78,0,0,0-1.46,1.84c-.54.74-1.2,1.55-1.79,2.54l-1,1.53c-.34.54-.63,1.12-1,1.72-.69,1.17-1.27,2.5-1.92,3.88a51.15,51.15,0,0,0-4.32,19.28c0,1.53,0,3,.08,4.33,0,.68.06,1.34.14,2s.15,1.22.23,1.8c.11,1.15.36,2.17.52,3.07a19.22,19.22,0,0,0,.55,2.28l.4,1.43A1.63,1.63,0,0,0,722.35,432.79Z" transform="translate(-13.9 -28.31)"/><path class="cls-2" d="M729,443.92a29.3,29.3,0,0,0-1.9-5.34,30.65,30.65,0,0,0-2.38-5.13,29.65,29.65,0,0,0,1.9,5.33A31.52,31.52,0,0,0,729,443.92Z" transform="translate(-13.9 -28.31)"/><path class="cls-2" d="M686.51,463.93a2,2,0,0,0,.56,0l1.59-.2,5.84-.83,19.22-2.93,1.25-.19.1,0,.06-.07a60.17,60.17,0,0,1,14.07-11.94c2-1.23,3.7-2.12,4.87-2.71l1.36-.68c.31-.15.47-.24.46-.26a1.7,1.7,0,0,0-.5.17c-.32.13-.8.31-1.4.59a49.33,49.33,0,0,0-5,2.58,57.23,57.23,0,0,0-14.28,11.9l.16-.09-1.25.2-19.2,3.08-5.81,1-1.58.29A2.46,2.46,0,0,0,686.51,463.93Z" transform="translate(-13.9 -28.31)"/><path class="cls-2" d="M667.16,421.89s.06.17.22.45l.71,1.25c.31.54.71,1.2,1.22,1.92s1.05,1.59,1.76,2.45,1.43,1.86,2.32,2.83,1.85,2,2.89,3a54.65,54.65,0,0,0,15.89,10.7c1.37.57,2.66,1.14,3.91,1.54s2.41.8,3.49,1.1,2.07.51,2.93.7a20.71,20.71,0,0,0,2.24.41l1.42.19a2,2,0,0,0,.51,0,1.7,1.7,0,0,0-.49-.14l-1.4-.29c-.61-.12-1.36-.26-2.21-.5s-1.84-.42-2.9-.77-2.22-.68-3.44-1.15-2.51-1-3.86-1.57a56.74,56.74,0,0,1-15.75-10.61c-1-1-2-2-2.9-3s-1.66-1.89-2.36-2.76-1.28-1.68-1.81-2.39-.95-1.33-1.28-1.86l-.8-1.19A2.22,2.22,0,0,0,667.16,421.89Z" transform="translate(-13.9 -28.31)"/><path class="cls-13" d="M688.27,477.74a1.62,1.62,0,0,0,.37.11c.25.07.63.16,1.12.26,1,.21,2.46.47,4.37.7a68.72,68.72,0,0,0,7,.48c1.37,0,2.83,0,4.38,0s3.18-.22,4.88-.4c6.83-.74,14.92-1.95,23.83-3.68,4.45-.89,9.11-1.87,13.86-3.28,1.19-.35,2.38-.75,3.56-1.21a9,9,0,0,0,3.31-2,12.68,12.68,0,0,0,3.38-7,19,19,0,0,0,.24-4.3v0a132.68,132.68,0,0,0-2.22-27.95c-1.51-8.46-3.42-15.93-5.08-22.16s-3.1-11.23-4.07-14.69c-.49-1.7-.87-3-1.13-4l-.31-1a1.65,1.65,0,0,0-.12-.34s0,.12.07.36l.26,1c.24.94.59,2.28,1,4,.93,3.49,2.26,8.51,3.91,14.72s3.49,13.71,5,22.16A134.59,134.59,0,0,1,758,457.41h0v0a17.91,17.91,0,0,1-.23,4.16,12.24,12.24,0,0,1-3.23,6.73,8.45,8.45,0,0,1-3.14,1.87c-1.15.46-2.33.85-3.51,1.2-4.71,1.41-9.37,2.4-13.81,3.3-8.89,1.76-17,3-23.77,3.79a72.28,72.28,0,0,1-16.18.12c-1.9-.2-3.37-.43-4.37-.6l-1.12-.21Z" transform="translate(-13.9 -28.31)"/><path class="cls-13" d="M688.27,475.69a1.91,1.91,0,0,0,.37.12c.24.06.6.17,1.09.26a32.72,32.72,0,0,0,4.3.51,110.56,110.56,0,0,0,15.9-.49c6.69-.62,14.63-1.67,23.35-3.37a112.25,112.25,0,0,0,13.53-3.37,14.88,14.88,0,0,0,3.38-1.55,11.91,11.91,0,0,0,2.53-2.82,20.37,20.37,0,0,0,2.73-7.14,17.61,17.61,0,0,0,.29-1.91c.06-.66,0-1.28,0-1.92,0-1.27.08-2.53,0-3.78l-.1-3.72-.23-3.66c-.38-4.82-1-9.45-1.75-13.83-1.55-8.75-3.51-16.52-5.25-23s-3.25-11.71-4.26-15.32L743,386.54c-.13-.45-.24-.81-.31-1.07a2.3,2.3,0,0,0-.13-.37,2.47,2.47,0,0,0,.07.38c.07.27.16.63.27,1.09l1.09,4.19c1,3.65,2.37,8.89,4.1,15.35s3.61,14.26,5.13,23c.74,4.37,1.34,9,1.71,13.79l.23,3.64.09,3.71c.05,1.24,0,2.49,0,3.75,0,.63,0,1.28,0,1.89s-.17,1.24-.29,1.86a19.83,19.83,0,0,1-2.65,6.95,11.48,11.48,0,0,1-2.4,2.69,14.69,14.69,0,0,1-3.24,1.48,112.87,112.87,0,0,1-13.46,3.39c-8.69,1.72-16.62,2.8-23.29,3.46a116.71,116.71,0,0,1-15.85.67,41.6,41.6,0,0,1-4.29-.41c-.49-.08-.85-.17-1.1-.22A1.83,1.83,0,0,0,688.27,475.69Z" transform="translate(-13.9 -28.31)"/><path class="cls-1" d="M607.42,407.14c-2.42,2.3-6.94,9.16-7.78,12.39-1.32,5-2.26,12.29,1.77,15.82,6.54,5.72,41.66,12,41.66,12l6.81-16.61L633.05,418.4l19.63-8.86L658,364.86a135.58,135.58,0,0,0-26.41,20C622,394.48,613,401.84,607.42,407.14Z" transform="translate(-13.9 -28.31)"/><path class="cls-2" d="M614.38,412.68c0,.08,1.18.17,3.07.45a44.93,44.93,0,0,1,7.24,1.72,43.59,43.59,0,0,1,6.83,3c1.68.9,2.68,1.54,2.73,1.47s-.21-.22-.64-.54-1.08-.76-1.9-1.26a35.07,35.07,0,0,0-14.22-4.72c-1-.1-1.74-.14-2.28-.14A2.27,2.27,0,0,0,614.38,412.68Z" transform="translate(-13.9 -28.31)"/><path class="cls-13" d="M598.44,426.11a2.42,2.42,0,0,0,.18.47,5.82,5.82,0,0,0,.72,1.25,11.21,11.21,0,0,0,4,3.33,39.1,39.1,0,0,0,7.32,2.69c2.8.84,5.89,1.73,9.14,2.64,6.5,1.83,12.42,3.36,16.72,4.4,2.15.53,3.89.94,5.1,1.21l1.39.29a1.83,1.83,0,0,0,.5.07,1.64,1.64,0,0,0-.47-.17l-1.37-.39-5.06-1.37c-4.27-1.14-10.17-2.73-16.67-4.55l-9.14-2.6a41.11,41.11,0,0,1-7.29-2.55,11.67,11.67,0,0,1-4.06-3.13C598.75,426.74,598.5,426.09,598.44,426.11Z" transform="translate(-13.9 -28.31)"/><path class="cls-13" d="M598.85,423.28s.08.16.27.42a12,12,0,0,0,.92,1.12,16.44,16.44,0,0,0,4.15,3.29,38.29,38.29,0,0,0,7.28,2.95c2.8.9,5.85,2,9.1,3,6.5,2,12.49,3.52,16.84,4.48,2.18.48,4,.82,5.18,1.05l1.41.24a2.36,2.36,0,0,0,.5.05,1.71,1.71,0,0,0-.48-.16l-1.39-.33-5.13-1.22c-4.33-1.05-10.28-2.6-16.77-4.62-3.25-1-6.3-2.07-9.11-3a40.61,40.61,0,0,1-7.25-2.8,17.82,17.82,0,0,1-4.18-3.12C599.31,423.8,598.89,423.25,598.85,423.28Z" transform="translate(-13.9 -28.31)"/><path class="cls-13" d="M610,406.65s.17-.11.45-.36l1.22-1.12c1.12-1,2.63-2.42,4.48-4.13,3.8-3.46,9.14-8.15,15.26-13.05s11.86-9.09,16.07-12l5-3.47,1.36-.94a2.33,2.33,0,0,0,.45-.36,1.87,1.87,0,0,0-.51.27l-1.41.86c-1.23.76-3,1.89-5.11,3.33-4.27,2.88-10.06,7-16.19,11.93s-11.45,9.66-15.18,13.2c-1.87,1.77-3.36,3.22-4.37,4.25l-1.15,1.19A3.08,3.08,0,0,0,610,406.65Z" transform="translate(-13.9 -28.31)"/><path class="cls-18" d="M683.34,461.57c.22-.71.8-4.56.8-4.56l-5-8.15-10.84-8.56-18.69-8.94-6,14.64,8.7,4.27,4.56,10.07,3.6,4.67.71,10.83a1.73,1.73,0,0,0,2.3-.5c.82-1.31,1-9.25.86-8.8s1,9.91,2.07,9.91,3.62-1.61,3.62-1.61l-.79-9.54s1.5,11.45,2.41,11.15a3.56,3.56,0,0,0,2.78-3.27c0-2.17.57-15,.57-15l4.26,2.85s-3.46,7.52-2.46,8.23S681.43,467.74,683.34,461.57Z" transform="translate(-13.9 -28.31)"/><path class="cls-1" d="M696.3,361.13c4.2-3,21.71-5.74,26.74-6.91,2.55-.59,5.68-.75,7.35,1.29,1.22,1.49,1.19,3.68,2.2,5.33,2,3.27,7.27,3.2,9.36,6.43,1.79,2.76.23,6.66-2.41,8.62s-6,2.52-9.25,3.22a82.72,82.72,0,0,0-17.71,6c-1.29.61-2.86,1.24-4.05.46a3.9,3.9,0,0,1-1.35-2.47c-2-8.4-3.68-15.9,1.83-22.54Z" transform="translate(-13.9 -28.31)"/><g class="cls-10"><path d="M703.61,360.61c2.65-.54,13.3-2.43,16.21-4a4.51,4.51,0,0,1,3-.48c3.45.73,3.31,5.49,5.82,7.65,1.41,1.22,3.41,1.39,5.19,2s3.89,2.29,3.24,4.33a3,3,0,0,1-1.18,1.53,7.74,7.74,0,0,1-4,1,64.92,64.92,0,0,1-11.24,0,17.17,17.17,0,0,1-8.59-4.23v-3.95C687.56,366.3,699.81,361.4,703.61,360.61Z" transform="translate(-13.9 -28.31)"/></g><path class="cls-2" d="M669.68,325.21a5.62,5.62,0,0,1-2.59-10.87,5.84,5.84,0,0,1,4.9-9.94,7,7,0,0,1,10.43-5.93,7.86,7.86,0,0,1,9.67-.39,5.59,5.59,0,0,1,5.12,9.39" transform="translate(-13.9 -28.31)"/><path class="cls-18" d="M668.88,326a23.81,23.81,0,0,1,23.29-22.39l1.23,0c13.32.5,20.33,12.09,19.46,25.39l-1,44.33-1.67,2.62c-5.08,6.47-15.41,13.72-19.84,18.12h0c-6.88-3.54-9-5.34-9.16-13.83L681,371s-12.83-1.73-13.25-14.51C667.57,350.29,668.18,337.55,668.88,326Z" transform="translate(-13.9 -28.31)"/><path class="cls-19" d="M680.91,371a31,31,0,0,0,16.65-5.25S693.81,375,681,374.09Z" transform="translate(-13.9 -28.31)"/><path class="cls-2" d="M673.52,338.7a1.82,1.82,0,0,0,1.8,1.8,1.75,1.75,0,0,0,1.85-1.68,1.83,1.83,0,0,0-1.8-1.81A1.75,1.75,0,0,0,673.52,338.7Z" transform="translate(-13.9 -28.31)"/><path class="cls-2" d="M671.75,332.21c.23.24,1.6-.81,3.56-.85s3.42.92,3.63.67-.13-.53-.77-1a5,5,0,0,0-2.92-.84,4.81,4.81,0,0,0-2.82,1C671.83,331.68,671.64,332.11,671.75,332.21Z" transform="translate(-13.9 -28.31)"/><path class="cls-2" d="M691.14,338.37a1.82,1.82,0,0,0,1.8,1.8,1.74,1.74,0,0,0,1.84-1.68,1.83,1.83,0,0,0-1.79-1.81A1.75,1.75,0,0,0,691.14,338.37Z" transform="translate(-13.9 -28.31)"/><path class="cls-2" d="M691.07,332.18c.23.24,1.59-.81,3.56-.85s3.42.92,3.63.67-.13-.53-.77-1a5,5,0,0,0-2.92-.84,4.81,4.81,0,0,0-2.82,1C691.15,331.65,691,332.08,691.07,332.18Z" transform="translate(-13.9 -28.31)"/><path class="cls-2" d="M684.24,346.9a13,13,0,0,0-3.2-.51c-.51,0-1-.13-1.07-.47a2.54,2.54,0,0,1,.3-1.5c.45-1.22.91-2.5,1.4-3.85,2-5.48,3.35-10,3.13-10.06s-2,4.31-3.93,9.79c-.47,1.35-.91,2.64-1.34,3.87a2.89,2.89,0,0,0-.22,2,1.25,1.25,0,0,0,.84.72,3.48,3.48,0,0,0,.85.1A12.79,12.79,0,0,0,684.24,346.9Z" transform="translate(-13.9 -28.31)"/><path class="cls-2" d="M690.4,324.5c.21.53,2.17.23,4.48.46s4.18.82,4.48.34c.13-.23-.2-.73-1-1.23a7.83,7.83,0,0,0-6.82-.61C690.73,323.82,690.32,324.24,690.4,324.5Z" transform="translate(-13.9 -28.31)"/><path class="cls-2" d="M672.36,326.51c.35.44,1.7-.05,3.32-.1s3,.24,3.32-.24c.14-.23-.09-.67-.7-1.08a4.64,4.64,0,0,0-2.72-.68,4.56,4.56,0,0,0-2.63,1C672.38,325.84,672.2,326.3,672.36,326.51Z" transform="translate(-13.9 -28.31)"/><path class="cls-2" d="M670,320.13s3.2-8.08,7-10c4.63-2.36,6.75,2.73,11.18,1.39s8.84-3.6,13.46-.25c5.06,3.67,2.78,6.36,3.21,12,1.72,23,6,29.38,7,18.53.11-1.19,3.38-2.2,3.77-7.23.5-6.51.58-14.41-1-19-1.3-3.86-3.58-6.5-7.61-9.38-6.38-4.55-15-4.47-20.84-3.76S669.25,310.12,670,320.13Z" transform="translate(-13.9 -28.31)"/><path class="cls-18" d="M711.06,341.48a3.48,3.48,0,0,1,3.68-3.43c2.39.18,5.07,1.48,5,6.41-.1,8.75-8.86,6.84-8.87,6.59S711,345.13,711.06,341.48Z" transform="translate(-13.9 -28.31)"/><path class="cls-19" d="M712.82,347.78s.15.11.41.23a1.54,1.54,0,0,0,1.14,0c.92-.33,1.72-1.79,1.78-3.36a5.13,5.13,0,0,0-.4-2.19,1.76,1.76,0,0,0-1.14-1.18.77.77,0,0,0-.9.41c-.12.24-.07.41-.11.43s-.19-.15-.11-.51a.9.9,0,0,1,.35-.54,1.13,1.13,0,0,1,.84-.22,2.17,2.17,0,0,1,1.58,1.38,5.2,5.2,0,0,1,.5,2.44c-.08,1.76-1,3.4-2.27,3.75a1.63,1.63,0,0,1-1.39-.25C712.83,348,712.79,347.8,712.82,347.78Z" transform="translate(-13.9 -28.31)"/><path class="cls-2" d="M710.54,324.55a8.33,8.33,0,0,1-3.67,1.78,2.85,2.85,0,0,1-3.2-1.94c-.12-.61,0-1.31-.39-1.78s-1.37-.35-2.1-.26a5.58,5.58,0,0,1-5.87-3.88c-.63,1-2.14,1-3.13.36a12.32,12.32,0,0,1-2.44-2.5,3.61,3.61,0,0,0-3-1.44,8,8,0,0,1-1.89.46c-1.15-.08-1.74-1.41-1.93-2.55s-.36-2.46-1.35-3.06-2.07-.2-3.12,0-2.43,0-2.72-1.07a2.08,2.08,0,0,1,.36-1.59,5.65,5.65,0,0,1,6.64-2.28A7.67,7.67,0,0,1,696.76,303a7.79,7.79,0,0,1,12.51,2.58,5.65,5.65,0,0,1,6.53,8.08,5.36,5.36,0,0,1,3,4.21c.07,1.81-1.65,3.65-3.41,3.21a3.13,3.13,0,0,1-5.34,3.23" transform="translate(-13.9 -28.31)"/><path class="cls-9" d="M682.1,307.36s0,.06,0,.16a4,4,0,0,0,.06.47,5.5,5.5,0,0,0,.67,1.67,6.39,6.39,0,0,0,2,2,5.84,5.84,0,0,0,3.6.94l-.15-.19a3.18,3.18,0,0,0,.22,2.41A9,9,0,0,0,690,317a6.65,6.65,0,0,0,1,1,3,3,0,0,0,1.4.49,3.19,3.19,0,0,0,2.79-1.07l-.33-.08a6.52,6.52,0,0,0,2.88,4.47,4.77,4.77,0,0,0,2.88.89,8.64,8.64,0,0,0,2.82-.68l-.24-.1a6.9,6.9,0,0,0,2.13,2.65,3.63,3.63,0,0,0,3.06.77,4.82,4.82,0,0,0,3.63-3.84l-.2.09a4.5,4.5,0,0,0,3,.38,4.87,4.87,0,0,0,2.07-1,4.51,4.51,0,0,0,1-1.09,2.26,2.26,0,0,0,.21-.46,5.39,5.39,0,0,1-1.26,1.43,5,5,0,0,1-2,.89,4.36,4.36,0,0,1-2.84-.41l-.16-.09,0,.19a4.53,4.53,0,0,1-3.43,3.56,3.33,3.33,0,0,1-2.78-.73,6.66,6.66,0,0,1-2-2.52l-.07-.16-.16.06a8.34,8.34,0,0,1-2.7.65,4.4,4.4,0,0,1-2.66-.82,6.17,6.17,0,0,1-2.72-4.22l-.06-.41-.27.32a2.83,2.83,0,0,1-2.47.94,2.66,2.66,0,0,1-1.23-.42,6.26,6.26,0,0,1-.94-.92,8.84,8.84,0,0,1-1.51-2,2.85,2.85,0,0,1-.23-2.18l.06-.21-.22,0a5.54,5.54,0,0,1-3.44-.85,6.14,6.14,0,0,1-2-1.92A6.77,6.77,0,0,1,682.1,307.36Z" transform="translate(-13.9 -28.31)"/><path class="cls-19" d="M681.94,351.78l4.21-1.44a3.07,3.07,0,0,1,1.73-.24,2.28,2.28,0,0,1,1.32,2.64,4.12,4.12,0,0,1-4.05,3.35c-1.92-.06-2.65-2.36-3.21-4.31" transform="translate(-13.9 -28.31)"/><path class="cls-2" d="M683.82,356.13a2.93,2.93,0,0,0,2.37.21,4,4,0,0,0,2.2-1.46,4.18,4.18,0,0,0,.73-3.15,3.88,3.88,0,0,0-.64-1.6,1.06,1.06,0,0,0-.38-.34.76.76,0,0,0-.53-.06c-.3.07-.49.15-.73.22l-2.42.81a10.38,10.38,0,0,0-2.19.87,10.42,10.42,0,0,0,2.3-.51l2.45-.7.68-.2c.17,0,.25,0,.4.21a3.73,3.73,0,0,1,.54,1.38,3.65,3.65,0,0,1-2.52,4.17A6,6,0,0,1,683.82,356.13Z" transform="translate(-13.9 -28.31)"/><path class="cls-2" d="M654.27,468.37a4.78,4.78,0,0,1,2.27-4.35,9.17,9.17,0,0,1,4.93-1.27,17.29,17.29,0,0,1,12.2,4.89l.76,2s-4.66,3.49-5.19,3.54-9.41-1.31-9.41-1.31Z" transform="translate(-13.9 -28.31)"/><path class="cls-2" d="M667.92,480.87a2.55,2.55,0,0,0-.06.43c0,.3-.07.71-.12,1.24-.1,1.12-.24,2.73-.42,4.79-.34,4.18-.83,10.19-1.43,17.61s-1.29,16.29-2.06,26.12c-.38,4.92-.78,10.08-1.2,15.43a26,26,0,0,0,.41,8.22,11.21,11.21,0,0,0,1.8,3.87,5.32,5.32,0,0,0,3.72,2.23,3.3,3.3,0,0,0,2.16-.72,5.06,5.06,0,0,0,1.34-1.75,10.47,10.47,0,0,0,.74-2c.17-.68.41-1.34.53-2a36.27,36.27,0,0,0,.79-8.19,83.76,83.76,0,0,0-2-15.37c-1-4.84-1.94-9.42-2.52-13.76s-1-8.4-1.2-12.12a145.74,145.74,0,0,1,.1-17.64c.13-2.08.27-3.69.38-4.79,0-.52.08-.94.11-1.24s0-.43,0-.43a2,2,0,0,0-.08.42c0,.31-.09.72-.16,1.24-.14,1.09-.31,2.7-.48,4.78a140.38,140.38,0,0,0-.26,17.68c.18,3.73.54,7.81,1.13,12.16s1.5,9,2.48,13.79a84.49,84.49,0,0,1,2,15.28,35.12,35.12,0,0,1-.79,8.07c-.11.68-.35,1.33-.52,2a9.64,9.64,0,0,1-.7,1.93,4.61,4.61,0,0,1-1.2,1.58,2.76,2.76,0,0,1-1.8.6,4.79,4.79,0,0,1-3.33-2,10.67,10.67,0,0,1-1.71-3.68,25.36,25.36,0,0,1-.4-8.05c.4-5.35.79-10.51,1.16-15.43.74-9.83,1.4-18.69,2-26.13s1-13.44,1.27-17.63c.13-2.06.24-3.67.32-4.79l.07-1.25A2.35,2.35,0,0,0,667.92,480.87Z" transform="translate(-13.9 -28.31)"/><path class="cls-18" d="M688.27,465.3s-7.39-5.87-9-6.21-3.63.91-6.7.57a33.47,33.47,0,0,0-5.79-.11s-.92,2.95,1.35,4.09a23.48,23.48,0,0,0,5.8,1.66l2.11,1.92-7.57,3.24h-7.05l-8.18-2.34s-2.27.52-1.14,2.34,7.28,5.46,7.28,5.46-.23,1.14,1.93,2.95c0,0,8.75,8,11,8.3a10.25,10.25,0,0,0,3.64,0l12.28-6.82Z" transform="translate(-13.9 -28.31)"/><path class="cls-19" d="M688.27,465.3a.85.85,0,0,0,0,.27l0,.78c0,.71,0,1.7,0,3,0,2.62,0,6.36-.08,11l.09-.15L675.88,487l0,0a9.43,9.43,0,0,1-2.33.11c-.4,0-.8-.07-1.2-.13a4.47,4.47,0,0,1-1.08-.44,36.53,36.53,0,0,1-4.18-3q-2.07-1.66-4.15-3.5c-.68-.6-1.4-1.24-2.07-1.86a6.58,6.58,0,0,1-.87-1,2.21,2.21,0,0,1-.41-1.15l0-.19-.14-.09c-1.57-.95-3.16-2-4.69-3.09a15.29,15.29,0,0,1-2.15-1.85,2.23,2.23,0,0,1-.61-1.12,1,1,0,0,1,.55-1,2.6,2.6,0,0,1,.69-.29h-.13l8.18,2.33h7.18l0,0,7.57-3.26.34-.15-.28-.25-2.11-1.91-.05-.05H674a23.5,23.5,0,0,1-5.32-1.44,4,4,0,0,1-1.06-.64,2.6,2.6,0,0,1-.61-1,4.3,4.3,0,0,1,0-2.36l-.18.14a34.57,34.57,0,0,1,5.1,0,12.65,12.65,0,0,0,4.63-.24c2.92-1.24,4.91,1,6.59,2,1.66,1.17,2.93,2.12,3.8,2.76l1,.74.35.23A2.06,2.06,0,0,0,688,465l-1-.78c-.85-.67-2.1-1.66-3.75-2.86a33.51,33.51,0,0,0-2.82-1.9,5.79,5.79,0,0,0-.86-.44,2.42,2.42,0,0,0-1-.16,12.66,12.66,0,0,0-2.08.33,12.1,12.1,0,0,1-4.52.2,34.12,34.12,0,0,0-5.18-.07h-.14l0,.14a4.72,4.72,0,0,0,0,2.61,3.06,3.06,0,0,0,.71,1.2,4.28,4.28,0,0,0,1.19.74,23.55,23.55,0,0,0,5.44,1.49l-.13,0,2.11,1.91.07-.4-7.58,3.24.1,0h-7l-8.19-2.34-.07,0h-.06a2.93,2.93,0,0,0-.85.37,1.8,1.8,0,0,0-.61.59,1.27,1.27,0,0,0-.18.87,2.66,2.66,0,0,0,.73,1.41,15.5,15.5,0,0,0,2.24,1.92c1.55,1.14,3.14,2.16,4.74,3.12l-.13-.27a2.53,2.53,0,0,0,.49,1.52,6.14,6.14,0,0,0,.94,1.14c.71.66,1.4,1.26,2.1,1.87,1.4,1.22,2.78,2.4,4.17,3.5a36.72,36.72,0,0,0,4.26,3,5.26,5.26,0,0,0,1.24.49c.41.06.83.1,1.24.12a9.28,9.28,0,0,0,2.47-.14h0l0,0,12.25-6.87.09-.05v-.1c0-4.7-.06-8.46-.08-11.09,0-1.26,0-2.24-.05-2.95l0-.76A1.15,1.15,0,0,0,688.27,465.3Z" transform="translate(-13.9 -28.31)"/><path class="cls-19" d="M672.41,465c0,.1,1.65.34,3.54,1.15a13.72,13.72,0,0,1,2.23,1.35c.56.38.92.61,1,.55s-.23-.38-.74-.85a8.47,8.47,0,0,0-2.25-1.53C674.2,464.82,672.4,464.81,672.41,465Z" transform="translate(-13.9 -28.31)"/><path class="cls-19" d="M659.83,476.68a11.88,11.88,0,0,0,2.5.34c1.55.15,3.7.32,6.07.47a30.26,30.26,0,0,0,6.12.08,3.44,3.44,0,0,0,2.28-1.12,7.23,7.23,0,0,1-2.34.75,42.16,42.16,0,0,1-6-.24c-2.37-.15-4.52-.26-6.08-.31A11.28,11.28,0,0,0,659.83,476.68Z" transform="translate(-13.9 -28.31)"/><path class="cls-19" d="M663.48,479.66a35.06,35.06,0,0,0,5.58,2.45,10.22,10.22,0,0,0,4.23,1,2.42,2.42,0,0,0,1.71-.62,8.73,8.73,0,0,1-1.72.24,12.1,12.1,0,0,1-4-1.15A35.79,35.79,0,0,0,663.48,479.66Z" transform="translate(-13.9 -28.31)"/></g></svg>