<svg id="a14aeead-7a51-49c7-9dde-c662f5733ecb" xmlns="http://www.w3.org/2000/svg" viewBox="0 0 1080 1080"><defs><style>.cls-1{fill:#f4f4f4;}.cls-2{fill:#f2f2f2;}.cls-3{fill:#fff;}.cls-4{fill:#e6e6e6;}.cls-5{fill:#d62d2e;}.cls-6{fill:#ccc;}</style></defs><rect class="cls-1" width="1080" height="1080"/><path class="cls-2" d="M546.72,292.71l-18,4.64L306.82,354.57l-18,4.64a34.1,34.1,0,0,0-24.47,41.49l78.09,302.83A34.11,34.11,0,0,0,383.92,728h0l257.81-66.49h.05A34.11,34.11,0,0,0,666.3,620L588.2,317.18A34.08,34.08,0,0,0,546.72,292.71Z"/><path class="cls-3" d="M549.16,302.2l-21.33,5.5L312.59,363.21l-21.33,5.5a24.28,24.28,0,0,0-17.43,29.54l78.1,302.83a24.28,24.28,0,0,0,29.54,17.43h0L639.33,652l0,0a24.28,24.28,0,0,0,17.43-29.54L578.71,319.63A24.29,24.29,0,0,0,549.16,302.2Z"/><path class="cls-2" d="M533.06,400.26,402.64,433.9a5.67,5.67,0,0,1-2.83-11l130.42-33.63a5.67,5.67,0,0,1,2.83,11Z"/><path class="cls-2" d="M560.49,413,407.42,452.43a5.67,5.67,0,0,1-2.85-11h0L557.66,402a5.67,5.67,0,1,1,2.83,11Z"/><path class="cls-2" d="M554.48,483.34,424.06,517a5.67,5.67,0,0,1-2.84-11h0l130.42-33.63a5.67,5.67,0,0,1,2.85,11Z"/><path class="cls-2" d="M581.92,496,428.84,535.51a5.68,5.68,0,0,1-2.84-11h0l153.07-39.47a5.67,5.67,0,1,1,2.84,11Z"/><path class="cls-2" d="M575.9,566.41,445.48,600a5.67,5.67,0,0,1-2.83-11l130.42-33.64a5.67,5.67,0,1,1,2.83,11Z"/><path class="cls-2" d="M603.34,579.1,450.26,618.58a5.67,5.67,0,0,1-2.85-11h0l153.08-39.47a5.67,5.67,0,0,1,2.83,11Z"/><path class="cls-4" d="M380.37,468.38l-46.15,11.9a2.71,2.71,0,0,1-3.31-1.95l-10.6-41.08a2.73,2.73,0,0,1,2-3.32L368.42,422a2.72,2.72,0,0,1,3.31,2l10.6,41.08A2.72,2.72,0,0,1,380.37,468.38Z"/><path class="cls-4" d="M401.8,551.45l-46.16,11.91a2.72,2.72,0,0,1-3.31-2l-10.6-41.08a2.72,2.72,0,0,1,2-3.31l46.15-11.91a2.73,2.73,0,0,1,3.32,2l10.59,41.08A2.72,2.72,0,0,1,401.8,551.45Z"/><path class="cls-4" d="M423.22,634.53l-46.16,11.9a2.72,2.72,0,0,1-3.31-2l-10.59-41.08a2.71,2.71,0,0,1,1.95-3.31l46.16-11.91a2.73,2.73,0,0,1,3.31,2l10.59,41.08A2.72,2.72,0,0,1,423.22,634.53Z"/><path class="cls-4" d="M726.59,369.47H460.25a34.1,34.1,0,0,0-34.06,34.06V716.27a34.1,34.1,0,0,0,34.06,34.06H726.59a34.1,34.1,0,0,0,34.06-34.06V403.53A34.1,34.1,0,0,0,726.59,369.47Z"/><path class="cls-3" d="M726.59,379.27H460.25A24.3,24.3,0,0,0,436,403.53V716.27a24.28,24.28,0,0,0,24.26,24.25H726.59a24.28,24.28,0,0,0,24.26-24.25V403.53A24.3,24.3,0,0,0,726.59,379.27Z"/><circle class="cls-5" cx="754.57" cy="726.2" r="62.18"/><path class="cls-3" d="M784.31,718.09H762.68V696.47a8.11,8.11,0,0,0-16.22,0v21.62H724.83a8.11,8.11,0,0,0,0,16.22h21.63v21.63a8.11,8.11,0,1,0,16.22,0V734.31h21.63a8.11,8.11,0,0,0,0-16.22Z"/><path class="cls-4" d="M686.51,551.12H551.82a5.67,5.67,0,1,1,0-11.34h134.7a5.67,5.67,0,0,1,0,11.34Z"/><path class="cls-4" d="M709.9,570.27H551.82a5.68,5.68,0,1,1,0-11.35H709.9a5.68,5.68,0,0,1,0,11.35Z"/><path class="cls-4" d="M686.51,636.91H551.82a5.67,5.67,0,0,1,0-11.34H686.51a5.67,5.67,0,0,1,0,11.34Z"/><path class="cls-4" d="M709.9,656.06H551.82a5.68,5.68,0,0,1,0-11.35H709.9a5.68,5.68,0,0,1,0,11.35Z"/><path class="cls-4" d="M521.65,579H474a2.71,2.71,0,0,1-2.71-2.72V533.81a2.71,2.71,0,0,1,2.71-2.72h47.67a2.72,2.72,0,0,1,2.72,2.72v42.43A2.72,2.72,0,0,1,521.65,579Z"/><path class="cls-4" d="M521.65,664.75H474a2.72,2.72,0,0,1-2.71-2.72V619.6a2.71,2.71,0,0,1,2.71-2.72h47.67a2.72,2.72,0,0,1,2.72,2.72V662A2.73,2.73,0,0,1,521.65,664.75Z"/><path class="cls-6" d="M686.66,455.62h-99.3a5.67,5.67,0,1,1,0-11.34h99.3a5.67,5.67,0,1,1,0,11.34Z"/><path class="cls-6" d="M710.05,474.77H587.36a5.68,5.68,0,1,1,0-11.35H710.05a5.68,5.68,0,0,1,0,11.35Z"/><path class="cls-5" d="M565.38,498H473.84a2.72,2.72,0,0,1-2.72-2.72V423.8a2.72,2.72,0,0,1,2.72-2.72h91.54a2.72,2.72,0,0,1,2.72,2.72v71.45A2.73,2.73,0,0,1,565.38,498Z"/></svg>