<svg id="OBJECTS" xmlns="http://www.w3.org/2000/svg" viewBox="0 0 648.87 443.99"><defs><style>.cls-1,.cls-6{opacity:0.1;}.cls-2{fill:#c89084;}.cls-15,.cls-17,.cls-19,.cls-3,.cls-34{fill:#d62d2e;}.cls-4{fill:#3e4445;}.cls-13,.cls-16,.cls-45,.cls-46,.cls-5{fill:#fff;}.cls-26,.cls-6{fill:#413847;}.cls-7{fill:#ffc48e;}.cls-8{fill:#fcdbdd;}.cls-9{fill:#d3875e;}.cls-10{fill:#bc1526;}.cls-11{fill:#664d00;}.cls-11,.cls-43{opacity:0.35;}.cls-12,.cls-18,.cls-22,.cls-28,.cls-31,.cls-32,.cls-37,.cls-40,.cls-42,.cls-44{fill:none;}.cls-12{stroke:#ffdfad;stroke-width:1.25px;}.cls-12,.cls-37,.cls-44{stroke-linecap:round;stroke-linejoin:round;}.cls-13{opacity:0.86;}.cls-14,.cls-46{font-size:5.54px;letter-spacing:0.2em;}.cls-14{fill:#7a98b0;}.cls-14,.cls-15,.cls-17,.cls-19,.cls-34,.cls-46{font-family:Poppins-Bold, Poppins;font-weight:700;}.cls-15{font-size:4.99px;letter-spacing:0.2em;}.cls-16{opacity:0.7;}.cls-17{font-size:5.77px;letter-spacing:0.2em;}.cls-18{stroke:#d62d2e;stroke-width:0.62px;opacity:0.56;}.cls-18,.cls-22,.cls-28,.cls-31,.cls-32,.cls-40,.cls-42{stroke-miterlimit:10;}.cls-19{font-size:2.92px;letter-spacing:0.2em;}.cls-20{fill:#bbbabe;}.cls-21{fill:#e0dfe1;}.cls-22,.cls-31,.cls-32,.cls-37,.cls-40,.cls-42{stroke:#fff;}.cls-22{stroke-width:1.16px;}.cls-22,.cls-33,.cls-37,.cls-40{opacity:0.5;}.cls-23{fill:#515146;}.cls-24{fill:#451831;}.cls-25{fill:#ffece0;}.cls-27,.cls-45{opacity:0.3;}.cls-28{stroke:#413847;stroke-width:0.36px;}.cls-29{fill:#ffbe9d;}.cls-30,.cls-33{fill:#fff7e7;}.cls-30{opacity:0.47;}.cls-31{stroke-width:0.18px;}.cls-32{stroke-width:0.23px;}.cls-34{font-size:8.23px;letter-spacing:0.2em;}.cls-35{font-size:4.57px;fill:#5b808a;font-family:Poppins-Medium, Poppins;font-weight:500;letter-spacing:0.2em;}.cls-36{fill:#ecd0b3;}.cls-37,.cls-40,.cls-44{stroke-width:1.83px;}.cls-38{fill:#b27272;}.cls-39{fill:#eb9090;}.cls-41{fill:#fc97a1;}.cls-42{stroke-width:0.8px;}.cls-44{stroke:#dfaa9a;}</style></defs><g class="cls-1"><path d="M99.4,361.18V287.83h19.09v20.7h5v22.8H136v29.85S99,361.58,99.4,361.18Z" transform="translate(-50.56 -56.69)"/><path d="M129.64,361.18V302.71s.65-6.15,6.15-6.15c0,0,6.79.33,6.79,6.79v57.83Z" transform="translate(-50.56 -56.69)"/><path d="M70.53,361.18V302.71s.64-6.15,6.14-6.15c0,0,6.79.33,6.79,6.79v57.83Z" transform="translate(-50.56 -56.69)"/><path d="M79.86,361.18V333.11h7.6V311.28l15.61-15.61-.53,65.51S79.86,362,79.86,361.18Z" transform="translate(-50.56 -56.69)"/><path d="M634.4,361.18V333.11H642V311.28l15.61-15.61-.53,65.51S634.4,362,634.4,361.18Z" transform="translate(-50.56 -56.69)"/><path d="M346.3,361.18V333.11h7.6V287.42l15.61-15.6L369,361.18S346.3,362,346.3,361.18Z" transform="translate(-50.56 -56.69)"/><path d="M140.46,361.18V294.62h5.27a10.61,10.61,0,0,1,10.61,10.61V324.4l4.42,4.42v-10H172v26.71l13.8,15.67Z" transform="translate(-50.56 -56.69)"/><path d="M654.05,361.18V294.62h5.28a10.61,10.61,0,0,1,10.6,10.61V324.4l4.42,4.42v-10h11.28v26.71l13.81,15.67Z" transform="translate(-50.56 -56.69)"/><path d="M372.49,361.18V270.77h5.27a10.6,10.6,0,0,1,10.61,10.6v19.17l4.42,28.28V295h11.28v50.56l13.8,15.67Z" transform="translate(-50.56 -56.69)"/><path d="M247,361.18V260.12h5.27a10.61,10.61,0,0,1,10.61,10.61V324.4l4.42,4.42V284.3h11.28v61.21l13.8,15.67Z" transform="translate(-50.56 -56.69)"/><path d="M181.06,321.23v39.95h21.65v-26.5h-8.3V317.36l-2-1.59A7,7,0,0,0,181.06,321.23Z" transform="translate(-50.56 -56.69)"/><path d="M227.18,286.73v74.45h21.66v-26.5h-8.3V282.86l-2-1.59A7,7,0,0,0,227.18,286.73Z" transform="translate(-50.56 -56.69)"/><path d="M50.56,320.4v36.48a4.3,4.3,0,0,0,4.3,4.3H72.22v-26.5h-8.3V320.52a6.6,6.6,0,0,0-2.48-5.15l-.15-.12A6.6,6.6,0,0,0,50.56,320.4Z" transform="translate(-50.56 -56.69)"/><path d="M281.25,285.9v75.28h69.16v-26.5H294.6V286a6.58,6.58,0,0,0-2.46-5.14l-.16-.13A6.6,6.6,0,0,0,281.25,285.9Z" transform="translate(-50.56 -56.69)"/><path d="M208.13,361.18V330.57c0-5.4,4.38-44.28,9.78-44.28h6.64v74.89Z" transform="translate(-50.56 -56.69)"/><rect x="150.16" y="295.5" width="9.2" height="8.99"/><path d="M473.24,361.18V287.83h19.09v20.7h5v22.8h12.45v29.85S472.84,361.58,473.24,361.18Z" transform="translate(-50.56 -56.69)"/><path d="M503.48,361.18V302.71s.65-6.15,6.15-6.15c0,0,6.79.33,6.79,6.79v57.83Z" transform="translate(-50.56 -56.69)"/><path d="M444.37,361.18V302.71s.64-6.15,6.14-6.15c0,0,6.79.33,6.79,6.79v57.83Z" transform="translate(-50.56 -56.69)"/><path d="M453.7,361.18V333.11h7.6V311.28l15.61-15.61-.53,65.51S453.7,362,453.7,361.18Z" transform="translate(-50.56 -56.69)"/><path d="M518.28,361.18V294.62h5.28a10.61,10.61,0,0,1,10.6,10.61V324.4l4.42,4.42v-10h11.28v26.71l13.8,15.67Z" transform="translate(-50.56 -56.69)"/><path d="M558.88,321.23v39.95h21.66v-26.5h-8.3V317.36l-2-1.59A7,7,0,0,0,558.88,321.23Z" transform="translate(-50.56 -56.69)"/><path d="M424.41,320.4v40.78h21.65v-26.5h-8.3V320.52a6.59,6.59,0,0,0-2.47-5.14l-.16-.13A6.6,6.6,0,0,0,424.41,320.4Z" transform="translate(-50.56 -56.69)"/><path d="M618.8,361.18V330.57a9.78,9.78,0,0,1,9.78-9.78h6.65v40.39Z" transform="translate(-50.56 -56.69)"/><rect x="527.99" y="295.5" width="9.2" height="8.99"/><rect x="276.05" y="241.47" width="21.35" height="63.02"/><rect x="251.65" y="214.84" width="14.42" height="89.66"/><rect x="529.17" y="280.03" width="54.55" height="24.82"/><rect x="344.11" y="289.95" width="54.55" height="14.9"/></g><path d="M487.15,361.37H687.32a.28.28,0,0,0,0-.55H487.15a.28.28,0,0,0,0,.55Z" transform="translate(-50.56 -56.69)"/><path d="M285.37,360.25H65.79a.28.28,0,0,0,0,.55H285.37a.28.28,0,0,0,0-.55Z" transform="translate(-50.56 -56.69)"/><path d="M311.18,361.37h72.31a.28.28,0,0,0,0-.55H311.18a.28.28,0,0,0,0,.55Z" transform="translate(-50.56 -56.69)"/><path d="M616.44,200.58c-.19-.1,2.78-2.26,4.34-3.37a2.72,2.72,0,0,1,2-.49l4.85.73a.53.53,0,0,1,.25.94c-1.39,1.08-3.82,3-4.1,3.19S618.3,201.54,616.44,200.58Z" transform="translate(-50.56 -56.69)"/><path d="M611,151a7.74,7.74,0,0,1,1.2,2.87c.14,2.89-.44,5.41-3.9,6.21L606.72,152Z" transform="translate(-50.56 -56.69)"/><path class="cls-2" d="M591.11,348.62l-.19,1.75a1.38,1.38,0,0,0-.58,1.74c.38,1.26,5.91,11.63,5.91,11.63s1.25,3.49,4.26,3.49c3.87,0,3.29-1.65,3.29-1.65a3,3,0,0,1-2.32-2.71,86.35,86.35,0,0,0-1.86-9.32l.14-3.8Z" transform="translate(-50.56 -56.69)"/><path d="M601.48,362.87a86.35,86.35,0,0,0-1.86-9.32l.14-3.8-8.65-1.13-.19,1.75,5.39,2.51Z" transform="translate(-50.56 -56.69)"/><path d="M590.92,350.37a1.38,1.38,0,0,0-.58,1.74c.38,1.26,5.91,11.63,5.91,11.63s1.25,3.49,4.26,3.49c3.87,0,3.29-1.65,3.29-1.65s3.78,2.12,3.94,2.91a3.45,3.45,0,0,1-.32,1.8s-6.51.69-8.63,0-2.12-.85-2.28-1.37-2.28-7-4-8.43l.48,7.37h-1.11s-.58-6.89-2.6-9.33a3.22,3.22,0,0,1-1.11-3.18,13,13,0,0,1,1.43-3.49A2.77,2.77,0,0,1,590.92,350.37Z" transform="translate(-50.56 -56.69)"/><path d="M562.63,342.06s-2.55-1.57-4.63.07a4.92,4.92,0,0,0-1.78,4.17l-5.13,6.3.71.87,5.46-4.43a9.86,9.86,0,0,1-.31,6.17c-1.27,3.49-1.35,6,1,8.08s8,5.7,8,5.7,1.74.07,1.58-1.27a71.89,71.89,0,0,0-2.45-7.36l-2.47-18.3" transform="translate(-50.56 -56.69)"/><path class="cls-2" d="M570.2,346.3l-3.28,9.81s-1,2.82-1.59,5.19a2,2,0,0,1-3.05,1.1c-1-.72-1.2-2-1.58-3a13.85,13.85,0,0,1-.11-8.94c.69-2.56-.14-4.75.08-6.55a2.21,2.21,0,0,1,1.65-1.89l1.93-.5Z" transform="translate(-50.56 -56.69)"/><path d="M566.92,356.11l3.28-9.81-6-4.76-1.93.5a2.21,2.21,0,0,0-1.65,1.89,29.09,29.09,0,0,0,4.09,6.47Z" transform="translate(-50.56 -56.69)"/><path class="cls-3" d="M618.51,209.25s4.41,2,3.67,5.8l-7.66,4.78-3.35,2.1-2.12-9.13,1.28-4.31Z" transform="translate(-50.56 -56.69)"/><polygon points="559.77 151.81 558.48 156.11 560.61 165.24 563.96 163.15 564.25 152.92 559.77 151.81"/><path d="M618.51,209.25s4.41,2,3.67,5.8c0,0-8.4-4.41-8.19-6h0Z" transform="translate(-50.56 -56.69)"/><path d="M625.42,203a3.56,3.56,0,0,1,.63,1.88,5.25,5.25,0,0,1-2.63,2.56,4.87,4.87,0,0,1-2.5,2.5l-1.31.87-1.5-1.12,3.37-5.19Z" transform="translate(-50.56 -56.69)"/><path class="cls-3" d="M595.6,173.28s10.63,3.87,12.13,8.75,6,16.63,6,16.63a55.5,55.5,0,0,1,.5,9.55c0,1-.1,2.07-.21,3.14a28.87,28.87,0,0,1-2.41,9.45s-.3-4.59-.74-9.76c-.08-1-.17-2-.27-3-.44-4.67-1-9.19-1.51-10.74C607.84,193.7,596,178.53,596,178.53l-1.37-1.88Z" transform="translate(-50.56 -56.69)"/><path d="M614,211.35c.11-1.07.18-2.12.21-3.14l-3.63-.15c.1,1,.19,2,.27,3Z" transform="translate(-50.56 -56.69)"/><path d="M595.71,174.12c.39.38,4.93,3.95,4.38,4.59a.27.27,0,0,0,.06.41c2.79,1.78,4.16,2.53,5.77,5.36,2.4,4.24,5.37,9.37,5.05,14.4,0,.33.5.33.53,0,.33-5.1-2.7-10.38-5.13-14.66a13.27,13.27,0,0,0-1.85-3.07c-.77-.74-4.43-1.51-3.34-3a.27.27,0,0,0-.1-.36,39.12,39.12,0,0,1-5-4.08c-.25-.24-.62.13-.38.37Z" transform="translate(-50.56 -56.69)"/><path class="cls-2" d="M594.44,177.83l1.41-3.6s5.53,2.06,6.3,1c.37-.49,2.15-3.25,4-6.16.26-.4,2.2.73,2.47.3,1.79-2.94-1.9-3.57.72-9.59,3.32-7.64-3.31-13.1-5.56-14.86-4.47-3.5-13.23-2.82-17.09,3.08a9.85,9.85,0,0,0,0,11.05,3.25,3.25,0,0,1,.26,3.72c-1.15,2.19-3.21,7.32-3.21,7.32Z" transform="translate(-50.56 -56.69)"/><path class="cls-4" d="M615.41,233.77s4.93,18.31,3.29,31.92S614,295.27,614,295.27l-11,55.86s-8.92.47-12.91-2.81l4.46-42.26Z" transform="translate(-50.56 -56.69)"/><path class="cls-4" d="M581.14,240.11c-4,8.94,3.52,33.09,3.52,33.09L587,295.5l-26,46.71s4.09,8.64,11.36,9.11l19.86-35.63s8.45-5.87,9.39-11.5S611,254.42,611,254.42l4.46-20.65S586.31,228.6,581.14,240.11Z" transform="translate(-50.56 -56.69)"/><path d="M587.26,245c.17,13.84,2.57,27.48,3.48,41.27.18,2.86,1.4,8.53.29,11.19-.2.5-1.2,1.23-1.55,1.67-5.8,7.16-9.3,16.3-13.8,24.25-4,7.07-8.21,14-12.69,20.8-.19.29.27.55.46.27,4.47-6.77,8.68-13.74,12.68-20.8,4.67-8.25,8.5-17.06,14.16-24.7,2.42-3.25,1.28-7.62,1-11.72-.84-14.12-3.37-28.07-3.55-42.23a.26.26,0,0,0-.52,0Z" transform="translate(-50.56 -56.69)"/><path d="M573.17,350.73c6.13-11.13,11.67-22.89,18.51-33.59a13.28,13.28,0,0,1,3.41-3.31c3.54-2.86,6.37-5.86,7.54-10.32,3.24-12.38,4.5-25.31,6.52-37.92.67-4.23,1.78-8.43,1.89-12.72.12-4.49.28-9,.3-13.48a.26.26,0,0,0-.52,0c-.12,20-3.57,40.2-7.72,59.72-1.27,6-3.2,10.05-8,14-1.48,1.23-2.62,1.83-3.63,3.26-3.77,5.32-6.49,11.78-9.64,17.49l-9.14,16.59a.26.26,0,0,0,.46.26Z" transform="translate(-50.56 -56.69)"/><path d="M601.94,305.1c3.55-12.87,6-36.28,8.78-49.87,0,0,.36-13.57.36-15.84,0,0-.09-6.11.7-5.32s7.12,16,7.12,16.61-.16,6.16-.16,6.16l-4.27,1.43s-5.69,35.58-7.91,40.48S601.94,305.1,601.94,305.1Z" transform="translate(-50.56 -56.69)"/><path class="cls-3" d="M611.61,220.8s4.54,9.34,5.56,14.81,4.65,7.69,1.41,17.21L609.07,231Z" transform="translate(-50.56 -56.69)"/><path class="cls-5" d="M586.22,170.12l11.7,9.91,5.88,7.25s5.79,6.74,6.52,10.81-.9,9.58-.9,9.58Z" transform="translate(-50.56 -56.69)"/><path class="cls-2" d="M604.66,203l5.66-4.94a4,4,0,0,1,4.35,1.46l6.54,1.3,4.53.12a1.38,1.38,0,0,1,1.36,1.56.51.51,0,0,1-.53.5,8.69,8.69,0,0,0-1.91.23,16.71,16.71,0,0,1-.88,2.23c-.29.44-.91,1.46-5.11.8l3.77.16s0,2.62-1.9,2.48l-1.22-.1s.43.87-.87,1.46-4.65-.59-7-.29l-2.32.29Z" transform="translate(-50.56 -56.69)"/><path class="cls-3" d="M576.21,242.69l35.71,13.67-.5-28,.24-14.32s-4-12.67-7.75-17.84c-3.5-4.81-13.11-23.28-19.73-28.81a1.4,1.4,0,0,0-2.14.44l-2.07,4a18.07,18.07,0,0,0-7.51,2.82l9.62,34.74-1.64,18.54Z" transform="translate(-50.56 -56.69)"/><path class="cls-3" d="M609.08,215.23s-32.4,9.38-35,9.62-3.75-2.82-5.16-7.51-7-36.38,3.52-42.72l2.35-1.41s9.62,1.17,9.85,12.67-.46,23.48-.46,23.48l19.48-7.28S608.37,203.25,609.08,215.23Z" transform="translate(-50.56 -56.69)"/><path d="M589.05,159s-1.29,1.28-2.32.13-4-4.64-2.18-11.18c1.54-5.65,5-10.78,14.64-9.88,9.81.91,11.69,10.53,11.82,13,0,0-4,5.26-12.59,2.95,0,0-.25,4.62-2.82,4.62s-3.47-3.59-3.47-3.59Z" transform="translate(-50.56 -56.69)"/><path d="M595,138.27s-5.74-6.15,1.58-10.11c3.29-1.79,7.1.46,8.62,3.31.88,1.66.33,6.08-1.59,7.44C601.85,140.12,595,138.27,595,138.27Z" transform="translate(-50.56 -56.69)"/><path d="M577,173.43c6.08,3.61,6.56,10.35,6.81,16.64a149.76,149.76,0,0,1-.2,19.3.26.26,0,0,0,.33.25c7.52-2.76,15.09-5.4,22.52-8.38.31-.12.18-.63-.14-.51-2.69,1.08-5.41,2.08-8.14,3.09L591,206.48c-1.69.63-4.27,2.19-6.07,2.24-1.44,0-.24.85-.8-.39s.47-5.62.48-7.18c.06-4.92-.19-9.84-.37-14.75-.2-5.24-2.17-10.6-6.92-13.42a.26.26,0,0,0-.27.45Z" transform="translate(-50.56 -56.69)"/><path d="M580.14,171.81a9.17,9.17,0,0,0,2.61,4.4c1.2,1.26,3.22,1.26,4.84,1.58.33.07.47-.44.14-.5-1.5-.3-3.47-.35-4.61-1.45a8.36,8.36,0,0,1-2.47-4.17c-.07-.33-.58-.19-.51.14Z" transform="translate(-50.56 -56.69)"/><path d="M587.52,178l-.9,2.17a.26.26,0,0,0,0,.21l16.8,21.79c.2.27.66,0,.46-.26l-8.69-11.27-5.7-7.39c-1.74-2.26-2.61-2.42-1.49-5.11.13-.31-.38-.45-.51-.14Z" transform="translate(-50.56 -56.69)"/><path d="M581.84,223.24c7.73-1.56,15.41-4.25,23-6.46,1.09-.32,6-1.11,6.77-2.11.59-.77.12-.76,0-1.7-.34-3.14-2.31-6.69-3.29-9.71-.1-.32-.61-.18-.51.14.89,2.72,2.64,6,3,8.83.26,2,.27,1.9-2,2.78-2.51,1-5.25,1.58-7.83,2.32-6.37,1.84-12.8,4.09-19.3,5.4-.33.07-.19.58.14.51Z" transform="translate(-50.56 -56.69)"/><path d="M610.53,214.76c-.68.36-28.9,8.24-29.67,8.35,0,0-.2,1.49-.2,2.17s14.59-1.61,14.59-1.61l15-6.79Z" transform="translate(-50.56 -56.69)"/><path d="M583.8,191.42a103,103,0,0,1,.2,12.43c-.37,4.86.2,5.51.2,5.51l6.4-2.52s-1.12-.37-2.74-3S583.8,191.42,583.8,191.42Z" transform="translate(-50.56 -56.69)"/><path d="M580.84,213a18.47,18.47,0,0,1,4.19-3.85c.28-.19,0-.65-.26-.46a18.74,18.74,0,0,0-4.3,3.94c-.21.26.16.64.37.37Z" transform="translate(-50.56 -56.69)"/><path d="M610.4,214.49c1.29,7.32,1.12,15.14.64,22.53,0,.34.5.33.52,0,.49-7.45.65-15.29-.65-22.67-.06-.33-.57-.19-.51.14Z" transform="translate(-50.56 -56.69)"/><path class="cls-2" d="M589.05,159s-2.91-3.83-.48-6.13,3.66-1.07,3.56,2.15A4.26,4.26,0,0,1,589.05,159Z" transform="translate(-50.56 -56.69)"/><path d="M595.63,173.79a20.63,20.63,0,0,1-5.4-6,.26.26,0,0,0-.45.27,21.17,21.17,0,0,0,5.59,6.22c.27.2.53-.26.26-.46Z" transform="translate(-50.56 -56.69)"/><path d="M595.85,174.23A22.07,22.07,0,0,1,590,167.9l4.64,9.39Z" transform="translate(-50.56 -56.69)"/><path d="M601.49,157a7.51,7.51,0,0,1,5.32-.26c.33.11.46-.4.14-.5a8,8,0,0,0-5.72.31c-.31.13-.05.59.26.45Z" transform="translate(-50.56 -56.69)"/><path d="M604.24,160.09a1.7,1.7,0,0,0-.48,1.4.27.27,0,0,0,.45.19,9.8,9.8,0,0,0,1.46-1.69c.19-.28-.27-.54-.46-.26a8.53,8.53,0,0,1-1.37,1.57l.45.19a1.19,1.19,0,0,1,.32-1c.24-.25-.13-.62-.37-.38Z" transform="translate(-50.56 -56.69)"/><path d="M599.34,169.61l1.88,1.57c.26.22.63-.15.37-.37l-1.88-1.58c-.25-.21-.63.16-.37.38Z" transform="translate(-50.56 -56.69)"/><path d="M599.88,232.21c-4-.46-8.93-1.62-12.44-3.65a.27.27,0,0,0-.39.16c-.95,2.67-1.92,6.78-.11,9.29,1.95,2.69,6.72,3.33,9.81,3.44.34,0,.34-.51,0-.53a16.28,16.28,0,0,1-8.23-2.2c-2.94-2-2-6.14-1.23-9,.32-1.15.19-.46,1.29,0a34.36,34.36,0,0,0,3.28,1.14,45.19,45.19,0,0,0,8,1.9c.34,0,.34-.49,0-.53Z" transform="translate(-50.56 -56.69)"/><path d="M598.76,240.44a8.3,8.3,0,0,0,2.4-6.76c0-.34-.56-.34-.52,0a7.79,7.79,0,0,1-2.25,6.39.26.26,0,0,0,.37.37Z" transform="translate(-50.56 -56.69)"/><path d="M578.65,241.63c4.62,2.72,10.18,4.32,15.16,6.23Q602,251,610.16,254c.32.11.46-.39.14-.51-5.12-1.87-10.23-3.8-15.32-5.75-5.27-2-11.18-3.71-16.07-6.58a.26.26,0,0,0-.26.46Z" transform="translate(-50.56 -56.69)"/><path d="M618.3,248.61a20.8,20.8,0,0,0,.54-7.74c0-.33-.56-.33-.52,0a20.7,20.7,0,0,1-.53,7.6.26.26,0,0,0,.51.14Z" transform="translate(-50.56 -56.69)"/><path d="M615.86,203.05c3.55.75,7.64,1.6,11,0,.31-.15,0-.6-.27-.46-3.22,1.51-7.28.65-10.63-.06-.33-.06-.47.44-.14.51Z" transform="translate(-50.56 -56.69)"/><path d="M616,206.33c2.08.38,7.4,1.57,8.12-1.39.08-.33-.43-.47-.51-.14l-1.29,1.26a7.4,7.4,0,0,1-1.32.14c-.49,0-1,0-1.46,0a22.84,22.84,0,0,1-3.4-.39c-.33-.06-.48.44-.14.51Z" transform="translate(-50.56 -56.69)"/><path d="M615.37,208.53a17.65,17.65,0,0,0,5.25.76.27.27,0,0,0,0-.53,17.36,17.36,0,0,1-5.11-.74.26.26,0,0,0-.14.51Z" transform="translate(-50.56 -56.69)"/><ellipse class="cls-6" cx="535.6" cy="313.65" rx="38.82" ry="4.34"/><path d="M613.84,140.26l4.58-4.59a.26.26,0,0,0-.37-.37l-4.58,4.58c-.24.24.13.62.37.38Z" transform="translate(-50.56 -56.69)"/><path d="M617.41,148.69A9.13,9.13,0,0,0,623,148c.31-.15,0-.6-.27-.46a8.41,8.41,0,0,1-5.16.65c-.33-.06-.47.45-.14.51Z" transform="translate(-50.56 -56.69)"/><path d="M618.92,158l3.81.82c.33.07.47-.44.14-.51l-3.81-.82c-.33-.07-.47.43-.14.51Z" transform="translate(-50.56 -56.69)"/><polygon class="cls-7" points="86.89 311.37 87.9 321.81 93.62 321.13 95.71 311.14 86.89 311.37"/><polygon points="95.71 311.14 86.89 311.37 87.9 321.81 89.85 318.16 93.01 317.43 95.71 311.14"/><polygon class="cls-7" points="109.19 309.74 108.72 321.13 115.46 321.59 118.25 310.21 109.19 309.74"/><polygon points="108.72 321.13 109.19 309.74 118.25 310.21 115.85 318.16 111.23 318.16 108.72 321.13"/><path d="M137.6,182.58c.57-1,.5-1.12.5-1.12s2-1.37,3-.73l-.65,3.51s-1.49,1.41-2.05,1.12S137.6,182.58,137.6,182.58Z" transform="translate(-50.56 -56.69)"/><path class="cls-3" d="M173.07,269l.21,48.44L171,374.16s-11.15-.88-13.33-1.53l-6.2-94.76s6.73-15,6.94-15.08c5.9-2,13.5-4.14,13.5-4.14Z" transform="translate(-50.56 -56.69)"/><path class="cls-3" d="M151.48,277.87l-2.14,95.21L135.45,373l-2.83-51.4-4.3-61.84,3.06-4.81,28.79,6.34S152.79,274.59,151.48,277.87Z" transform="translate(-50.56 -56.69)"/><path d="M131.38,254.92l-.79,6.35s7.87,3.42,12.86,5.25,12.34,5.26,18.9,2.63a102,102,0,0,0,12.34-6l-1.58-4-16,4.29Z" transform="translate(-50.56 -56.69)"/><path class="cls-8" d="M142.23,185.2c-2.85.47-6.29-1.66-7,2.25s-7.71,68.23-7.71,68.23,2.85,2.59,12.11,6.51,22.65,6.78,32.14.72l-2.73-33-5.45-39.16Z" transform="translate(-50.56 -56.69)"/><path d="M139.41,191.09c5.85,5.77,16.42,6.92,19.68-2.2.12-.35-.43-.5-.55-.16-3.12,8.73-13.23,7.37-18.72,2-.26-.26-.67.14-.41.4Z" transform="translate(-50.56 -56.69)"/><path class="cls-7" d="M142.61,176.48a11.85,11.85,0,0,1-2.68,5.57c-2.45,3.12-3.12,4-.44,6.69s6,4.62,8.41,4.72c5.72.23,9.42-2.05,9.19-4.72s-1.33-9.36-1.33-9.36Z" transform="translate(-50.56 -56.69)"/><path d="M158.23,183.55c-2.25,4.19-5.19,4.82-5.93,4.91-1.3.14-2.45-.81-3.37-1.75a34.89,34.89,0,0,1-5.38-7.12s2.29,12.08,6.71,12.08S158.23,183.55,158.23,183.55Z" transform="translate(-50.56 -56.69)"/><path class="cls-4" d="M138.1,181.46c-.18,2.4,3.6,16,4.8,22.82s4.81,17.33,2.58,26.6-12.23,25.72-12.62,26.3-6.07,11.35-13.11,10.76-7.82-3.13-7.82-3.13,9.29-16.05,11.73-25.23c1.46-5.45-4.89-46.94-4.89-46.94l12.52-6.46Z" transform="translate(-50.56 -56.69)"/><path d="M123.18,241.5c3.49.17,10.82.34,14.83.17l.66,2.48-13.22,1-3.37-1Z" transform="translate(-50.56 -56.69)"/><path d="M131.43,189.56l2.75-4.39c.2-.31-.29-.6-.49-.29l-2.75,4.39c-.2.31.29.6.49.29Z" transform="translate(-50.56 -56.69)"/><path d="M131.38,190a17.57,17.57,0,0,0,3.71,1.84c.34.12.49-.43.15-.55a16.77,16.77,0,0,1-3.57-1.78c-.31-.21-.6.29-.29.49Z" transform="translate(-50.56 -56.69)"/><path d="M134.54,191.81a17,17,0,0,0-3.45,3.11c-.24.28.17.69.4.4a17.13,17.13,0,0,1,3.34-3c.3-.2,0-.7-.29-.49Z" transform="translate(-50.56 -56.69)"/><path d="M130.7,196A182.67,182.67,0,0,1,142,224.75c.11.35.66.2.55-.15a182.54,182.54,0,0,0-11.4-28.85c-.16-.33-.66,0-.49.29Z" transform="translate(-50.56 -56.69)"/><path class="cls-4" d="M118.77,192.64c-1.08,0-3.55,5-3.66,11.23-.15,8.89-1.86,31.3.33,34.48s15.05,4.61,22.95,2.75c0,0-.33-12.52.77-14.17a7.1,7.1,0,0,1,2.42-2.31l-12,2S123.64,192.64,118.77,192.64Z" transform="translate(-50.56 -56.69)"/><path d="M138.39,241.1s-.33-12.52.77-14.17a7.1,7.1,0,0,1,2.42-2.31,4.85,4.85,0,0,1,1.43,3,26.26,26.26,0,0,1-1.43,10.21A6.79,6.79,0,0,1,138.39,241.1Z" transform="translate(-50.56 -56.69)"/><path class="cls-4" d="M156.73,183.23s.55,11.31.77,16.69,4.5,28.22,6.15,34.81,9.88,37.44,12.52,39.53c0,0,.88,1.21.11-6.15s-3.19-20.54-4.18-25.59,3.41-32.72,2.42-51.17c0,0-12-5-13.73-5.27C160.79,186.08,159.26,182.9,156.73,183.23Z" transform="translate(-50.56 -56.69)"/><path d="M146.45,229.16c-1.14.76-3,5.9-3,5.9a11.07,11.07,0,0,0,8.57-.19c4.19-2.09,7.42-4,7.42-4s4.57,4.19,5.52,3.43,0-5.14,0-5.14l-8.15-1.68Z" transform="translate(-50.56 -56.69)"/><path d="M163.63,220.85c1.21-6.46,1.53-13,2-19.59s1.52-7.19-4.58-10.16c-.33-.16-.62.33-.28.49,2.62,1.28,4.64,1.94,4.63,5,0,2.61-.39,5.3-.57,7.9a139.55,139.55,0,0,1-1.74,16.19c-.07.36.48.51.55.15Z" transform="translate(-50.56 -56.69)"/><path d="M153.72,222.76s2.49-5.9,3.59-6,9.43-.13,9.76.39-2.33,5.47-2.33,5.47S153.72,229.57,153.72,222.76Z" transform="translate(-50.56 -56.69)"/><path class="cls-4" d="M174.52,191.35s2.52,1.76,3.23,8.66,2.62,19.05,2.62,23.21c0,0,2.38,3,2,6.19S175,241.67,175,241.67s4.67-8.76,1.67-14.76c-1-1.9-6,.24-6,.24l3.57-23.21Z" transform="translate(-50.56 -56.69)"/><path d="M174.75,207.84l-4.37,20.95,4.56,1.09s1.09-11.11.36-13.84S174.75,207.84,174.75,207.84Z" transform="translate(-50.56 -56.69)"/><path d="M175,241.67s4.67-8.76,1.67-14.76c-1-1.9-6,.24-6,.24S166.8,238.82,175,241.67Z" transform="translate(-50.56 -56.69)"/><path class="cls-7" d="M141.58,224.62s4.54-6.21,5.31-6.42,4-1,5.22-.12,3.12,1.59,3.12,1.87-.14,1.4-2.31.84a11,11,0,0,0-3.09-.49,1.11,1.11,0,0,0,1.13,1.47c1.54.14,4.31.3,4.31.3s5.14-2.07,6.33-1.51,1.62.79.22,1.42a62.23,62.23,0,0,1-6,2.74l1.82-.09s4.45-2.11,6.26-2.26c1.16-.1,3.13.24,1.73,1.08s-3.5,2.18-3.5,2.18-.56,2.31-2.25,3a14.83,14.83,0,0,1-2.94.91,10.78,10.78,0,0,1-3.22,2.73c-1.61.7-8.2,0-8.2,0l-7.08,4.91s0-9.31.68-10.26Z" transform="translate(-50.56 -56.69)"/><path class="cls-7" d="M161.13,226.05c1.63.4-1,1.76-.42,2.29,0,0-1.31-.33-.79.3a60.14,60.14,0,0,0,5.41,3.59,14.55,14.55,0,0,0,2.55,1,6.78,6.78,0,0,0,2.49-.47,2.19,2.19,0,0,0,.47,1.35c.46.47,5.24,3.22,6.38,1.2,0,0,1.41-5.35-.54-8.44l-2.16-.48s-3.55-3.56-4.53-4.7-.76-2.12-2-1.39c-.91.53,0,2.08.62,3.12a25.12,25.12,0,0,1,1.56,3.16,16.88,16.88,0,0,0-3.74-.88A26.68,26.68,0,0,0,161.13,226.05Z" transform="translate(-50.56 -56.69)"/><path class="cls-9" d="M177.22,235.35c-1.14,2-5.92-.73-6.38-1.2a2.19,2.19,0,0,1-.47-1.35,6.78,6.78,0,0,1-2.49.47,14.55,14.55,0,0,1-2.55-1,60.14,60.14,0,0,1-5.41-3.59c-.17-.2.35-.39.69-.72.72-.69,1.62-1.6.52-1.87a26.68,26.68,0,0,1,5.29-.31,16.88,16.88,0,0,1,3.74.88l1.47,2.94,3.52,2Z" transform="translate(-50.56 -56.69)"/><path class="cls-7" d="M142.61,176.48c0,1.8,2.23,5.79,2.23,5.79s4.23,6.47,7.8,6.47,8.46-10.48,8.69-12.26,2.45-8.69,2.23-13.6c0,0-5.8-7.13-10.26-6-3.48.87-8.2.24-10,9.42A51.84,51.84,0,0,0,142.61,176.48Z" transform="translate(-50.56 -56.69)"/><path d="M142.89,171.73l2.11-3.67.66-4.46s5.29,2,9.09,3,6.61,1.66,8.42,0,3.8-1.48,3.31-3.47,0-5.28-2.48-7.1-8.26-2.81-12.06-2-8.59,2.15-7.93,5.12a3.91,3.91,0,0,0-3.14-.16C139.22,159.64,140.08,171.07,142.89,171.73Z" transform="translate(-50.56 -56.69)"/><path class="cls-7" d="M143.88,175.53a3.08,3.08,0,0,1-4.29-2.81c-.34-3,2-3.7,4.09-1.38Z" transform="translate(-50.56 -56.69)"/><path d="M143.31,179.74c1.65,2.79,5.09,9.2,9,9,2.78-.14,4.92-2.89,6.18-5.05a.29.29,0,0,0-.5-.29c-1,1.7-3.18,4.87-5.56,4.75-3.84-.19-6.94-5.85-8.62-8.7a.28.28,0,0,0-.49.29Z" transform="translate(-50.56 -56.69)"/><path d="M128.73,194.83a17.91,17.91,0,0,1,4.28,6.08c.15.34.64.05.5-.28a18.29,18.29,0,0,0-4.37-6.2c-.27-.25-.68.15-.41.4Z" transform="translate(-50.56 -56.69)"/><path d="M126.63,208.54q2.42,9,4.07,18.12c.06.36.61.21.55-.15q-1.65-9.15-4.07-18.12a.29.29,0,0,0-.55.15Z" transform="translate(-50.56 -56.69)"/><path d="M118.07,228c4.93-2.52,9.42-.31,14.42-1.26l8.36-1.58c.36-.07.21-.62-.15-.55-3,.56-6,1.39-9,1.71-4.9.5-9.25-1.2-13.92,1.19-.33.16,0,.66.29.49Z" transform="translate(-50.56 -56.69)"/><path d="M123.51,241.79c4.68.23,9.39.41,14.09.24.36,0,.37-.59,0-.58-4.7.18-9.41,0-14.09-.23-.37,0-.37.55,0,.57Z" transform="translate(-50.56 -56.69)"/><path d="M133,239.87a2,2,0,0,1-.8-.61c-.28-.46.17-.81.61-.82a.87.87,0,0,1,.8.42c.16.34-.09.88-.52.83s-.52.5-.15.55a1.13,1.13,0,0,0,1.28-1,1.26,1.26,0,0,0-1.09-1.36,1.33,1.33,0,0,0-1.56.8c-.22.78.55,1.35,1.14,1.66.32.18.61-.31.29-.49Z" transform="translate(-50.56 -56.69)"/><path d="M174.12,191.82a91.35,91.35,0,0,1-.15,11.7c0,.37.54.37.57,0a87.85,87.85,0,0,0,.15-11.7c0-.37-.59-.37-.57,0Z" transform="translate(-50.56 -56.69)"/><path d="M174,204.15c.06,7,1.18,14,.94,21,0,.37.56.37.57,0,.24-7-.88-14-.94-21a.29.29,0,0,0-.57,0Z" transform="translate(-50.56 -56.69)"/><path d="M177.32,222.78a4.91,4.91,0,0,1,2.5.94c.3.22.59-.28.29-.49a5.42,5.42,0,0,0-2.79-1c-.36,0-.36.54,0,.57Z" transform="translate(-50.56 -56.69)"/><path d="M177.47,219.27A7.77,7.77,0,0,1,179.8,223a.29.29,0,0,0,.55-.15,8.34,8.34,0,0,0-2.48-4c-.27-.25-.68.16-.4.4Z" transform="translate(-50.56 -56.69)"/><path d="M160.65,187a19.1,19.1,0,0,1,1.27,3.19l.13-.33-1.44,1.1c-.29.22,0,.72.29.49l1.44-1.09a.3.3,0,0,0,.13-.33,20.72,20.72,0,0,0-1.33-3.32c-.17-.33-.66,0-.49.29Z" transform="translate(-50.56 -56.69)"/><path d="M152.07,276.85a20.18,20.18,0,0,0,3.11-7.46c.08-.35-.47-.51-.55-.15a19.76,19.76,0,0,1-3,7.32c-.21.3.29.59.49.29Z" transform="translate(-50.56 -56.69)"/><path d="M152.82,275c1.79,6.37,1.88,13.47,2.43,20,.87,10.62,1.55,21.25,2.18,31.89q1.27,21.6,2.27,43.22c0,.36.59.37.57,0-1.21-26.62-2.45-53.29-4.86-79.83-.46-5.07-.65-10.51-2-15.45a.29.29,0,0,0-.55.15Z" transform="translate(-50.56 -56.69)"/><path d="M133.79,271.5c2-3.05,1.91-6.63,3.16-10,.13-.35-.42-.49-.55-.15-1.23,3.28-1.13,6.83-3.1,9.83-.2.31.29.6.49.29Z" transform="translate(-50.56 -56.69)"/><path d="M131.42,271.77c1.79-2.36,1.51-5.22,2.56-7.88.13-.34-.42-.49-.55-.15-1,2.61-.74,5.43-2.51,7.74-.22.3.27.58.5.29Z" transform="translate(-50.56 -56.69)"/><path d="M131,272.4c3.08,32.7,4.64,65.48,6.17,98.29,0,.37.59.37.57,0-1.53-32.81-3.08-65.58-6.17-98.29,0-.36-.6-.36-.57,0Z" transform="translate(-50.56 -56.69)"/><path d="M151.33,225.77a66.13,66.13,0,0,0,6.7-1c.35-.09.2-.64-.16-.55a65.5,65.5,0,0,1-6.69,1c-.36.06-.21.61.15.55Z" transform="translate(-50.56 -56.69)"/><path d="M151.64,228.12c4.31.35,9-1.25,12.77-3.24.33-.17,0-.66-.28-.49-3.69,1.94-8.3,3.5-12.49,3.16-.36,0-.36.54,0,.57Z" transform="translate(-50.56 -56.69)"/><path d="M152.13,230.43a15.28,15.28,0,0,0,7.7-1.8c.33-.17,0-.67-.29-.5a14.49,14.49,0,0,1-7.41,1.73.29.29,0,0,0,0,.57Z" transform="translate(-50.56 -56.69)"/><path d="M148.37,232.62a7.36,7.36,0,0,0,8.41-2.23c.23-.28-.18-.69-.41-.4a6.81,6.81,0,0,1-7.85,2.08c-.34-.13-.49.42-.15.55Z" transform="translate(-50.56 -56.69)"/><path d="M160.67,228.42a30.69,30.69,0,0,0,5,3.32c.32.17.61-.32.29-.49a29.45,29.45,0,0,1-4.87-3.24c-.28-.23-.69.17-.41.41Z" transform="translate(-50.56 -56.69)"/><path d="M161.13,227.84q4.13,1.59,8.37,2.89c.35.11.5-.44.15-.55q-4.23-1.31-8.37-2.89c-.35-.13-.49.42-.15.55Z" transform="translate(-50.56 -56.69)"/><path d="M170.64,232.78a12.82,12.82,0,0,0,5-1.39c.33-.17,0-.66-.29-.49a12.08,12.08,0,0,1-4.74,1.31c-.37,0-.37.59,0,.57Z" transform="translate(-50.56 -56.69)"/><path d="M154.19,181.06a8.42,8.42,0,0,0,2.35.24c.36,0,.37-.59,0-.57a7.73,7.73,0,0,1-2.2-.22.29.29,0,0,0-.15.55Z" transform="translate(-50.56 -56.69)"/><path d="M157.22,180.63c-.12-3.31.23-6.6-.07-9.9,0-.37-.6-.37-.57,0,.3,3.3-.05,6.59.07,9.9a.29.29,0,0,0,.57,0Z" transform="translate(-50.56 -56.69)"/><path d="M150.9,174.05a2,2,0,0,1-.29,1c-.26.38.36.74.61.36a2.61,2.61,0,0,0,.39-1.39c0-.46-.68-.46-.71,0Z" transform="translate(-50.56 -56.69)"/><path d="M159,175.14l-.38,1.11c-.14.44.55.63.69.19l.37-1.11c.15-.43-.54-.62-.68-.19Z" transform="translate(-50.56 -56.69)"/><path d="M150.53,183h3.7a.29.29,0,0,0,0-.57h-3.7a.29.29,0,0,0,0,.57Z" transform="translate(-50.56 -56.69)"/><path d="M147.79,170.68a6.15,6.15,0,0,1,6.72-.82c.33.16.62-.33.29-.49a6.75,6.75,0,0,0-7.41.91c-.28.23.12.64.4.4Z" transform="translate(-50.56 -56.69)"/><path d="M159.61,170.21a1.12,1.12,0,0,1,2,.34c.08.36.63.21.55-.15a1.7,1.7,0,0,0-3-.48.29.29,0,0,0,.5.29Z" transform="translate(-50.56 -56.69)"/><path d="M140.84,172.09a11.31,11.31,0,0,1,.88,1.5c.17.33.66,0,.5-.29a12.59,12.59,0,0,0-.89-1.5c-.2-.3-.7,0-.49.29Z" transform="translate(-50.56 -56.69)"/><path d="M138.47,378.5s-4.78,3.44-4.78,4.8,4.6,1.15,7.58.88,7.59-.66,7.59-.66-.94-6-4.67-5.71Z" transform="translate(-50.56 -56.69)"/><path d="M159.29,377.81s-1.76,4.12-1.49,5.2,18.42,0,18.42,0,1-4.73-10.2-4.73Z" transform="translate(-50.56 -56.69)"/><path d="M135.13,143.85l2.72,4.76c.18.32.67,0,.49-.29l-2.72-4.75a.28.28,0,0,0-.49.28Z" transform="translate(-50.56 -56.69)"/><path d="M130.45,150.12l5.46,2.67c.33.16.62-.34.29-.5l-5.47-2.66c-.33-.16-.62.33-.28.49Z" transform="translate(-50.56 -56.69)"/><path d="M129.16,156.28l4.06,1.4c.35.12.5-.43.15-.55l-4.06-1.4c-.35-.12-.5.43-.15.55Z" transform="translate(-50.56 -56.69)"/><ellipse class="cls-6" cx="104.61" cy="325.96" rx="41.52" ry="6"/><rect class="cls-10" x="52.81" y="122.34" width="21.25" height="13.78" rx="2.54"/><path class="cls-11" d="M114.12,187.44l-8.51-3.89a5.13,5.13,0,0,0,1.88,3,58.85,58.85,0,0,0,7,3.77s9.75-5.63,8-7.81Z" transform="translate(-50.56 -56.69)"/><polyline class="cls-12" points="71.84 125.96 63.55 130.75 55.03 126.66"/><path class="cls-8" d="M174.64,213.78h11.51V220l6.44-6.2h68.08a5.11,5.11,0,0,0,5.12-5.11V125.09a5.11,5.11,0,0,0-5.12-5.11h-86a5.11,5.11,0,0,0-5.11,5.11l1.36,83.2C170.89,211.11,171.82,213.78,174.64,213.78Z" transform="translate(-50.56 -56.69)"/><path d="M260.67,119.56H176.53c-4.56,0-6.76,1.22-6.87,5.87-.14,5.58-.06,11.17,0,16.74,0,18.64.1,37.28.39,55.92.05,3.39.1,6.79.21,10.18,0,1.12-.29,3.32.26,4.36,1.29,2.42,6.93,1.19,9.16,1.19.76,0,5.57-.54,6-.11.68.66,0,5.19,0,6.27a.28.28,0,0,0,.47.19c3-2.78,4.9-6.12,8.91-6.12h56.23c6.19,0,14.64,1.93,14.81-6.5.24-11.87,0-23.76,0-35.63V137.16a.28.28,0,0,0-.55,0v68.65a23.61,23.61,0,0,1,0,2.79c-.64,5.18-4,4.91-7.76,4.91H196.43c-1,0-2.86-.35-3.82,0-1.67.6-3.65,3.27-4.94,4.47-.36.33-1.1,1.3-1.58,1.46s.27.52.1-.85a42.71,42.71,0,0,1,0-5.06.27.27,0,0,0-.27-.27c-3.76,0-7.6.24-11.34,0-3-.18-3.62-.4-3.75-3.11-.27-5.52-.28-11-.35-16.57q-.31-25.5-.32-51c0-5.38,0-10.76,0-16.13a13.23,13.23,0,0,1,.11-3.39c1.31-3.68,6.43-3,9.57-3h80.8a.28.28,0,0,0,0-.55Z" transform="translate(-50.56 -56.69)"/><rect class="cls-13" x="129.96" y="139.46" width="72.47" height="0.87"/><rect class="cls-13" x="129.96" y="142.29" width="72.47" height="0.87"/><rect class="cls-13" x="129.96" y="144.94" width="72.47" height="0.87"/><rect class="cls-13" x="129.96" y="147.78" width="72.47" height="0.87"/><rect class="cls-13" x="128.25" y="83.92" width="76.4" height="50.19" rx="3.33"/><text class="cls-14" transform="translate(128.22 78.16)">TODAY’S HEADLINES</text><polygon class="cls-8" points="160.53 109.73 160.53 104.07 166.65 106.9 172.76 109.73 166.65 112.56 160.53 115.39 160.53 109.73"/><path d="M153.39,149a20.25,20.25,0,0,1,12.06-13.19c.33-.13.19-.66-.14-.53a20.84,20.84,0,0,0-12.45,13.57.28.28,0,0,0,.53.15Z" transform="translate(-50.56 -56.69)"/><path class="cls-8" d="M537.22,180.51H506.06l-5,5.71-5-5.71H466.05a5.11,5.11,0,0,1-5.11-5.11v-113a5.1,5.1,0,0,1,5.11-5.1h71.17a5.1,5.1,0,0,1,5.11,5.1v113A5.11,5.11,0,0,1,537.22,180.51Z" transform="translate(-50.56 -56.69)"/><text class="cls-15" transform="translate(422.03 9.96) rotate(0.7)">BREAKING NEWS</text><rect class="cls-16" x="418.88" y="68.66" width="68.21" height="1.03"/><rect class="cls-16" x="418.88" y="72.84" width="68.21" height="1.03"/><rect class="cls-16" x="418.88" y="77.03" width="68.21" height="1.03"/><rect class="cls-16" x="418.88" y="81.22" width="68.21" height="1.03"/><rect class="cls-16" x="418.88" y="85.4" width="68.21" height="1.03"/><rect class="cls-16" x="418.88" y="89.59" width="68.21" height="1.03"/><rect class="cls-16" x="418.88" y="93.77" width="68.21" height="1.03"/><rect class="cls-16" x="418.88" y="97.96" width="68.21" height="1.03"/><rect class="cls-16" x="418.88" y="102.14" width="68.21" height="1.03"/><rect class="cls-16" x="418.88" y="106.33" width="68.21" height="1.03"/><rect class="cls-16" x="418.88" y="110.51" width="68.21" height="1.03"/><rect class="cls-16" x="418.88" y="114.7" width="68.21" height="1.03"/><rect class="cls-16" x="414.74" y="14.12" width="72.26" height="48.28" rx="1.34"/><polygon class="cls-8" points="447.52 30.71 447.85 43.25 461.05 36.98 447.52 30.71"/><path d="M461.4,95.23v-22c0-4.44-2.28-15.08,4.65-15.69.34,0,.35-.58,0-.55-3.53.31-5,2.27-5.2,5.66-.72,10.75,0,21.8,0,32.57a.28.28,0,0,0,.55,0Z" transform="translate(-50.56 -56.69)"/><path d="M542.05,95.74v73.61a47,47,0,0,1,0,6.05c-.76,5.6-4.54,5-8.8,5H509.89c-2.8,0-3.11-.31-4.91,1.24-1,.88-3.47,4.2-3.93,4.12-1-.16-3.29-4.15-4-5-.22-.28-.61.11-.39.39l4.24,5.34a.27.27,0,0,0,.38,0,46.94,46.94,0,0,1,3.82-4.14c1-.83.87-1,2.14-1.35,2-.56,5.15,0,7.27,0H535c3.17,0,6.29,0,7.39-3.62.58-1.9.26-4.32.26-6.29V95.74a.28.28,0,0,0-.55,0Z" transform="translate(-50.56 -56.69)"/><path d="M490.11,57.71h42c2.12,0,5.12-.57,7.08.46,3.69,2,2.94,6.68,2.94,10.14V82.14a.28.28,0,0,0,.55,0V65.3c0-4-.39-7.44-5.05-8.13-7.35-1.08-15.67,0-23.1,0H490.11a.28.28,0,0,0,0,.55Z" transform="translate(-50.56 -56.69)"/><path d="M549,130a36.76,36.76,0,0,1,36.58,10.84c.24.26.62-.13.39-.39a37.34,37.34,0,0,0-37.12-11,.28.28,0,0,0,.15.53Z" transform="translate(-50.56 -56.69)"/><path class="cls-5" d="M276,90.75h69.14s1.78-.86,1.78,4.4v23.54l4.51.9-4.55,6.92V148.1l-1.68,2.78H274.49a2.47,2.47,0,0,1-2.39-2.78V93.61Z" transform="translate(-50.56 -56.69)"/><text class="cls-17" transform="translate(227.22 45.36)">HEADLINES</text><line class="cls-18" x1="257.41" y1="53.15" x2="291.89" y2="53.15"/><line class="cls-18" x1="257.41" y1="56.39" x2="291.89" y2="56.39"/><line class="cls-18" x1="257.41" y1="60.61" x2="291.89" y2="60.61"/><line class="cls-18" x1="257.41" y1="63.85" x2="291.89" y2="63.85"/><line class="cls-18" x1="257.41" y1="67.09" x2="291.89" y2="67.09"/><line class="cls-18" x1="257.41" y1="70.33" x2="291.89" y2="70.33"/><line class="cls-18" x1="257.41" y1="73.57" x2="291.89" y2="73.57"/><line class="cls-18" x1="257.41" y1="77.79" x2="291.89" y2="77.79"/><line class="cls-18" x1="229.31" y1="82.33" x2="291.89" y2="82.33"/><line class="cls-18" x1="229.31" y1="86.54" x2="291.89" y2="86.54"/><rect class="cls-3" x="227.04" y="50.88" width="26.59" height="27.88" rx="2.55"/><path class="cls-3" d="M276,91h67.4a6.73,6.73,0,0,1,2.24,0c1.09.48,1,2.81,1,3.72,0,.37,0,.73,0,1.09v22.9a.24.24,0,0,0,.17.23l4.5.9-.14-.34L347.61,125a6.1,6.1,0,0,0-.95,1.53,5.14,5.14,0,0,0,0,1.24V148.1a.23.23,0,0,0,.46,0V128.6c0-.6-.06-1.25,0-1.85,0-.11.05-.32,0-.14a5.4,5.4,0,0,1,.51-.77l4-6.13a.23.23,0,0,0-.14-.34l-3-.6c-.47-.09-.95-.2-1.43-.28-.05,0,0,.34.07,0a33.33,33.33,0,0,0,0-4.58V98.38c0-2,.79-7.86-1.93-7.9-10.28-.16-20.63,0-30.93,0H276a.24.24,0,0,0,0,.47Z" transform="translate(-50.56 -56.69)"/><path class="cls-3" d="M345.21,150.64H275.09a2.83,2.83,0,0,1-1.88-.45c-1-.78-.87-2.15-.87-3.3V100.14c0-2,.2-4.2,0-6.23,0-.1,0-.2,0-.3a.24.24,0,0,0-.47,0v52.51c0,2-.14,4.79,2.59,5,2,.15,4.06,0,6.06,0h64.69a.24.24,0,0,0,0-.47Z" transform="translate(-50.56 -56.69)"/><path class="cls-5" d="M664.53,222.29H629.61s-.9-.43-.9,2.23v11.89l-2.27.45,2.29,3.5v10.9l.85,1.41H665.3a1.26,1.26,0,0,0,1.21-1.41V223.74Z" transform="translate(-50.56 -56.69)"/><text class="cls-19" transform="translate(581.23 171.32)">HEADLINES</text><line class="cls-18" x1="597.83" y1="175.25" x2="580.41" y2="175.25"/><line class="cls-18" x1="597.83" y1="176.89" x2="580.41" y2="176.89"/><line class="cls-18" x1="597.83" y1="179.01" x2="580.41" y2="179.01"/><line class="cls-18" x1="597.83" y1="180.65" x2="580.41" y2="180.65"/><line class="cls-18" x1="597.83" y1="182.29" x2="580.41" y2="182.29"/><line class="cls-18" x1="597.83" y1="183.93" x2="580.41" y2="183.93"/><line class="cls-18" x1="597.83" y1="185.57" x2="580.41" y2="185.57"/><line class="cls-18" x1="597.83" y1="187.7" x2="580.41" y2="187.7"/><line class="cls-18" x1="612.02" y1="189.99" x2="580.41" y2="189.99"/><line class="cls-18" x1="612.02" y1="192.12" x2="580.41" y2="192.12"/><rect class="cls-3" x="650.3" y="230.79" width="13.43" height="14.09" rx="1.29" transform="translate(1263.47 418.98) rotate(-180)"/><path class="cls-3" d="M664.53,222.06c-11.54,0-23.1.16-34.64,0-1.64,0-1.41,1.94-1.41,3.21v7.61a16.39,16.39,0,0,0,0,3.21.94.94,0,0,1,0,.29c.1-.33.09-.12-.28-.11a12.9,12.9,0,0,0-1.83.37.24.24,0,0,0-.14.34,24.49,24.49,0,0,1,2.22,3.37c.09.23,0-.07,0,.1a2.36,2.36,0,0,1,0,.46v10.35a.24.24,0,0,0,.47,0v-8.71a7.83,7.83,0,0,0-.07-2.37,11,11,0,0,0-1.25-1.89l-1-1.54-.14.34,2.27-.46a.23.23,0,0,0,.17-.22V225.47a12.49,12.49,0,0,1,.08-2c.07-.43.13-.79.52-.92a3.84,3.84,0,0,1,1.07,0h33.92a.24.24,0,0,0,0-.47Z" transform="translate(-50.56 -56.69)"/><path class="cls-3" d="M629.58,252.9h34.68c1.46,0,2.45-.19,2.48-1.9,0-1.24,0-2.47,0-3.71V223.74a.23.23,0,0,0-.46,0v26c0,.44,0,.87,0,1.3-.07,1.1-.53,1.38-1.48,1.38H629.58a.24.24,0,0,0,0,.47Z" transform="translate(-50.56 -56.69)"/><rect class="cls-20" x="324.27" y="163.09" width="22.73" height="6.14" rx="3.07" transform="translate(620.71 275.63) rotate(-180)"/><path class="cls-21" d="M333.06,187.82h18l-2-1.6a5.21,5.21,0,0,1-1.9-4V165.73a2.66,2.66,0,0,0-2.66-2.66H326.8l.55.68a7.81,7.81,0,0,1,1.75,4.92v15.18A4,4,0,0,0,333.06,187.82Z" transform="translate(-50.56 -56.69)"/><line class="cls-22" x1="293.71" y1="113.01" x2="281.91" y2="113.01"/><line class="cls-22" x1="293.71" y1="109.8" x2="281.91" y2="109.8"/><line class="cls-22" x1="293.71" y1="116.71" x2="281.91" y2="116.71"/><line class="cls-22" x1="293.71" y1="120.04" x2="281.91" y2="120.04"/><line class="cls-22" x1="293.71" y1="123.91" x2="281.91" y2="123.91"/><line class="cls-22" x1="294.58" y1="127.78" x2="282.78" y2="127.78"/><ellipse class="cls-6" cx="256.9" cy="382.6" rx="57.53" ry="4.6"/><path d="M350.32,403c0,2.22,2.13,7.29,1.39,9.5s-.6,5.38-1.84,6.85-1.71,5,1,5.92c0,0,7.64-1.73,11.08-14.78s-.43-.86,2-7,.74-7.89.74-7.89-4.79-5.54-7.57-5.57S350.32,403,350.32,403Z" transform="translate(-50.56 -56.69)"/><polygon points="205.94 192.37 199.61 186.98 199.99 185.72 206.03 184.84 213.71 190.88 205.94 192.37"/><path d="M303.57,426.73c.38,2.13,1.52,2.93,1.93,6.44a3.55,3.55,0,0,1-2.91,3.91c-6.33,1.14-11.9,3.24-22.35,2.87a99.19,99.19,0,0,1-10.46-1.78s-.29-3.35,1.58-3.95,7-.79,7.3-.88a79.16,79.16,0,0,0,7.7-4.15c1.28-1-.19-1.95,2.18-2S303.57,426.73,303.57,426.73Z" transform="translate(-50.56 -56.69)"/><path class="cls-23" d="M304.59,381.11s14.24,7.88,15.75,9.24,26.06,13.89,26.06,13.89,2.72.91,4.24.3l6.5-14.52s-5.6-5-6.66-5.45-31.35-23.78-41.2-24.84l-4-.83s-2.48.56-2.63,2.22S304.59,381.11,304.59,381.11Z" transform="translate(-50.56 -56.69)"/><path d="M306.77,372.29c16.17,7.85,31.28,18.22,46.52,27.71.3.19.57-.29.27-.47-15.23-9.49-30.34-19.86-46.51-27.71-.32-.15-.6.32-.28.47Z" transform="translate(-50.56 -56.69)"/><path d="M313,360.62l-7.74-1.72s-2.48.56-2.63,2.22,2,20,2,20,14.24,7.88,15.75,9.24L314,377.91Z" transform="translate(-50.56 -56.69)"/><path class="cls-23" d="M284.68,303.68c-1.26,3.37-3.14,58.67-2.09,61.4,0,0,3.83,60.76,3.39,61.79s19.42.59,18.83-.74,2.15-18.46,2.5-21.67c.56-5.2,6.63-73.61,7.36-75.67s7.35-9.76,10-22.7l-17.95-1.77Z" transform="translate(-50.56 -56.69)"/><path d="M324.67,306.09l-17.95-1.77-22-.64c-.34.91-.34,3-.71,5.84-.1.82,10-.25,20.64.49.22,0,5.52.59,5.73.61l11,.18S323.65,312.15,324.67,306.09Z" transform="translate(-50.56 -56.69)"/><path d="M295.3,307.66c.5,5.53,3.92,11.08,6.33,16,.15.32.62,0,.47-.27-2.34-4.78-5.77-10.41-6.26-15.72,0-.35-.58-.35-.54,0Z" transform="translate(-50.56 -56.69)"/><path d="M297,306.75c-.11,5,3.26,10.05,5.22,14.45.15.32.62,0,.48-.28-1.93-4.31-5.26-9.35-5.15-14.17a.28.28,0,0,0-.55,0Z" transform="translate(-50.56 -56.69)"/><path class="cls-24" d="M299.9,218.25c-1.5-.16-3.84-.33-5.34,1.17s-13.33,20.33-15,32c-.6,4.13,1.48,17.94,1.48,17.94s-6.09,26.94-6,28.55c.16,2.5-.5,7.5,4.66,9s12.83,0,12.83,0l12.17-71.82Z" transform="translate(-50.56 -56.69)"/><path class="cls-7" d="M276.2,261.47s-6,.33-8.83-1.17a31.42,31.42,0,0,1-6-4.66s-1.05-.51-1.47-.73c-2.31-1.21-1.33-2.59-1.33-2.59s-3.21-.64-2.93-2.22a1.59,1.59,0,0,1,.85-1s-1.24-1.17-1.3-1.63-.07-1.17,1.1-1.17a9.59,9.59,0,0,1,2.74.59l4.17.84s-.65-.65.65-1,6.71-.72,7.55-1,7.1,4.56,7.1,4.56Z" transform="translate(-50.56 -56.69)"/><path d="M256.5,249.06a1.59,1.59,0,0,0-.85,1c-.28,1.58,2.93,2.22,2.93,2.22s-1,1.38,1.33,2.59c.42.22,1.47.73,1.47.73a31.42,31.42,0,0,0,6,4.66l-2.76-3.92s-2.77-1.42-1.9-2.89h0l-3.22-2.18,6.76.06Z" transform="translate(-50.56 -56.69)"/><path class="cls-7" d="M295.69,214.57,293.38,209l-2.45-.68s-.75-.79-4.42-2.62a15.94,15.94,0,0,1-2.34-3.83l-2-.65a1.49,1.49,0,0,1-1.05-1.45,41.37,41.37,0,0,0-.21-5.76c-.32-1.09-3.9-9.2-2.34-12.78s8.26-12.32,18.55-9.05,10.91,15,9.2,20.58l3,8.58Z" transform="translate(-50.56 -56.69)"/><path d="M283.28,193.44c.16.49.18,1,.33,1.48s.64.2.53-.14c-.15-.49-.18-1-.33-1.48s-.64-.19-.53.14Z" transform="translate(-50.56 -56.69)"/><polygon points="258.69 144.63 245.12 157.88 242.82 152.3 258.69 144.63"/><path d="M273.89,177.54c-3.55,3.32.9,8.43,4,8.12s9.76-4.65,11.94-5.27L291,182a2.48,2.48,0,0,0,2,1h1.77s1.78,5.28,2.3,6.15c.32.53,2.95-1.23,4.43,0,2.8,2.33,5.09,8,5.09,8L308,193s2-7,1.41-10.11-2.8-10.59-6.85-12.46S283.55,168.5,273.89,177.54Z" transform="translate(-50.56 -56.69)"/><path class="cls-25" d="M282.7,263s-.08-.49-.2-1.31c-.46-3.1.92-10.06,1.32-12.71.5-3.33,10.88-30.31,10.88-30.31s-1.83-5-1.83-6.17,17.66-15.33,17.66-15.33l2.67,4.17L312,206Z" transform="translate(-50.56 -56.69)"/><path class="cls-25" d="M280.75,264.35l-5-.56s1.27-13.85,2.38-14.22,6,2.12,6,2.12Z" transform="translate(-50.56 -56.69)"/><polygon points="233.54 195.01 230.19 207.66 225.16 207.1 228.06 203.78 233.54 195.01"/><path class="cls-3" d="M314.76,201.26a56.09,56.09,0,0,0-13.84,10.64c-1.75,1.92.07,2.92-2.57,6.83-6.43,9.53-14.9,31.32-14.9,31.32a113,113,0,0,0-3.69,25.05c-.58,14.56-2.25,30.06-2.25,30.06a48.18,48.18,0,0,0,12.34,2.16c5.63,0,33.35-.19,34.95-.19a4.73,4.73,0,0,0,4.85-3.69c.3-2.92-2.6-18.32-4.35-27.44s3.19-49.44,4.74-53.71S326,212.2,319,208.7c0,0-2.3-1.2-2.66-2.08Z" transform="translate(-50.56 -56.69)"/><path d="M328.82,272.67c-1.14,1.28-6.38,1.7-7.51,1.42s-15.17-1.28-20.84-1.84-15.44-4.4-17.85-4.82a4.12,4.12,0,0,1-3.12-2l.14,5.95a75.72,75.72,0,0,0,13.4,3c7.94,1.1,26.54,3,26.54,3l5.47-1.37Z" transform="translate(-50.56 -56.69)"/><path d="M309.8,249.11l1.65,6.49-8-.71s3.48-.19,4.3-1.1S309.8,249.11,309.8,249.11Z" transform="translate(-50.56 -56.69)"/><path class="cls-3" d="M323.15,213.44c-4.27-.23-12,5-13.75,16.58s2,26.78,2,26.78a9.34,9.34,0,0,1-6.95.14c-3.82-1.42-12.89-4.25-15.16-5.1s-4.43-2.44-5.83-1.79-4.28,16.58-4.28,16.58a24.42,24.42,0,0,0,3.45.8c2.41.42,12.18,4.25,17.85,4.82s19.7,1.56,20.84,1.84,6.37-.14,7.51-1.42,5.38-26,5.38-30.32C334.2,219.09,328.53,213.72,323.15,213.44Z" transform="translate(-50.56 -56.69)"/><path class="cls-7" d="M300.48,189.43c.79-2.39.91-3.64,3-3.87s3.53,3.76,2.84,6-1.93,4.21-4,3.75Z" transform="translate(-50.56 -56.69)"/><path d="M304.49,308.11c-1.17,10.3-3.89,20.29-5.63,30.49-1.65,9.65-1.93,19.45-2.18,29.22q-.82,31.6,1.47,63.19c0,.35.57.35.54,0q-2.24-31.54-1.47-63.19c.28-10.66.69-21.27,2.66-31.77,1.75-9.32,4.09-18.51,5.16-27.94,0-.35-.51-.35-.55,0Z" transform="translate(-50.56 -56.69)"/><path d="M287,425.61c5.4-.22,10.8-.3,16.21-.52.35,0,.35-.57,0-.55-5.41.22-10.81.3-16.21.53-.36,0-.36.56,0,.54Z" transform="translate(-50.56 -56.69)"/><path d="M349.48,404.7,353.89,394c.13-.33-.4-.47-.53-.15L349,404.55c-.14.33.39.47.53.15Z" transform="translate(-50.56 -56.69)"/><path d="M297.11,189.21l.47,3.92a6,6,0,0,1-.28,2.67l-1.72,4.94a6,6,0,0,1-2.64,3.2l-.59-.06-2.69-2.28-5.06,1.15.88,1.47,4.46-.41,1.69,1.88-.76,2.57,2.5.72,5.34-5.17a6,6,0,0,0,1.8-4.15l.23-11.42Z" transform="translate(-50.56 -56.69)"/><path d="M308,238.16a138.27,138.27,0,0,0,2.87,17.39c.08.34.61.2.53-.15a137.74,137.74,0,0,1-2.86-17.24c0-.35-.58-.35-.54,0Z" transform="translate(-50.56 -56.69)"/><path d="M284.65,250.91c5.34,1.28,10.73,2.36,16.12,3.35,3.76.69,8.45,2.1,12.31,1.52.35-.05.2-.58-.15-.53-4.43.67-9.95-1.12-14.3-1.95-4.63-.89-9.25-1.82-13.83-2.92-.34-.08-.49.45-.15.53Z" transform="translate(-50.56 -56.69)"/><path d="M306.6,221.41c2.82-2.08,5.66-4.15,8.63-6,2.09-1.33,5.32-3.87,7.95-3.41.35.07.49-.46.15-.52-2-.36-4.1.94-5.77,1.88a106.66,106.66,0,0,0-11.24,7.62c-.28.21,0,.68.28.47Z" transform="translate(-50.56 -56.69)"/><path d="M304.37,229.22c1.14,3,2.36,5.91,3.51,8.89.12.32.65.18.53-.15-1.15-3-2.37-5.92-3.51-8.89-.12-.33-.66-.18-.53.15Z" transform="translate(-50.56 -56.69)"/><path d="M286.39,267.91a78.76,78.76,0,0,1,1.53-14c.07-.35-.46-.5-.53-.15a79.52,79.52,0,0,0-1.55,14.19c0,.35.54.35.55,0Z" transform="translate(-50.56 -56.69)"/><path d="M281.92,266.11a1.39,1.39,0,1,0,1.76-1.75.28.28,0,0,0-.34.19l-.16.92c-.06.35.47.5.53.15l.16-.92-.34.19a.84.84,0,1,1-1.08,1.07c-.13-.32-.66-.18-.53.15Z" transform="translate(-50.56 -56.69)"/><path d="M300.64,216.3a39.81,39.81,0,0,1,14.76-10c.32-.13.18-.66-.15-.53a40.28,40.28,0,0,0-15,10.11c-.23.26.15.65.39.39Z" transform="translate(-50.56 -56.69)"/><path d="M281.64,281.47a1.75,1.75,0,0,0,.27,2.23,1.56,1.56,0,0,0,2.31-.25,1.53,1.53,0,0,0-.2-2.21,1.75,1.75,0,0,0-2.2,0c-.27.23.12.61.39.39,1-.83,2.47.46,1.54,1.5s-2.39-.35-1.63-1.41c.2-.29-.28-.56-.48-.28Z" transform="translate(-50.56 -56.69)"/><path d="M298.62,281.41h13a.28.28,0,0,0,0-.55h-13a.28.28,0,0,0,0,.55Z" transform="translate(-50.56 -56.69)"/><path d="M298.12,282.85c.54,3.87.54,7.85.7,11.75a.27.27,0,0,0,.13.24c4,1.93,9.07,2.26,12.78-.49.28-.21,0-.69-.28-.48a10.83,10.83,0,0,1-9.35,1.49,9.59,9.59,0,0,1-2.41-.79c-.65-.39-.2.26-.35-.65-.61-3.67-.18-7.52-.69-11.22,0-.35-.58-.2-.53.15Z" transform="translate(-50.56 -56.69)"/><path d="M312.85,294c-.05-4,0-8,0-12a.28.28,0,0,0-.55,0c0,4,0,8,0,12,0,.35.56.35.55,0Z" transform="translate(-50.56 -56.69)"/><path d="M299.84,284.93h10.83a.28.28,0,0,0,0-.55H299.84a.28.28,0,0,0,0,.55Z" transform="translate(-50.56 -56.69)"/><path d="M285.19,375.35l2.62-2.35c.26-.24-.13-.63-.39-.39L284.8,375c-.26.24.13.63.39.39Z" transform="translate(-50.56 -56.69)"/><path d="M285.45,372l1.57-1.32c.27-.22-.12-.61-.39-.38l-1.56,1.31c-.27.23.11.61.38.39Z" transform="translate(-50.56 -56.69)"/><path d="M256.89,249.44a100.59,100.59,0,0,0,11.51,2.68c.35.07.5-.46.15-.53A98.52,98.52,0,0,1,257,248.91c-.34-.11-.48.42-.15.53Z" transform="translate(-50.56 -56.69)"/><path d="M258.84,252.57a40.46,40.46,0,0,0,9.83,2.21c.35,0,.35-.52,0-.55A39.91,39.91,0,0,1,259,252c-.33-.11-.48.42-.14.53Z" transform="translate(-50.56 -56.69)"/><path d="M261.84,255.82a30,30,0,0,0,6.73,1.24c.35,0,.35-.52,0-.55a29.46,29.46,0,0,1-6.59-1.22c-.33-.11-.48.42-.14.53Z" transform="translate(-50.56 -56.69)"/><path d="M262.36,247.57a75.63,75.63,0,0,0,9.62,1.16c.35,0,.35-.53,0-.55a77.35,77.35,0,0,1-9.48-1.13c-.34-.07-.49.46-.14.52Z" transform="translate(-50.56 -56.69)"/><path d="M281.42,191a15.67,15.67,0,0,1,5.3-1.53c.35,0,.35-.58,0-.55a16.78,16.78,0,0,0-5.58,1.6c-.32.15,0,.63.28.48Z" transform="translate(-50.56 -56.69)"/><path d="M284.17,250.13c4.05-11.62,8.7-22.83,15.8-32.95.2-.29-.28-.56-.48-.28-7.13,10.18-11.78,21.41-15.85,33.09-.11.33.42.48.53.14Z" transform="translate(-50.56 -56.69)"/><path d="M299.8,215.47c.27-.66.33-1.32.59-2a7.11,7.11,0,0,1,1.9-2.49c1.14-1.15,2.37-2.23,3.62-3.27a61.59,61.59,0,0,1,8.67-6,.27.27,0,0,0-.28-.47,61.67,61.67,0,0,0-9.51,6.69,30.84,30.84,0,0,0-4.15,3.92c-.89,1.13-.84,2.16-1.37,3.44-.13.33.4.47.53.15Z" transform="translate(-50.56 -56.69)"/><path d="M294.34,213.25a1.66,1.66,0,0,1,.07-.91l-.4.16a31.78,31.78,0,0,1,5.47,3.27c.26.23.65-.16.38-.39a32.66,32.66,0,0,0-5.57-3.35.28.28,0,0,0-.41.16,2.71,2.71,0,0,0-.09,1.06c0,.35.58.35.55,0Z" transform="translate(-50.56 -56.69)"/><path d="M294.06,213.25a1.82,1.82,0,0,1,.09-1,53.65,53.65,0,0,1,5.52,3.3,2,2,0,0,1-.49,2.45Z" transform="translate(-50.56 -56.69)"/><path d="M275.82,261.16a58.47,58.47,0,0,1,1.35-7.9c.21-.86.36-2.65,1.15-3.09,1-.55,3.26.86,4.17,1.31.31.16.59-.31.27-.47a23.32,23.32,0,0,0-4.74-1.78.27.27,0,0,0-.33.19,59.55,59.55,0,0,0-2.41,11.74c0,.35.51.35.54,0Z" transform="translate(-50.56 -56.69)"/><path class="cls-9" d="M359.42,168.38c-2.66-4.08-11.47-24-4.56-32.19s10-5.49,10-5.49l3.92,6.8Z" transform="translate(-50.56 -56.69)"/><path d="M361.05,151.44c.21-2.49,3.82-20.74,3.82-20.74l3.92,6.8-9.37,30.88S360.12,162.28,361.05,151.44Z" transform="translate(-50.56 -56.69)"/><rect class="cls-26" x="348.66" y="95.03" width="123.37" height="241.77" rx="8.73" transform="translate(12.96 -148.53) rotate(13.83)"/><path class="cls-5" d="M434,325.93,337.65,302.2a7.8,7.8,0,0,1-5.71-9.45L380.49,95.69A7.81,7.81,0,0,1,389.94,90l96.37,23.73a7.81,7.81,0,0,1,5.72,9.45L443.47,320.21A7.81,7.81,0,0,1,434,325.93Z" transform="translate(-50.56 -56.69)"/><rect class="cls-6" x="373.13" y="147.01" width="98.1" height="38.6" rx="4.05" transform="translate(0.37 -151.29) rotate(13.6)"/><rect class="cls-6" x="347.97" y="253.02" width="47.41" height="24.45" rx="2.18" transform="translate(22.22 -136.64) rotate(13.6)"/><rect class="cls-6" x="402.76" y="217.58" width="46.76" height="72.77" rx="3.82" transform="translate(16.78 -145.3) rotate(12.88)"/><g class="cls-27"><line class="cls-28" x1="357.61" y1="155.63" x2="311.94" y2="144.76"/><line class="cls-28" x1="356.67" y1="159.61" x2="311" y2="148.74"/><line class="cls-28" x1="355.68" y1="163.26" x2="310.01" y2="152.39"/><line class="cls-28" x1="354.69" y1="166.9" x2="309.02" y2="156.03"/><line class="cls-28" x1="353.47" y1="170.69" x2="307.79" y2="159.82"/><line class="cls-28" x1="352.55" y1="174.85" x2="306.88" y2="163.97"/></g><g class="cls-27"><line class="cls-28" x1="351.78" y1="179.13" x2="306.1" y2="168.26"/><line class="cls-28" x1="350.84" y1="183.12" x2="305.17" y2="172.25"/><line class="cls-28" x1="349.85" y1="186.76" x2="304.17" y2="175.89"/><line class="cls-28" x1="348.86" y1="190.4" x2="303.18" y2="179.53"/><line class="cls-28" x1="347.63" y1="194.19" x2="301.96" y2="183.32"/><line class="cls-28" x1="346.72" y1="198.35" x2="301.05" y2="187.48"/></g><g class="cls-27"><line class="cls-28" x1="411" y1="143.24" x2="318.17" y2="121.15"/><line class="cls-28" x1="410.07" y1="147.23" x2="317.24" y2="125.13"/><line class="cls-28" x1="408.96" y1="150.84" x2="316.13" y2="128.75"/><line class="cls-28" x1="407.85" y1="154.45" x2="315.02" y2="132.36"/><line class="cls-28" x1="406.31" y1="158.17" x2="313.48" y2="136.08"/><line class="cls-28" x1="405.47" y1="162.34" x2="312.64" y2="140.25"/></g><path class="cls-29" d="M359.13,327.75s7.3,40.84,11.4,47.46S379.69,390,379.69,390l7.79,46.38h97.45L474,397s24-54.76,24.56-100.18-.2-76-5.65-94.72-7.22-26.31-15.21-28.06-11.69,6-12.67,11.49c-.52,2.93-1,50.63-1,50.63l-5.26,37.67s-27.24,28.57-40.89,68.44l-27.3-7.6Z" transform="translate(-50.56 -56.69)"/><path class="cls-9" d="M473.82,396c-5.63,5.05-22.27,13-44.74,9.21,0,0,15.53,11.34,25.91,10.3S473.82,396,473.82,396Z" transform="translate(-50.56 -56.69)"/><path d="M428.9,405.87c14.88,2.29,33.43,1,45.4-9.38.67-.58-.3-1.55-1-1-11.56,10-29.7,11.24-44.07,9-.86-.13-1.23,1.19-.36,1.32Z" transform="translate(-50.56 -56.69)"/><path d="M379.73,391.31a79.43,79.43,0,0,0,9.47,5.76c.79.4,1.48-.78.69-1.19a76.89,76.89,0,0,1-9.47-5.76c-.72-.51-1.41.68-.69,1.19Z" transform="translate(-50.56 -56.69)"/><path class="cls-9" d="M411,367s3-11.63,6.91-24.69l-27.3-7.6a119.55,119.55,0,0,0,10.84,19.64C403.33,357.07,411,367,411,367Z" transform="translate(-50.56 -56.69)"/><path d="M412.44,363.11q3.87-14.62,8.12-29.14a.69.69,0,0,0-1.32-.37q-4.26,14.52-8.12,29.15a.68.68,0,0,0,1.32.36Z" transform="translate(-50.56 -56.69)"/><path class="cls-29" d="M343.83,197.17c-3.24,1-9.92,6.38-10.63,16.3s4.26,14,8.51,14.53,9.21-3.73,10.45-7.09,5.85-7.62,4.78-15.06S353.75,194,343.83,197.17Z" transform="translate(-50.56 -56.69)"/><path d="M348.08,227.58c6.24-6.64,10.84-15.3,9.26-24.67-.49-2.88-1.19-6.08-4.11-7.25-3.17-1.28-6.78-.44-9.74.92-.8.37-.11,1.55.69,1.18,2.8-1.28,7.82-2.41,10.21.34,2.08,2.4,2.07,7.61,1.8,10.62-.64,6.94-4.41,12.93-9.08,17.89-.6.64.37,1.61,1,1Z" transform="translate(-50.56 -56.69)"/><path class="cls-30" d="M334.53,210.94c-.62,2.88-.8,7.67.64,10.54a15.11,15.11,0,0,0,5.43-.48s3-10.38,4.95-13.25,3.51-7.19,2.23-8.47-4.63-.64-5.75-.32S336,204.23,334.53,210.94Z" transform="translate(-50.56 -56.69)"/><path class="cls-29" d="M338.13,241.47c-3.86-2.05-14.36.73-17.54,9.95s-2,19.32,10.09,20.72c5.94.69,8.91-.85,12.27-12.09,1.42-4.74,1.93-8.09,1.74-10.56C344.35,245,341.75,243.4,338.13,241.47Z" transform="translate(-50.56 -56.69)"/><path d="M340,243.24c6.91,4.17,4.79,9.39,2.79,16-1.38,4.61-4,11.72-9.6,12.43-.86.11-.87,1.49,0,1.37,6.33-.81,9.31-8,10.93-13.43,2.28-7.64,4.15-13-3.43-17.6-.75-.46-1.44.73-.69,1.19Z" transform="translate(-50.56 -56.69)"/><path class="cls-29" d="M317.22,298.18c1.72-4.09,6.73-4.07,11.16-3.72s15.59.89,16.12,11.87-4.17,12.18-12.32,13.07-13.9,2-15.67-5.1S315.8,301.55,317.22,298.18Z" transform="translate(-50.56 -56.69)"/><path d="M332,295.48c4.76.9,12.47,3.37,12,9.54-.06.88,1.31.87,1.38,0,.48-6.84-7.69-9.85-13-10.86-.86-.16-1.23,1.16-.37,1.32Z" transform="translate(-50.56 -56.69)"/><path class="cls-30" d="M328.25,317.14c-2.05-2.64-2.61-15.49-.87-18.32,0,0,13,.22,13.88,1.63S343,314.22,340,315.69C335.67,317.87,328.25,317.14,328.25,317.14Z" transform="translate(-50.56 -56.69)"/><path class="cls-26" d="M411.84,100h55.67a1.66,1.66,0,0,1,1.66,1.66v2.53a9.73,9.73,0,0,1-9.73,9.73H419.92a9.73,9.73,0,0,1-9.73-9.73v-2.53a1.66,1.66,0,0,1,1.66-1.66Z" transform="translate(-10.88 -161.3) rotate(14.2)"/><circle class="cls-31" cx="407.11" cy="55.6" r="1.69"/><circle class="cls-32" cx="331.08" cy="265.34" r="4.86"/><circle class="cls-5" cx="398.81" cy="53.41" r="1.69"/><path class="cls-30" d="M320.83,262a24.9,24.9,0,0,1,1.88-11.12c2.4-5.13,5.47-6.89,8-6.84,1.89,0,5.42,1.35,6,2.91,1.52,3.89-2.29,12.08-4.17,16.7,0,0-.79,6.05-6.26,4.17C326.31,267.82,321.52,265.6,320.83,262Z" transform="translate(-50.56 -56.69)"/><path d="M489.5,199.28c-1.68,1.16-6.35,4.07-8.36,2.81-1-.61-1.4-2.23-1.86-3.27-.67-1.53-1.28-3.08-1.85-4.65-.3-.82-1.62-.47-1.32.36.67,1.83,1.38,3.64,2.18,5.41.49,1.09,1,3.14,2.23,3.68,2.68,1.17,7.6-1.73,9.67-3.15.72-.5,0-1.69-.69-1.19Z" transform="translate(-50.56 -56.69)"/><path class="cls-33" d="M483.5,178s-8.1,1.13-9.16,2,3.6,21.08,8,22.06,8.41-3.74,8.41-3.74S488,185.06,483.5,178Z" transform="translate(-50.56 -56.69)"/><path d="M487.18,236.49a29,29,0,0,0,8.67-2.39c.81-.36.11-1.55-.69-1.19a26.7,26.7,0,0,1-8,2.21c-.86.1-.87,1.48,0,1.37Z" transform="translate(-50.56 -56.69)"/><path d="M490.26,239.57a14.2,14.2,0,0,0,6-1.95.69.69,0,0,0-.7-1.19,12.47,12.47,0,0,1-5.33,1.77c-.87.09-.88,1.46,0,1.37Z" transform="translate(-50.56 -56.69)"/><polygon class="cls-9" points="346.85 290.69 308.57 271.06 340.06 278.02 346.85 290.69"/><text class="cls-34" transform="matrix(0.97, 0.24, -0.24, 0.97, 336.9, 64.19)">BREAKING NEWS</text><text class="cls-35" transform="matrix(0.97, 0.24, -0.24, 0.97, 340.75, 72.94)">LASTES NEWS AND PHOTOS</text><text class="cls-35" transform="matrix(0.97, 0.24, -0.24, 0.97, 320.93, 239.56)">READ MORE</text><polygon class="cls-6" points="329.88 244.71 334.77 250.87 342.49 247.47 329.88 244.71"/><polygon class="cls-25" points="334.32 363.58 325.56 369.23 336.18 419.15 450.89 396.91 446.11 363.38 431.77 363.58 334.32 363.58"/><path class="cls-3" d="M386.74,475.84,501.46,453.6l5.61-1.66a7,7,0,0,1,9,6.72v41.22H385.33S386.74,474.79,386.74,475.84Z" transform="translate(-50.56 -56.69)"/><polygon class="cls-36" points="450.89 396.91 336.18 419.15 332.8 403.27 416.47 399.31 450.89 396.91"/><path d="M461.84,433.71l4.35,26c.14.87,1.47.5,1.32-.37l-4.35-26c-.15-.87-1.47-.5-1.32.37Z" transform="translate(-50.56 -56.69)"/><path d="M469.87,439a11.88,11.88,0,0,0,3.44,13.37c4.22,3.34,9.21-.08,9.89-4.82.13-.86-1.19-1.23-1.32-.36-.32,2.25-1.53,4.59-4,5.07s-4.39-1.23-5.62-3.14a10.38,10.38,0,0,1-1.07-9.75c.33-.82-1-1.17-1.32-.37Z" transform="translate(-50.56 -56.69)"/><path d="M393.11,488c32.6-7.59,66-12.26,98.87-18.45,6.57-1.24,13.17-2.43,19.69-3.95.86-.2.49-1.52-.37-1.32-32.6,7.59-66,12.26-98.87,18.45-6.57,1.24-13.17,2.43-19.68,3.95-.86.2-.5,1.52.36,1.32Z" transform="translate(-50.56 -56.69)"/><path d="M497.77,460.38c1.89,13.23,3,26.57,4.86,39.8.13.87,1.45.5,1.33-.36-1.89-13.23-3-26.57-4.87-39.8-.12-.87-1.44-.5-1.32.36Z" transform="translate(-50.56 -56.69)"/><path d="M387.26,475.05q-4.22-18.8-7.42-37.79c-.51-3-1.57-6.44-1.52-9.5,0-1.84-.45-1,1-2.39a66.33,66.33,0,0,1,5.88-4.51c.69-.53,0-1.72-.69-1.19L377,425.44a.74.74,0,0,0-.31.78q3.75,24.75,9.23,49.19c.19.86,1.51.5,1.32-.36Z" transform="translate(-50.56 -56.69)"/><circle class="cls-3" cx="323.4" cy="50.61" r="11"/><polygon class="cls-37" points="327.15 56.39 325.17 53.45 317.34 51.48 319.21 44.54 329.31 47.5 327.15 56.39"/><path d="M362.68,86.37,365,92.85c.12.33.65.18.53-.15l-2.35-6.47c-.12-.33-.65-.19-.53.14Z" transform="translate(-50.56 -56.69)"/><path d="M353.84,97.32l4.67,2.1c.32.15.6-.33.28-.47l-4.68-2.1c-.32-.15-.6.32-.27.47Z" transform="translate(-50.56 -56.69)"/><path d="M354,114.67l5.16-2.28c.32-.14,0-.61-.27-.47l-5.17,2.27c-.32.14,0,.62.28.48Z" transform="translate(-50.56 -56.69)"/><rect class="cls-38" x="483.7" y="297.33" width="35.86" height="9.69" rx="4.85" transform="translate(952.69 547.67) rotate(180)"/><path class="cls-39" d="M497.57,336.34h28.35l-3.1-2.52a8.16,8.16,0,0,1-3-6.33v-26a4.19,4.19,0,0,0-4.19-4.19H487.69l.87,1.07a12.35,12.35,0,0,1,2.75,7.77v23.94A6.26,6.26,0,0,0,497.57,336.34Z" transform="translate(-50.56 -56.69)"/><line class="cls-40" x1="464.69" y1="251.07" x2="446.07" y2="251.07"/><line class="cls-40" x1="464.69" y1="246.01" x2="446.07" y2="246.01"/><line class="cls-40" x1="464.69" y1="256.92" x2="446.07" y2="256.92"/><line class="cls-40" x1="464.69" y1="262.16" x2="446.07" y2="262.16"/><path d="M487.71,297.67c8.6,0,17.21-.12,25.81,0,3.27,0,5.43.23,6,4.45a33.92,33.92,0,0,1,0,4.62v20.75a.28.28,0,0,0,.55,0c0-8.27.27-16.58,0-24.85-.1-3.05-1.07-5-4.36-5.5-3.85-.59-8.24,0-12.13,0H487.71a.28.28,0,0,0,0,.55Z" transform="translate(-50.56 -56.69)"/><path d="M490.43,302.74c1.39,6.25.49,13.72.53,20.09,0,4.57-1.13,9.69,3.29,12.71,3.55,2.44,10.58,1.08,14.55,1.08h17.12a.28.28,0,0,0,0-.55H511.25c-4.82,0-11.05,1.12-15.56-.8-6.16-2.61-4.15-11-4.21-16.47-.06-5.16.61-11.13-.52-16.2-.08-.35-.61-.2-.53.14Z" transform="translate(-50.56 -56.69)"/><line class="cls-40" x1="464.69" y1="268.27" x2="446.07" y2="268.27"/><line class="cls-40" x1="466.06" y1="274.38" x2="447.44" y2="274.38"/><path d="M363.29,72.44c15.58-10.86,41-.94,42,19,0,.26.43.27.41,0C404.66,71.22,378.94,61,363.08,72.08c-.22.15,0,.51.21.36Z" transform="translate(-50.56 -56.69)"/><rect class="cls-10" x="294.71" y="19.77" width="15.83" height="10.26" rx="1.89"/><path class="cls-11" d="M353.28,82.72l-6.34-2.89a3.81,3.81,0,0,0,1.4,2.2,43.29,43.29,0,0,0,5.21,2.8s7.25-4.19,5.94-5.81Z" transform="translate(-50.56 -56.69)"/><polyline class="cls-12" points="308.88 22.47 302.71 26.03 296.36 22.99"/><rect class="cls-41" x="532.64" y="231.15" width="20.25" height="15.21" rx="2.32" transform="translate(1034.97 420.82) rotate(-180)"/><path class="cls-10" d="M532.64,233.46a2.31,2.31,0,0,1,2.32-2.31h15.62a2.3,2.3,0,0,1,2.31,2.31Z" transform="translate(-50.56 -56.69)"/><line class="cls-42" x1="500.27" y1="178.84" x2="483.83" y2="178.84"/><line class="cls-42" x1="500.27" y1="181.47" x2="483.83" y2="181.47"/><line class="cls-42" x1="500.27" y1="184.22" x2="483.83" y2="184.22"/><line class="cls-42" x1="500.27" y1="186.64" x2="483.83" y2="186.64"/><rect class="cls-10" x="476.98" y="171.42" width="20.25" height="15.21" rx="2.32"/><rect class="cls-41" x="524.16" y="225.49" width="20.25" height="15.21" rx="2.32" transform="translate(1018 409.5) rotate(-180)"/><path class="cls-10" d="M524.16,227.81a2.32,2.32,0,0,1,2.32-2.32h15.61a2.32,2.32,0,0,1,2.32,2.32Z" transform="translate(-50.56 -56.69)"/><line class="cls-42" x1="491.78" y1="173.18" x2="475.34" y2="173.18"/><line class="cls-42" x1="491.78" y1="175.82" x2="475.34" y2="175.82"/><line class="cls-42" x1="491.78" y1="178.57" x2="475.34" y2="178.57"/><line class="cls-42" x1="491.78" y1="180.99" x2="475.34" y2="180.99"/><path d="M537.2,251.13c-5.45,17.73-26.61,23.93-43.28,23.2-18.25-.8-37.56-10.5-39.38-30.54,0-.35-.58-.35-.55,0,2.91,32.12,47.12,38,70.1,24.17,6.41-3.85,11.42-9.48,13.64-16.69a.27.27,0,0,0-.53-.14Z" transform="translate(-50.56 -56.69)"/><rect class="cls-10" x="497.94" y="135.98" width="26.74" height="17.34" rx="3.2"/><path class="cls-43" d="M562,203.24l-10.71-4.88a6.46,6.46,0,0,0,2.37,3.72c2,1.58,8.79,4.74,8.79,4.74s12.27-7.08,10-9.82Z" transform="translate(-50.56 -56.69)"/><polyline class="cls-44" points="521.88 140.53 511.45 146.55 500.73 141.41"/><path class="cls-3" d="M318.87,380.43H208.38a4.88,4.88,0,0,1-4.88-4.88V325.34a4.87,4.87,0,0,1,4.88-4.88h16.3l12.4-8-.4,8h82.19a4.88,4.88,0,0,1,4.88,4.88v50.21A4.89,4.89,0,0,1,318.87,380.43Z" transform="translate(-50.56 -56.69)"/><rect class="cls-45" x="207.94" y="282.58" width="56.1" height="0.87"/><rect class="cls-45" x="207.94" y="286.7" width="56.1" height="0.87"/><rect class="cls-45" x="207.94" y="290.69" width="56.1" height="0.87"/><rect class="cls-45" x="207.94" y="294.81" width="56.1" height="0.87"/><rect class="cls-45" x="207.94" y="298.93" width="56.1" height="0.87"/><rect class="cls-45" x="207.94" y="306.9" width="56.1" height="0.87"/><rect class="cls-45" x="207.94" y="311.15" width="56.1" height="0.87"/><rect class="cls-45" x="207.94" y="302.91" width="56.1" height="0.87"/><path d="M225.9,320.24c2.44-1.55,4.85-3.14,7.22-4.8.23-.16,3.74-2.68,3.5-2.91.19.18-.05,1.05,0,1.32.39,2,0,4.51,0,6.61a.27.27,0,0,0,.27.27h71.17c4.27,0,14.68-2,15.41,4.61,0,.35.59.35.55,0-.51-4.61-4.12-5.15-7.9-5.15H243.53c-1.34,0-5,.68-6.24,0-.09-.06-.3.06-.38,0,.47.33.23-1.19.26-1.55.15-2.06,0-4.18,0-6.25a.28.28,0,0,0-.42-.23q-5.44,4-11.13,7.61c-.3.19,0,.66.28.47Z" transform="translate(-50.56 -56.69)"/><path d="M208.38,320.19a5.24,5.24,0,0,0-4.93,3.93,17.23,17.23,0,0,0-.23,5v36.7c0,3.71-1.26,9.21,1,12.6,2,3.05,6.24,2.26,9.42,2.26h90.79c4.17,0,8.35-.08,12.51,0,1.41,0,3.4.58,4.71,0,3.19-1.37,2.36-6.32,2.36-9v-13.6a.28.28,0,0,0-.55,0v8.8c0,4.69,1.63,12.61-4.33,13.3-4.39.51-9.3-.07-13.73-.07H212.18a17,17,0,0,1-3.64,0c-7.08-1.72-4.77-10.82-4.77-16.25V330.05c0-3.68-.91-8.7,4.61-9.32.34,0,.35-.58,0-.54Z" transform="translate(-50.56 -56.69)"/><text class="cls-46" transform="translate(161.62 274.27)">TODAY’S HEADLINES</text><rect class="cls-45" x="162.65" y="279.77" width="40.83" height="34.26" rx="2.75"/><polygon class="cls-5" points="178.54 291.08 178.54 301.16 188.62 296.12 178.54 291.08"/><path d="M251,311.81a32.13,32.13,0,0,1,22.21-27.13.28.28,0,0,0-.15-.53,32.68,32.68,0,0,0-22.61,27.66c0,.35.51.35.55,0Z" transform="translate(-50.56 -56.69)"/><rect class="cls-41" x="223.92" y="250.18" width="20.25" height="15.21" rx="2.32" transform="translate(417.53 458.89) rotate(-180)"/><path class="cls-10" d="M223.92,252.5a2.32,2.32,0,0,1,2.32-2.32h15.61a2.32,2.32,0,0,1,2.32,2.32Z" transform="translate(-50.56 -56.69)"/><line class="cls-42" x1="191.55" y1="197.87" x2="175.1" y2="197.87"/><line class="cls-42" x1="191.55" y1="200.51" x2="175.1" y2="200.51"/><line class="cls-42" x1="191.55" y1="203.26" x2="175.1" y2="203.26"/><line class="cls-42" x1="191.55" y1="205.68" x2="175.1" y2="205.68"/><rect class="cls-10" x="168.26" y="190.46" width="20.25" height="15.21" rx="2.32"/><rect class="cls-41" x="215.43" y="244.53" width="20.25" height="15.21" rx="2.32" transform="translate(400.55 447.58) rotate(-180)"/><path class="cls-10" d="M215.43,246.84a2.31,2.31,0,0,1,2.32-2.31h15.62a2.3,2.3,0,0,1,2.31,2.31Z" transform="translate(-50.56 -56.69)"/><line class="cls-42" x1="183.06" y1="192.22" x2="166.62" y2="192.22"/><line class="cls-42" x1="183.06" y1="194.86" x2="166.62" y2="194.86"/><line class="cls-42" x1="183.06" y1="197.6" x2="166.62" y2="197.6"/><line class="cls-42" x1="183.06" y1="200.02" x2="166.62" y2="200.02"/></svg>