<svg xmlns="http://www.w3.org/2000/svg" viewBox="0 0 555.07 442.83"><defs><style>.cls-1{opacity:0.3;}.cls-2{fill:#455a64;}.cls-3{fill:#e8505b;}.cls-4{fill:#fff;}.cls-5{opacity:0.2;}.cls-6{opacity:0.7;}.cls-7{fill:#f7292a;}.cls-8{fill:#1a2e35;}.cls-9{fill:#fafafa;}.cls-10,.cls-11{fill:#263238;}.cls-10{stroke:#000;}.cls-10,.cls-18,.cls-20,.cls-21{stroke-miterlimit:10;}.cls-12,.cls-27{fill:#ebebeb;}.cls-13{fill:#e0e0e0;}.cls-14{fill:#f5f5f5;}.cls-15{fill:#d62d2e;}.cls-16{fill:#095140;}.cls-17{fill:#a8614e;}.cls-18,.cls-20,.cls-21{fill:none;stroke-width:0.72px;}.cls-18{stroke:#c98b6d;}.cls-19{fill:#63757a;}.cls-20{stroke:#d59979;}.cls-21{stroke:#095140;}.cls-22{fill:#964f3f;}.cls-23{fill:#171e21;}.cls-24{fill:#d6434b;}.cls-25{fill:#b1c0c2;}.cls-26{fill:#f7e9e4;}.cls-27{opacity:0.75;}</style></defs><g id="Layer_11" data-name="Layer 11" class="cls-1"><path class="cls-2" d="M559.29,456.56H11.2v6.62h548A13.37,13.37,0,0,1,559.29,456.56Z" transform="translate(-5.66 -21.89)"/><path class="cls-2" d="M438.3,296.05s25.26,12,9.22,44.19C447.52,340.24,477.28,307.65,438.3,296.05Z" transform="translate(-5.66 -21.89)"/><path class="cls-2" d="M438.3,296.05s37.2-1.82,41.95,37.12c0,0,8.62-24.59-9.06-34.76S438.3,296.05,438.3,296.05Z" transform="translate(-5.66 -21.89)"/><path class="cls-2" d="M438.3,296.05s33.6-20.23,65.46,18.36c0,0-6.2-23.26-30.63-29.34S438.3,296.05,438.3,296.05Z" transform="translate(-5.66 -21.89)"/><path class="cls-2" d="M438.3,296.05s-26.95-7.47-35.9,27.36C402.4,323.41,401.23,279.3,438.3,296.05Z" transform="translate(-5.66 -21.89)"/><path class="cls-2" d="M438.3,296.05s-26.93-25.73-56,.59c0,0,9.59-24.23,29.61-20.34S438.3,296.05,438.3,296.05Z" transform="translate(-5.66 -21.89)"/><path class="cls-2" d="M438.3,296.05s-12.16-37.29-61.5-29c0,0,19.91-13.52,42.36-2.12S438.3,296.05,438.3,296.05Z" transform="translate(-5.66 -21.89)"/><path class="cls-2" d="M496.63,273.57s-49.51,4.92-58.33,22.48C438.3,296.05,453,262.44,496.63,273.57Z" transform="translate(-5.66 -21.89)"/><path class="cls-2" d="M408.92,240.87s34.2,36.13,29.38,55.18C438.3,296.05,449.21,261,408.92,240.87Z" transform="translate(-5.66 -21.89)"/><path class="cls-2" d="M438.3,296.05s-21.74,113.17-14,160.12h-14S422.79,327.72,438.3,296.05Z" transform="translate(-5.66 -21.89)"/><path class="cls-2" d="M506.08,344.94s17.55,8.33,6.41,30.69C512.49,375.63,533.17,353,506.08,344.94Z" transform="translate(-5.66 -21.89)"/><path class="cls-2" d="M506.08,344.94s25.85-1.27,29.15,25.78c0,0,6-17.08-6.3-24.15S506.08,344.94,506.08,344.94Z" transform="translate(-5.66 -21.89)"/><path class="cls-2" d="M506.08,344.94s23.35-14.05,45.48,12.75c0,0-4.31-16.16-21.28-20.38S506.08,344.94,506.08,344.94Z" transform="translate(-5.66 -21.89)"/><path class="cls-2" d="M506.08,344.94s-18.71-5.19-24.93,19C481.15,364,480.34,333.3,506.08,344.94Z" transform="translate(-5.66 -21.89)"/><path class="cls-2" d="M506.08,344.94s-18.7-17.88-38.91.41c0,0,6.66-16.83,20.57-14.13S506.08,344.94,506.08,344.94Z" transform="translate(-5.66 -21.89)"/><path class="cls-2" d="M506.08,344.94S497.64,319,463.36,324.8c0,0,13.83-9.39,29.43-1.47S506.08,344.94,506.08,344.94Z" transform="translate(-5.66 -21.89)"/><path class="cls-2" d="M546.61,329.32s-34.39,3.42-40.53,15.62C506.08,344.94,516.28,321.59,546.61,329.32Z" transform="translate(-5.66 -21.89)"/><path class="cls-2" d="M485.68,306.61s23.76,25.09,20.4,38.33C506.08,344.94,513.67,320.61,485.68,306.61Z" transform="translate(-5.66 -21.89)"/><path class="cls-2" d="M506.08,344.94S491,423.56,496.35,456.17h-9.72S495.31,366.94,506.08,344.94Z" transform="translate(-5.66 -21.89)"/><path class="cls-2" d="M43,364.9s-14.4,6.84-5.26,25.19C37.72,390.09,20.75,371.52,43,364.9Z" transform="translate(-5.66 -21.89)"/><path class="cls-2" d="M43,364.9s-21.21-1-23.92,21.16c0,0-4.91-14,5.17-19.81A20.54,20.54,0,0,1,43,364.9Z" transform="translate(-5.66 -21.89)"/><path class="cls-2" d="M43,364.9S23.82,353.37,5.66,375.37c0,0,3.54-13.26,17.46-16.73S43,364.9,43,364.9Z" transform="translate(-5.66 -21.89)"/><path class="cls-2" d="M43,364.9s15.35-4.26,20.46,15.6C63.44,380.5,64.1,355.35,43,364.9Z" transform="translate(-5.66 -21.89)"/><path class="cls-2" d="M43,364.9s15.34-14.66,31.92.34c0,0-5.46-13.81-16.87-11.6A20.52,20.52,0,0,0,43,364.9Z" transform="translate(-5.66 -21.89)"/><path class="cls-2" d="M43,364.9S49.9,343.65,78,348.38c0,0-11.35-7.7-24.15-1.21S43,364.9,43,364.9Z" transform="translate(-5.66 -21.89)"/><path class="cls-2" d="M9.73,352.09S37.94,354.89,43,364.9C43,364.9,34.61,345.74,9.73,352.09Z" transform="translate(-5.66 -21.89)"/><path class="cls-2" d="M59.72,333.45S40.23,354,43,364.9C43,364.9,36.75,344.94,59.72,333.45Z" transform="translate(-5.66 -21.89)"/><path class="cls-2" d="M43,364.9s12.38,64.51,8,91.27h8S51.81,383,43,364.9Z" transform="translate(-5.66 -21.89)"/><path class="cls-2" d="M141,296.05s-25.26,12-9.22,44.19C131.75,340.24,102,307.65,141,296.05Z" transform="translate(-5.66 -21.89)"/><path class="cls-2" d="M141,296.05s-37.2-1.82-41.95,37.12c0,0-8.62-24.59,9.06-34.76S141,296.05,141,296.05Z" transform="translate(-5.66 -21.89)"/><path class="cls-2" d="M141,296.05s-33.6-20.23-65.47,18.36c0,0,6.21-23.26,30.64-29.34S141,296.05,141,296.05Z" transform="translate(-5.66 -21.89)"/><path class="cls-2" d="M141,296.05s26.94-7.47,35.9,27.36C176.87,323.41,178,279.3,141,296.05Z" transform="translate(-5.66 -21.89)"/><path class="cls-2" d="M141,296.05s26.93-25.73,56,.59c0,0-9.58-24.23-29.61-20.34S141,296.05,141,296.05Z" transform="translate(-5.66 -21.89)"/><path class="cls-2" d="M141,296.05s12.16-37.29,61.5-29c0,0-19.91-13.52-42.36-2.12S141,296.05,141,296.05Z" transform="translate(-5.66 -21.89)"/><path class="cls-2" d="M82.64,273.57s49.5,4.92,58.33,22.48C141,296.05,126.29,262.44,82.64,273.57Z" transform="translate(-5.66 -21.89)"/><path class="cls-2" d="M170.35,240.87S136.15,277,141,296.05C141,296.05,130.05,261,170.35,240.87Z" transform="translate(-5.66 -21.89)"/><path class="cls-2" d="M141,296.05s21.73,113.17,14,160.12h14S156.47,327.72,141,296.05Z" transform="translate(-5.66 -21.89)"/><path class="cls-3" d="M102.69,433.19V419.08c7.23-3.58,3.23-21.9,3.23-21.9h15.72V368H101.71v-4.77h-7.3V349.74h6.18s-.29-7.86,0-22.17-11.22-15.72-11.22-15.72v-7.3H85.71l-2-21.34-2,21.34H78.13v7.3s-11.51,1.4-11.23,15.72,0,22.17,0,22.17h6.18v13.48h-7.3V368H45.84v29.19H61.56s-4,18.32,3.23,21.9v14.11H41.07v8.21H54.13v15.16h59.23V441.4h13v-8.21Z" transform="translate(-5.66 -21.89)"/><polygon class="cls-3" points="373.87 370.86 373.87 355.92 369.6 355.92 369.6 371.07 361.7 371.07 361.7 374.92 368.74 374.92 368.74 385.58 290.43 385.58 290.43 373 302.38 373 302.38 361.9 294.49 361.9 294.49 352.94 302.38 352.94 302.38 346.54 289.79 346.54 289.79 323.28 283.39 323.28 283.39 311.11 277.84 311.11 277.84 297.67 271.87 297.67 271.87 285.08 260.13 285.08 260.13 273.56 254.79 273.56 254.79 265.45 250.31 265.45 245.83 265.45 245.83 273.56 240.5 273.56 240.5 285.08 228.76 285.08 228.76 297.67 222.79 297.67 222.79 311.11 217.24 311.11 217.24 323.28 210.84 323.28 210.84 346.54 198.25 346.54 198.25 352.94 206.14 352.94 206.14 361.9 198.25 361.9 198.25 373 210.2 373 210.2 385.58 131.88 385.58 131.88 374.92 138.93 374.92 138.93 371.07 131.03 371.07 131.03 355.92 126.76 355.92 126.76 370.86 119.29 370.86 119.29 376.41 126.76 376.41 126.76 434.66 250.31 434.66 373.87 434.66 373.87 376.41 381.33 376.41 381.33 370.86 373.87 370.86"/></g><g id="Floor"><path class="cls-2" d="M491.15,464.46c0,.15-681.82.26-212.49.26-117.38,0-212.51-.11-212.51-.26s95.13-.26,212.51-.26S491.15,464.32,491.15,464.46Z" transform="translate(-5.66 -21.89)"/></g><g id="Layer_8" data-name="Layer 8"><path class="cls-4" d="M167.82,120.31h-6.46a5,5,0,0,0-2,.21,3.06,3.06,0,0,0-1.53,1.36,3.4,3.4,0,0,0-.37,1,7.12,7.12,0,0,0,0,1.14v1.18a5.7,5.7,0,0,1-.08,1.23,3.27,3.27,0,0,1-1.44,2.08,3.1,3.1,0,0,1-1.27.44c-.46,0-.9,0-1.37,0H129.88a3.27,3.27,0,0,1-.93-.09,3.09,3.09,0,0,1-1.61-1,3.34,3.34,0,0,1-.79-1.75,7.92,7.92,0,0,1,0-1v-1a5,5,0,0,0-.2-1.9,3.08,3.08,0,0,0-1.15-1.51,3,3,0,0,0-1.86-.51h-14.9a9.92,9.92,0,0,0-8,3.52,9.88,9.88,0,0,0-2,4.11,11.72,11.72,0,0,0-.2,1.16c0,.33,0,.66,0,1v158.8a10.31,10.31,0,0,0,.4,3.13,9.84,9.84,0,0,0,3.84,5.28,10.23,10.23,0,0,0,6.32,1.73h58.74c2.09,0,4.19,0,6.24,0a9.84,9.84,0,0,0,5.6-2.17,10.21,10.21,0,0,0,2-2.23,9.71,9.71,0,0,0,1.24-2.72,10.52,10.52,0,0,0,.37-3V274.15c0-31.25,0-59.38,0-83s0-42.75.06-56v-4.68a10.17,10.17,0,0,0-.72-4,9.94,9.94,0,0,0-1.87-2.95,9.63,9.63,0,0,0-2.25-1.83,9.44,9.44,0,0,0-3.71-1.31,8.13,8.13,0,0,0-1-.09l-.34,0h-5.32Z" transform="translate(-5.66 -21.89)"/><path class="cls-4" d="M173.25,120.42h.34a10,10,0,0,1,1,.08,9.92,9.92,0,0,1,6,3.12,9.84,9.84,0,0,1,1.89,3,10.19,10.19,0,0,1,.74,4c0,1.47,0,3,0,4.68,0,13.22,0,32.34,0,56s0,51.77,0,83v14.86a10.72,10.72,0,0,1-.38,3,10.1,10.1,0,0,1-1.27,2.8,10.71,10.71,0,0,1-2.07,2.29,10,10,0,0,1-5.73,2.22c-2.08.06-4.14,0-6.23,0H155l-25.93,0h-20a10.5,10.5,0,0,1-6.47-1.78,10.22,10.22,0,0,1-3.93-5.43,11,11,0,0,1-.41-3.36V272.31q0-13.17,0-25.94c0-17,0-33.4,0-49s0-30.47,0-44.37q0-10.41,0-20.1v-2.41c0-.4,0-.8.06-1.2s.1-.8.2-1.19a10.08,10.08,0,0,1,2.09-4.2,10.05,10.05,0,0,1,8.09-3.58H123.6a3.24,3.24,0,0,1,2,.55,3.28,3.28,0,0,1,1.21,1.59,5.49,5.49,0,0,1,.2,2v1a7.26,7.26,0,0,0,0,.94,3.18,3.18,0,0,0,.74,1.67,3,3,0,0,0,1.52.94,3.28,3.28,0,0,0,.89.08h4.5l13.08,0h5.77c.45,0,.91,0,1.35,0a3,3,0,0,0,1.21-.42,3.17,3.17,0,0,0,1.39-2,5.47,5.47,0,0,0,.08-1.21v-1.18a7.45,7.45,0,0,1,.05-1.16A3.44,3.44,0,0,1,158,122a3.07,3.07,0,0,1,1.58-1.4,4.8,4.8,0,0,1,2-.21H168l4,0h1.35l-1.35,0H161.51a4.78,4.78,0,0,0-1.94.21A3.1,3.1,0,0,0,158,122a3.38,3.38,0,0,0-.36,1,7,7,0,0,0-.05,1.14v1.18a5.68,5.68,0,0,1-.07,1.23,3.23,3.23,0,0,1-1.44,2.07,2.94,2.94,0,0,1-1.26.45c-.46,0-.9,0-1.36,0H130.15a3.67,3.67,0,0,1-.93-.09,3.11,3.11,0,0,1-1.61-1,3.37,3.37,0,0,1-.78-1.74,7.92,7.92,0,0,1,0-1v-1a5.05,5.05,0,0,0-.2-1.9,3.1,3.1,0,0,0-1.15-1.5,2.92,2.92,0,0,0-1.85-.51H108.76a9.88,9.88,0,0,0-7.93,3.51,9.86,9.86,0,0,0-2,4.12c-.1.38-.13.77-.2,1.16s0,.78,0,1.18V288.92a10.66,10.66,0,0,0,.4,3.28,9.9,9.9,0,0,0,3.82,5.28,10.22,10.22,0,0,0,6.31,1.73h20l25.93,0h12.63c2.08,0,4.17,0,6.22,0a9.74,9.74,0,0,0,5.57-2.16,10.44,10.44,0,0,0,2-2.23,9.81,9.81,0,0,0,1.23-2.72,10.19,10.19,0,0,0,.37-3v-3c0-4,0-8,0-11.86,0-31.25,0-59.39.05-83s0-42.75.05-56c0-1.65,0-3.21,0-4.68a10.08,10.08,0,0,0-.73-4,9.8,9.8,0,0,0-1.86-2.94,9.94,9.94,0,0,0-5.94-3.14,6.35,6.35,0,0,0-1-.09Z" transform="translate(-5.66 -21.89)"/><path class="cls-4" d="M175.17,136.49s-1.64.09-3.66.11-3.66,0-3.66,0,1.63-.09,3.66-.11S175.17,136.45,175.17,136.49Z" transform="translate(-5.66 -21.89)"/><path class="cls-4" d="M175.19,138.37s-1.64.09-3.67.1-3.66,0-3.66,0,1.64-.09,3.66-.11S175.19,138.32,175.19,138.37Z" transform="translate(-5.66 -21.89)"/><path class="cls-4" d="M175.2,140.24s-1.64.09-3.66.11-3.66,0-3.66,0,1.64-.09,3.66-.11S175.2,140.2,175.2,140.24Z" transform="translate(-5.66 -21.89)"/><path class="cls-4" d="M108.55,142.38h.15l.43,0,1.56,0,0,0c0-.35,0-.72,0-1.13,0-.21,0-.41,0-.66a.61.61,0,0,1,.53-.48h.74a.6.6,0,0,1,.52.6c0,.53,0,1.08,0,1.66l-.08-.07,2,0-.08.07c0-.79,0-1.61,0-2.46,0-.21,0-.42,0-.62a.63.63,0,0,0-.27-.47l-.87-.85-.83-.82-.4-.4c-.14-.13-.25-.27-.41-.3a.54.54,0,0,0-.45.08c-.12.1-.25.25-.37.36l-.71.72c-.44.46-.91.88-1.24,1.28a1.33,1.33,0,0,0-.1.74v.69c0,.43,0,.8,0,1.12s0,.53,0,.72a1.11,1.11,0,0,1,0,.26,2.17,2.17,0,0,1,0-.24c0-.19,0-.42,0-.7l0-1.13c0-.23,0-.46,0-.71v-.39a.87.87,0,0,1,.11-.41c.37-.45.8-.85,1.25-1.32l.7-.72c.13-.12.23-.25.38-.38a.7.7,0,0,1,.58-.11,1.1,1.1,0,0,1,.47.34l.41.39.83.82.86.85a1.28,1.28,0,0,1,.22.24.65.65,0,0,1,.11.33v.63c0,.84,0,1.67,0,2.46v.08h-2.12v-.07c0-.57,0-1.13,0-1.66a.48.48,0,0,0-.4-.48c-.22,0-.49,0-.71,0a.5.5,0,0,0-.43.39c0,.19,0,.43,0,.63,0,.41,0,.78,0,1.13v0h-2.19Z" transform="translate(-5.66 -21.89)"/><path class="cls-4" d="M158.29,208c0,.28-7.85.51-17.53.51s-17.52-.23-17.52-.51,7.84-.51,17.52-.51S158.29,207.74,158.29,208Z" transform="translate(-5.66 -21.89)"/><rect class="cls-4" x="123.81" y="156.62" width="34.02" height="45.27" transform="translate(-44.88 297.18) rotate(-89.68)"/><g class="cls-5"><polygon class="cls-4" points="112.43 174.25 128.36 153.19 138.08 166.47 144.76 159.44 157.69 174.5 112.43 174.25"/></g><g class="cls-5"><path class="cls-4" d="M148,172.57a3.56,3.56,0,1,1-3.54-3.59A3.56,3.56,0,0,1,148,172.57Z" transform="translate(-5.66 -21.89)"/></g><path class="cls-4" d="M171.93,220.54c0,.29-13.92.52-31.07.52s-31.08-.23-31.08-.52,13.91-.51,31.08-.51S171.93,220.26,171.93,220.54Z" transform="translate(-5.66 -21.89)"/><path class="cls-4" d="M171.93,229.2c0,.29-13.92.52-31.07.52s-31.08-.23-31.08-.52,13.91-.51,31.08-.51S171.93,228.92,171.93,229.2Z" transform="translate(-5.66 -21.89)"/><path class="cls-4" d="M171.93,237.87c0,.28-13.92.51-31.07.51s-31.08-.23-31.08-.51,13.91-.52,31.08-.52S171.93,237.58,171.93,237.87Z" transform="translate(-5.66 -21.89)"/><path class="cls-4" d="M171.93,246.53c0,.28-13.92.51-31.07.51s-31.08-.23-31.08-.51,13.91-.51,31.08-.51S171.93,246.25,171.93,246.53Z" transform="translate(-5.66 -21.89)"/><path class="cls-4" d="M171.93,255.19c0,.29-13.92.52-31.07.52s-31.08-.23-31.08-.52,13.91-.51,31.08-.51S171.93,254.91,171.93,255.19Z" transform="translate(-5.66 -21.89)"/><path class="cls-4" d="M158.56,263.1c0,.14-2,.27-5.22.36s-7.69.15-12.62.15-9.38-.05-12.61-.15-5.22-.22-5.22-.36,2-.27,5.22-.36,7.69-.15,12.61-.15,9.39.05,12.62.15S158.56,263,158.56,263.1Z" transform="translate(-5.66 -21.89)"/><path class="cls-4" d="M229.94,105.77h-7.18a5.31,5.31,0,0,0-2.16.23,3.37,3.37,0,0,0-1.71,1.52,3.49,3.49,0,0,0-.4,1.15,7.62,7.62,0,0,0-.06,1.27c0,.44,0,.88,0,1.33a7.12,7.12,0,0,1-.09,1.37,3.65,3.65,0,0,1-1.6,2.31,3.45,3.45,0,0,1-1.41.5c-.51,0-1,0-1.52,0h-26a4.12,4.12,0,0,1-1-.1,3.49,3.49,0,0,1-1.79-1.11,3.69,3.69,0,0,1-.87-2,7.8,7.8,0,0,1,0-1.08v-1.07a5.77,5.77,0,0,0-.21-2.12,3.41,3.41,0,0,0-1.29-1.68,3.24,3.24,0,0,0-2.06-.57H163.92a10.94,10.94,0,0,0-8.84,3.92,11.15,11.15,0,0,0-2.28,4.59c-.11.42-.14.86-.22,1.29s0,.74-.05,1.11V293.83a11.63,11.63,0,0,0,.44,3.48,11,11,0,0,0,4.27,5.89,11.37,11.37,0,0,0,7,1.94h22.26l28.92,0h14.09c2.32,0,4.65,0,6.93,0a10.9,10.9,0,0,0,6.22-2.41,11.83,11.83,0,0,0,2.25-2.49,11,11,0,0,0,1.37-3,11.86,11.86,0,0,0,.42-3.3V277.34c0-34.85,0-66.23.06-92.59s0-47.68.06-62.42c0-1.85,0-3.59,0-5.22a11.36,11.36,0,0,0-.81-4.46,11,11,0,0,0-2.08-3.28,10.64,10.64,0,0,0-2.5-2.05,10.37,10.37,0,0,0-4.12-1.45,8.9,8.9,0,0,0-1.12-.11l-.38,0h-1.5Z" transform="translate(-5.66 -21.89)"/><path class="cls-4" d="M235.93,105.66l.38,0a7.77,7.77,0,0,1,1.12.08,11.15,11.15,0,0,1,6.68,3.48,11.06,11.06,0,0,1,2.1,3.3A11.39,11.39,0,0,1,247,117c0,1.63,0,3.37,0,5.21,0,14.75,0,36.07,0,62.43s0,57.74,0,92.58v16.59a11.67,11.67,0,0,1-.42,3.37,11.28,11.28,0,0,1-1.42,3.12,11.92,11.92,0,0,1-2.3,2.56,11.25,11.25,0,0,1-6.39,2.48c-2.32.07-4.62,0-7,0H164.34a11.77,11.77,0,0,1-7.2-2,11.38,11.38,0,0,1-4.39-6.06,12.19,12.19,0,0,1-.46-3.74V275.06q0-14.69,0-28.93c0-19,0-37.25,0-54.68s0-34,0-49.48q0-11.62,0-22.43v-2.68c0-.45,0-.9.06-1.34s.11-.89.23-1.32a11.21,11.21,0,0,1,2.33-4.69,11.5,11.5,0,0,1,4.1-3.07,11.68,11.68,0,0,1,4.92-.93h16.56a3.48,3.48,0,0,1,2.17.61,3.68,3.68,0,0,1,1.36,1.78,6,6,0,0,1,.22,2.18v1.08a7.26,7.26,0,0,0,0,1,3.46,3.46,0,0,0,.82,1.86,3.35,3.35,0,0,0,1.69,1,3.73,3.73,0,0,0,1,.09h5l14.59,0h6.44c.5,0,1,0,1.5,0a3.25,3.25,0,0,0,1.36-.47,3.55,3.55,0,0,0,1.55-2.23,6.09,6.09,0,0,0,.08-1.35c0-.44,0-.88,0-1.32a8,8,0,0,1,0-1.29,4,4,0,0,1,.42-1.18,3.55,3.55,0,0,1,1.77-1.57,5.56,5.56,0,0,1,2.2-.23l7.17,0,4.42,0h1.5l-1.5,0H222.84a5.48,5.48,0,0,0-2.16.24,3.32,3.32,0,0,0-1.71,1.52,3.51,3.51,0,0,0-.41,1.15,8.88,8.88,0,0,0-.05,1.27v1.32a6.34,6.34,0,0,1-.08,1.37,3.62,3.62,0,0,1-1.61,2.32,3.41,3.41,0,0,1-1.4.5c-.52,0-1,0-1.52,0h-26a4.09,4.09,0,0,1-1-.11,3.43,3.43,0,0,1-1.79-1.1,3.69,3.69,0,0,1-.87-1.95,7.92,7.92,0,0,1,0-1.08V110.1a5.79,5.79,0,0,0-.22-2.12,3.48,3.48,0,0,0-1.28-1.68,3.39,3.39,0,0,0-2.06-.57H164a11,11,0,0,0-8.85,3.93,11.19,11.19,0,0,0-2.27,4.59c-.11.42-.14.86-.22,1.29s0,.87-.06,1.32V142c0,15.49,0,32.05,0,49.48v54.68q0,14.24,0,28.93v18.53a11.8,11.8,0,0,0,.45,3.65,11,11,0,0,0,4.27,5.89,11.33,11.33,0,0,0,7,1.93H186.6l28.92,0h14.09c2.33,0,4.66,0,6.94,0a10.93,10.93,0,0,0,6.22-2.41,11.52,11.52,0,0,0,2.24-2.49,10.7,10.7,0,0,0,1.38-3,11.42,11.42,0,0,0,.41-3.29c0-1.13,0-2.24,0-3.36V277.26c0-34.84,0-66.22.05-92.58s0-47.68.07-62.43V117a11.54,11.54,0,0,0-.8-4.46,11.09,11.09,0,0,0-2.08-3.29,10.84,10.84,0,0,0-2.5-2,11,11,0,0,0-5.24-1.56Z" transform="translate(-5.66 -21.89)"/><path class="cls-4" d="M238.07,123.58s-1.83.11-4.08.12-4.09,0-4.09,0,1.83-.1,4.08-.12S238.07,123.54,238.07,123.58Z" transform="translate(-5.66 -21.89)"/><path class="cls-4" d="M238.09,125.67s-1.83.11-4.09.12-4.08,0-4.08-.05,1.82-.1,4.08-.12S238.09,125.63,238.09,125.67Z" transform="translate(-5.66 -21.89)"/><path class="cls-4" d="M238.1,127.76s-1.82.11-4.08.12-4.09,0-4.09,0,1.83-.1,4.09-.12S238.1,127.72,238.1,127.76Z" transform="translate(-5.66 -21.89)"/><path class="cls-4" d="M163.77,130.15h.17l.47,0,1.75,0,0,0c0-.39,0-.81,0-1.26,0-.24,0-.46,0-.73a.68.68,0,0,1,.59-.54,7.65,7.65,0,0,1,.83,0,.67.67,0,0,1,.57.67c0,.59,0,1.21,0,1.84L168,130l2.2,0-.08.09c0-.89,0-1.81,0-2.74v-.7a.69.69,0,0,0-.31-.52l-1-1-.93-.92-.45-.44a1.1,1.1,0,0,0-.46-.34.56.56,0,0,0-.5.1c-.13.11-.28.27-.41.4l-.79.8c-.5.51-1,1-1.39,1.43a1.52,1.52,0,0,0-.11.82v.77c0,.48,0,.9,0,1.25s0,.59,0,.8,0,.29,0,.29,0-.09,0-.26,0-.48,0-.79,0-.78,0-1.26c0-.25,0-.51,0-.79s0-.29,0-.43a.93.93,0,0,1,.12-.46c.41-.5.9-.94,1.4-1.47l.78-.81c.14-.14.26-.27.43-.42a.74.74,0,0,1,.63-.12,1.15,1.15,0,0,1,.53.37l.45.45c.31.29.62.6.93.91l1,1a1.51,1.51,0,0,1,.24.26.63.63,0,0,1,.12.37c0,.23,0,.47,0,.7,0,.94,0,1.86,0,2.75v.08h-.09l-2.2,0h-.08v-.08c0-.64,0-1.26,0-1.85a.52.52,0,0,0-.44-.53c-.26,0-.55,0-.8,0a.55.55,0,0,0-.48.43c0,.22,0,.48,0,.7v1.32h-2.44Z" transform="translate(-5.66 -21.89)"/><path class="cls-4" d="M208.25,141.59a7.38,7.38,0,1,1-7.37-7.37A7.37,7.37,0,0,1,208.25,141.59Z" transform="translate(-5.66 -21.89)"/><path class="cls-4" d="M203.41,144.57h-5.06V144a2.53,2.53,0,0,1,2.53-2.53h0a2.53,2.53,0,0,1,2.53,2.53Z" transform="translate(-5.66 -21.89)"/><path class="cls-4" d="M202.36,140.11a1.49,1.49,0,1,1-1.48-1.49A1.48,1.48,0,0,1,202.36,140.11Z" transform="translate(-5.66 -21.89)"/><path class="cls-4" d="M219.24,161.09c0,.31-8.75.57-19.54.57s-19.55-.26-19.55-.57,8.75-.58,19.55-.58S219.24,160.77,219.24,161.09Z" transform="translate(-5.66 -21.89)"/><rect class="cls-4" x="163.95" y="176.41" width="25.36" height="33.75" transform="translate(-23.3 346.94) rotate(-89.68)"/><g class="cls-5"><polygon class="cls-4" points="154.02 183.98 165.9 168.28 173.14 178.18 178.13 172.94 187.77 184.17 154.02 183.98"/></g><g class="cls-5"><path class="cls-4" d="M182,188.3a2.66,2.66,0,1,1-2.64-2.67A2.66,2.66,0,0,1,182,188.3Z" transform="translate(-5.66 -21.89)"/></g><rect class="cls-4" x="169.23" y="204.22" width="58.63" height="78.01" transform="translate(-51.45 418.53) rotate(-89.68)"/><g class="cls-5"><polygon class="cls-4" points="153.72 250.44 181.17 214.14 197.92 237.04 209.43 224.91 231.73 250.87 153.72 250.44"/></g><g class="cls-5"><path class="cls-4" d="M210.89,231.7a6.14,6.14,0,1,1-6.1-6.17A6.13,6.13,0,0,1,210.89,231.7Z" transform="translate(-5.66 -21.89)"/></g><rect class="cls-4" x="208.5" y="176.41" width="25.36" height="33.75" transform="translate(21 391.49) rotate(-89.68)"/><g class="cls-5"><polygon class="cls-4" points="198.57 183.98 210.45 168.28 217.69 178.18 222.68 172.94 232.32 184.17 198.57 183.98"/></g><g class="cls-5"><circle class="cls-4" cx="218.2" cy="166.39" r="2.66"/></g><path class="cls-4" d="M439.49,115.65h-6.43a5.15,5.15,0,0,0-1.94.21,3.16,3.16,0,0,0-1.89,2.4,6.14,6.14,0,0,0-.05,1.14v1.19a5.08,5.08,0,0,1-.08,1.22,3.29,3.29,0,0,1-1.43,2.08,3.11,3.11,0,0,1-1.26.44c-.46,0-.91,0-1.37,0H401.7a3.37,3.37,0,0,1-.94-.09,3.11,3.11,0,0,1-1.6-1,3.29,3.29,0,0,1-.78-1.75,8,8,0,0,1,0-1v-1a5,5,0,0,0-.19-1.9A3.08,3.08,0,0,0,397,116.2a3,3,0,0,0-1.85-.51H380.3a9.84,9.84,0,0,0-7.93,3.52,10,10,0,0,0-2,4.12,11,11,0,0,0-.19,1.15c0,.33,0,.66-.05,1V284.28a10.25,10.25,0,0,0,.4,3.12,9.85,9.85,0,0,0,3.82,5.28,10.2,10.2,0,0,0,6.3,1.74h20l25.93,0h12.64c2.08,0,4.17,0,6.22,0a9.77,9.77,0,0,0,5.57-2.16,10.18,10.18,0,0,0,2-2.24,9.71,9.71,0,0,0,1.24-2.72,10.12,10.12,0,0,0,.37-2.95v-3q0-6,0-11.86c0-31.24,0-59.38,0-83s0-42.76.06-56v-4.67a10.19,10.19,0,0,0-.72-4,9.91,9.91,0,0,0-4.1-4.78,9.52,9.52,0,0,0-3.7-1.31c-.44-.08-.78-.06-1-.09l-.34,0h-5.31Z" transform="translate(-5.66 -21.89)"/><rect class="cls-4" x="378.33" y="161.05" width="55.84" height="11.41"/><path class="cls-4" d="M445,115.56h.34a7.72,7.72,0,0,1,1,.08,10,10,0,0,1,6,3.12,10.24,10.24,0,0,1,1.89,3,10.37,10.37,0,0,1,.74,4v4.68c0,13.21,0,32.34,0,56s0,51.77,0,83v14.87a10.37,10.37,0,0,1-.38,3,9.64,9.64,0,0,1-1.27,2.79,10.48,10.48,0,0,1-2.06,2.3,10.08,10.08,0,0,1-5.73,2.22c-2.08.06-4.15,0-6.24,0H380.8a10.54,10.54,0,0,1-6.46-1.78,10.16,10.16,0,0,1-3.93-5.44,10.89,10.89,0,0,1-.42-3.35v-3.35q0-6.68,0-13.26V241.51c0-17,0-33.41,0-49s0-30.47,0-44.37q0-10.43,0-20.1c0-.81,0-1.61,0-2.41,0-.4,0-.8.05-1.2s.1-.8.2-1.19a10,10,0,0,1,10.18-7.78h14.85a3.21,3.21,0,0,1,2,.55,3.28,3.28,0,0,1,1.21,1.59,5.07,5.07,0,0,1,.2,2v1a7.26,7.26,0,0,0,0,.94,3.05,3.05,0,0,0,.75,1.66,2.84,2.84,0,0,0,1.51.94,3,3,0,0,0,.9.09h4.49l13.08,0h5.77c.45,0,.92,0,1.35,0a2.84,2.84,0,0,0,1.21-.43,3.09,3.09,0,0,0,1.39-2,4.82,4.82,0,0,0,.08-1.2v-1.19a7.39,7.39,0,0,1,.06-1.15,3.32,3.32,0,0,1,.37-1.07,3.18,3.18,0,0,1,1.59-1.4,5.15,5.15,0,0,1,2-.21l6.43,0,4,0H445l-1.35,0H433.25a4.76,4.76,0,0,0-1.94.21,3,3,0,0,0-1.53,1.36,3.16,3.16,0,0,0-.36,1,6.14,6.14,0,0,0-.05,1.14v1.19a5.7,5.7,0,0,1-.08,1.23,3.25,3.25,0,0,1-1.43,2.07,3,3,0,0,1-1.27.45c-.46,0-.9,0-1.36,0H401.89a4.28,4.28,0,0,1-.94-.09,3.26,3.26,0,0,1-2.38-2.74,6.35,6.35,0,0,1,0-1v-1a5.24,5.24,0,0,0-.19-1.9,3,3,0,0,0-3-2H380.49a10.28,10.28,0,0,0-4.33.83,9.78,9.78,0,0,0-5.64,6.81c-.1.38-.13.77-.2,1.16s-.05.78-.05,1.18v22.51c0,13.9,0,28.74,0,44.37v49q0,12.75,0,25.94v16.61a10.59,10.59,0,0,0,.4,3.27,9.88,9.88,0,0,0,3.83,5.28,10.2,10.2,0,0,0,6.3,1.74h20l25.93,0h12.63c2.09,0,4.17,0,6.22,0a9.77,9.77,0,0,0,5.58-2.16,10.66,10.66,0,0,0,2-2.23,10,10,0,0,0,1.24-2.72,10.92,10.92,0,0,0,.37-3V269.42c0-31.24,0-59.38.05-83s0-42.76,0-56c0-1.66,0-3.22,0-4.68a10.25,10.25,0,0,0-.72-4,9.89,9.89,0,0,0-1.87-2.94A9.26,9.26,0,0,0,450,117a9.49,9.49,0,0,0-3.69-1.3,6.54,6.54,0,0,0-1-.09Z" transform="translate(-5.66 -21.89)"/><path class="cls-4" d="M446.9,131.63s-1.64.09-3.66.11-3.66,0-3.66-.05,1.64-.09,3.66-.11S446.9,131.59,446.9,131.63Z" transform="translate(-5.66 -21.89)"/><path class="cls-4" d="M446.92,133.5c0,.05-1.64.09-3.66.11s-3.66,0-3.67-.05,1.64-.09,3.67-.1S446.92,133.46,446.92,133.5Z" transform="translate(-5.66 -21.89)"/><path class="cls-4" d="M446.93,135.38s-1.63.09-3.66.11-3.66,0-3.66-.05,1.64-.09,3.66-.11S446.93,135.34,446.93,135.38Z" transform="translate(-5.66 -21.89)"/><path class="cls-4" d="M380.29,137.52s0,0,.15,0l.42,0,1.57,0-.05,0c0-.35,0-.73,0-1.13,0-.22,0-.41,0-.66a.6.6,0,0,1,.52-.48c.25,0,.47,0,.75,0a.6.6,0,0,1,.51.6c0,.53,0,1.08,0,1.65l-.07-.07,2,0-.08.08c0-.79,0-1.62,0-2.46v-.62a.62.62,0,0,0-.28-.47l-.86-.85-.83-.82-.41-.4c-.14-.13-.24-.27-.41-.3a.52.52,0,0,0-.45.08c-.12.1-.25.25-.37.36l-.7.72c-.45.46-.91.88-1.25,1.28a1.42,1.42,0,0,0-.1.74v.69c0,.43,0,.8,0,1.12s0,.53,0,.72v.26a1.1,1.1,0,0,1,0-.24c0-.19,0-.42,0-.71l0-1.12c0-.23,0-.46,0-.71v-.39a.74.74,0,0,1,.11-.41c.36-.45.8-.85,1.25-1.32.22-.24.46-.48.7-.72a4.54,4.54,0,0,1,.38-.38.68.68,0,0,1,.57-.11,1,1,0,0,1,.47.34l.41.39.83.82.87.85a1.74,1.74,0,0,1,.22.24.64.64,0,0,1,.1.33c0,.21,0,.42,0,.63,0,.84,0,1.66,0,2.46v.07h-.08l-2,0H384v-.07c0-.58,0-1.13,0-1.66a.48.48,0,0,0-.4-.48h-.72a.48.48,0,0,0-.42.38c0,.2,0,.43,0,.63v1.18h-2.18Z" transform="translate(-5.66 -21.89)"/><rect class="cls-4" x="378.45" y="178.06" width="55.84" height="11.41"/><rect class="cls-4" x="378.45" y="194.61" width="55.84" height="11.41"/><path class="cls-4" d="M426.53,250.58h-28a5.71,5.71,0,0,1-5.7-5.71h0a5.7,5.7,0,0,1,5.7-5.7h28a5.7,5.7,0,0,1,5.7,5.7h0A5.71,5.71,0,0,1,426.53,250.58Z" transform="translate(-5.66 -21.89)"/><path class="cls-4" d="M429.9,171.15c0,.28-7.84.51-17.52.51s-17.52-.23-17.52-.51,7.84-.51,17.52-.51S429.9,170.87,429.9,171.15Z" transform="translate(-5.66 -21.89)"/><path class="cls-4" d="M393.72,103.85h-7.18a5.31,5.31,0,0,0-2.16.23,3.37,3.37,0,0,0-1.71,1.52,3.74,3.74,0,0,0-.4,1.15,6.76,6.76,0,0,0,0,1.28v1.32a7.12,7.12,0,0,1-.09,1.37,3.65,3.65,0,0,1-1.6,2.31,3.45,3.45,0,0,1-1.41.5c-.51,0-1,0-1.52,0h-26a4.12,4.12,0,0,1-1-.1,3.49,3.49,0,0,1-1.79-1.11,3.77,3.77,0,0,1-.87-2,9.75,9.75,0,0,1,0-1.08v-1.07a5.77,5.77,0,0,0-.21-2.12,3.45,3.45,0,0,0-1.28-1.68,3.33,3.33,0,0,0-2.07-.57H327.7a10.94,10.94,0,0,0-8.84,3.92,11.15,11.15,0,0,0-2.28,4.59c-.11.43-.14.86-.22,1.29s0,.74-.05,1.11V291.91a11.32,11.32,0,0,0,.45,3.48,10.94,10.94,0,0,0,4.26,5.89,11.37,11.37,0,0,0,7,1.94h22.26l28.92,0h14.09c2.32,0,4.65,0,6.93,0a10.9,10.9,0,0,0,6.22-2.41,11.57,11.57,0,0,0,2.25-2.49,11,11,0,0,0,1.37-3,11.16,11.16,0,0,0,.42-3.3v-3.35q0-6.7,0-13.23c0-34.85,0-66.23.05-92.59s0-47.68.06-62.42c0-1.85,0-3.59,0-5.22a11.36,11.36,0,0,0-.81-4.46,11,11,0,0,0-2.08-3.28,11,11,0,0,0-6.62-3.5,8.49,8.49,0,0,0-1.12-.1l-.38,0h-1.5Z" transform="translate(-5.66 -21.89)"/><path class="cls-4" d="M399.71,104h.38a10.1,10.1,0,0,1,1.12.09,10.47,10.47,0,0,1,4.15,1.43,10.75,10.75,0,0,1,2.53,2,11.06,11.06,0,0,1,2.1,3.3,11.34,11.34,0,0,1,.83,4.49c0,1.64,0,3.38,0,5.22,0,14.74,0,36.07,0,62.43s0,57.74,0,92.58v16.58a11.7,11.7,0,0,1-.42,3.38,11.12,11.12,0,0,1-1.42,3.12,11.89,11.89,0,0,1-2.3,2.56,11.25,11.25,0,0,1-6.39,2.48c-2.32.06-4.62,0-7,0H328.12a11.65,11.65,0,0,1-7.2-2,11.32,11.32,0,0,1-4.39-6.05,12.21,12.21,0,0,1-.46-3.75V273.37q0-14.7,0-28.93c0-19,0-37.26,0-54.68s0-34,0-49.49c0-7.74,0-15.23,0-22.42v-2.68c0-.45,0-.9.06-1.35s.12-.88.23-1.31a11.32,11.32,0,0,1,2.33-4.69,11.5,11.5,0,0,1,4.1-3.07,11.68,11.68,0,0,1,4.92-.93h16.56a3.53,3.53,0,0,1,2.18.61,3.72,3.72,0,0,1,1.35,1.78,5.8,5.8,0,0,1,.22,2.18v1.08a7.26,7.26,0,0,0,0,1.05,3.47,3.47,0,0,0,.82,1.85,3.28,3.28,0,0,0,1.69,1,3.37,3.37,0,0,0,1,.1h5l14.59,0h6.44c.5,0,1,0,1.5,0a3.25,3.25,0,0,0,1.36-.47,3.55,3.55,0,0,0,1.55-2.23,6.81,6.81,0,0,0,.09-1.35v-1.32a6.93,6.93,0,0,1,.06-1.29,3.82,3.82,0,0,1,.41-1.19,3.57,3.57,0,0,1,1.77-1.56,5.58,5.58,0,0,1,2.2-.23l7.17,0,4.42,0h1.5l-1.5,0H386.62a5.5,5.5,0,0,0-2.16.24,3.32,3.32,0,0,0-1.71,1.52,3.28,3.28,0,0,0-.4,1.15,7.56,7.56,0,0,0-.06,1.27v1.32a6.34,6.34,0,0,1-.08,1.37,3.6,3.6,0,0,1-1.6,2.31,3.36,3.36,0,0,1-1.41.5c-.51,0-1,0-1.52,0h-26a3.67,3.67,0,0,1-1-.1,3.5,3.5,0,0,1-1.79-1.1,3.69,3.69,0,0,1-.87-2,7.92,7.92,0,0,1,0-1.08v-1.08a5.79,5.79,0,0,0-.21-2.12,3.51,3.51,0,0,0-1.29-1.68,3.3,3.3,0,0,0-2.06-.57H327.78A11.36,11.36,0,0,0,323,105a11,11,0,0,0-6.29,7.6c-.11.42-.14.86-.22,1.29s-.05.87-.06,1.32v2.68c0,7.19,0,14.68,0,22.42v133.1c0,4.89,0,9.83,0,14.79v3.73a11.86,11.86,0,0,0,.45,3.66,11,11,0,0,0,4.27,5.89,11.35,11.35,0,0,0,7,1.93H393.4c2.32,0,4.65,0,6.93,0a10.91,10.91,0,0,0,6.22-2.42,11.78,11.78,0,0,0,2.25-2.48,11.09,11.09,0,0,0,1.37-3,11.81,11.81,0,0,0,.42-3.3V275.57c0-34.84,0-66.23.05-92.58s.05-47.69.07-62.43v-5.22a11.31,11.31,0,0,0-.8-4.45,11.09,11.09,0,0,0-2.08-3.29,10.84,10.84,0,0,0-2.5-2,10.64,10.64,0,0,0-4.12-1.46,8.49,8.49,0,0,0-1.12-.1Z" transform="translate(-5.66 -21.89)"/><path class="cls-4" d="M401.85,121.89s-1.83.1-4.08.12-4.09,0-4.09-.05,1.83-.1,4.09-.12S401.85,121.84,401.85,121.89Z" transform="translate(-5.66 -21.89)"/><path class="cls-4" d="M401.87,124s-1.83.1-4.09.12-4.08,0-4.08,0,1.83-.1,4.08-.12S401.87,123.93,401.87,124Z" transform="translate(-5.66 -21.89)"/><path class="cls-4" d="M401.88,126.07c0,.05-1.82.1-4.08.12s-4.08,0-4.08,0,1.82-.1,4.08-.12S401.88,126,401.88,126.07Z" transform="translate(-5.66 -21.89)"/><path class="cls-4" d="M327.55,128.46s.06,0,.17,0l.47,0,1.75,0-.05.05c0-.39,0-.81,0-1.27,0-.23,0-.45,0-.72a.68.68,0,0,1,.59-.54c.28,0,.53,0,.83,0a.68.68,0,0,1,.57.68c0,.59,0,1.2,0,1.84l-.08-.08,2.2,0-.08.09c0-.89,0-1.81,0-2.75V125a.69.69,0,0,0-.31-.52l-1-1-.93-.92-.45-.44c-.15-.15-.28-.31-.46-.34a.59.59,0,0,0-.5.09c-.13.12-.28.28-.41.41l-.79.79c-.5.52-1,1-1.39,1.44a1.51,1.51,0,0,0-.11.82v.77c0,.48,0,.89,0,1.25s0,.58,0,.8a1.43,1.43,0,0,1,0,.29s0-.09,0-.27,0-.47,0-.78,0-.78,0-1.26c0-.25,0-.51,0-.79s0-.29,0-.43a.9.9,0,0,1,.13-.47c.4-.49.89-.94,1.39-1.47l.78-.8a5.75,5.75,0,0,1,.43-.42.75.75,0,0,1,.64-.13,1.28,1.28,0,0,1,.52.38l.45.44.94.92,1,.94a2.21,2.21,0,0,1,.25.27.7.7,0,0,1,.11.37c0,.23,0,.47,0,.7,0,.94,0,1.86,0,2.74v.09h-2.37v-.08c0-.64,0-1.25,0-1.84a.53.53,0,0,0-.44-.54c-.25,0-.55,0-.8,0a.53.53,0,0,0-.47.43,5.45,5.45,0,0,0,0,.7v1.32h-.05l-1.77,0h-.62Z" transform="translate(-5.66 -21.89)"/><circle class="cls-4" cx="364.75" cy="169.69" r="18.48" transform="translate(135.34 482.13) rotate(-81.16)"/><path class="cls-4" d="M371.09,177.15H358.41v-1.56a6.34,6.34,0,0,1,6.34-6.34h0a6.34,6.34,0,0,1,6.34,6.34Z" transform="translate(-5.66 -21.89)"/><circle class="cls-4" cx="359.09" cy="144.08" r="3.73"/><rect class="cls-4" x="326.16" y="187.44" width="62.28" height="12.72"/><rect class="cls-4" x="326.16" y="205.9" width="62.28" height="12.72"/><path class="cls-4" d="M379.13,265.79H347.87a6.35,6.35,0,0,1-6.36-6.36h0a6.36,6.36,0,0,1,6.36-6.36h31.26a6.36,6.36,0,0,1,6.36,6.36h0A6.36,6.36,0,0,1,379.13,265.79Z" transform="translate(-5.66 -21.89)"/><path class="cls-4" d="M383,201.67c0,.31-8.75.57-19.54.57s-19.55-.26-19.55-.57,8.75-.58,19.55-.58S383,201.35,383,201.67Z" transform="translate(-5.66 -21.89)"/><path class="cls-4" d="M340.42,218.49h-2.75a.48.48,0,0,1-.49-.48h0a1.83,1.83,0,0,1,1.83-1.84h.06a1.84,1.84,0,0,1,1.84,1.84h0A.48.48,0,0,1,340.42,218.49Z" transform="translate(-5.66 -21.89)"/><path class="cls-4" d="M340.14,215.21a1.1,1.1,0,1,1-1.1-1.1A1.09,1.09,0,0,1,340.14,215.21Z" transform="translate(-5.66 -21.89)"/><rect class="cls-4" x="331.74" y="212.46" width="3.28" height="2.32"/><path class="cls-4" d="M341.05,234.85H340v-.72a.93.93,0,0,0-1.86,0v.72H337v-.72a2,2,0,0,1,4.06,0Z" transform="translate(-5.66 -21.89)"/><path class="cls-4" d="M327.76,64.81l-10.69,0a8.06,8.06,0,0,0-3.22.35,5,5,0,0,0-2.54,2.26,5.27,5.27,0,0,0-.6,1.71,9.87,9.87,0,0,0-.08,1.89v2a8.79,8.79,0,0,1-.13,2,5.38,5.38,0,0,1-2.38,3.44,5.05,5.05,0,0,1-2.1.75c-.76.06-1.5,0-2.27,0H265a5.87,5.87,0,0,1-1.55-.15,5.08,5.08,0,0,1-2.66-1.65,5.35,5.35,0,0,1-1.3-2.9,10.8,10.8,0,0,1-.06-1.6V71.37a8.53,8.53,0,0,0-.32-3.15,5.14,5.14,0,0,0-1.91-2.5,5,5,0,0,0-3.08-.85H229.44a16.36,16.36,0,0,0-13.17,5.84,16.56,16.56,0,0,0-3.39,6.84c-.16.62-.21,1.28-.33,1.92s-.05,1.09-.07,1.64v263.6a17.13,17.13,0,0,0,.66,5.19,16.41,16.41,0,0,0,6.35,8.76A16.94,16.94,0,0,0,230,361.54h33.15l43.07,0h21c3.45,0,6.92.06,10.33,0a16.21,16.21,0,0,0,9.26-3.59,17.53,17.53,0,0,0,3.34-3.7,16.18,16.18,0,0,0,2-4.52,17.27,17.27,0,0,0,.62-4.91v-5q0-10,0-19.68c0-51.87.05-98.57.07-137.8s.08-71,.1-92.91c0-2.75,0-5.34,0-7.77a17,17,0,0,0-1.2-6.63,16.32,16.32,0,0,0-3.1-4.89,15.55,15.55,0,0,0-3.72-3A15.77,15.77,0,0,0,338.8,65a13.39,13.39,0,0,0-1.67-.15l-.56,0-2.24,0Z" transform="translate(-5.66 -21.89)"/><path class="cls-4" d="M336.73,64.87l.57,0A12.19,12.19,0,0,1,339,65a15.67,15.67,0,0,1,6.17,2.13,15.91,15.91,0,0,1,3.75,3A16.36,16.36,0,0,1,352,75.09a17.12,17.12,0,0,1,1.23,6.67c0,2.43,0,5,0,7.75,0,21.9,0,53.59.05,92.74s0,85.78,0,137.54v24.64a17.71,17.71,0,0,1-.63,5,16.83,16.83,0,0,1-2.1,4.63,17.45,17.45,0,0,1-3.43,3.8,16.58,16.58,0,0,1-9.49,3.69c-3.44.1-6.87,0-10.33,0H306.42l-43,0H230.39a17.41,17.41,0,0,1-10.71-3,16.8,16.8,0,0,1-6.51-9,18.09,18.09,0,0,1-.69-5.56V338.5q0-11.07,0-22,0-21.82,0-43c0-28.17,0-55.34,0-81.23s0-50.49,0-73.51q0-17.26,0-33.32c0-1.33,0-2.66,0-4,0-.66,0-1.33.09-2s.16-1.32.33-2a17,17,0,0,1,3.46-7,16.68,16.68,0,0,1,13.41-5.94l14.32,0h10.27a5.25,5.25,0,0,1,3.24.9,5.44,5.44,0,0,1,2,2.65,8.74,8.74,0,0,1,.33,3.24v1.6a11.61,11.61,0,0,0,.05,1.57,5.16,5.16,0,0,0,1.23,2.75,4.86,4.86,0,0,0,2.51,1.56,6.1,6.1,0,0,0,1.48.15h7.45l21.67,0H304c.75,0,1.52,0,2.24,0a4.88,4.88,0,0,0,2-.7,5.17,5.17,0,0,0,2.3-3.31,8.93,8.93,0,0,0,.13-2c0-.67,0-1.32,0-2a11.06,11.06,0,0,1,.08-1.91,5.5,5.5,0,0,1,.62-1.76A5.19,5.19,0,0,1,314,65.14a8.17,8.17,0,0,1,3.26-.35l10.66,0,6.56,0,2.23,0-2.23,0-6.56,0-10.66,0a8.18,8.18,0,0,0-3.21.34,5.11,5.11,0,0,0-2.54,2.26,5.43,5.43,0,0,0-.59,1.71,9.87,9.87,0,0,0-.08,1.89v2a8.74,8.74,0,0,1-.13,2,5.38,5.38,0,0,1-2.38,3.44,5.08,5.08,0,0,1-2.09.74c-.76.07-1.5,0-2.26,0H265.32a5.76,5.76,0,0,1-1.54-.16,5.13,5.13,0,0,1-2.66-1.64,5.5,5.5,0,0,1-1.3-2.89,12.48,12.48,0,0,1-.05-1.61v-1.6a8.75,8.75,0,0,0-.32-3.15,5.11,5.11,0,0,0-1.91-2.49,5,5,0,0,0-3.07-.85h-24.6a16.31,16.31,0,0,0-13.13,5.83,16.34,16.34,0,0,0-3.38,6.82c-.17.63-.22,1.28-.33,1.92s-.08,1.3-.09,2v4q0,16,0,33.32c0,23,0,47.62,0,73.51s0,53.06,0,81.23v43q0,10.91,0,22V344a18.06,18.06,0,0,0,.67,5.43,16.36,16.36,0,0,0,6.34,8.75,16.86,16.86,0,0,0,10.44,2.87h33.07l43,0h20.93c3.45,0,6.91.06,10.31,0a16.11,16.11,0,0,0,9.23-3.58,17.26,17.26,0,0,0,3.34-3.7,16,16,0,0,0,2-4.51,16.83,16.83,0,0,0,.62-4.89v-5q0-9.93,0-19.65c0-51.76.05-98.38.08-137.54s.07-70.84.09-92.74c0-2.74,0-5.32,0-7.75a16.87,16.87,0,0,0-1.2-6.62,16.25,16.25,0,0,0-3.09-4.88,15.81,15.81,0,0,0-3.71-3A15.6,15.6,0,0,0,339,65.06a13.42,13.42,0,0,0-1.66-.15Z" transform="translate(-5.66 -21.89)"/><path class="cls-4" d="M339.91,91.49c0,.07-2.71.15-6.06.18s-6.07,0-6.07-.08,2.71-.15,6.06-.18S339.91,91.42,339.91,91.49Z" transform="translate(-5.66 -21.89)"/><path class="cls-4" d="M339.94,94.6c0,.07-2.72.15-6.07.17s-6.07,0-6.07-.07,2.72-.15,6.07-.18S339.94,94.52,339.94,94.6Z" transform="translate(-5.66 -21.89)"/><path class="cls-4" d="M340,97.7c0,.07-2.71.15-6.06.18s-6.07,0-6.07-.08,2.71-.15,6.06-.18S340,97.63,340,97.7Z" transform="translate(-5.66 -21.89)"/><path class="cls-4" d="M229.53,101.24h.26l.7,0,2.59-.06-.07.08c0-.58,0-1.21,0-1.88,0-.35,0-.68,0-1.09a1,1,0,0,1,.87-.79c.42,0,.79,0,1.24,0a1,1,0,0,1,.85,1c0,.88,0,1.79,0,2.74l-.12-.12,3.27,0-.13.13q0-2,0-4.08c0-.35,0-.69,0-1a1.08,1.08,0,0,0-.46-.78l-1.43-1.41-1.38-1.36-.67-.66c-.23-.22-.41-.45-.67-.5a.9.9,0,0,0-.75.14c-.2.17-.41.41-.61.6l-1.17,1.18c-.74.77-1.51,1.47-2.07,2.13a2.31,2.31,0,0,0-.16,1.22v1.15c0,.71,0,1.33,0,1.86s0,.87,0,1.19a2,2,0,0,1,0,.42s0-.12,0-.39,0-.7,0-1.17,0-1.16,0-1.87c0-.37,0-.76,0-1.17,0-.21,0-.43,0-.64a1.21,1.21,0,0,1,.18-.69c.6-.74,1.32-1.4,2.07-2.18l1.16-1.2c.21-.2.38-.41.63-.62a1.14,1.14,0,0,1,1-.19,1.75,1.75,0,0,1,.78.56l.67.66c.46.44.92.9,1.39,1.36l1.43,1.4a2.88,2.88,0,0,1,.36.4,1.06,1.06,0,0,1,.18.55v1c0,1.4,0,2.76,0,4.07v.13h-.13l-3.27,0h-.12v-.12c0-1,0-1.86,0-2.74a.8.8,0,0,0-.66-.79c-.38,0-.82,0-1.19,0a.81.81,0,0,0-.7.64c0,.33,0,.71,0,1v2h-.07l-2.63,0h-.69A1,1,0,0,1,229.53,101.24Z" transform="translate(-5.66 -21.89)"/><rect class="cls-4" x="219" y="95.76" width="114.62" height="20.85" rx="8.79"/><path class="cls-4" d="M330.48,138.5l.66-.05a8.72,8.72,0,0,0,4.65-1.82,8.67,8.67,0,0,0,2.61-3.31,8.24,8.24,0,0,0,.69-2.43,21.46,21.46,0,0,0,.08-2.81A18.67,18.67,0,0,0,339,125a8.8,8.8,0,0,0-1.14-3,8.68,8.68,0,0,0-5.78-4,23.72,23.72,0,0,0-4-.15H323.9l-90.45.06a8.59,8.59,0,0,0-8.54,7.86c-.08,1,0,2.14,0,3.2a10,10,0,0,0,.32,3.1,8.71,8.71,0,0,0,3.56,4.86,8.29,8.29,0,0,0,2.77,1.18,13.2,13.2,0,0,0,3,.23h17.82l40.66,0,27.41.07,7.46,0,1.93,0,.66,0s-.22,0-.66,0l-1.93,0-7.46,0-27.41.06-40.66,0H234.54a13.12,13.12,0,0,1-3.11-.23,8.83,8.83,0,0,1-2.91-1.24,9,9,0,0,1-3.73-5.1,10.27,10.27,0,0,1-.34-3.21c0-1.08,0-2.12,0-3.23a9,9,0,0,1,9-8.26l90.45.06h4.23a24.6,24.6,0,0,1,4,.17,8.94,8.94,0,0,1,7.09,7.31,19.18,19.18,0,0,1,.12,3.09,23.72,23.72,0,0,1-.1,2.83,8.66,8.66,0,0,1-.72,2.47,8.82,8.82,0,0,1-2.69,3.35,9,9,0,0,1-2.81,1.43,8.8,8.8,0,0,1-1.91.33C330.71,138.51,330.48,138.5,330.48,138.5Z" transform="translate(-5.66 -21.89)"/><path class="cls-4" d="M332.25,127.58s0-.33-.2-.9a3.74,3.74,0,0,0-1.38-2,3.59,3.59,0,1,0,0,5.76,3.71,3.71,0,0,0,1.38-2c.17-.56.16-.9.2-.9s0,.08,0,.24a2.79,2.79,0,0,1-.06.7,3.73,3.73,0,0,1-1.37,2.18,3.9,3.9,0,0,1-3.73.61,4,4,0,0,1,0-7.46,3.92,3.92,0,0,1,3.73.61,3.76,3.76,0,0,1,1.37,2.18,2.79,2.79,0,0,1,.06.7Q332.28,127.58,332.25,127.58Z" transform="translate(-5.66 -21.89)"/><path class="cls-4" d="M334.33,134.09a7.62,7.62,0,0,1-1.85-1.68,7.36,7.36,0,0,1-1.53-2,7.6,7.6,0,0,1,1.85,1.69A7.41,7.41,0,0,1,334.33,134.09Z" transform="translate(-5.66 -21.89)"/><path class="cls-4" d="M240.13,126h-2v-.53h4.7V126h-2v5.29h-.62Z" transform="translate(-5.66 -21.89)"/><path class="cls-4" d="M247,129.28h-3.66a1.62,1.62,0,0,0,1.72,1.52,1.71,1.71,0,0,0,1.34-.58l.33.39a2.31,2.31,0,0,1-4-1.52,2.11,2.11,0,0,1,2.14-2.22,2.08,2.08,0,0,1,2.11,2.22Zm-3.66-.44h3.1a1.55,1.55,0,0,0-3.1,0Z" transform="translate(-5.66 -21.89)"/><path class="cls-4" d="M250.87,131.28l-1.39-1.83-1.4,1.83h-.66l1.73-2.24-1.65-2.13h.67l1.31,1.71,1.31-1.71h.65L249.8,129l1.74,2.24Z" transform="translate(-5.66 -21.89)"/><path class="cls-4" d="M254.83,131a1.43,1.43,0,0,1-.93.31,1.16,1.16,0,0,1-1.28-1.27v-2.64h-.78v-.5h.78v-1h.59v1h1.33v.5h-1.33V130a.7.7,0,0,0,.76.79,1,1,0,0,0,.65-.22Z" transform="translate(-5.66 -21.89)"/><path class="cls-4" d="M302.84,158.36c0,.12-8.39.21-18.73.21s-18.74-.09-18.74-.21,8.39-.22,18.74-.22S302.84,158.24,302.84,158.36Z" transform="translate(-5.66 -21.89)"/><path class="cls-4" d="M332.72,166.05c0,.12-15.08.21-33.67.21s-33.68-.09-33.68-.21,15.08-.22,33.68-.22S332.72,165.93,332.72,166.05Z" transform="translate(-5.66 -21.89)"/><path class="cls-4" d="M331.93,171.54c0,.12-14.9.21-33.28.21s-33.28-.09-33.28-.21,14.9-.21,33.28-.21S331.93,171.42,331.93,171.54Z" transform="translate(-5.66 -21.89)"/><path class="cls-4" d="M304.67,176.78c0,.12-8.8.21-19.65.21s-19.65-.09-19.65-.21,8.8-.21,19.65-.21S304.67,176.66,304.67,176.78Z" transform="translate(-5.66 -21.89)"/><path class="cls-4" d="M302.84,200.16c0,.11-8.39.21-18.73.21s-18.74-.1-18.74-.21,8.39-.22,18.74-.22S302.84,200,302.84,200.16Z" transform="translate(-5.66 -21.89)"/><path class="cls-4" d="M332.72,207.85c0,.11-15.08.21-33.67.21s-33.68-.1-33.68-.21,15.08-.22,33.68-.22S332.72,207.73,332.72,207.85Z" transform="translate(-5.66 -21.89)"/><path class="cls-4" d="M331.93,213.34c0,.12-14.9.21-33.28.21s-33.28-.09-33.28-.21,14.9-.22,33.28-.22S331.93,213.22,331.93,213.34Z" transform="translate(-5.66 -21.89)"/><path class="cls-4" d="M304.67,218.58c0,.11-8.8.21-19.65.21s-19.65-.1-19.65-.21,8.8-.22,19.65-.22S304.67,218.46,304.67,218.58Z" transform="translate(-5.66 -21.89)"/><path class="cls-4" d="M302.84,242c0,.12-8.39.22-18.73.22s-18.74-.1-18.74-.22,8.39-.21,18.74-.21S302.84,241.84,302.84,242Z" transform="translate(-5.66 -21.89)"/><path class="cls-4" d="M332.72,249.64c0,.12-15.08.22-33.67.22s-33.68-.1-33.68-.22,15.08-.21,33.68-.21S332.72,249.53,332.72,249.64Z" transform="translate(-5.66 -21.89)"/><path class="cls-4" d="M331.93,255.14c0,.11-14.9.21-33.28.21s-33.28-.1-33.28-.21,14.9-.22,33.28-.22S331.93,255,331.93,255.14Z" transform="translate(-5.66 -21.89)"/><path class="cls-4" d="M304.67,260.37c0,.12-8.8.22-19.65.22s-19.65-.1-19.65-.22,8.8-.21,19.65-.21S304.67,260.26,304.67,260.37Z" transform="translate(-5.66 -21.89)"/><path class="cls-4" d="M302.84,283.75c0,.12-8.39.21-18.73.21s-18.74-.09-18.74-.21,8.39-.21,18.74-.21S302.84,283.63,302.84,283.75Z" transform="translate(-5.66 -21.89)"/><path class="cls-4" d="M332.72,291.44c0,.12-15.08.21-33.67.21s-33.68-.09-33.68-.21,15.08-.21,33.68-.21S332.72,291.32,332.72,291.44Z" transform="translate(-5.66 -21.89)"/><path class="cls-4" d="M331.93,296.93c0,.12-14.9.22-33.28.22s-33.28-.1-33.28-.22,14.9-.21,33.28-.21S331.93,296.82,331.93,296.93Z" transform="translate(-5.66 -21.89)"/><path class="cls-4" d="M304.67,302.17c0,.12-8.8.22-19.65.22s-19.65-.1-19.65-.22,8.8-.21,19.65-.21S304.67,302.05,304.67,302.17Z" transform="translate(-5.66 -21.89)"/><path class="cls-4" d="M302.84,325.26c0,.11-8.39.21-18.73.21s-18.74-.1-18.74-.21,8.39-.22,18.74-.22S302.84,325.14,302.84,325.26Z" transform="translate(-5.66 -21.89)"/><path class="cls-4" d="M332.72,333c0,.11-15.08.21-33.67.21s-33.68-.1-33.68-.21,15.08-.22,33.68-.22S332.72,332.83,332.72,333Z" transform="translate(-5.66 -21.89)"/><path class="cls-4" d="M331.93,338.44c0,.12-14.9.21-33.28.21s-33.28-.09-33.28-.21,14.9-.21,33.28-.21S331.93,338.32,331.93,338.44Z" transform="translate(-5.66 -21.89)"/><path class="cls-4" d="M304.67,343.68c0,.12-8.8.21-19.65.21s-19.65-.09-19.65-.21,8.8-.22,19.65-.22S304.67,343.56,304.67,343.68Z" transform="translate(-5.66 -21.89)"/><rect class="cls-4" x="228.97" y="154.34" width="22.94" height="30.52" transform="translate(63.84 387.2) rotate(-89.68)"/><g class="cls-5"><polygon class="cls-4" points="219.45 159.1 230.19 144.9 236.75 153.85 241.25 149.11 249.98 159.27 219.45 159.1"/></g><g class="cls-5"><path class="cls-4" d="M245.27,165.09a2.41,2.41,0,1,1-2.39-2.41A2.4,2.4,0,0,1,245.27,165.09Z" transform="translate(-5.66 -21.89)"/></g><rect class="cls-4" x="228.97" y="195.61" width="22.94" height="30.52" transform="translate(22.57 428.24) rotate(-89.68)"/><g class="cls-5"><polygon class="cls-4" points="219.45 200.36 230.19 186.16 236.75 195.12 241.25 190.38 249.98 200.53 219.45 200.36"/></g><g class="cls-5"><path class="cls-4" d="M245.27,206.36a2.41,2.41,0,1,1-2.39-2.42A2.4,2.4,0,0,1,245.27,206.36Z" transform="translate(-5.66 -21.89)"/></g><rect class="cls-4" x="228.97" y="236.87" width="22.94" height="30.52" transform="translate(-18.69 469.27) rotate(-89.68)"/><g class="cls-5"><polygon class="cls-4" points="219.45 241.63 230.19 227.43 236.75 236.39 241.25 231.64 249.98 241.8 219.45 241.63"/></g><g class="cls-5"><path class="cls-4" d="M245.27,247.63a2.41,2.41,0,1,1-2.39-2.42A2.42,2.42,0,0,1,245.27,247.63Z" transform="translate(-5.66 -21.89)"/></g><rect class="cls-4" x="228.97" y="278.14" width="22.94" height="30.52" transform="translate(-59.96 510.31) rotate(-89.68)"/><g class="cls-5"><polygon class="cls-4" points="219.45 282.89 230.19 268.69 236.75 277.65 241.25 272.91 249.98 283.06 219.45 282.89"/></g><g class="cls-5"><path class="cls-4" d="M245.27,288.89a2.41,2.41,0,1,1-2.39-2.41A2.4,2.4,0,0,1,245.27,288.89Z" transform="translate(-5.66 -21.89)"/></g><rect class="cls-4" x="228.97" y="319.2" width="22.94" height="30.52" transform="translate(-101.02 551.15) rotate(-89.68)"/><g class="cls-5"><polygon class="cls-4" points="219.45 323.96 230.19 309.76 236.75 318.72 241.25 313.97 249.98 324.13 219.45 323.96"/></g><g class="cls-5"><path class="cls-4" d="M245.27,330a2.41,2.41,0,1,1-2.39-2.42A2.42,2.42,0,0,1,245.27,330Z" transform="translate(-5.66 -21.89)"/></g><circle class="cls-4" cx="454.67" cy="118.74" r="10.88" transform="translate(229.44 512.31) rotate(-76.78)"/><path class="cls-4" d="M454,122.28a.47.47,0,0,1-.31-.12l-3.67-3a.5.5,0,0,1,.64-.78l3.27,2.7,4.65-5.69a.52.52,0,0,1,.71-.07.5.5,0,0,1,.07.7l-5,6.08a.48.48,0,0,1-.34.18Z" transform="translate(-5.66 -21.89)"/><circle class="cls-4" cx="402.05" cy="81.93" r="14.92"/><path class="cls-4" d="M406.82,110.35a.91.91,0,0,1-.63-.26l-5-4.68a1.23,1.23,0,0,1-.14-1.59.92.92,0,0,1,1.41-.15l4.24,4,6.18-8.55a.91.91,0,0,1,1.4-.16,1.23,1.23,0,0,1,.14,1.59l-6.8,9.44a1,1,0,0,1-.68.41Z" transform="translate(-5.66 -21.89)"/></g><g id="Screens" class="cls-6"><path class="cls-7" d="M98.59,144.94l-3.17,1.13-1.36-4.15a13.92,13.92,0,0,0-17.83-9.13c-7.32,2.62-11.23,11-8.73,18.63l1.36,4.15-3.19,1.14a5.07,5.07,0,0,0-3,6.34l8.84,27a4.76,4.76,0,0,0,6.08,3.15l32.92-11.78a5.1,5.1,0,0,0,3-6.4l-8.85-27A4.76,4.76,0,0,0,98.59,144.94ZM73.5,149.28a8.15,8.15,0,0,1,4.79-10.22,7.63,7.63,0,0,1,9.76,5l1.36,4.15-14.55,5.21Zm18.51,24,2.26,6.9a.55.55,0,0,1-.35.69L90.76,182a.52.52,0,0,1-.65-.33l-2.26-6.9a6.18,6.18,0,0,1-5.57-4.32,6.49,6.49,0,0,1,3.82-8.13,6.06,6.06,0,0,1,7.78,4A6.58,6.58,0,0,1,92,173.24Z" transform="translate(-5.66 -21.89)"/><path class="cls-8" d="M95.28,146c0,.08-5.89,2.3-13.23,4.95s-13.3,4.73-13.33,4.65,5.89-2.3,13.22-4.95S95.25,145.92,95.28,146Z" transform="translate(-5.66 -21.89)"/><path class="cls-8" d="M102.27,147.14a.63.63,0,0,1,.07.16q.07.18.18.48l.66,1.87c.56,1.65,1.37,4,2.36,6.9L109,166.79c.64,1.93,1.34,3.94,2,6.06a9.05,9.05,0,0,1,.46,3.38,4.33,4.33,0,0,1-.5,1.71,4.63,4.63,0,0,1-1.16,1.37,11,11,0,0,1-3.13,1.6l-3.18,1.14-6,2.16-10.18,3.62-6.88,2.42-1.87.64-.49.16-.17,0s0,0,.15-.08l.48-.19,1.86-.7,6.84-2.51,10.16-3.69,6-2.17,3.18-1.15a10.47,10.47,0,0,0,3-1.55,3.92,3.92,0,0,0,1.55-2.86,8.76,8.76,0,0,0-.44-3.26c-.67-2.1-1.37-4.13-2-6.06l-3.4-10.26c-1-2.91-1.73-5.27-2.27-6.93q-.39-1.2-.6-1.89l-.15-.49C102.28,147.2,102.26,147.14,102.27,147.14Z" transform="translate(-5.66 -21.89)"/><path class="cls-8" d="M84.9,138.63s-.33-.17-.93-.41a8.42,8.42,0,0,0-2.69-.54,9.3,9.3,0,0,0-4,.75,9,9,0,0,0-3.77,3.15,8.3,8.3,0,0,0-1.45,4.69,14.62,14.62,0,0,0,.63,4c.33,1.13.66,2,.88,2.64a7.07,7.07,0,0,1,.32,1,6.22,6.22,0,0,1-.44-.93c-.25-.61-.62-1.49-1-2.62a14.06,14.06,0,0,1-.7-4.11,8.45,8.45,0,0,1,1.48-4.86,9,9,0,0,1,3.91-3.24,9.25,9.25,0,0,1,4.11-.71,7.89,7.89,0,0,1,2.73.65,6.64,6.64,0,0,1,.67.37C84.83,138.57,84.91,138.62,84.9,138.63Z" transform="translate(-5.66 -21.89)"/><path class="cls-8" d="M85.18,162.77a1.89,1.89,0,0,1,.31-.16,6.19,6.19,0,0,1,1-.34,7,7,0,0,1,1.6-.27,5.56,5.56,0,0,1,2.16.32,6.7,6.7,0,0,1,3.74,4.3,6.12,6.12,0,0,1,0,3.55,8,8,0,0,1-2,3.33l0-.16,2.64,7.24,0,.15-.15.06-1.41.47-3.07,1-.15.05,0-.16c-.85-2.55-1.78-5-2.45-7.27l.14.11a6.24,6.24,0,0,1-3.31-1.31,7.54,7.54,0,0,1-2.07-2.47,5.74,5.74,0,0,1-.65-2.78,6.51,6.51,0,0,1,.52-2.39,6.42,6.42,0,0,1,2.07-2.71,3.79,3.79,0,0,1,1.06-.59,9.83,9.83,0,0,0-1,.67,6.59,6.59,0,0,0-2,2.7,5.84,5.84,0,0,0,.19,5,7.07,7.07,0,0,0,2,2.37,5.85,5.85,0,0,0,3.15,1.23h.11l0,.1c.68,2.29,1.61,4.69,2.46,7.25L90,182,93,181l1.41-.47-.1.21c-.93-2.55-1.81-5-2.63-7.25l0-.09.07-.07a7.75,7.75,0,0,0,1.95-3.19,5.92,5.92,0,0,0,0-3.39,6.52,6.52,0,0,0-3.56-4.2,5.32,5.32,0,0,0-2.1-.35,6.67,6.67,0,0,0-1.58.22C85.62,162.58,85.19,162.79,85.18,162.77Z" transform="translate(-5.66 -21.89)"/><path class="cls-9" d="M167.82,120.31h-6.46a5,5,0,0,0-2,.21,3.06,3.06,0,0,0-1.53,1.36,3.4,3.4,0,0,0-.37,1,7.12,7.12,0,0,0,0,1.14v1.18a5.7,5.7,0,0,1-.08,1.23,3.27,3.27,0,0,1-1.44,2.08,3.1,3.1,0,0,1-1.27.44c-.46,0-.9,0-1.37,0H129.88a3.27,3.27,0,0,1-.93-.09,3.09,3.09,0,0,1-1.61-1,3.34,3.34,0,0,1-.79-1.75,7.92,7.92,0,0,1,0-1v-1a5,5,0,0,0-.2-1.9,3.08,3.08,0,0,0-1.15-1.51,3,3,0,0,0-1.86-.51h-14.9a9.92,9.92,0,0,0-8,3.52,9.88,9.88,0,0,0-2,4.11,11.72,11.72,0,0,0-.2,1.16c0,.33,0,.66,0,1v158.8a10.31,10.31,0,0,0,.4,3.13,9.84,9.84,0,0,0,3.84,5.28,10.23,10.23,0,0,0,6.32,1.73h58.74c2.09,0,4.19,0,6.24,0a9.84,9.84,0,0,0,5.6-2.17,10.21,10.21,0,0,0,2-2.23,9.71,9.71,0,0,0,1.24-2.72,10.52,10.52,0,0,0,.37-3V274.15c0-31.25,0-59.38,0-83s0-42.75.06-56v-4.68a10.17,10.17,0,0,0-.72-4,9.94,9.94,0,0,0-1.87-2.95,9.63,9.63,0,0,0-2.25-1.83,9.44,9.44,0,0,0-3.71-1.31,8.13,8.13,0,0,0-1-.09l-.34,0h-5.32Z" transform="translate(-5.66 -21.89)"/><path class="cls-10" d="M173.25,120.42h.34a10,10,0,0,1,1,.08,9.92,9.92,0,0,1,6,3.12,9.84,9.84,0,0,1,1.89,3,10.19,10.19,0,0,1,.74,4c0,1.47,0,3,0,4.68,0,13.22,0,32.34,0,56s0,51.77,0,83v14.86a10.72,10.72,0,0,1-.38,3,10.1,10.1,0,0,1-1.27,2.8,10.71,10.71,0,0,1-2.07,2.29,10,10,0,0,1-5.73,2.22c-2.08.06-4.14,0-6.23,0H155l-25.93,0h-20a10.5,10.5,0,0,1-6.47-1.78,10.22,10.22,0,0,1-3.93-5.43,11,11,0,0,1-.41-3.36V272.31q0-13.17,0-25.94c0-17,0-33.4,0-49s0-30.47,0-44.37q0-10.41,0-20.1v-2.41c0-.4,0-.8.06-1.2s.1-.8.2-1.19a10.08,10.08,0,0,1,2.09-4.2,10.05,10.05,0,0,1,8.09-3.58H123.6a3.24,3.24,0,0,1,2,.55,3.28,3.28,0,0,1,1.21,1.59,5.49,5.49,0,0,1,.2,2v1a7.26,7.26,0,0,0,0,.94,3.18,3.18,0,0,0,.74,1.67,3,3,0,0,0,1.52.94,3.28,3.28,0,0,0,.89.08h4.5l13.08,0h5.77c.45,0,.91,0,1.35,0a3,3,0,0,0,1.21-.42,3.17,3.17,0,0,0,1.39-2,5.47,5.47,0,0,0,.08-1.21v-1.18a7.45,7.45,0,0,1,.05-1.16A3.44,3.44,0,0,1,158,122a3.07,3.07,0,0,1,1.58-1.4,4.8,4.8,0,0,1,2-.21H168l4,0h1.35l-1.35,0H161.51a4.78,4.78,0,0,0-1.94.21A3.1,3.1,0,0,0,158,122a3.38,3.38,0,0,0-.36,1,7,7,0,0,0-.05,1.14v1.18a5.68,5.68,0,0,1-.07,1.23,3.23,3.23,0,0,1-1.44,2.07,2.94,2.94,0,0,1-1.26.45c-.46,0-.9,0-1.36,0H130.15a3.67,3.67,0,0,1-.93-.09,3.11,3.11,0,0,1-1.61-1,3.37,3.37,0,0,1-.78-1.74,7.92,7.92,0,0,1,0-1v-1a5.05,5.05,0,0,0-.2-1.9,3.1,3.1,0,0,0-1.15-1.5,2.92,2.92,0,0,0-1.85-.51H108.76a9.88,9.88,0,0,0-7.93,3.51,9.86,9.86,0,0,0-2,4.12c-.1.38-.13.77-.2,1.16s0,.78,0,1.18V288.92a10.66,10.66,0,0,0,.4,3.28,9.9,9.9,0,0,0,3.82,5.28,10.22,10.22,0,0,0,6.31,1.73h20l25.93,0h12.63c2.08,0,4.17,0,6.22,0a9.74,9.74,0,0,0,5.57-2.16,10.44,10.44,0,0,0,2-2.23,9.81,9.81,0,0,0,1.23-2.72,10.19,10.19,0,0,0,.37-3v-3c0-4,0-8,0-11.86,0-31.25,0-59.39.05-83s0-42.75.05-56c0-1.65,0-3.21,0-4.68a10.08,10.08,0,0,0-.73-4,9.8,9.8,0,0,0-1.86-2.94,9.94,9.94,0,0,0-5.94-3.14,6.35,6.35,0,0,0-1-.09Z" transform="translate(-5.66 -21.89)"/><path class="cls-11" d="M175.17,136.49s-1.64.09-3.66.11-3.66,0-3.66,0,1.63-.09,3.66-.11S175.17,136.45,175.17,136.49Z" transform="translate(-5.66 -21.89)"/><path class="cls-11" d="M175.19,138.37s-1.64.09-3.67.1-3.66,0-3.66,0,1.64-.09,3.66-.11S175.19,138.32,175.19,138.37Z" transform="translate(-5.66 -21.89)"/><path class="cls-11" d="M175.2,140.24s-1.64.09-3.66.11-3.66,0-3.66,0,1.64-.09,3.66-.11S175.2,140.2,175.2,140.24Z" transform="translate(-5.66 -21.89)"/><path class="cls-11" d="M108.55,142.38h.15l.43,0,1.56,0,0,0c0-.35,0-.72,0-1.13,0-.21,0-.41,0-.66a.61.61,0,0,1,.53-.48h.74a.6.6,0,0,1,.52.6c0,.53,0,1.08,0,1.66l-.08-.07,2,0-.08.07c0-.79,0-1.61,0-2.46,0-.21,0-.42,0-.62a.63.63,0,0,0-.27-.47l-.87-.85-.83-.82-.4-.4c-.14-.13-.25-.27-.41-.3a.54.54,0,0,0-.45.08c-.12.1-.25.25-.37.36l-.71.72c-.44.46-.91.88-1.24,1.28a1.33,1.33,0,0,0-.1.74v.69c0,.43,0,.8,0,1.12s0,.53,0,.72a1.11,1.11,0,0,1,0,.26,2.17,2.17,0,0,1,0-.24c0-.19,0-.42,0-.7l0-1.13c0-.23,0-.46,0-.71v-.39a.87.87,0,0,1,.11-.41c.37-.45.8-.85,1.25-1.32l.7-.72c.13-.12.23-.25.38-.38a.7.7,0,0,1,.58-.11,1.1,1.1,0,0,1,.47.34l.41.39.83.82.86.85a1.28,1.28,0,0,1,.22.24.65.65,0,0,1,.11.33v.63c0,.84,0,1.67,0,2.46v.08h-2.12v-.07c0-.57,0-1.13,0-1.66a.48.48,0,0,0-.4-.48c-.22,0-.49,0-.71,0a.5.5,0,0,0-.43.39c0,.19,0,.43,0,.63,0,.41,0,.78,0,1.13v0h-2.19Z" transform="translate(-5.66 -21.89)"/><path class="cls-11" d="M158.29,208c0,.28-7.85.51-17.53.51s-17.52-.23-17.52-.51,7.84-.51,17.52-.51S158.29,207.74,158.29,208Z" transform="translate(-5.66 -21.89)"/><rect class="cls-2" x="123.81" y="156.62" width="34.02" height="45.27" transform="translate(-44.88 297.18) rotate(-89.68)"/><g class="cls-5"><polygon points="112.43 174.25 128.36 153.19 138.08 166.47 144.76 159.44 157.69 174.5 112.43 174.25"/></g><g class="cls-5"><path d="M148,172.57a3.56,3.56,0,1,1-3.54-3.59A3.56,3.56,0,0,1,148,172.57Z" transform="translate(-5.66 -21.89)"/></g><path class="cls-11" d="M171.93,220.54c0,.29-13.92.52-31.07.52s-31.08-.23-31.08-.52,13.91-.51,31.08-.51S171.93,220.26,171.93,220.54Z" transform="translate(-5.66 -21.89)"/><path class="cls-11" d="M171.93,229.2c0,.29-13.92.52-31.07.52s-31.08-.23-31.08-.52,13.91-.51,31.08-.51S171.93,228.92,171.93,229.2Z" transform="translate(-5.66 -21.89)"/><path class="cls-11" d="M171.93,237.87c0,.28-13.92.51-31.07.51s-31.08-.23-31.08-.51,13.91-.52,31.08-.52S171.93,237.58,171.93,237.87Z" transform="translate(-5.66 -21.89)"/><path class="cls-11" d="M171.93,246.53c0,.28-13.92.51-31.07.51s-31.08-.23-31.08-.51,13.91-.51,31.08-.51S171.93,246.25,171.93,246.53Z" transform="translate(-5.66 -21.89)"/><path class="cls-11" d="M171.93,255.19c0,.29-13.92.52-31.07.52s-31.08-.23-31.08-.52,13.91-.51,31.08-.51S171.93,254.91,171.93,255.19Z" transform="translate(-5.66 -21.89)"/><path class="cls-11" d="M158.56,263.1c0,.14-2,.27-5.22.36s-7.69.15-12.62.15-9.38-.05-12.61-.15-5.22-.22-5.22-.36,2-.27,5.22-.36,7.69-.15,12.61-.15,9.39.05,12.62.15S158.56,263,158.56,263.1Z" transform="translate(-5.66 -21.89)"/><path class="cls-9" d="M229.94,105.77h-7.18a5.31,5.31,0,0,0-2.16.23,3.37,3.37,0,0,0-1.71,1.52,3.49,3.49,0,0,0-.4,1.15,7.62,7.62,0,0,0-.06,1.27c0,.44,0,.88,0,1.33a7.12,7.12,0,0,1-.09,1.37,3.65,3.65,0,0,1-1.6,2.31,3.45,3.45,0,0,1-1.41.5c-.51,0-1,0-1.52,0h-26a4.12,4.12,0,0,1-1-.1,3.49,3.49,0,0,1-1.79-1.11,3.69,3.69,0,0,1-.87-2,7.8,7.8,0,0,1,0-1.08v-1.07a5.77,5.77,0,0,0-.21-2.12,3.41,3.41,0,0,0-1.29-1.68,3.24,3.24,0,0,0-2.06-.57H163.92a10.94,10.94,0,0,0-8.84,3.92,11.15,11.15,0,0,0-2.28,4.59c-.11.42-.14.86-.22,1.29s0,.74-.05,1.11V293.83a11.63,11.63,0,0,0,.44,3.48,11,11,0,0,0,4.27,5.89,11.37,11.37,0,0,0,7,1.94h22.26l28.92,0h14.09c2.32,0,4.65,0,6.93,0a10.9,10.9,0,0,0,6.22-2.41,11.83,11.83,0,0,0,2.25-2.49,11,11,0,0,0,1.37-3,11.86,11.86,0,0,0,.42-3.3V277.34c0-34.85,0-66.23.06-92.59s0-47.68.06-62.42c0-1.85,0-3.59,0-5.22a11.36,11.36,0,0,0-.81-4.46,11,11,0,0,0-2.08-3.28,10.64,10.64,0,0,0-2.5-2.05,10.37,10.37,0,0,0-4.12-1.45,8.9,8.9,0,0,0-1.12-.11l-.38,0h-1.5Z" transform="translate(-5.66 -21.89)"/><path class="cls-10" d="M235.93,105.66l.38,0a7.77,7.77,0,0,1,1.12.08,11.15,11.15,0,0,1,6.68,3.48,11.06,11.06,0,0,1,2.1,3.3A11.39,11.39,0,0,1,247,117c0,1.63,0,3.37,0,5.21,0,14.75,0,36.07,0,62.43s0,57.74,0,92.58v16.59a11.67,11.67,0,0,1-.42,3.37,11.28,11.28,0,0,1-1.42,3.12,11.92,11.92,0,0,1-2.3,2.56,11.25,11.25,0,0,1-6.39,2.48c-2.32.07-4.62,0-7,0H164.34a11.77,11.77,0,0,1-7.2-2,11.38,11.38,0,0,1-4.39-6.06,12.19,12.19,0,0,1-.46-3.74V275.06q0-14.69,0-28.93c0-19,0-37.25,0-54.68s0-34,0-49.48q0-11.62,0-22.43v-2.68c0-.45,0-.9.06-1.34s.11-.89.23-1.32a11.21,11.21,0,0,1,2.33-4.69,11.5,11.5,0,0,1,4.1-3.07,11.68,11.68,0,0,1,4.92-.93h16.56a3.48,3.48,0,0,1,2.17.61,3.68,3.68,0,0,1,1.36,1.78,6,6,0,0,1,.22,2.18v1.08a7.26,7.26,0,0,0,0,1,3.46,3.46,0,0,0,.82,1.86,3.35,3.35,0,0,0,1.69,1,3.73,3.73,0,0,0,1,.09h5l14.59,0h6.44c.5,0,1,0,1.5,0a3.25,3.25,0,0,0,1.36-.47,3.55,3.55,0,0,0,1.55-2.23,6.09,6.09,0,0,0,.08-1.35c0-.44,0-.88,0-1.32a8,8,0,0,1,0-1.29,4,4,0,0,1,.42-1.18,3.55,3.55,0,0,1,1.77-1.57,5.56,5.56,0,0,1,2.2-.23l7.17,0,4.42,0h1.5l-1.5,0H222.84a5.48,5.48,0,0,0-2.16.24,3.32,3.32,0,0,0-1.71,1.52,3.51,3.51,0,0,0-.41,1.15,8.88,8.88,0,0,0-.05,1.27v1.32a6.34,6.34,0,0,1-.08,1.37,3.62,3.62,0,0,1-1.61,2.32,3.41,3.41,0,0,1-1.4.5c-.52,0-1,0-1.52,0h-26a4.09,4.09,0,0,1-1-.11,3.43,3.43,0,0,1-1.79-1.1,3.69,3.69,0,0,1-.87-1.95,7.92,7.92,0,0,1,0-1.08V110.1a5.79,5.79,0,0,0-.22-2.12,3.48,3.48,0,0,0-1.28-1.68,3.39,3.39,0,0,0-2.06-.57H164a11,11,0,0,0-8.85,3.93,11.19,11.19,0,0,0-2.27,4.59c-.11.42-.14.86-.22,1.29s0,.87-.06,1.32V142c0,15.49,0,32.05,0,49.48v54.68q0,14.24,0,28.93v18.53a11.8,11.8,0,0,0,.45,3.65,11,11,0,0,0,4.27,5.89,11.33,11.33,0,0,0,7,1.93H186.6l28.92,0h14.09c2.33,0,4.66,0,6.94,0a10.93,10.93,0,0,0,6.22-2.41,11.52,11.52,0,0,0,2.24-2.49,10.7,10.7,0,0,0,1.38-3,11.42,11.42,0,0,0,.41-3.29c0-1.13,0-2.24,0-3.36V277.26c0-34.84,0-66.22.05-92.58s0-47.68.07-62.43V117a11.54,11.54,0,0,0-.8-4.46,11.09,11.09,0,0,0-2.08-3.29,10.84,10.84,0,0,0-2.5-2,11,11,0,0,0-5.24-1.56Z" transform="translate(-5.66 -21.89)"/><path class="cls-11" d="M238.07,123.58s-1.83.11-4.08.12-4.09,0-4.09,0,1.83-.1,4.08-.12S238.07,123.54,238.07,123.58Z" transform="translate(-5.66 -21.89)"/><path class="cls-11" d="M238.09,125.67s-1.83.11-4.09.12-4.08,0-4.08-.05,1.82-.1,4.08-.12S238.09,125.63,238.09,125.67Z" transform="translate(-5.66 -21.89)"/><path class="cls-11" d="M238.1,127.76s-1.82.11-4.08.12-4.09,0-4.09,0,1.83-.1,4.09-.12S238.1,127.72,238.1,127.76Z" transform="translate(-5.66 -21.89)"/><path class="cls-11" d="M163.77,130.15h.17l.47,0,1.75,0,0,0c0-.39,0-.81,0-1.26,0-.24,0-.46,0-.73a.68.68,0,0,1,.59-.54,7.65,7.65,0,0,1,.83,0,.67.67,0,0,1,.57.67c0,.59,0,1.21,0,1.84L168,130l2.2,0-.08.09c0-.89,0-1.81,0-2.74v-.7a.69.69,0,0,0-.31-.52l-1-1-.93-.92-.45-.44a1.1,1.1,0,0,0-.46-.34.56.56,0,0,0-.5.1c-.13.11-.28.27-.41.4l-.79.8c-.5.51-1,1-1.39,1.43a1.52,1.52,0,0,0-.11.82v.77c0,.48,0,.9,0,1.25s0,.59,0,.8,0,.29,0,.29,0-.09,0-.26,0-.48,0-.79,0-.78,0-1.26c0-.25,0-.51,0-.79s0-.29,0-.43a.93.93,0,0,1,.12-.46c.41-.5.9-.94,1.4-1.47l.78-.81c.14-.14.26-.27.43-.42a.74.74,0,0,1,.63-.12,1.15,1.15,0,0,1,.53.37l.45.45c.31.29.62.6.93.91l1,1a1.51,1.51,0,0,1,.24.26.63.63,0,0,1,.12.37c0,.23,0,.47,0,.7,0,.94,0,1.86,0,2.75v.08h-.09l-2.2,0h-.08v-.08c0-.64,0-1.26,0-1.85a.52.52,0,0,0-.44-.53c-.26,0-.55,0-.8,0a.55.55,0,0,0-.48.43c0,.22,0,.48,0,.7v1.32h-2.44Z" transform="translate(-5.66 -21.89)"/><path class="cls-2" d="M208.25,141.59a7.38,7.38,0,1,1-7.37-7.37A7.37,7.37,0,0,1,208.25,141.59Z" transform="translate(-5.66 -21.89)"/><path class="cls-4" d="M203.41,144.57h-5.06V144a2.53,2.53,0,0,1,2.53-2.53h0a2.53,2.53,0,0,1,2.53,2.53Z" transform="translate(-5.66 -21.89)"/><path class="cls-4" d="M202.36,140.11a1.49,1.49,0,1,1-1.48-1.49A1.48,1.48,0,0,1,202.36,140.11Z" transform="translate(-5.66 -21.89)"/><path class="cls-11" d="M219.24,161.09c0,.31-8.75.57-19.54.57s-19.55-.26-19.55-.57,8.75-.58,19.55-.58S219.24,160.77,219.24,161.09Z" transform="translate(-5.66 -21.89)"/><rect class="cls-2" x="163.95" y="176.41" width="25.36" height="33.75" transform="translate(-23.3 346.94) rotate(-89.68)"/><g class="cls-5"><polygon points="154.02 183.98 165.9 168.28 173.14 178.18 178.13 172.94 187.77 184.17 154.02 183.98"/></g><g class="cls-5"><path d="M182,188.3a2.66,2.66,0,1,1-2.64-2.67A2.66,2.66,0,0,1,182,188.3Z" transform="translate(-5.66 -21.89)"/></g><rect class="cls-2" x="169.23" y="204.22" width="58.63" height="78.01" transform="translate(-51.45 418.53) rotate(-89.68)"/><g class="cls-5"><polygon points="153.72 250.44 181.17 214.14 197.92 237.04 209.43 224.91 231.73 250.87 153.72 250.44"/></g><g class="cls-5"><path d="M210.89,231.7a6.14,6.14,0,1,1-6.1-6.17A6.13,6.13,0,0,1,210.89,231.7Z" transform="translate(-5.66 -21.89)"/></g><rect class="cls-2" x="208.5" y="176.41" width="25.36" height="33.75" transform="translate(21 391.49) rotate(-89.68)"/><g class="cls-5"><polygon points="198.57 183.98 210.45 168.28 217.69 178.18 222.68 172.94 232.32 184.17 198.57 183.98"/></g><g class="cls-5"><circle cx="218.2" cy="166.39" r="2.66"/></g><path class="cls-9" d="M439.49,115.65h-6.43a5.15,5.15,0,0,0-1.94.21,3.16,3.16,0,0,0-1.89,2.4,6.14,6.14,0,0,0-.05,1.14v1.19a5.08,5.08,0,0,1-.08,1.22,3.29,3.29,0,0,1-1.43,2.08,3.11,3.11,0,0,1-1.26.44c-.46,0-.91,0-1.37,0H401.7a3.37,3.37,0,0,1-.94-.09,3.11,3.11,0,0,1-1.6-1,3.29,3.29,0,0,1-.78-1.75,8,8,0,0,1,0-1v-1a5,5,0,0,0-.19-1.9A3.08,3.08,0,0,0,397,116.2a3,3,0,0,0-1.85-.51H380.3a9.84,9.84,0,0,0-7.93,3.52,10,10,0,0,0-2,4.12,11,11,0,0,0-.19,1.15c0,.33,0,.66-.05,1V284.28a10.25,10.25,0,0,0,.4,3.12,9.85,9.85,0,0,0,3.82,5.28,10.2,10.2,0,0,0,6.3,1.74h20l25.93,0h12.64c2.08,0,4.17,0,6.22,0a9.77,9.77,0,0,0,5.57-2.16,10.18,10.18,0,0,0,2-2.24,9.71,9.71,0,0,0,1.24-2.72,10.12,10.12,0,0,0,.37-2.95v-3q0-6,0-11.86c0-31.24,0-59.38,0-83s0-42.76.06-56v-4.67a10.19,10.19,0,0,0-.72-4,9.91,9.91,0,0,0-4.1-4.78,9.52,9.52,0,0,0-3.7-1.31c-.44-.08-.78-.06-1-.09l-.34,0h-5.31Z" transform="translate(-5.66 -21.89)"/><rect class="cls-12" x="378.33" y="161.05" width="55.84" height="11.41"/><path class="cls-10" d="M445,115.56h.34a7.72,7.72,0,0,1,1,.08,10,10,0,0,1,6,3.12,10.24,10.24,0,0,1,1.89,3,10.37,10.37,0,0,1,.74,4v4.68c0,13.21,0,32.34,0,56s0,51.77,0,83v14.87a10.37,10.37,0,0,1-.38,3,9.64,9.64,0,0,1-1.27,2.79,10.48,10.48,0,0,1-2.06,2.3,10.08,10.08,0,0,1-5.73,2.22c-2.08.06-4.15,0-6.24,0H380.8a10.54,10.54,0,0,1-6.46-1.78,10.16,10.16,0,0,1-3.93-5.44,10.89,10.89,0,0,1-.42-3.35v-3.35q0-6.68,0-13.26V241.51c0-17,0-33.41,0-49s0-30.47,0-44.37q0-10.43,0-20.1c0-.81,0-1.61,0-2.41,0-.4,0-.8.05-1.2s.1-.8.2-1.19a10,10,0,0,1,10.18-7.78h14.85a3.21,3.21,0,0,1,2,.55,3.28,3.28,0,0,1,1.21,1.59,5.07,5.07,0,0,1,.2,2v1a7.26,7.26,0,0,0,0,.94,3.05,3.05,0,0,0,.75,1.66,2.84,2.84,0,0,0,1.51.94,3,3,0,0,0,.9.09h4.49l13.08,0h5.77c.45,0,.92,0,1.35,0a2.84,2.84,0,0,0,1.21-.43,3.09,3.09,0,0,0,1.39-2,4.82,4.82,0,0,0,.08-1.2v-1.19a7.39,7.39,0,0,1,.06-1.15,3.32,3.32,0,0,1,.37-1.07,3.18,3.18,0,0,1,1.59-1.4,5.15,5.15,0,0,1,2-.21l6.43,0,4,0H445l-1.35,0H433.25a4.76,4.76,0,0,0-1.94.21,3,3,0,0,0-1.53,1.36,3.16,3.16,0,0,0-.36,1,6.14,6.14,0,0,0-.05,1.14v1.19a5.7,5.7,0,0,1-.08,1.23,3.25,3.25,0,0,1-1.43,2.07,3,3,0,0,1-1.27.45c-.46,0-.9,0-1.36,0H401.89a4.28,4.28,0,0,1-.94-.09,3.26,3.26,0,0,1-2.38-2.74,6.35,6.35,0,0,1,0-1v-1a5.24,5.24,0,0,0-.19-1.9,3,3,0,0,0-3-2H380.49a10.28,10.28,0,0,0-4.33.83,9.78,9.78,0,0,0-5.64,6.81c-.1.38-.13.77-.2,1.16s-.05.78-.05,1.18v22.51c0,13.9,0,28.74,0,44.37v49q0,12.75,0,25.94v16.61a10.59,10.59,0,0,0,.4,3.27,9.88,9.88,0,0,0,3.83,5.28,10.2,10.2,0,0,0,6.3,1.74h20l25.93,0h12.63c2.09,0,4.17,0,6.22,0a9.77,9.77,0,0,0,5.58-2.16,10.66,10.66,0,0,0,2-2.23,10,10,0,0,0,1.24-2.72,10.92,10.92,0,0,0,.37-3V269.42c0-31.24,0-59.38.05-83s0-42.76,0-56c0-1.66,0-3.22,0-4.68a10.25,10.25,0,0,0-.72-4,9.89,9.89,0,0,0-1.87-2.94A9.26,9.26,0,0,0,450,117a9.49,9.49,0,0,0-3.69-1.3,6.54,6.54,0,0,0-1-.09Z" transform="translate(-5.66 -21.89)"/><path class="cls-11" d="M446.9,131.63s-1.64.09-3.66.11-3.66,0-3.66-.05,1.64-.09,3.66-.11S446.9,131.59,446.9,131.63Z" transform="translate(-5.66 -21.89)"/><path class="cls-11" d="M446.92,133.5c0,.05-1.64.09-3.66.11s-3.66,0-3.67-.05,1.64-.09,3.67-.1S446.92,133.46,446.92,133.5Z" transform="translate(-5.66 -21.89)"/><path class="cls-11" d="M446.93,135.38s-1.63.09-3.66.11-3.66,0-3.66-.05,1.64-.09,3.66-.11S446.93,135.34,446.93,135.38Z" transform="translate(-5.66 -21.89)"/><path class="cls-11" d="M380.29,137.52s0,0,.15,0l.42,0,1.57,0-.05,0c0-.35,0-.73,0-1.13,0-.22,0-.41,0-.66a.6.6,0,0,1,.52-.48c.25,0,.47,0,.75,0a.6.6,0,0,1,.51.6c0,.53,0,1.08,0,1.65l-.07-.07,2,0-.08.08c0-.79,0-1.62,0-2.46v-.62a.62.62,0,0,0-.28-.47l-.86-.85-.83-.82-.41-.4c-.14-.13-.24-.27-.41-.3a.52.52,0,0,0-.45.08c-.12.1-.25.25-.37.36l-.7.72c-.45.46-.91.88-1.25,1.28a1.42,1.42,0,0,0-.1.74v.69c0,.43,0,.8,0,1.12s0,.53,0,.72v.26a1.1,1.1,0,0,1,0-.24c0-.19,0-.42,0-.71l0-1.12c0-.23,0-.46,0-.71v-.39a.74.74,0,0,1,.11-.41c.36-.45.8-.85,1.25-1.32.22-.24.46-.48.7-.72a4.54,4.54,0,0,1,.38-.38.68.68,0,0,1,.57-.11,1,1,0,0,1,.47.34l.41.39.83.82.87.85a1.74,1.74,0,0,1,.22.24.64.64,0,0,1,.1.33c0,.21,0,.42,0,.63,0,.84,0,1.66,0,2.46v.07h-.08l-2,0H384v-.07c0-.58,0-1.13,0-1.66a.48.48,0,0,0-.4-.48h-.72a.48.48,0,0,0-.42.38c0,.2,0,.43,0,.63v1.18h-2.18Z" transform="translate(-5.66 -21.89)"/><rect class="cls-12" x="378.45" y="178.06" width="55.84" height="11.41"/><rect class="cls-12" x="378.45" y="194.61" width="55.84" height="11.41"/><path class="cls-2" d="M426.53,250.58h-28a5.71,5.71,0,0,1-5.7-5.71h0a5.7,5.7,0,0,1,5.7-5.7h28a5.7,5.7,0,0,1,5.7,5.7h0A5.71,5.71,0,0,1,426.53,250.58Z" transform="translate(-5.66 -21.89)"/><path class="cls-11" d="M429.9,171.15c0,.28-7.84.51-17.52.51s-17.52-.23-17.52-.51,7.84-.51,17.52-.51S429.9,170.87,429.9,171.15Z" transform="translate(-5.66 -21.89)"/><path class="cls-9" d="M393.72,103.85h-7.18a5.31,5.31,0,0,0-2.16.23,3.37,3.37,0,0,0-1.71,1.52,3.74,3.74,0,0,0-.4,1.15,6.76,6.76,0,0,0,0,1.28v1.32a7.12,7.12,0,0,1-.09,1.37,3.65,3.65,0,0,1-1.6,2.31,3.45,3.45,0,0,1-1.41.5c-.51,0-1,0-1.52,0h-26a4.12,4.12,0,0,1-1-.1,3.49,3.49,0,0,1-1.79-1.11,3.77,3.77,0,0,1-.87-2,9.75,9.75,0,0,1,0-1.08v-1.07a5.77,5.77,0,0,0-.21-2.12,3.45,3.45,0,0,0-1.28-1.68,3.33,3.33,0,0,0-2.07-.57H327.7a10.94,10.94,0,0,0-8.84,3.92,11.15,11.15,0,0,0-2.28,4.59c-.11.43-.14.86-.22,1.29s0,.74-.05,1.11V291.91a11.32,11.32,0,0,0,.45,3.48,10.94,10.94,0,0,0,4.26,5.89,11.37,11.37,0,0,0,7,1.94h22.26l28.92,0h14.09c2.32,0,4.65,0,6.93,0a10.9,10.9,0,0,0,6.22-2.41,11.57,11.57,0,0,0,2.25-2.49,11,11,0,0,0,1.37-3,11.16,11.16,0,0,0,.42-3.3v-3.35q0-6.7,0-13.23c0-34.85,0-66.23.05-92.59s0-47.68.06-62.42c0-1.85,0-3.59,0-5.22a11.36,11.36,0,0,0-.81-4.46,11,11,0,0,0-2.08-3.28,11,11,0,0,0-6.62-3.5,8.49,8.49,0,0,0-1.12-.1l-.38,0h-1.5Z" transform="translate(-5.66 -21.89)"/><path class="cls-10" d="M399.71,104h.38a10.1,10.1,0,0,1,1.12.09,10.47,10.47,0,0,1,4.15,1.43,10.75,10.75,0,0,1,2.53,2,11.06,11.06,0,0,1,2.1,3.3,11.34,11.34,0,0,1,.83,4.49c0,1.64,0,3.38,0,5.22,0,14.74,0,36.07,0,62.43s0,57.74,0,92.58v16.58a11.7,11.7,0,0,1-.42,3.38,11.12,11.12,0,0,1-1.42,3.12,11.89,11.89,0,0,1-2.3,2.56,11.25,11.25,0,0,1-6.39,2.48c-2.32.06-4.62,0-7,0H328.12a11.65,11.65,0,0,1-7.2-2,11.32,11.32,0,0,1-4.39-6.05,12.21,12.21,0,0,1-.46-3.75V273.37q0-14.7,0-28.93c0-19,0-37.26,0-54.68s0-34,0-49.49c0-7.74,0-15.23,0-22.42v-2.68c0-.45,0-.9.06-1.35s.12-.88.23-1.31a11.32,11.32,0,0,1,2.33-4.69,11.5,11.5,0,0,1,4.1-3.07,11.68,11.68,0,0,1,4.92-.93h16.56a3.53,3.53,0,0,1,2.18.61,3.72,3.72,0,0,1,1.35,1.78,5.8,5.8,0,0,1,.22,2.18v1.08a7.26,7.26,0,0,0,0,1.05,3.47,3.47,0,0,0,.82,1.85,3.28,3.28,0,0,0,1.69,1,3.37,3.37,0,0,0,1,.1h5l14.59,0h6.44c.5,0,1,0,1.5,0a3.25,3.25,0,0,0,1.36-.47,3.55,3.55,0,0,0,1.55-2.23,6.81,6.81,0,0,0,.09-1.35v-1.32a6.93,6.93,0,0,1,.06-1.29,3.82,3.82,0,0,1,.41-1.19,3.57,3.57,0,0,1,1.77-1.56,5.58,5.58,0,0,1,2.2-.23l7.17,0,4.42,0h1.5l-1.5,0H386.62a5.5,5.5,0,0,0-2.16.24,3.32,3.32,0,0,0-1.71,1.52,3.28,3.28,0,0,0-.4,1.15,7.56,7.56,0,0,0-.06,1.27v1.32a6.34,6.34,0,0,1-.08,1.37,3.6,3.6,0,0,1-1.6,2.31,3.36,3.36,0,0,1-1.41.5c-.51,0-1,0-1.52,0h-26a3.67,3.67,0,0,1-1-.1,3.5,3.5,0,0,1-1.79-1.1,3.69,3.69,0,0,1-.87-2,7.92,7.92,0,0,1,0-1.08v-1.08a5.79,5.79,0,0,0-.21-2.12,3.51,3.51,0,0,0-1.29-1.68,3.3,3.3,0,0,0-2.06-.57H327.78A11.36,11.36,0,0,0,323,105a11,11,0,0,0-6.29,7.6c-.11.42-.14.86-.22,1.29s-.05.87-.06,1.32v2.68c0,7.19,0,14.68,0,22.42v133.1c0,4.89,0,9.83,0,14.79v3.73a11.86,11.86,0,0,0,.45,3.66,11,11,0,0,0,4.27,5.89,11.35,11.35,0,0,0,7,1.93H393.4c2.32,0,4.65,0,6.93,0a10.91,10.91,0,0,0,6.22-2.42,11.78,11.78,0,0,0,2.25-2.48,11.09,11.09,0,0,0,1.37-3,11.81,11.81,0,0,0,.42-3.3V275.57c0-34.84,0-66.23.05-92.58s.05-47.69.07-62.43v-5.22a11.31,11.31,0,0,0-.8-4.45,11.09,11.09,0,0,0-2.08-3.29,10.84,10.84,0,0,0-2.5-2,10.64,10.64,0,0,0-4.12-1.46,8.49,8.49,0,0,0-1.12-.1Z" transform="translate(-5.66 -21.89)"/><path class="cls-10" d="M401.85,121.89s-1.83.1-4.08.12-4.09,0-4.09-.05,1.83-.1,4.09-.12S401.85,121.84,401.85,121.89Z" transform="translate(-5.66 -21.89)"/><path class="cls-10" d="M401.87,124s-1.83.1-4.09.12-4.08,0-4.08,0,1.83-.1,4.08-.12S401.87,123.93,401.87,124Z" transform="translate(-5.66 -21.89)"/><path class="cls-10" d="M401.88,126.07c0,.05-1.82.1-4.08.12s-4.08,0-4.08,0,1.82-.1,4.08-.12S401.88,126,401.88,126.07Z" transform="translate(-5.66 -21.89)"/><path class="cls-10" d="M327.55,128.46s.06,0,.17,0l.47,0,1.75,0-.05.05c0-.39,0-.81,0-1.27,0-.23,0-.45,0-.72a.68.68,0,0,1,.59-.54c.28,0,.53,0,.83,0a.68.68,0,0,1,.57.68c0,.59,0,1.2,0,1.84l-.08-.08,2.2,0-.08.09c0-.89,0-1.81,0-2.75V125a.69.69,0,0,0-.31-.52l-1-1-.93-.92-.45-.44c-.15-.15-.28-.31-.46-.34a.59.59,0,0,0-.5.09c-.13.12-.28.28-.41.41l-.79.79c-.5.52-1,1-1.39,1.44a1.51,1.51,0,0,0-.11.82v.77c0,.48,0,.89,0,1.25s0,.58,0,.8a1.43,1.43,0,0,1,0,.29s0-.09,0-.27,0-.47,0-.78,0-.78,0-1.26c0-.25,0-.51,0-.79s0-.29,0-.43a.9.9,0,0,1,.13-.47c.4-.49.89-.94,1.39-1.47l.78-.8a5.75,5.75,0,0,1,.43-.42.75.75,0,0,1,.64-.13,1.28,1.28,0,0,1,.52.38l.45.44.94.92,1,.94a2.21,2.21,0,0,1,.25.27.7.7,0,0,1,.11.37c0,.23,0,.47,0,.7,0,.94,0,1.86,0,2.74v.09h-2.37v-.08c0-.64,0-1.25,0-1.84a.53.53,0,0,0-.44-.54c-.25,0-.55,0-.8,0a.53.53,0,0,0-.47.43,5.45,5.45,0,0,0,0,.7v1.32h-.05l-1.77,0h-.62Z" transform="translate(-5.66 -21.89)"/><circle class="cls-2" cx="364.75" cy="169.69" r="18.48" transform="translate(135.34 482.13) rotate(-81.16)"/><path class="cls-4" d="M371.09,177.15H358.41v-1.56a6.34,6.34,0,0,1,6.34-6.34h0a6.34,6.34,0,0,1,6.34,6.34Z" transform="translate(-5.66 -21.89)"/><circle class="cls-4" cx="359.09" cy="144.08" r="3.73"/><rect class="cls-12" x="326.16" y="187.44" width="62.28" height="12.72"/><rect class="cls-12" x="326.16" y="205.9" width="62.28" height="12.72"/><path class="cls-2" d="M379.13,265.79H347.87a6.35,6.35,0,0,1-6.36-6.36h0a6.36,6.36,0,0,1,6.36-6.36h31.26a6.36,6.36,0,0,1,6.36,6.36h0A6.36,6.36,0,0,1,379.13,265.79Z" transform="translate(-5.66 -21.89)"/><path class="cls-11" d="M383,201.67c0,.31-8.75.57-19.54.57s-19.55-.26-19.55-.57,8.75-.58,19.55-.58S383,201.35,383,201.67Z" transform="translate(-5.66 -21.89)"/><path class="cls-13" d="M340.42,218.49h-2.75a.48.48,0,0,1-.49-.48h0a1.83,1.83,0,0,1,1.83-1.84h.06a1.84,1.84,0,0,1,1.84,1.84h0A.48.48,0,0,1,340.42,218.49Z" transform="translate(-5.66 -21.89)"/><path class="cls-13" d="M340.14,215.21a1.1,1.1,0,1,1-1.1-1.1A1.09,1.09,0,0,1,340.14,215.21Z" transform="translate(-5.66 -21.89)"/><rect class="cls-13" x="331.74" y="212.46" width="3.28" height="2.32"/><path class="cls-13" d="M341.05,234.85H340v-.72a.93.93,0,0,0-1.86,0v.72H337v-.72a2,2,0,0,1,4.06,0Z" transform="translate(-5.66 -21.89)"/><path class="cls-9" d="M327.76,64.81l-10.69,0a8.06,8.06,0,0,0-3.22.35,5,5,0,0,0-2.54,2.26,5.27,5.27,0,0,0-.6,1.71,9.87,9.87,0,0,0-.08,1.89v2a8.79,8.79,0,0,1-.13,2,5.38,5.38,0,0,1-2.38,3.44,5.05,5.05,0,0,1-2.1.75c-.76.06-1.5,0-2.27,0H265a5.87,5.87,0,0,1-1.55-.15,5.08,5.08,0,0,1-2.66-1.65,5.35,5.35,0,0,1-1.3-2.9,10.8,10.8,0,0,1-.06-1.6V71.37a8.53,8.53,0,0,0-.32-3.15,5.14,5.14,0,0,0-1.91-2.5,5,5,0,0,0-3.08-.85H229.44a16.36,16.36,0,0,0-13.17,5.84,16.56,16.56,0,0,0-3.39,6.84c-.16.62-.21,1.28-.33,1.92s-.05,1.09-.07,1.64v263.6a17.13,17.13,0,0,0,.66,5.19,16.41,16.41,0,0,0,6.35,8.76A16.94,16.94,0,0,0,230,361.54h33.15l43.07,0h21c3.45,0,6.92.06,10.33,0a16.21,16.21,0,0,0,9.26-3.59,17.53,17.53,0,0,0,3.34-3.7,16.18,16.18,0,0,0,2-4.52,17.27,17.27,0,0,0,.62-4.91v-5q0-10,0-19.68c0-51.87.05-98.57.07-137.8s.08-71,.1-92.91c0-2.75,0-5.34,0-7.77a17,17,0,0,0-1.2-6.63,16.32,16.32,0,0,0-3.1-4.89,15.55,15.55,0,0,0-3.72-3A15.77,15.77,0,0,0,338.8,65a13.39,13.39,0,0,0-1.67-.15l-.56,0-2.24,0Z" transform="translate(-5.66 -21.89)"/><path class="cls-10" d="M336.73,64.87l.57,0A12.19,12.19,0,0,1,339,65a15.67,15.67,0,0,1,6.17,2.13,15.91,15.91,0,0,1,3.75,3A16.36,16.36,0,0,1,352,75.09a17.12,17.12,0,0,1,1.23,6.67c0,2.43,0,5,0,7.75,0,21.9,0,53.59.05,92.74s0,85.78,0,137.54v24.64a17.71,17.71,0,0,1-.63,5,16.83,16.83,0,0,1-2.1,4.63,17.45,17.45,0,0,1-3.43,3.8,16.58,16.58,0,0,1-9.49,3.69c-3.44.1-6.87,0-10.33,0H306.42l-43,0H230.39a17.41,17.41,0,0,1-10.71-3,16.8,16.8,0,0,1-6.51-9,18.09,18.09,0,0,1-.69-5.56V338.5q0-11.07,0-22,0-21.82,0-43c0-28.17,0-55.34,0-81.23s0-50.49,0-73.51q0-17.26,0-33.32c0-1.33,0-2.66,0-4,0-.66,0-1.33.09-2s.16-1.32.33-2a17,17,0,0,1,3.46-7,16.68,16.68,0,0,1,13.41-5.94l14.32,0h10.27a5.25,5.25,0,0,1,3.24.9,5.44,5.44,0,0,1,2,2.65,8.74,8.74,0,0,1,.33,3.24v1.6a11.61,11.61,0,0,0,.05,1.57,5.16,5.16,0,0,0,1.23,2.75,4.86,4.86,0,0,0,2.51,1.56,6.1,6.1,0,0,0,1.48.15h7.45l21.67,0H304c.75,0,1.52,0,2.24,0a4.88,4.88,0,0,0,2-.7,5.17,5.17,0,0,0,2.3-3.31,8.93,8.93,0,0,0,.13-2c0-.67,0-1.32,0-2a11.06,11.06,0,0,1,.08-1.91,5.5,5.5,0,0,1,.62-1.76A5.19,5.19,0,0,1,314,65.14a8.17,8.17,0,0,1,3.26-.35l10.66,0,6.56,0,2.23,0-2.23,0-6.56,0-10.66,0a8.18,8.18,0,0,0-3.21.34,5.11,5.11,0,0,0-2.54,2.26,5.43,5.43,0,0,0-.59,1.71,9.87,9.87,0,0,0-.08,1.89v2a8.74,8.74,0,0,1-.13,2,5.38,5.38,0,0,1-2.38,3.44,5.08,5.08,0,0,1-2.09.74c-.76.07-1.5,0-2.26,0H265.32a5.76,5.76,0,0,1-1.54-.16,5.13,5.13,0,0,1-2.66-1.64,5.5,5.5,0,0,1-1.3-2.89,12.48,12.48,0,0,1-.05-1.61v-1.6a8.75,8.75,0,0,0-.32-3.15,5.11,5.11,0,0,0-1.91-2.49,5,5,0,0,0-3.07-.85h-24.6a16.31,16.31,0,0,0-13.13,5.83,16.34,16.34,0,0,0-3.38,6.82c-.17.63-.22,1.28-.33,1.92s-.08,1.3-.09,2v4q0,16,0,33.32c0,23,0,47.62,0,73.51s0,53.06,0,81.23v43q0,10.91,0,22V344a18.06,18.06,0,0,0,.67,5.43,16.36,16.36,0,0,0,6.34,8.75,16.86,16.86,0,0,0,10.44,2.87h33.07l43,0h20.93c3.45,0,6.91.06,10.31,0a16.11,16.11,0,0,0,9.23-3.58,17.26,17.26,0,0,0,3.34-3.7,16,16,0,0,0,2-4.51,16.83,16.83,0,0,0,.62-4.89v-5q0-9.93,0-19.65c0-51.76.05-98.38.08-137.54s.07-70.84.09-92.74c0-2.74,0-5.32,0-7.75a16.87,16.87,0,0,0-1.2-6.62,16.25,16.25,0,0,0-3.09-4.88,15.81,15.81,0,0,0-3.71-3A15.6,15.6,0,0,0,339,65.06a13.42,13.42,0,0,0-1.66-.15Z" transform="translate(-5.66 -21.89)"/><path class="cls-11" d="M339.91,91.49c0,.07-2.71.15-6.06.18s-6.07,0-6.07-.08,2.71-.15,6.06-.18S339.91,91.42,339.91,91.49Z" transform="translate(-5.66 -21.89)"/><path class="cls-11" d="M339.94,94.6c0,.07-2.72.15-6.07.17s-6.07,0-6.07-.07,2.72-.15,6.07-.18S339.94,94.52,339.94,94.6Z" transform="translate(-5.66 -21.89)"/><path class="cls-11" d="M340,97.7c0,.07-2.71.15-6.06.18s-6.07,0-6.07-.08,2.71-.15,6.06-.18S340,97.63,340,97.7Z" transform="translate(-5.66 -21.89)"/><path class="cls-11" d="M229.53,101.24h.26l.7,0,2.59-.06-.07.08c0-.58,0-1.21,0-1.88,0-.35,0-.68,0-1.09a1,1,0,0,1,.87-.79c.42,0,.79,0,1.24,0a1,1,0,0,1,.85,1c0,.88,0,1.79,0,2.74l-.12-.12,3.27,0-.13.13q0-2,0-4.08c0-.35,0-.69,0-1a1.08,1.08,0,0,0-.46-.78l-1.43-1.41-1.38-1.36-.67-.66c-.23-.22-.41-.45-.67-.5a.9.9,0,0,0-.75.14c-.2.17-.41.41-.61.6l-1.17,1.18c-.74.77-1.51,1.47-2.07,2.13a2.31,2.31,0,0,0-.16,1.22v1.15c0,.71,0,1.33,0,1.86s0,.87,0,1.19a2,2,0,0,1,0,.42s0-.12,0-.39,0-.7,0-1.17,0-1.16,0-1.87c0-.37,0-.76,0-1.17,0-.21,0-.43,0-.64a1.21,1.21,0,0,1,.18-.69c.6-.74,1.32-1.4,2.07-2.18l1.16-1.2c.21-.2.38-.41.63-.62a1.14,1.14,0,0,1,1-.19,1.75,1.75,0,0,1,.78.56l.67.66c.46.44.92.9,1.39,1.36l1.43,1.4a2.88,2.88,0,0,1,.36.4,1.06,1.06,0,0,1,.18.55v1c0,1.4,0,2.76,0,4.07v.13h-.13l-3.27,0h-.12v-.12c0-1,0-1.86,0-2.74a.8.8,0,0,0-.66-.79c-.38,0-.82,0-1.19,0a.81.81,0,0,0-.7.64c0,.33,0,.71,0,1v2h-.07l-2.63,0h-.69A1,1,0,0,1,229.53,101.24Z" transform="translate(-5.66 -21.89)"/><rect class="cls-14" x="219" y="95.76" width="114.62" height="20.85" rx="8.79"/><path class="cls-10" d="M330.48,138.5l.66-.05a8.72,8.72,0,0,0,4.65-1.82,8.67,8.67,0,0,0,2.61-3.31,8.24,8.24,0,0,0,.69-2.43,21.46,21.46,0,0,0,.08-2.81A18.67,18.67,0,0,0,339,125a8.8,8.8,0,0,0-1.14-3,8.68,8.68,0,0,0-5.78-4,23.72,23.72,0,0,0-4-.15H323.9l-90.45.06a8.59,8.59,0,0,0-8.54,7.86c-.08,1,0,2.14,0,3.2a10,10,0,0,0,.32,3.1,8.71,8.71,0,0,0,3.56,4.86,8.29,8.29,0,0,0,2.77,1.18,13.2,13.2,0,0,0,3,.23h17.82l40.66,0,27.41.07,7.46,0,1.93,0,.66,0s-.22,0-.66,0l-1.93,0-7.46,0-27.41.06-40.66,0H234.54a13.12,13.12,0,0,1-3.11-.23,8.83,8.83,0,0,1-2.91-1.24,9,9,0,0,1-3.73-5.1,10.27,10.27,0,0,1-.34-3.21c0-1.08,0-2.12,0-3.23a9,9,0,0,1,9-8.26l90.45.06h4.23a24.6,24.6,0,0,1,4,.17,8.94,8.94,0,0,1,7.09,7.31,19.18,19.18,0,0,1,.12,3.09,23.72,23.72,0,0,1-.1,2.83,8.66,8.66,0,0,1-.72,2.47,8.82,8.82,0,0,1-2.69,3.35,9,9,0,0,1-2.81,1.43,8.8,8.8,0,0,1-1.91.33C330.71,138.51,330.48,138.5,330.48,138.5Z" transform="translate(-5.66 -21.89)"/><path class="cls-11" d="M332.25,127.58s0-.33-.2-.9a3.74,3.74,0,0,0-1.38-2,3.59,3.59,0,1,0,0,5.76,3.71,3.71,0,0,0,1.38-2c.17-.56.16-.9.2-.9s0,.08,0,.24a2.79,2.79,0,0,1-.06.7,3.73,3.73,0,0,1-1.37,2.18,3.9,3.9,0,0,1-3.73.61,4,4,0,0,1,0-7.46,3.92,3.92,0,0,1,3.73.61,3.76,3.76,0,0,1,1.37,2.18,2.79,2.79,0,0,1,.06.7Q332.28,127.58,332.25,127.58Z" transform="translate(-5.66 -21.89)"/><path class="cls-11" d="M334.33,134.09a7.62,7.62,0,0,1-1.85-1.68,7.36,7.36,0,0,1-1.53-2,7.6,7.6,0,0,1,1.85,1.69A7.41,7.41,0,0,1,334.33,134.09Z" transform="translate(-5.66 -21.89)"/><path class="cls-13" d="M240.13,126h-2v-.53h4.7V126h-2v5.29h-.62Z" transform="translate(-5.66 -21.89)"/><path class="cls-13" d="M247,129.28h-3.66a1.62,1.62,0,0,0,1.72,1.52,1.71,1.71,0,0,0,1.34-.58l.33.39a2.31,2.31,0,0,1-4-1.52,2.11,2.11,0,0,1,2.14-2.22,2.08,2.08,0,0,1,2.11,2.22Zm-3.66-.44h3.1a1.55,1.55,0,0,0-3.1,0Z" transform="translate(-5.66 -21.89)"/><path class="cls-13" d="M250.87,131.28l-1.39-1.83-1.4,1.83h-.66l1.73-2.24-1.65-2.13h.67l1.31,1.71,1.31-1.71h.65L249.8,129l1.74,2.24Z" transform="translate(-5.66 -21.89)"/><path class="cls-13" d="M254.83,131a1.43,1.43,0,0,1-.93.31,1.16,1.16,0,0,1-1.28-1.27v-2.64h-.78v-.5h.78v-1h.59v1h1.33v.5h-1.33V130a.7.7,0,0,0,.76.79,1,1,0,0,0,.65-.22Z" transform="translate(-5.66 -21.89)"/><path class="cls-3" d="M302.84,158.36c0,.12-8.39.21-18.73.21s-18.74-.09-18.74-.21,8.39-.22,18.74-.22S302.84,158.24,302.84,158.36Z" transform="translate(-5.66 -21.89)"/><path class="cls-11" d="M332.72,166.05c0,.12-15.08.21-33.67.21s-33.68-.09-33.68-.21,15.08-.22,33.68-.22S332.72,165.93,332.72,166.05Z" transform="translate(-5.66 -21.89)"/><path class="cls-11" d="M331.93,171.54c0,.12-14.9.21-33.28.21s-33.28-.09-33.28-.21,14.9-.21,33.28-.21S331.93,171.42,331.93,171.54Z" transform="translate(-5.66 -21.89)"/><path class="cls-11" d="M304.67,176.78c0,.12-8.8.21-19.65.21s-19.65-.09-19.65-.21,8.8-.21,19.65-.21S304.67,176.66,304.67,176.78Z" transform="translate(-5.66 -21.89)"/><path class="cls-3" d="M302.84,200.16c0,.11-8.39.21-18.73.21s-18.74-.1-18.74-.21,8.39-.22,18.74-.22S302.84,200,302.84,200.16Z" transform="translate(-5.66 -21.89)"/><path class="cls-11" d="M332.72,207.85c0,.11-15.08.21-33.67.21s-33.68-.1-33.68-.21,15.08-.22,33.68-.22S332.72,207.73,332.72,207.85Z" transform="translate(-5.66 -21.89)"/><path class="cls-11" d="M331.93,213.34c0,.12-14.9.21-33.28.21s-33.28-.09-33.28-.21,14.9-.22,33.28-.22S331.93,213.22,331.93,213.34Z" transform="translate(-5.66 -21.89)"/><path class="cls-11" d="M304.67,218.58c0,.11-8.8.21-19.65.21s-19.65-.1-19.65-.21,8.8-.22,19.65-.22S304.67,218.46,304.67,218.58Z" transform="translate(-5.66 -21.89)"/><path class="cls-3" d="M302.84,242c0,.12-8.39.22-18.73.22s-18.74-.1-18.74-.22,8.39-.21,18.74-.21S302.84,241.84,302.84,242Z" transform="translate(-5.66 -21.89)"/><path class="cls-11" d="M332.72,249.64c0,.12-15.08.22-33.67.22s-33.68-.1-33.68-.22,15.08-.21,33.68-.21S332.72,249.53,332.72,249.64Z" transform="translate(-5.66 -21.89)"/><path class="cls-11" d="M331.93,255.14c0,.11-14.9.21-33.28.21s-33.28-.1-33.28-.21,14.9-.22,33.28-.22S331.93,255,331.93,255.14Z" transform="translate(-5.66 -21.89)"/><path class="cls-11" d="M304.67,260.37c0,.12-8.8.22-19.65.22s-19.65-.1-19.65-.22,8.8-.21,19.65-.21S304.67,260.26,304.67,260.37Z" transform="translate(-5.66 -21.89)"/><path class="cls-3" d="M302.84,283.75c0,.12-8.39.21-18.73.21s-18.74-.09-18.74-.21,8.39-.21,18.74-.21S302.84,283.63,302.84,283.75Z" transform="translate(-5.66 -21.89)"/><path class="cls-11" d="M332.72,291.44c0,.12-15.08.21-33.67.21s-33.68-.09-33.68-.21,15.08-.21,33.68-.21S332.72,291.32,332.72,291.44Z" transform="translate(-5.66 -21.89)"/><path class="cls-11" d="M331.93,296.93c0,.12-14.9.22-33.28.22s-33.28-.1-33.28-.22,14.9-.21,33.28-.21S331.93,296.82,331.93,296.93Z" transform="translate(-5.66 -21.89)"/><path class="cls-11" d="M304.67,302.17c0,.12-8.8.22-19.65.22s-19.65-.1-19.65-.22,8.8-.21,19.65-.21S304.67,302.05,304.67,302.17Z" transform="translate(-5.66 -21.89)"/><path class="cls-3" d="M302.84,325.26c0,.11-8.39.21-18.73.21s-18.74-.1-18.74-.21,8.39-.22,18.74-.22S302.84,325.14,302.84,325.26Z" transform="translate(-5.66 -21.89)"/><path class="cls-11" d="M332.72,333c0,.11-15.08.21-33.67.21s-33.68-.1-33.68-.21,15.08-.22,33.68-.22S332.72,332.83,332.72,333Z" transform="translate(-5.66 -21.89)"/><path class="cls-11" d="M331.93,338.44c0,.12-14.9.21-33.28.21s-33.28-.09-33.28-.21,14.9-.21,33.28-.21S331.93,338.32,331.93,338.44Z" transform="translate(-5.66 -21.89)"/><path class="cls-11" d="M304.67,343.68c0,.12-8.8.21-19.65.21s-19.65-.09-19.65-.21,8.8-.22,19.65-.22S304.67,343.56,304.67,343.68Z" transform="translate(-5.66 -21.89)"/><rect class="cls-15" x="228.97" y="154.34" width="22.94" height="30.52" transform="translate(63.84 387.2) rotate(-89.68)"/><g class="cls-5"><polygon points="219.45 159.1 230.19 144.9 236.75 153.85 241.25 149.11 249.98 159.27 219.45 159.1"/></g><g class="cls-5"><path d="M245.27,165.09a2.41,2.41,0,1,1-2.39-2.41A2.4,2.4,0,0,1,245.27,165.09Z" transform="translate(-5.66 -21.89)"/></g><rect class="cls-15" x="228.97" y="195.61" width="22.94" height="30.52" transform="translate(22.57 428.24) rotate(-89.68)"/><g class="cls-5"><polygon points="219.45 200.36 230.19 186.16 236.75 195.12 241.25 190.38 249.98 200.53 219.45 200.36"/></g><g class="cls-5"><path d="M245.27,206.36a2.41,2.41,0,1,1-2.39-2.42A2.4,2.4,0,0,1,245.27,206.36Z" transform="translate(-5.66 -21.89)"/></g><rect class="cls-15" x="228.97" y="236.87" width="22.94" height="30.52" transform="translate(-18.69 469.27) rotate(-89.68)"/><g class="cls-5"><polygon points="219.45 241.63 230.19 227.43 236.75 236.39 241.25 231.64 249.98 241.8 219.45 241.63"/></g><g class="cls-5"><path d="M245.27,247.63a2.41,2.41,0,1,1-2.39-2.42A2.42,2.42,0,0,1,245.27,247.63Z" transform="translate(-5.66 -21.89)"/></g><rect class="cls-15" x="228.97" y="278.14" width="22.94" height="30.52" transform="translate(-59.96 510.31) rotate(-89.68)"/><g class="cls-5"><polygon points="219.45 282.89 230.19 268.69 236.75 277.65 241.25 272.91 249.98 283.06 219.45 282.89"/></g><g class="cls-5"><path d="M245.27,288.89a2.41,2.41,0,1,1-2.39-2.41A2.4,2.4,0,0,1,245.27,288.89Z" transform="translate(-5.66 -21.89)"/></g><rect class="cls-15" x="228.97" y="319.2" width="22.94" height="30.52" transform="translate(-101.02 551.15) rotate(-89.68)"/><g class="cls-5"><polygon points="219.45 323.96 230.19 309.76 236.75 318.72 241.25 313.97 249.98 324.13 219.45 323.96"/></g><g class="cls-5"><path d="M245.27,330a2.41,2.41,0,1,1-2.39-2.42A2.42,2.42,0,0,1,245.27,330Z" transform="translate(-5.66 -21.89)"/></g><circle class="cls-15" cx="454.67" cy="118.74" r="10.88" transform="translate(229.44 512.31) rotate(-76.78)"/><path class="cls-4" d="M454,122.28a.47.47,0,0,1-.31-.12l-3.67-3a.5.5,0,0,1,.64-.78l3.27,2.7,4.65-5.69a.52.52,0,0,1,.71-.07.5.5,0,0,1,.07.7l-5,6.08a.48.48,0,0,1-.34.18Z" transform="translate(-5.66 -21.89)"/><circle class="cls-15" cx="402.05" cy="81.93" r="14.92"/><path class="cls-4" d="M406.82,110.35a.91.91,0,0,1-.63-.26l-5-4.68a1.23,1.23,0,0,1-.14-1.59.92.92,0,0,1,1.41-.15l4.24,4,6.18-8.55a.91.91,0,0,1,1.4-.16,1.23,1.23,0,0,1,.14,1.59l-6.8,9.44a1,1,0,0,1-.68.41Z" transform="translate(-5.66 -21.89)"/></g><g id="Character"><path class="cls-16" d="M304.89,342.93s-16.57,7.52-16.52,6.91,1-15.41,1-15.41Z" transform="translate(-5.66 -21.89)"/><path class="cls-15" d="M324.76,433.43l-1.12,11.77L320,452.09a8.07,8.07,0,0,0,1.48,9.58l1.2,1.18,26.19-32-13.13-10.76Z" transform="translate(-5.66 -21.89)"/><polyline points="343.5 409.06 317.1 441.26 314.25 438.93 340.65 406.72 343.5 409.06"/><polygon class="cls-17" points="330.05 398.25 315.95 386.11 305.33 398.79 319.1 411.54 330.05 398.25"/><polygon class="cls-2" points="289.55 308.13 282.88 352.64 324.81 389.34 309.89 409.98 258.31 361.76 278.12 301.56 289.55 308.13"/><line class="cls-18" x1="304.7" y1="405.13" x2="319.09" y2="384.33"/><path class="cls-15" d="M228.86,442.72,218,447.43l-7.81.13a8.08,8.08,0,0,0-7.67,5.93l-.45,1.61,40.63,7.47,3.07-16.69Z" transform="translate(-5.66 -21.89)"/><polyline points="237.17 440.98 196.21 433.45 196.87 429.84 237.83 437.37 237.17 440.98"/><polygon class="cls-17" points="240.12 423.99 243.92 405.77 227.69 402.62 223.2 420.83 240.12 423.99"/><path class="cls-19" d="M257.16,314,225.31,434.37,251,441.46l22.37-72.07s23.78-43.13,25.85-57.91Z" transform="translate(-5.66 -21.89)"/><line class="cls-20" x1="221.26" y1="406.4" x2="247.28" y2="413.24"/><path class="cls-17" d="M205.89,218.09a9.17,9.17,0,1,0,13-.36A9.18,9.18,0,0,0,205.89,218.09Z" transform="translate(-5.66 -21.89)"/><path d="M201.2,198.31h0a1.77,1.77,0,0,0-.59,2.42L215,224.4a1.77,1.77,0,0,0,2.42.58h0a1.76,1.76,0,0,0,.59-2.42l-14.41-23.67A1.77,1.77,0,0,0,201.2,198.31Z" transform="translate(-5.66 -21.89)"/><polyline class="cls-17" points="220.41 224.48 210.34 207.75 202.36 210.5 209.77 228.94"/><path class="cls-15" d="M262.78,225.75s-7.27,2.36-19,21.75l-8.08,12.82L224.72,235.9l-18.14,5.82,16.7,37.44A11.9,11.9,0,0,0,242,283.25l8.67-7.62Z" transform="translate(-5.66 -21.89)"/><line class="cls-21" x1="203.84" y1="226.37" x2="222.26" y2="221.16"/><line class="cls-21" x1="230.01" y1="238.43" x2="232.78" y2="246.74"/><path class="cls-15" d="M267.71,224.14s-13-.56-15.82,25.89-9.1,83.69-9.1,83.69l17,4,10.47-100.62Z" transform="translate(-5.66 -21.89)"/><path class="cls-4" d="M290.32,224s-5.78-2.86-15.83-1.6S260,236.18,259.31,244.7s-3.39,73.05-3.39,73.05l34.83-.16Z" transform="translate(-5.66 -21.89)"/><path class="cls-15" d="M284.51,222.47s7.57-.38,18.69,10.81a4.08,4.08,0,0,1,1.19,2.83l.5,106.82s-18.36,1.9-36.75-5.26Z" transform="translate(-5.66 -21.89)"/><line class="cls-21" x1="243.29" y1="255.26" x2="246.86" y2="223.6"/><path class="cls-17" d="M364,327.67a9.18,9.18,0,1,0-12.88,1.58A9.18,9.18,0,0,0,364,327.67Z" transform="translate(-5.66 -21.89)"/><polyline class="cls-17" points="335.53 279.53 347.14 295.23 354.82 291.74 345.7 274.08"/><path class="cls-15" d="M288.15,223.14s43.34,15.35,73.91,82.44l-22.66,7.85s-21.7-45.25-49.22-60.14C290.18,253.29,278.91,238,288.15,223.14Z" transform="translate(-5.66 -21.89)"/><path class="cls-21" d="M304.52,264s-7.06-8.21-14.34-10.68" transform="translate(-5.66 -21.89)"/><line class="cls-21" x1="330.19" y1="284.73" x2="353.2" y2="276.95"/><path class="cls-17" d="M282.6,223.52l-.17-17.73-14.91.14.16,17.73c0,4.12,2.12,7.43,6.24,7.39h1.29A7.46,7.46,0,0,0,282.6,223.52Z" transform="translate(-5.66 -21.89)"/><path class="cls-22" d="M283,206.54s.23,18.05-15.36,19l0-10.35Z" transform="translate(-5.66 -21.89)"/><path class="cls-22" d="M250.34,202a4.9,4.9,0,1,0,5.06-4.74A4.9,4.9,0,0,0,250.34,202Z" transform="translate(-5.66 -21.89)"/><path class="cls-17" d="M262.22,186.74H274.5a8.66,8.66,0,0,1,8.66,8.66v22a4,4,0,0,1-4,4H255.8a2.24,2.24,0,0,1-2.24-2.24v-23.8a8.67,8.67,0,0,1,8.67-8.67Z" transform="translate(524.12 395.11) rotate(-178.09)"/><path class="cls-23" d="M266.53,200.65a1.18,1.18,0,0,0,1.23,1.14,1.19,1.19,0,1,0-.1-2.37A1.18,1.18,0,0,0,266.53,200.65Z" transform="translate(-5.66 -21.89)"/><path class="cls-23" d="M256.4,200.28a1.18,1.18,0,1,0,1.13-1.23A1.18,1.18,0,0,0,256.4,200.28Z" transform="translate(-5.66 -21.89)"/><path class="cls-22" d="M262.09,207.35a2.25,2.25,0,0,1-1.18-.4,2,2,0,0,1-.78-1.33l.45-5a.48.48,0,0,1,.95.08l-.46,4.9h0a1.12,1.12,0,0,0,.4.58,2.18,2.18,0,0,0,1.74.11.48.48,0,0,1,.57.35.47.47,0,0,1-.35.57A4.31,4.31,0,0,1,262.09,207.35Z" transform="translate(-5.66 -21.89)"/><path class="cls-23" d="M271,197.23h-.22l-5.36-.38a1.09,1.09,0,1,1,.15-2.17l5.36.38a1.09,1.09,0,0,1,.07,2.16Z" transform="translate(-5.66 -21.89)"/><path class="cls-23" d="M258.8,196.6h-.22l-3.28-.23a1.09,1.09,0,0,1,.15-2.17l3.28.23a1.09,1.09,0,0,1,.07,2.16Z" transform="translate(-5.66 -21.89)"/><path class="cls-23" d="M278.3,197.82l-.27,9.46a4.81,4.81,0,0,1-2.29,4.09c-.91.53-1.64,1.27-3.17.92-4.28-1-2-3.71-10.87-3.93-8.09-.21-7.84,4-7.84,4s.88,8.64,11.91,9.94,17.09-5.25,16.57-14.68l.74-9.42Z" transform="translate(-5.66 -21.89)"/><path class="cls-23" d="M278.3,197.82s-1.29-7.52,9.19-5.76c0,0-.05,4.91-1.07,7.53l-5.09,0Z" transform="translate(-5.66 -21.89)"/><path class="cls-17" d="M282.25,200.89a5.53,5.53,0,1,0,6.49-4.37A5.52,5.52,0,0,0,282.25,200.89Z" transform="translate(-5.66 -21.89)"/><path class="cls-15" d="M270.34,177.55c13.75.36,16.78,8.26,17,14.49l-33.06-3.38C255.35,183.78,258.89,177.24,270.34,177.55Z" transform="translate(-5.66 -21.89)"/><path class="cls-24" d="M287.34,192c0,.69,0,1.36,0,2l-47.17-4.58a1.13,1.13,0,0,1-1-1.34h0a1.12,1.12,0,0,1,1.21-.9Z" transform="translate(-5.66 -21.89)"/><path class="cls-15" d="M406.19,367.1l3.92,4.27,5.49-4.94-4.16-4.28a3.61,3.61,0,0,0-5.09-.1h0A3.61,3.61,0,0,0,406.19,367.1Z" transform="translate(-5.66 -21.89)"/><path class="cls-15" d="M447.55,378.85l-4.9,4.68,46.12,50,5.37-4.92a4.79,4.79,0,0,0,.26-6.8l-40-42.78A4.8,4.8,0,0,0,447.55,378.85Z" transform="translate(-5.66 -21.89)"/><rect class="cls-25" x="379.76" y="314.64" width="2.91" height="69.54" transform="translate(-141.56 327.39) rotate(-42.49)"/><path class="cls-23" d="M358.64,324.89a3.87,3.87,0,1,1,.29-5.46A3.86,3.86,0,0,1,358.64,324.89Z" transform="translate(-5.66 -21.89)"/><path class="cls-24" d="M397.39,380l23-18.63a7.93,7.93,0,0,1,10.82.8L487.91,424a7.92,7.92,0,0,1-.44,11.15L464.24,456.7Z" transform="translate(-5.66 -21.89)"/><path class="cls-23" d="M475.17,452.71a10.55,10.55,0,1,1-10-11.09A10.54,10.54,0,0,1,475.17,452.71Z" transform="translate(-5.66 -21.89)"/><path class="cls-26" d="M469.05,452.39a4.42,4.42,0,1,1-4.18-4.65A4.42,4.42,0,0,1,469.05,452.39Z" transform="translate(-5.66 -21.89)"/><path class="cls-27" d="M418.42,57a13.19,13.19,0,0,1,11.1-8.6A13.2,13.2,0,0,1,455,45a16.91,16.91,0,0,1,20.83,11.37L499,58.74h-91.9Z" transform="translate(-5.66 -21.89)"/><path class="cls-27" d="M139.78,42.4a13.19,13.19,0,0,1,11.1-8.6,13.2,13.2,0,0,1,25.46-3.45,17.13,17.13,0,0,1,4.62-.64,16.92,16.92,0,0,1,16.2,12l23.21,2.41h-91.9Z" transform="translate(-5.66 -21.89)"/><path class="cls-27" d="M37.6,81.81A13.2,13.2,0,0,1,48.7,73.2a13.2,13.2,0,0,1,25.46-3.44,16.69,16.69,0,0,1,4.62-.65,16.94,16.94,0,0,1,16.2,12l23.21,2.42H26.29Z" transform="translate(-5.66 -21.89)"/><path class="cls-27" d="M480.14,142.68a13.2,13.2,0,0,1,11.1-8.6,13.2,13.2,0,0,1,25.46-3.45A17,17,0,0,1,537.53,142l23.2,2.42h-91.9Z" transform="translate(-5.66 -21.89)"/></g></svg>